<svg id="svg" xmlns="http://www.w3.org/2000/svg" xmlns:xlink="http://www.w3.org/1999/xlink" width="400" height="739.3939393939394" viewBox="0, 0, 400,739.3939393939394"><g id="svgg"><path id="path0" d="M339.669 249.311 C 332.828 258.918,333.179 261.523,340.400 254.739 C 344.367 251.012,347.844 249.744,351.185 250.804 C 357.027 252.658,355.657 258.379,348.952 260.133 C 346.394 260.802,343.224 264.182,341.907 267.644 C 340.591 271.107,338.375 273.939,336.982 273.939 C 335.590 273.939,331.834 279.667,328.636 286.667 C 323.314 298.317,322.809 298.779,322.676 292.121 C 322.596 288.121,324.708 280.050,327.369 274.184 C 330.030 268.319,331.715 263.028,331.113 262.427 C 325.837 257.150,315.725 285.201,313.663 310.831 C 310.815 346.229,287.068 379.691,275.895 364.051 C 268.760 354.063,247.061 341.815,236.698 341.925 C 211.954 342.187,191.490 346.110,183.626 352.099 C 179.298 355.394,173.247 358.884,170.179 359.854 C 163.011 362.120,150.303 374.509,150.303 379.230 C 150.303 390.295,142.114 399.561,124.174 408.794 C 110.015 416.081,104.393 420.584,99.054 428.916 C 91.467 440.758,92.072 446.353,99.794 435.753 C 102.463 432.089,105.746 429.091,107.090 429.091 C 108.433 429.091,113.921 425.334,119.285 420.743 C 134.356 407.843,146.854 403.020,162.424 404.095 C 169.758 404.601,179.409 404.970,183.872 404.915 C 189.106 404.850,194.551 406.972,199.210 410.892 C 203.182 414.235,207.412 416.970,208.609 416.970 C 211.352 416.970,218.977 431.419,216.426 431.783 C 215.392 431.931,211.818 431.855,208.485 431.614 L 202.424 431.177 208.485 435.337 C 221.463 444.246,223.021 454.451,211.832 457.259 C 208.658 458.056,206.061 460.299,206.061 462.244 C 206.061 464.678,207.573 465.301,210.909 464.242 C 216.378 462.507,216.849 463.733,213.278 470.407 C 211.309 474.086,211.809 475.672,215.702 478.104 C 218.399 479.788,220.606 482.120,220.606 483.286 C 220.606 484.452,217.917 483.644,214.631 481.491 C 205.890 475.764,202.838 476.488,204.686 483.851 C 206.185 489.823,205.895 490.046,198.675 488.460 L 191.090 486.794 195.218 493.094 C 197.488 496.559,201.402 499.394,203.915 499.394 C 206.730 499.394,208.485 501.100,208.485 503.838 C 208.485 509.981,205.903 511.978,202.072 508.799 C 200.300 507.328,197.290 506.723,195.383 507.455 C 191.374 508.993,187.716 501.742,191.363 499.488 C 192.780 498.612,191.292 495.278,187.809 491.521 C 184.514 487.967,181.818 483.983,181.818 482.668 C 181.818 481.352,179.394 478.577,176.430 476.501 C 173.467 474.425,172.081 472.727,173.351 472.727 C 176.777 472.727,142.572 441.449,137.273 439.737 C 134.773 438.930,132.046 439.335,131.212 440.639 C 129.639 443.099,113.904 442.974,109.850 440.469 C 99.882 434.309,53.890 480.509,44.450 506.166 C 17.574 579.209,56.413 613.719,141.555 592.448 C 160.425 587.733,158.828 587.729,175.011 592.531 C 190.041 596.991,204.956 595.052,210.924 587.861 C 212.575 585.871,217.425 584.242,221.699 584.242 C 232.812 584.242,252.121 571.019,252.121 563.408 C 252.121 556.253,254.108 556.162,266.722 562.737 C 336.968 599.351,412.499 466.290,360.336 397.817 C 348.591 382.400,339.943 378.182,320.078 378.182 C 305.236 378.182,302.513 376.368,309.120 370.885 C 323.713 358.774,330.634 343.810,332.126 321.142 L 333.597 298.783 348.745 275.110 C 363.852 251.500,365.587 244.848,356.638 244.848 C 354.039 244.848,350.310 244.234,348.352 243.482 C 346.165 242.643,342.815 244.892,339.669 249.311 M325.891 307.604 C 326.622 308.786,325.595 311.102,323.610 312.749 C 320.606 315.242,320.000 314.882,320.000 310.600 C 320.000 305.399,323.445 303.647,325.891 307.604 M321.442 327.879 C 321.063 333.545,320.583 340.091,320.376 342.424 C 320.169 344.758,318.561 346.667,316.802 346.667 C 314.094 346.667,315.852 329.950,319.797 318.182 C 321.076 314.366,321.987 319.734,321.442 327.879 M252.833 352.857 C 260.253 357.899,264.110 366.837,256.959 362.417 C 255.803 361.703,251.074 363.245,246.449 365.842 C 237.676 370.770,234.578 370.375,236.790 364.611 C 237.596 362.510,236.508 361.212,233.939 361.212 C 231.282 361.212,230.277 362.495,231.150 364.771 C 231.901 366.728,231.465 368.979,230.180 369.773 C 228.896 370.567,227.190 369.511,226.390 367.426 C 225.590 365.342,222.390 363.636,219.278 363.636 C 216.166 363.636,212.945 362.545,212.121 361.212 C 208.083 354.678,192.423 358.668,184.781 368.178 C 177.311 377.473,157.576 382.087,157.576 374.538 C 157.576 367.573,192.637 350.311,209.697 348.877 C 241.436 346.209,243.304 346.382,252.833 352.857 M210.751 364.659 C 212.959 367.318,212.900 369.245,210.494 373.097 C 206.796 379.018,201.934 381.311,199.935 378.076 C 197.215 373.676,193.608 375.743,195.208 380.784 C 196.294 384.206,195.380 386.852,192.345 389.071 C 189.893 390.864,188.822 393.238,189.966 394.347 C 191.109 395.456,193.695 393.909,195.712 390.909 C 200.051 384.455,206.374 383.960,214.708 389.420 C 222.744 394.686,216.456 403.466,206.208 401.289 C 194.010 398.698,173.145 396.734,161.943 397.122 C 147.887 397.609,145.630 394.580,154.157 386.677 C 162.174 379.247,169.697 378.655,169.697 385.455 C 169.697 388.121,170.661 390.303,171.838 390.303 C 173.016 390.303,174.551 388.121,175.248 385.455 C 175.945 382.788,178.254 380.606,180.379 380.606 C 182.504 380.606,184.242 378.767,184.242 376.520 C 184.242 365.277,203.947 356.460,210.751 364.659 M256.515 370.758 C 257.121 372.576,256.212 373.485,254.394 372.879 C 252.644 372.295,250.735 370.386,250.152 368.636 C 249.545 366.818,250.455 365.909,252.273 366.515 C 254.023 367.098,255.932 369.008,256.515 370.758 M276.362 372.669 C 279.673 376.880,280.554 379.613,278.789 380.202 C 275.864 381.177,264.242 371.478,264.242 368.062 C 264.242 363.689,271.454 366.431,276.362 372.669 M234.258 376.970 C 233.453 379.258,223.338 379.298,221.062 377.022 C 220.482 376.442,220.625 374.356,221.380 372.388 C 223.002 368.162,235.759 372.701,234.258 376.970 M222.545 381.091 C 229.825 388.370,224.521 389.885,215.758 383.030 C 210.090 378.597,210.019 378.286,214.667 378.236 C 217.400 378.206,220.945 379.491,222.545 381.091 M260.260 381.818 C 262.260 383.818,264.636 385.455,265.541 385.455 C 266.445 385.455,266.557 383.818,265.790 381.818 C 264.236 377.769,267.945 376.791,270.315 380.625 C 271.695 382.859,266.310 390.303,263.314 390.303 C 262.612 390.303,259.311 387.576,255.978 384.242 C 252.123 380.388,251.138 378.182,253.270 378.182 C 255.115 378.182,258.260 379.818,260.260 381.818 M333.535 382.704 C 332.822 383.857,328.416 385.421,323.744 386.180 C 314.690 387.649,298.157 398.750,298.219 403.318 C 298.239 404.826,299.271 404.456,300.511 402.494 C 301.752 400.533,303.527 399.689,304.456 400.618 C 306.979 403.141,300.316 410.104,296.705 408.719 C 294.640 407.926,294.089 408.846,295.081 411.430 C 295.985 413.786,295.591 414.729,294.090 413.801 C 291.408 412.143,284.674 424.020,282.644 433.988 C 281.960 437.348,279.188 442.471,276.484 445.373 C 273.544 448.529,272.186 452.262,273.107 454.660 C 273.953 456.866,273.639 459.379,272.408 460.245 C 268.707 462.848,261.818 488.190,261.818 499.203 C 261.818 506.351,260.893 509.191,258.788 508.500 C 254.669 507.147,253.514 495.073,257.091 490.762 C 259.448 487.923,259.083 487.273,255.136 487.273 C 245.360 487.273,243.443 499.980,251.833 509.166 C 261.571 519.828,265.239 529.213,262.917 537.529 C 261.315 543.266,260.888 543.537,259.983 539.394 C 259.400 536.727,257.938 533.509,256.734 532.242 C 255.530 530.976,254.545 527.430,254.545 524.364 C 254.545 521.169,253.079 518.788,251.111 518.788 C 249.222 518.788,247.190 517.424,246.595 515.758 C 245.999 514.091,244.813 513.368,243.958 514.152 C 243.103 514.935,244.158 519.094,246.303 523.394 C 250.262 531.329,249.706 535.123,245.010 532.221 C 243.588 531.342,242.424 528.107,242.424 525.032 C 242.424 521.958,240.239 516.664,237.569 513.270 C 234.850 509.813,233.370 505.389,234.204 503.215 C 235.023 501.079,234.400 497.773,232.818 495.867 C 216.937 476.732,246.708 399.593,273.014 391.717 C 275.838 390.871,280.098 388.025,282.480 385.393 C 287.020 380.377,336.587 377.766,333.535 382.704 M254.194 389.133 C 257.334 392.443,258.940 395.152,257.764 395.152 C 254.421 395.152,244.848 387.862,244.848 385.317 C 244.848 381.456,248.216 382.831,254.194 389.133 M244.728 391.387 C 250.113 397.119,250.152 397.465,245.892 401.690 C 241.808 405.739,241.601 405.749,243.088 401.823 C 244.200 398.886,242.856 396.382,238.710 393.665 C 235.419 391.509,232.727 388.780,232.727 387.600 C 232.727 383.465,239.207 385.510,244.728 391.387 M353.334 395.758 C 363.411 406.035,370.909 421.999,370.909 433.175 C 370.909 441.941,366.922 437.849,365.210 427.326 C 363.651 417.744,350.295 396.907,341.125 389.751 C 337.163 386.659,336.736 385.548,339.495 385.508 C 341.551 385.479,347.779 390.091,353.334 395.758 M275.690 398.694 C 271.721 401.596,271.864 401.926,277.573 403.017 C 284.615 404.363,287.462 401.757,282.997 398.051 C 280.898 396.309,278.685 396.504,275.690 398.694 M238.944 411.869 C 238.034 413.341,236.081 414.545,234.604 414.545 C 233.128 414.545,232.556 413.909,233.333 413.131 C 234.111 412.354,232.617 409.586,230.013 406.982 C 227.408 404.378,225.997 401.083,226.877 399.659 C 227.876 398.044,230.753 399.348,234.537 403.132 C 237.870 406.466,239.853 410.397,238.944 411.869 M157.576 409.697 C 157.576 411.030,160.030 412.105,163.030 412.084 C 167.441 412.054,167.789 411.597,164.848 409.697 C 160.148 406.660,157.576 406.660,157.576 409.697 M262.670 410.845 C 263.424 412.810,262.177 415.619,259.899 417.089 C 256.149 419.507,256.188 419.624,260.307 418.323 C 262.810 417.533,266.559 418.269,268.640 419.958 C 271.860 422.573,272.175 422.369,270.757 418.590 C 269.841 416.147,269.091 412.602,269.091 410.711 C 269.091 408.820,267.338 407.273,265.195 407.273 C 262.759 407.273,261.813 408.611,262.670 410.845 M181.976 417.211 C 178.730 418.508,174.639 419.018,172.886 418.345 C 167.089 416.121,169.575 419.206,176.439 422.756 C 183.869 426.598,191.515 424.217,191.515 418.061 C 191.515 414.042,190.201 413.925,181.976 417.211 M152.722 426.410 C 156.852 427.559,159.266 430.373,160.314 435.260 C 161.760 442.000,161.868 442.058,162.137 436.242 C 162.484 428.774,158.361 424.157,151.636 424.484 C 147.470 424.687,147.645 424.998,152.722 426.410 M191.796 431.072 C 191.610 433.194,189.791 433.719,186.380 432.636 C 182.667 431.458,181.547 431.916,182.338 434.291 C 182.940 436.098,185.446 437.966,187.908 438.443 C 197.842 440.369,202.335 458.182,192.887 458.182 C 189.492 458.182,179.759 448.459,179.541 444.848 C 179.393 442.403,174.854 441.354,171.540 443.001 C 170.553 443.491,171.917 446.222,174.570 449.070 C 177.223 451.918,179.394 455.981,179.394 458.100 C 179.394 460.219,181.672 463.903,184.456 466.287 C 189.403 470.523,189.478 470.494,187.743 465.027 C 186.154 460.022,186.392 459.784,189.993 462.773 C 192.272 464.665,193.739 468.827,193.373 472.365 C 192.911 476.835,194.018 478.879,197.257 479.541 C 200.552 480.214,201.233 479.577,199.756 477.203 C 197.325 473.297,198.350 462.927,201.552 459.020 C 204.308 455.656,201.617 443.391,197.379 440.000 C 195.712 438.667,193.837 435.394,193.213 432.727 C 192.589 430.061,191.951 429.316,191.796 431.072 M272.831 433.772 C 270.482 437.573,274.951 438.496,278.277 434.897 C 280.845 432.119,280.762 431.515,277.814 431.515 C 275.841 431.515,273.598 432.531,272.831 433.772 M373.333 453.146 C 373.333 488.353,340.457 552.770,322.515 552.716 C 320.064 552.709,321.486 550.176,326.667 545.320 C 331.000 541.259,334.545 536.663,334.545 535.107 C 334.545 533.552,330.396 536.607,325.324 541.897 C 320.251 547.187,316.353 552.100,316.661 552.814 C 316.968 553.528,315.391 554.322,313.155 554.577 C 310.920 554.833,305.032 555.728,300.071 556.566 C 285.943 558.953,260.584 525.544,271.434 518.838 C 273.426 517.607,274.030 514.632,273.067 510.793 C 271.759 505.583,272.237 504.885,276.369 505.966 C 281.037 507.186,281.072 506.924,277.427 498.201 C 275.353 493.236,274.040 488.789,274.509 488.319 C 276.507 486.321,286.061 490.535,286.061 493.414 C 286.061 499.528,292.173 498.524,296.328 491.728 C 298.642 487.944,301.775 484.848,303.292 484.848 C 305.263 484.848,305.208 485.861,303.098 488.403 C 298.721 493.677,300.934 497.832,306.092 494.023 C 310.774 490.567,320.000 467.310,320.000 458.965 C 320.000 456.025,321.257 452.843,322.793 451.893 C 326.585 449.550,323.541 468.429,318.370 479.327 C 314.159 488.200,316.098 493.464,321.072 486.663 C 322.776 484.332,325.895 482.424,328.003 482.424 C 330.111 482.424,332.480 481.381,333.268 480.106 C 334.056 478.831,336.204 478.364,338.040 479.069 C 340.021 479.829,342.047 478.250,343.019 475.188 C 344.345 471.009,352.742 465.455,357.734 465.455 C 360.700 465.455,357.936 475.498,351.451 488.287 C 343.977 503.025,343.439 514.787,350.507 508.922 C 352.395 507.355,353.939 504.466,353.939 502.502 C 353.939 500.537,356.293 495.625,359.169 491.586 C 362.862 486.400,365.120 477.953,366.855 462.839 C 369.297 441.562,373.333 435.522,373.333 453.146 M142.022 456.015 C 158.134 467.199,167.797 476.814,172.825 486.665 C 187.436 515.294,187.879 516.659,187.872 533.075 C 187.863 552.170,185.371 556.372,172.641 558.751 C 167.688 559.677,162.226 561.599,160.503 563.023 C 158.352 564.801,156.587 564.830,154.871 563.114 C 152.355 560.598,165.916 550.303,171.745 550.303 C 174.981 550.303,183.041 538.597,181.125 536.680 C 180.382 535.938,175.053 538.011,169.281 541.288 C 163.510 544.565,152.381 549.827,144.551 552.981 C 132.821 557.705,131.282 558.944,135.814 560.013 C 140.949 561.225,140.680 561.731,131.773 567.625 C 110.866 581.461,69.650 579.528,57.630 564.147 C 54.234 559.802,53.431 559.552,53.387 562.827 C 53.183 578.163,119.812 593.427,128.140 579.952 C 129.186 578.259,132.662 577.168,135.862 577.528 C 140.189 578.014,141.700 576.991,141.750 573.542 C 141.788 570.990,143.356 568.387,145.235 567.757 C 147.585 566.969,148.176 567.849,147.129 570.578 C 144.826 576.579,150.898 575.532,167.948 566.986 C 182.847 559.518,182.961 559.501,177.295 565.623 C 156.701 587.873,93.719 599.389,65.002 586.156 C 25.222 567.824,36.211 499.128,85.120 460.391 C 106.609 443.371,122.091 442.181,142.022 456.015 M240.000 455.273 C 240.000 459.006,239.050 463.097,237.889 464.364 C 233.730 468.901,232.613 479.437,236.147 480.794 C 240.539 482.479,249.697 480.073,249.697 477.233 C 249.697 476.022,252.424 473.995,255.758 472.727 C 259.901 471.152,261.818 468.581,261.818 464.599 C 261.818 461.396,263.455 457.417,265.455 455.758 C 269.715 452.222,270.221 448.485,266.440 448.485 C 264.982 448.485,263.194 450.759,262.467 453.538 C 261.489 457.277,260.637 457.768,259.189 455.427 C 258.114 453.686,256.387 453.108,255.354 454.141 C 254.320 455.175,254.913 456.911,256.672 457.998 C 261.528 460.999,258.855 468.988,252.703 469.866 C 249.716 470.292,247.273 471.655,247.273 472.896 C 247.273 474.136,245.114 475.152,242.476 475.152 C 238.232 475.152,238.000 474.449,240.457 469.056 C 242.436 464.712,244.511 463.366,247.678 464.371 C 250.769 465.352,252.121 464.556,252.121 461.755 C 252.121 459.540,249.878 457.141,247.136 456.424 C 244.178 455.651,242.668 453.771,243.423 451.803 C 244.123 449.978,243.640 448.485,242.348 448.485 C 241.057 448.485,240.000 451.539,240.000 455.273 M93.472 471.713 C 89.540 474.589,89.418 475.152,92.727 475.152 C 94.903 475.152,97.403 473.988,98.281 472.566 C 100.851 468.408,98.550 468.000,93.472 471.713 M330.303 485.721 C 324.970 488.362,322.688 494.545,327.046 494.545 C 328.254 494.545,328.672 496.727,327.975 499.394 C 327.223 502.270,327.901 504.242,329.641 504.242 C 331.255 504.242,333.146 502.061,333.843 499.394 C 334.540 496.727,336.075 494.545,337.252 494.545 C 338.430 494.545,339.394 491.818,339.394 488.485 C 339.394 481.908,338.531 481.646,330.303 485.721 M297.497 520.281 C 296.676 521.102,292.403 522.535,288.002 523.465 L 280.000 525.156 286.606 526.472 C 291.196 527.387,294.454 526.416,297.284 523.289 C 300.949 519.240,301.132 516.646,297.497 520.281 M209.933 536.891 C 207.064 548.323,203.541 539.050,205.864 526.182 C 205.972 525.582,207.290 526.320,208.792 527.823 C 210.353 529.383,210.842 533.270,209.933 536.891 M49.418 531.974 C 48.682 533.893,49.080 537.251,50.302 539.435 C 52.029 542.521,52.525 541.742,52.525 535.946 C 52.525 527.827,51.508 526.527,49.418 531.974 M225.455 544.242 C 225.455 546.242,223.852 547.879,221.894 547.879 C 219.726 547.879,218.879 546.457,219.729 544.242 C 220.497 542.242,222.099 540.606,223.290 540.606 C 224.480 540.606,225.455 542.242,225.455 544.242 M278.199 554.124 C 275.813 556.510,271.515 552.848,271.515 548.428 C 271.515 544.728,271.834 544.734,275.613 548.514 C 277.867 550.768,279.031 553.292,278.199 554.124 M74.191 551.734 C 72.172 556.996,75.150 561.477,77.842 557.229 C 80.572 552.919,80.568 547.879,77.835 547.879 C 76.644 547.879,75.005 549.614,74.191 551.734 M201.212 562.424 C 201.212 565.091,200.248 567.273,199.071 567.273 C 197.893 567.273,196.292 569.708,195.514 572.685 C 194.392 576.975,193.478 577.478,191.110 575.110 C 188.785 572.785,188.768 571.475,191.030 569.212 C 192.630 567.612,193.939 564.339,193.939 561.939 C 193.939 559.539,195.576 557.576,197.576 557.576 C 199.596 557.576,201.212 559.731,201.212 562.424 M198.788 584.242 C 198.788 585.576,196.542 586.667,193.796 586.667 C 191.051 586.667,189.479 585.576,190.303 584.242 C 191.127 582.909,193.373 581.818,195.295 581.818 C 197.216 581.818,198.788 582.909,198.788 584.242 " stroke="none" fill="#000000" fill-rule="evenodd"></path></g></svg>