<svg id="svg" xmlns="http://www.w3.org/2000/svg" xmlns:xlink="http://www.w3.org/1999/xlink" width="400" height="391.11111111111114" viewBox="0, 0, 400,391.11111111111114"><g id="svgg"><path id="path0" d="M243.188 31.576 C 235.853 32.493,223.375 38.524,217.762 43.865 C 204.588 56.402,178.295 98.595,169.210 121.778 C 164.711 133.258,159.662 152.375,159.410 158.884 C 159.324 161.115,159.182 161.084,157.274 158.428 C 155.759 156.318,154.667 155.864,154.667 157.344 C 154.667 157.882,155.091 158.405,155.722 158.645 C 156.302 158.866,157.205 159.740,157.729 160.588 C 161.398 166.525,163.331 164.454,163.693 154.198 C 164.116 142.200,167.513 130.058,174.623 115.128 C 176.782 110.597,179.020 105.789,179.596 104.444 C 180.173 103.100,181.260 101.383,182.012 100.629 C 182.763 99.875,183.745 98.275,184.192 97.074 C 185.300 94.100,189.905 85.493,190.091 86.050 C 190.173 86.297,189.358 88.386,188.280 90.694 C 187.203 93.001,184.686 99.289,182.688 104.667 C 180.690 110.044,178.387 116.044,177.570 118.000 C 172.581 129.947,168.444 147.460,168.444 156.632 C 168.444 157.745,168.221 158.177,167.556 158.351 C 166.095 158.733,166.334 161.225,167.889 161.835 L 169.111 162.314 168.000 162.747 C 167.389 162.986,166.105 163.318,165.146 163.486 C 163.292 163.810,162.382 164.889,163.963 164.889 C 164.643 164.889,164.889 165.171,164.889 165.952 C 164.889 166.537,165.189 167.131,165.556 167.272 C 166.497 167.633,166.392 168.298,165.030 170.624 L 163.837 172.659 162.831 170.364 L 161.825 168.069 160.233 168.557 C 158.516 169.084,156.062 167.137,156.018 165.213 C 156.008 164.780,155.500 164.198,154.889 163.919 C 154.059 163.541,153.774 163.065,153.763 162.040 C 153.748 160.681,152.484 158.667,151.646 158.667 C 151.407 158.667,151.080 159.550,150.918 160.630 C 150.756 161.710,150.298 162.860,149.901 163.186 C 149.259 163.712,149.218 163.655,149.528 162.667 C 150.101 160.843,150.369 155.111,149.881 155.111 C 149.640 155.111,149.349 156.245,149.235 157.630 C 148.807 162.785,143.556 164.402,143.556 159.378 C 143.556 157.912,145.201 154.964,146.585 153.952 C 147.723 153.120,145.777 152.767,143.731 153.435 C 138.712 155.074,139.093 164.404,144.242 165.940 C 147.379 166.875,147.556 167.021,147.556 168.667 C 147.556 169.919,147.785 170.346,148.678 170.753 C 149.296 171.034,149.735 171.380,149.655 171.521 C 147.846 174.700,147.722 177.228,149.354 177.654 C 150.425 177.935,150.427 178.018,149.383 179.061 C 148.922 179.522,147.922 181.904,147.161 184.353 C 145.666 189.167,145.426 190.714,146.476 188.778 C 147.386 187.100,147.870 187.242,148.509 189.373 C 148.907 190.702,148.923 191.399,148.568 191.968 C 147.807 193.186,147.373 197.612,147.977 197.986 C 148.356 198.220,148.343 198.475,147.927 198.977 C 147.468 199.530,147.504 199.752,148.128 200.208 C 149.192 200.986,149.128 202.667,148.034 202.667 C 146.948 202.667,146.387 200.915,145.992 196.287 C 145.792 193.949,145.546 192.943,145.247 193.242 C 144.742 193.746,144.692 194.836,145.034 197.889 C 145.163 199.050,145.134 199.990,144.968 199.978 C 144.137 199.919,139.004 196.929,139.701 196.910 C 141.256 196.869,143.137 194.464,142.827 192.915 C 142.631 191.934,142.772 191.287,143.311 190.691 C 143.735 190.222,143.992 189.393,143.892 188.814 C 143.720 187.827,143.695 187.820,143.344 188.667 C 143.142 189.156,142.725 189.856,142.417 190.222 C 142.110 190.589,141.791 191.353,141.707 191.919 C 141.560 192.916,141.387 192.956,136.345 193.147 C 131.596 193.326,131.160 193.278,131.422 192.595 C 131.636 192.039,131.529 191.915,131.009 192.115 C 130.186 192.430,128.667 191.443,128.667 190.592 C 128.667 190.267,127.922 189.603,127.013 189.115 C 124.990 188.031,123.891 188.487,120.023 192.014 C 117.532 194.285,117.453 194.839,119.556 195.257 C 120.167 195.378,119.367 195.411,117.778 195.329 C 113.694 195.118,105.364 200.294,100.583 206.013 C 98.923 208.000,90.173 213.990,86.987 215.321 C 85.433 215.970,84.595 216.743,85.003 217.151 C 85.488 217.636,91.314 214.516,95.353 211.609 C 97.771 209.868,100.056 208.438,100.430 208.431 C 100.805 208.423,102.906 206.823,105.099 204.875 C 110.161 200.379,111.081 200.286,106.556 204.729 C 102.699 208.514,102.746 208.444,104.079 208.444 C 104.725 208.444,107.095 206.429,111.204 202.384 L 117.361 196.324 120.569 196.595 C 122.334 196.744,126.028 197.000,128.778 197.163 C 131.528 197.326,133.778 197.601,133.778 197.773 C 133.778 198.503,140.730 202.278,142.529 202.525 C 144.646 202.815,145.151 203.560,143.222 203.548 C 142.550 203.544,140.206 203.246,138.014 202.887 C 134.492 202.310,133.986 202.311,133.659 202.895 C 133.456 203.258,132.710 203.556,132.002 203.556 C 131.108 203.556,130.538 203.877,130.135 204.608 C 129.816 205.187,127.386 208.237,124.733 211.386 C 122.081 214.535,118.544 219.111,116.872 221.556 C 114.877 224.473,112.793 226.875,110.806 228.547 C 109.140 229.948,106.578 232.102,105.111 233.333 C 103.644 234.564,102.142 235.853,101.773 236.196 C 101.403 236.540,99.253 237.575,96.995 238.497 C 92.986 240.134,91.974 240.889,93.788 240.889 C 95.010 240.889,101.584 237.541,103.776 235.802 C 104.755 235.026,106.139 234.026,106.852 233.581 C 107.565 233.136,110.048 231.298,112.371 229.497 C 116.777 226.080,117.333 225.787,117.333 226.889 C 117.333 227.256,117.556 227.556,117.827 227.556 C 118.147 227.556,118.222 227.028,118.040 226.057 C 117.700 224.246,121.225 218.630,127.977 210.222 C 132.954 204.025,132.955 204.025,138.823 205.848 C 143.934 207.436,147.001 207.421,150.193 205.793 L 152.100 204.820 150.841 203.505 L 149.581 202.190 150.785 201.206 C 152.192 200.057,152.971 196.909,153.777 189.111 C 154.056 186.422,154.566 183.422,154.912 182.444 C 155.258 181.467,155.594 178.917,155.660 176.778 C 155.793 172.389,156.177 172.080,159.678 173.543 C 163.742 175.240,165.218 188.435,162.018 194.454 C 161.241 195.914,161.019 196.752,161.325 197.059 C 162.020 197.753,161.863 198.667,161.049 198.667 C 160.217 198.667,159.148 199.900,159.123 200.889 C 159.113 201.256,158.814 202.115,158.458 202.798 C 157.850 203.964,157.870 204.064,158.794 204.420 C 159.692 204.767,159.708 204.828,158.974 205.124 C 158.533 205.302,158.274 205.716,158.399 206.043 C 158.525 206.370,158.415 206.770,158.155 206.930 C 157.840 207.125,157.880 207.344,158.274 207.588 C 158.738 207.874,158.643 208.190,157.835 209.050 C 157.130 209.800,156.896 210.434,157.094 211.057 C 157.310 211.738,156.908 212.481,155.494 214.016 L 153.605 216.065 153.415 223.720 C 153.255 230.209,153.374 232.211,154.200 236.868 L 155.175 242.360 149.844 253.067 C 146.912 258.955,144.589 263.848,144.681 263.940 C 145.522 264.782,147.088 263.292,148.227 260.565 C 148.919 258.910,151.051 254.229,152.965 250.164 C 154.879 246.098,156.444 242.614,156.444 242.421 C 156.444 242.228,156.769 241.711,157.166 241.273 C 157.806 240.565,157.831 239.934,157.387 235.682 C 157.112 233.046,156.881 230.589,156.874 230.222 C 156.864 229.719,156.688 229.774,156.156 230.444 C 155.500 231.273,155.473 231.152,155.763 228.667 C 155.934 227.200,156.207 223.632,156.370 220.738 C 156.653 215.718,156.723 215.429,157.889 214.426 C 158.561 213.849,159.111 213.166,159.111 212.910 C 159.111 212.654,159.387 212.444,159.725 212.444 C 160.078 212.444,160.545 211.627,160.824 210.520 C 161.346 208.445,163.913 205.333,165.101 205.333 C 165.673 205.333,165.762 205.033,165.541 203.854 C 165.341 202.788,165.521 201.915,166.187 200.729 C 166.695 199.824,167.111 198.412,167.111 197.590 C 167.111 196.616,167.365 195.998,167.838 195.816 C 168.484 195.568,168.492 195.451,167.906 194.769 C 166.570 193.212,166.605 192.900,168.282 191.363 L 169.949 189.836 169.114 188.286 C 168.110 186.421,168.419 185.887,171.520 184.126 C 174.855 182.232,175.643 180.701,173.326 180.619 C 172.590 180.593,171.580 180.202,171.080 179.750 C 170.333 179.074,170.021 179.023,169.315 179.464 C 168.843 179.759,168.132 180.000,167.736 180.000 C 167.262 180.000,167.108 180.240,167.286 180.703 C 167.434 181.090,167.556 181.590,167.556 181.814 C 167.556 182.665,168.484 182.175,168.889 181.111 C 169.377 179.828,169.722 179.750,170.915 180.653 C 171.390 181.011,172.128 181.311,172.556 181.319 C 174.318 181.351,168.707 185.333,166.900 185.333 C 166.772 185.333,166.667 183.937,166.667 182.231 C 166.667 178.786,167.252 178.228,170.239 178.825 C 171.764 179.131,171.811 179.025,170.823 177.518 C 170.028 176.304,172.498 172.765,173.466 173.732 C 174.068 174.334,173.406 175.917,172.422 176.229 C 171.447 176.539,171.373 176.818,172.015 177.778 C 172.405 178.361,172.536 178.347,173.057 177.667 C 173.385 177.239,174.116 176.889,174.682 176.889 L 175.711 176.889 174.744 177.918 C 173.637 179.096,173.529 179.556,174.361 179.556 C 174.682 179.556,175.388 178.956,175.930 178.222 C 177.393 176.243,177.799 176.608,176.653 178.872 C 174.790 182.551,174.774 188.889,176.628 188.889 C 177.894 188.889,178.321 190.076,177.573 191.521 C 176.785 193.046,177.780 195.884,179.441 196.852 C 180.183 197.284,180.183 197.307,179.444 197.320 C 178.442 197.337,178.457 197.429,179.766 199.358 C 180.371 200.249,180.984 201.708,181.129 202.600 C 181.706 206.143,181.868 206.636,182.805 207.694 C 189.223 214.935,189.778 215.452,189.778 214.203 C 189.778 213.754,186.902 210.061,183.756 206.471 C 182.913 205.508,182.230 204.508,182.240 204.249 C 182.273 203.403,188.518 210.316,196.897 220.473 C 211.400 238.052,213.643 240.916,215.355 244.040 C 217.686 248.292,218.667 249.152,218.667 246.943 C 218.667 244.525,217.853 242.968,213.762 237.556 C 211.729 234.867,209.487 231.567,208.779 230.222 C 208.072 228.878,207.073 227.329,206.561 226.781 C 206.049 226.234,205.603 225.425,205.571 224.984 C 205.484 223.812,204.421 222.501,202.777 221.541 C 201.982 221.076,201.219 220.339,201.080 219.901 C 200.941 219.464,200.372 218.557,199.815 217.886 C 199.258 217.216,198.669 216.121,198.506 215.453 C 198.080 213.710,195.050 210.169,190.444 206.035 C 188.244 204.060,185.244 201.369,183.778 200.054 C 180.775 197.362,183.027 198.932,187.778 202.842 C 190.494 205.077,191.464 204.986,190.194 202.614 C 189.756 201.796,189.794 201.532,190.415 201.078 C 191.088 200.585,190.983 200.384,189.386 199.100 C 186.547 196.819,184.917 191.917,185.929 188.707 C 186.893 185.647,186.887 185.579,185.346 182.322 C 184.353 180.223,184.097 179.179,184.312 178.106 L 184.598 176.679 183.521 177.408 C 182.104 178.368,182.281 179.548,184.222 182.090 C 186.628 185.242,185.901 188.232,181.542 193.111 C 179.730 195.139,180.073 194.191,182.404 190.727 C 184.667 187.365,184.680 184.453,182.444 181.778 C 181.589 180.754,180.889 179.474,180.889 178.934 C 180.889 178.394,181.589 177.274,182.444 176.444 C 184.602 174.353,184.441 173.904,181.300 173.255 C 178.733 172.725,178.613 172.642,178.864 171.571 C 179.571 168.562,179.644 167.086,179.117 166.451 C 177.909 164.997,190.483 151.673,198.133 146.301 C 201.759 143.755,203.340 142.405,201.111 143.757 C 196.570 146.513,190.413 151.392,185.688 155.980 C 182.689 158.891,180.192 161.229,180.137 161.174 C 179.071 160.108,195.207 146.242,202.938 141.581 C 206.359 139.518,206.363 139.520,205.091 142.899 C 203.672 146.671,203.715 148.313,205.333 152.000 C 206.067 153.671,206.667 155.445,206.667 155.943 C 206.667 156.440,207.567 157.735,208.667 158.819 C 209.767 159.904,210.667 161.094,210.667 161.463 C 210.667 161.833,211.366 162.705,212.221 163.401 C 213.163 164.169,213.881 165.216,214.044 166.064 L 214.314 167.461 201.935 170.508 C 191.785 173.007,189.921 173.579,191.582 173.688 C 193.699 173.825,198.932 172.706,208.637 170.038 C 215.095 168.263,214.986 168.261,213.904 170.146 C 213.157 171.448,213.155 171.602,213.869 172.984 C 214.285 173.787,214.684 174.930,214.757 175.524 C 214.879 176.528,215.197 176.655,219.213 177.316 C 223.858 178.079,225.294 178.827,223.817 179.713 C 223.349 179.993,222.649 180.522,222.261 180.889 C 221.671 181.447,220.132 181.530,212.849 181.399 C 207.466 181.302,202.970 181.441,201.071 181.764 C 199.382 182.051,196.500 182.443,194.667 182.634 C 191.411 182.973,187.599 184.191,188.130 184.722 C 188.276 184.869,189.343 184.666,190.500 184.272 C 193.749 183.165,194.105 183.390,192.074 185.265 C 191.056 186.205,190.222 187.246,190.222 187.577 C 190.222 187.909,190.972 187.457,191.889 186.573 C 195.601 182.992,198.608 182.282,210.478 182.183 C 220.081 182.102,223.147 183.432,222.411 187.357 C 222.227 188.339,222.438 189.470,223.073 190.906 C 223.736 192.406,223.872 193.174,223.543 193.571 C 223.012 194.211,223.896 196.433,225.858 199.386 C 227.434 201.760,230.322 202.853,241.603 205.344 C 255.006 208.305,267.948 212.897,277.950 218.241 L 282.199 220.511 281.287 221.745 C 280.512 222.793,280.439 223.240,280.805 224.712 C 281.415 227.173,281.096 232.221,280.253 233.425 C 279.029 235.172,281.527 239.111,283.858 239.111 C 284.538 239.111,284.660 237.075,284.005 236.670 C 283.734 236.502,283.827 235.999,284.247 235.357 C 284.678 234.701,284.822 233.889,284.639 233.158 C 284.391 232.169,284.493 232.000,285.340 232.000 C 286.167 232.000,286.240 231.891,285.782 231.338 C 285.429 230.914,285.340 230.105,285.532 229.082 C 285.724 228.055,285.634 227.251,285.277 226.821 C 284.881 226.343,284.863 226.068,285.216 225.851 C 285.486 225.683,285.840 225.018,286.002 224.371 C 286.165 223.724,286.681 223.095,287.149 222.972 C 288.029 222.742,288.373 220.728,287.613 220.258 C 285.644 219.041,288.026 210.567,290.512 209.943 C 293.403 209.218,294.801 211.779,292.623 213.811 C 288.136 218.000,289.004 223.762,294.716 227.712 C 298.020 229.996,298.490 230.099,297.845 228.395 C 296.441 224.682,296.958 220.856,299.357 217.222 C 300.873 214.926,301.967 215.037,304.651 217.762 C 307.018 220.165,307.032 220.456,304.897 223.111 C 303.561 224.772,302.903 229.023,303.540 231.877 C 304.044 234.135,304.020 234.255,302.665 236.225 C 300.222 239.775,298.983 243.022,298.763 246.449 L 298.560 249.612 301.058 252.310 C 304.061 255.553,304.032 255.128,301.444 257.980 C 298.071 261.698,294.222 269.607,294.222 272.819 C 294.222 275.375,297.438 281.778,298.721 281.778 C 300.157 281.778,299.421 283.402,296.713 286.206 C 294.140 288.872,292.444 291.498,292.444 292.818 C 292.444 293.039,293.448 294.475,294.674 296.010 C 297.322 299.322,297.307 300.027,294.650 297.145 C 291.963 294.229,290.468 294.261,290.969 297.222 C 291.879 302.599,290.962 304.451,287.395 304.438 C 283.823 304.425,281.923 302.422,284.780 301.682 C 286.336 301.278,288.149 298.989,288.698 296.735 C 288.868 296.040,289.577 295.124,290.275 294.700 L 291.544 293.928 290.430 291.742 C 288.871 288.682,284.938 283.473,284.426 283.789 C 284.192 283.934,284.000 285.529,284.000 287.333 C 284.000 289.138,283.797 290.740,283.549 290.893 C 283.301 291.046,282.811 291.858,282.460 292.697 C 281.943 293.934,281.581 294.222,280.541 294.222 C 278.223 294.222,274.020 293.203,272.955 292.384 C 270.265 290.312,268.020 290.880,268.007 293.636 C 267.999 295.230,265.876 295.135,264.671 293.486 C 263.948 292.497,258.639 292.071,257.128 292.880 C 256.341 293.301,255.889 293.305,255.129 292.898 C 253.551 292.054,253.614 292.583,255.552 296.437 C 256.558 298.439,257.310 300.292,257.222 300.555 C 257.135 300.818,256.215 299.403,255.178 297.410 C 252.985 293.194,252.842 293.095,248.422 292.691 L 245.067 292.385 241.892 295.748 C 237.774 300.111,237.001 300.020,231.943 294.584 C 230.374 292.898,230.187 292.801,230.390 293.778 L 230.621 294.889 229.751 293.835 C 229.273 293.256,228.459 291.356,227.941 289.613 C 226.956 286.295,225.775 284.328,225.781 286.016 C 225.799 290.445,229.618 298.557,233.873 303.200 C 237.091 306.713,241.403 305.195,244.450 299.477 C 245.831 296.886,247.107 295.886,248.444 296.346 C 250.736 297.135,260.000 305.574,260.000 306.873 C 260.000 307.573,259.585 307.340,257.889 305.692 C 251.426 299.409,247.618 299.919,242.730 307.723 L 241.373 309.890 242.296 311.723 C 243.532 314.174,250.601 321.091,254.333 323.501 C 257.746 325.704,257.711 325.626,256.234 327.803 C 253.293 332.136,256.354 339.052,262.444 341.835 C 266.212 343.557,272.267 342.114,273.878 339.111 C 275.276 336.507,277.971 334.222,279.649 334.221 C 280.453 334.220,281.766 333.820,282.566 333.332 C 283.367 332.844,284.717 332.444,285.566 332.444 C 286.972 332.444,287.111 332.329,287.111 331.164 C 287.111 327.002,294.536 325.109,300.556 327.737 C 304.633 329.517,304.619 329.537,301.755 326.110 C 299.051 322.874,299.265 322.423,303.469 322.496 C 306.983 322.558,310.272 323.704,314.174 326.226 C 316.783 327.912,317.930 328.977,324.589 335.894 C 328.689 340.152,331.343 341.166,354.036 347.139 C 360.299 348.788,361.072 348.643,355.437 346.876 C 333.087 339.869,316.889 327.668,316.889 317.840 C 316.889 312.308,320.708 308.143,322.167 312.085 C 322.489 312.956,322.542 312.967,322.826 312.227 C 323.015 311.733,322.727 310.633,322.078 309.378 C 321.496 308.253,320.883 306.766,320.715 306.073 C 320.546 305.379,319.487 303.827,318.361 302.624 L 316.314 300.435 316.570 296.149 C 316.857 291.345,318.272 287.797,321.161 284.643 C 322.702 282.961,323.417 282.838,325.956 283.820 C 328.418 284.772,325.795 277.585,322.182 273.482 C 318.732 269.563,318.422 268.705,319.053 264.805 C 319.877 259.710,321.567 256.702,323.703 256.527 C 325.107 256.411,325.349 256.255,325.082 255.638 C 324.904 255.226,324.169 252.889,323.448 250.444 C 321.859 245.058,320.857 243.653,316.986 241.384 C 310.786 237.750,309.644 235.201,311.609 229.382 C 312.387 227.079,312.698 226.629,313.387 226.809 C 314.588 227.124,314.539 227.024,311.087 222.126 C 309.362 219.680,308.012 217.627,308.087 217.563 C 308.161 217.500,309.782 216.991,311.689 216.431 C 315.790 215.227,317.445 213.333,314.397 213.333 C 313.130 213.333,312.551 212.470,313.377 211.814 C 313.719 211.542,314.307 210.723,314.682 209.996 C 315.578 208.258,316.468 208.148,318.154 209.566 C 318.915 210.207,319.741 210.604,319.991 210.450 C 320.650 210.043,320.546 209.333,319.827 209.333 C 317.698 209.333,315.839 204.317,316.917 201.481 C 317.429 200.135,320.017 198.993,321.670 199.384 L 322.889 199.673 321.444 198.149 C 318.980 195.548,319.881 193.159,322.857 194.402 C 325.121 195.348,325.227 195.306,323.966 193.964 C 323.048 192.987,322.889 192.379,322.889 189.853 L 322.889 186.889 324.597 186.055 C 325.969 185.385,326.257 185.035,326.062 184.277 C 325.290 181.268,325.263 180.843,325.796 180.200 C 326.189 179.727,326.761 179.603,327.653 179.799 L 328.942 180.082 328.637 177.381 C 328.094 172.587,329.602 170.618,332.918 171.788 C 334.884 172.482,336.032 172.329,334.173 171.621 C 333.589 171.399,332.361 170.903,331.444 170.520 L 329.778 169.823 329.778 166.860 C 329.778 163.913,329.784 163.898,330.926 164.116 C 331.928 164.307,332.040 164.215,331.796 163.390 C 330.675 159.588,330.633 155.558,331.714 155.553 C 334.852 155.538,340.385 159.349,339.097 160.637 C 338.433 161.300,338.587 163.176,339.377 164.048 C 340.345 165.117,339.809 165.778,337.974 165.778 C 336.485 165.778,335.970 166.321,336.910 166.902 C 337.187 167.073,337.335 168.666,337.275 170.842 C 337.219 172.850,337.322 174.733,337.502 175.025 C 337.683 175.317,337.609 175.556,337.339 175.556 C 335.406 175.556,333.506 181.452,335.118 182.449 C 336.052 183.026,335.045 183.475,333.690 183.086 C 331.970 182.593,331.859 182.683,332.411 184.134 C 333.057 185.833,331.838 188.147,330.515 187.736 C 329.591 187.448,329.584 187.470,330.333 188.309 C 331.344 189.442,331.317 190.342,330.243 191.314 C 329.268 192.197,329.413 194.506,330.499 195.382 C 331.690 196.343,331.245 197.454,329.756 197.235 C 327.772 196.944,324.314 199.992,324.733 201.662 C 324.942 202.493,324.795 202.970,324.195 203.408 C 323.398 203.991,323.403 204.045,324.343 204.985 C 325.541 206.183,329.168 206.168,330.061 204.961 C 330.684 204.117,332.444 198.976,332.444 197.998 C 332.444 197.641,333.344 196.410,334.444 195.262 C 335.919 193.723,336.446 192.816,336.452 191.809 C 336.485 186.023,338.010 181.317,340.591 179.040 L 342.435 177.414 342.669 172.596 C 342.906 167.719,343.447 165.923,345.327 163.778 C 345.756 163.288,346.228 161.792,346.378 160.447 C 346.679 157.754,348.427 154.759,350.143 154.000 C 351.251 153.510,351.373 153.159,351.976 148.731 C 352.406 145.571,353.036 144.489,355.179 143.222 C 356.146 142.651,356.441 142.069,356.682 140.256 C 357.073 137.312,358.784 134.192,361.260 131.910 C 363.179 130.142,363.276 129.925,364.024 125.759 C 364.894 120.918,365.377 119.743,366.666 119.333 C 370.057 118.257,363.180 111.185,356.000 108.364 C 344.434 103.820,314.205 99.520,298.222 100.146 C 291.250 100.419,288.806 100.928,284.138 103.076 C 280.919 104.558,266.558 109.725,266.278 109.503 C 266.187 109.430,266.618 108.769,267.238 108.033 C 268.484 106.552,268.490 104.102,267.254 101.654 C 266.911 100.974,266.766 100.198,266.932 99.929 C 267.099 99.661,267.402 97.516,267.607 95.165 C 267.812 92.813,268.103 89.789,268.255 88.444 C 268.407 87.100,268.346 85.300,268.120 84.444 C 267.796 83.223,267.929 82.174,268.739 79.556 C 269.582 76.832,269.680 75.998,269.274 74.994 C 268.901 74.074,268.913 73.281,269.320 71.824 C 269.750 70.289,269.749 69.366,269.317 67.434 C 268.840 65.304,268.864 64.853,269.496 63.950 C 270.301 62.800,270.457 61.086,269.792 60.676 C 269.556 60.530,269.472 59.864,269.605 59.197 C 269.754 58.451,269.407 56.814,268.705 54.949 C 267.678 52.219,267.570 51.348,267.635 46.290 C 267.712 40.322,267.444 39.103,265.498 36.551 C 262.537 32.670,252.443 30.419,243.188 31.576 M242.001 36.556 C 243.780 37.708,243.854 38.050,242.638 39.511 C 241.613 40.742,240.487 39.900,240.459 37.880 C 240.446 37.013,240.274 36.910,239.222 37.143 C 232.599 38.609,228.290 41.370,223.319 47.333 C 212.934 59.792,206.066 70.858,206.297 74.760 C 206.412 76.711,206.693 76.383,201.667 80.147 C 196.916 83.704,196.835 83.263,201.112 77.153 C 204.469 72.358,208.891 65.537,212.374 59.778 C 213.409 58.067,215.591 54.767,217.224 52.444 C 218.856 50.122,219.830 48.512,219.389 48.866 C 218.947 49.219,217.687 50.769,216.587 52.310 C 214.001 55.934,213.728 55.864,215.807 52.111 C 218.362 47.498,224.194 40.394,226.370 39.243 C 232.366 36.072,239.390 34.864,242.001 36.556 M260.800 37.422 C 261.526 38.149,261.470 39.677,260.602 42.769 C 259.997 44.927,259.969 45.555,260.437 46.430 C 262.193 49.712,259.908 50.539,256.104 47.999 C 252.378 45.511,252.112 45.127,253.033 43.569 C 253.442 42.875,253.778 41.709,253.778 40.977 C 253.778 38.198,258.955 35.577,260.800 37.422 M239.025 40.905 C 239.834 41.842,240.512 43.072,240.532 43.638 C 240.552 44.204,240.961 46.337,241.440 48.378 C 242.413 52.526,242.425 52.498,239.317 53.505 C 232.936 55.573,227.121 60.370,223.405 66.630 C 221.280 70.209,221.207 70.277,217.303 72.238 C 212.509 74.645,212.165 74.667,211.595 72.604 C 211.349 71.714,210.725 70.536,210.209 69.986 L 209.269 68.986 210.472 66.604 C 213.763 60.089,217.380 56.397,217.921 59.000 C 218.702 62.758,223.066 64.950,224.725 62.418 C 225.824 60.741,226.112 55.072,225.167 53.722 C 224.252 52.417,224.250 51.008,225.161 49.200 C 226.122 47.292,222.395 50.776,220.383 53.667 C 219.181 55.393,218.222 56.078,218.222 55.209 C 218.222 54.005,226.560 44.733,229.245 42.951 C 236.211 38.329,236.713 38.224,239.025 40.905 M245.742 45.073 L 246.750 46.146 245.762 47.481 C 244.655 48.979,243.916 48.923,243.171 47.288 C 242.241 45.247,242.605 44.156,244.256 44.035 C 244.519 44.016,245.188 44.483,245.742 45.073 M261.244 51.644 C 261.909 52.309,261.949 56.984,261.296 57.638 C 260.949 57.985,261.011 58.503,261.518 59.482 C 262.410 61.208,262.412 62.414,261.524 63.302 C 260.420 64.406,259.813 64.160,257.213 61.561 L 254.775 59.123 254.837 56.047 C 254.916 52.101,255.680 51.111,258.647 51.111 C 259.782 51.111,260.951 51.351,261.244 51.644 M246.149 52.579 C 246.413 52.897,246.522 53.569,246.390 54.073 C 246.236 54.662,246.401 55.085,246.853 55.258 C 247.872 55.649,247.714 56.775,246.556 57.378 C 245.113 58.128,245.114 58.125,246.188 58.994 C 247.688 60.209,247.787 63.045,246.348 63.592 C 245.085 64.072,244.444 63.801,244.444 62.787 C 244.444 62.392,244.145 61.740,243.780 61.336 C 242.470 59.889,242.451 56.840,243.736 54.304 C 244.955 51.899,245.350 51.616,246.149 52.579 M212.889 53.573 C 212.889 56.107,197.553 80.538,192.814 85.556 C 191.662 86.775,195.333 79.718,198.346 74.923 C 199.586 72.948,202.866 67.570,205.636 62.969 C 212.364 51.794,212.889 51.114,212.889 53.573 M240.824 56.067 C 240.353 58.165,240.714 61.428,241.613 63.200 C 242.513 64.973,242.397 66.222,241.333 66.222 C 240.387 66.222,240.194 66.665,240.838 67.356 C 241.055 67.588,241.462 69.132,241.742 70.787 C 242.022 72.442,242.818 75.397,243.510 77.354 C 244.602 80.438,244.680 80.962,244.096 81.289 C 243.526 81.607,243.501 81.979,243.933 83.696 C 244.214 84.813,244.444 86.669,244.444 87.821 C 244.444 89.006,245.127 92.026,246.015 94.774 C 247.750 100.139,247.918 101.548,247.154 104.326 C 246.718 105.911,246.753 106.433,247.378 107.641 C 247.785 108.429,248.278 110.183,248.472 111.537 C 248.666 112.892,248.889 114.365,248.968 114.812 C 249.088 115.492,247.848 116.078,241.333 118.416 C 228.562 123.001,221.270 126.321,208.332 133.445 C 203.162 136.291,200.420 136.973,201.082 135.248 C 201.217 134.897,201.054 134.073,200.721 133.416 C 200.388 132.760,199.971 131.222,199.795 130.000 C 199.530 128.164,199.146 127.469,197.585 126.000 C 196.008 124.516,195.647 123.855,195.400 122.000 C 195.226 120.686,194.789 119.538,194.331 119.191 C 193.904 118.868,193.614 118.393,193.685 118.135 C 193.757 117.877,193.523 117.342,193.167 116.944 C 192.811 116.547,192.190 115.396,191.788 114.386 C 191.386 113.376,190.294 111.937,189.363 111.188 C 185.591 108.158,184.362 103.789,186.272 100.205 C 186.788 99.237,187.486 97.927,187.824 97.294 C 188.580 95.878,190.222 94.336,190.222 95.042 C 190.222 95.325,190.827 95.556,191.567 95.556 C 193.109 95.556,193.486 96.229,193.986 99.882 C 194.225 101.632,194.734 102.749,196.041 104.390 C 196.996 105.590,197.778 106.975,197.778 107.468 C 197.778 108.086,198.376 108.655,199.702 109.297 C 200.761 109.809,202.711 111.326,204.036 112.667 C 205.360 114.009,206.710 115.107,207.034 115.109 C 208.279 115.114,210.222 117.651,210.222 119.270 C 210.222 120.128,210.525 122.272,210.896 124.034 L 211.570 127.236 210.202 129.659 L 208.835 132.082 210.084 131.344 C 210.771 130.937,211.674 129.869,212.091 128.969 C 214.478 123.812,215.897 122.270,218.281 122.238 C 219.079 122.227,219.818 121.739,220.610 120.701 C 222.272 118.522,225.855 116.905,229.742 116.579 C 233.459 116.268,233.129 115.573,229.259 115.562 C 227.714 115.558,225.939 115.899,224.667 116.444 C 220.222 118.350,219.783 117.872,221.121 112.582 C 223.007 105.133,225.183 102.879,232.889 100.392 C 234.233 99.958,234.933 99.593,234.443 99.579 C 233.610 99.557,228.730 100.853,227.000 101.557 C 226.364 101.815,226.222 101.635,226.222 100.573 C 226.222 98.247,224.872 94.651,223.369 92.974 C 220.190 89.427,219.644 86.712,222.000 86.171 C 222.733 86.003,225.033 85.264,227.111 84.528 C 229.189 83.793,232.189 83.046,233.778 82.868 C 235.874 82.633,236.423 82.448,235.778 82.192 C 233.973 81.478,231.136 81.795,227.922 83.070 C 220.417 86.050,220.371 86.045,217.720 82.014 C 216.656 80.396,215.134 78.688,214.338 78.218 C 211.735 76.683,212.288 75.588,216.778 73.390 C 221.417 71.118,224.257 70.915,224.178 72.861 C 224.131 74.000,225.900 76.000,226.954 76.000 C 227.684 76.000,227.731 76.535,227.059 77.207 C 226.694 77.573,226.808 77.966,227.491 78.700 C 228.335 79.605,228.445 79.626,228.715 78.923 C 228.901 78.440,229.321 78.232,229.839 78.367 C 230.917 78.649,230.892 78.168,229.778 77.214 C 228.792 76.370,228.621 75.329,229.390 74.854 C 229.735 74.641,229.671 74.420,229.187 74.149 C 228.799 73.932,228.588 73.478,228.717 73.140 C 228.857 72.776,228.576 72.405,228.032 72.232 C 226.595 71.776,226.943 71.252,228.889 70.940 C 229.867 70.784,230.667 70.456,230.667 70.211 C 230.667 69.967,231.797 69.267,233.179 68.655 C 236.238 67.303,236.093 66.960,232.727 67.582 C 231.333 67.840,229.749 67.902,229.207 67.720 C 228.666 67.538,227.821 67.435,227.331 67.490 C 222.090 68.081,228.114 59.933,235.641 56.249 C 240.943 53.655,241.370 53.640,240.824 56.067 M262.811 66.691 C 263.580 67.789,263.152 70.282,261.971 71.588 C 261.233 72.403,261.235 72.488,262.013 73.347 C 262.972 74.407,263.656 78.625,263.002 79.444 C 261.187 81.715,254.989 74.261,256.682 71.844 C 257.040 71.332,257.334 70.408,257.335 69.790 C 257.340 66.508,261.167 64.343,262.811 66.691 M247.797 69.000 C 247.629 69.550,247.472 70.250,247.449 70.556 C 247.387 71.387,245.886 71.225,245.387 70.334 C 244.849 69.373,245.935 68.000,247.232 68.000 C 247.930 68.000,248.043 68.199,247.797 69.000 M248.382 74.250 C 250.275 76.626,250.365 77.778,248.659 77.778 C 246.905 77.778,244.255 73.830,245.095 72.470 C 245.676 71.530,246.628 72.046,248.382 74.250 M197.148 81.846 C 196.272 83.146,195.556 84.576,195.556 85.024 C 195.556 85.900,194.322 87.694,191.063 91.556 C 189.929 92.900,188.760 94.467,188.464 95.038 C 187.592 96.726,187.455 95.825,188.273 93.780 C 188.952 92.083,190.316 90.078,196.508 81.674 C 198.839 78.510,199.309 78.636,197.148 81.846 M207.815 81.334 C 208.174 82.822,208.643 83.529,209.668 84.128 C 210.711 84.737,211.112 85.355,211.340 86.708 C 211.843 89.682,216.291 98.195,218.642 100.681 C 221.738 103.956,222.103 105.437,220.742 109.202 C 218.822 114.516,217.333 117.004,217.333 114.899 C 217.333 114.538,216.815 113.903,216.182 113.488 C 215.260 112.884,215.080 112.488,215.279 111.495 C 215.619 109.795,213.937 107.875,211.471 107.147 C 209.069 106.439,207.560 105.073,207.540 103.589 C 207.531 102.960,207.238 101.944,206.889 101.333 C 206.540 100.722,206.247 99.772,206.238 99.222 C 206.226 98.444,205.964 98.222,205.061 98.222 C 203.938 98.222,203.909 98.156,204.195 96.246 C 204.406 94.844,204.291 93.882,203.801 92.935 C 203.422 92.200,203.111 91.077,203.111 90.439 C 203.111 89.439,202.705 89.094,200.202 87.958 L 197.292 86.639 198.271 84.897 C 199.816 82.148,203.490 79.358,204.437 80.215 C 205.442 81.125,205.778 81.063,205.778 79.967 C 205.778 78.177,207.298 79.197,207.815 81.334 M249.685 81.889 C 249.938 82.194,250.134 83.344,250.121 84.444 C 250.107 85.544,250.242 87.294,250.420 88.333 C 250.689 89.899,250.624 90.222,250.039 90.222 C 249.651 90.222,249.333 90.529,249.333 90.905 C 249.333 91.450,249.154 91.491,248.442 91.110 C 247.705 90.715,247.597 90.341,247.819 88.954 C 247.966 88.031,247.872 86.495,247.608 85.540 C 247.295 84.407,247.280 83.653,247.564 83.369 C 247.804 83.129,248.000 82.573,248.000 82.133 C 248.000 81.214,249.005 81.069,249.685 81.889 M262.251 82.238 C 263.369 82.836,263.519 87.997,262.444 88.889 C 261.607 89.584,261.593 90.405,262.410 91.082 C 262.786 91.395,263.026 92.359,263.002 93.470 C 262.981 94.495,263.047 95.621,263.148 95.974 C 263.427 96.937,261.836 97.079,260.841 96.179 C 256.078 91.869,257.319 79.598,262.251 82.238 M251.111 92.637 C 251.111 92.987,251.511 93.400,252.000 93.556 C 254.084 94.217,252.776 95.741,250.493 95.313 C 248.951 95.024,248.242 93.933,248.745 92.624 C 249.063 91.795,251.111 91.806,251.111 92.637 M252.479 98.701 C 253.004 99.226,253.288 99.921,253.138 100.313 C 252.992 100.692,253.054 101.226,253.274 101.501 C 253.495 101.775,253.823 102.700,254.004 103.556 L 254.333 105.111 253.389 104.264 C 252.869 103.799,252.444 103.144,252.444 102.809 C 252.444 102.474,251.948 102.012,251.342 101.781 C 250.609 101.502,250.327 101.133,250.500 100.681 C 250.644 100.306,250.540 100.000,250.270 100.000 C 249.617 100.000,249.642 98.980,250.311 98.311 C 251.051 97.572,251.415 97.637,252.479 98.701 M262.840 100.237 C 263.214 100.611,263.619 101.561,263.739 102.348 C 263.860 103.134,264.077 104.528,264.222 105.444 C 264.397 106.558,264.315 107.111,263.973 107.111 C 263.691 107.111,263.563 107.361,263.688 107.667 C 263.813 107.972,264.050 108.559,264.216 108.970 C 264.477 109.620,262.648 111.111,261.588 111.111 C 259.918 111.111,258.830 101.983,260.305 100.353 C 261.189 99.376,261.945 99.342,262.840 100.237 M119.333 102.295 C 113.232 105.662,114.034 107.365,128.531 121.830 C 138.544 131.821,143.218 137.292,146.904 143.333 C 148.449 145.866,148.639 145.376,147.265 142.401 C 145.938 139.526,138.598 130.980,129.361 121.555 C 116.563 108.496,115.462 106.716,118.307 103.688 C 119.726 102.177,120.207 102.449,119.147 104.164 C 118.155 105.770,117.947 107.333,118.667 107.778 C 118.925 107.937,119.111 107.497,119.111 106.725 C 119.111 105.741,119.526 105.056,120.717 104.075 C 122.257 102.805,122.285 102.732,121.412 102.265 C 120.329 101.685,120.443 101.683,119.333 102.295 M311.595 102.225 C 321.271 102.895,322.717 103.469,314.848 103.517 C 307.508 103.562,297.315 105.125,293.044 106.861 C 291.565 107.462,287.906 108.572,284.914 109.327 C 274.565 111.940,263.044 116.727,259.099 120.053 L 257.054 121.778 252.896 121.778 C 249.034 121.778,248.218 121.952,241.457 124.222 C 228.419 128.600,232.817 125.681,248.000 119.880 C 292.104 103.029,292.840 102.790,303.333 101.863 C 304.067 101.799,307.784 101.962,311.595 102.225 M251.984 103.971 C 252.237 104.444,252.444 105.250,252.444 105.763 C 252.444 106.275,252.744 106.810,253.111 106.950 C 253.482 107.093,253.778 107.753,253.778 108.438 C 253.778 109.202,254.138 109.908,254.726 110.299 C 256.057 111.183,255.497 112.571,253.520 113.286 C 251.597 113.981,251.551 113.942,251.400 111.501 C 251.334 110.431,251.042 109.119,250.751 108.585 C 250.187 107.550,250.024 103.902,250.519 103.407 C 251.029 102.897,251.508 103.080,251.984 103.971 M325.823 105.105 C 326.874 105.508,325.999 110.521,324.618 112.013 C 324.045 112.632,323.303 113.928,322.969 114.894 L 322.360 116.651 313.947 116.506 C 304.425 116.342,298.100 117.152,289.418 119.645 C 285.174 120.864,283.848 121.033,277.000 121.227 L 269.333 121.445 269.333 120.056 C 269.333 119.188,269.109 118.667,268.736 118.667 C 268.407 118.667,267.759 118.249,267.297 117.738 C 266.071 116.383,266.834 115.967,275.948 113.012 C 284.462 110.252,285.210 110.285,284.589 113.388 C 284.374 114.464,284.478 114.667,285.244 114.667 C 285.744 114.667,287.051 115.351,288.146 116.187 C 291.635 118.850,293.516 118.553,298.166 114.603 C 298.602 114.232,298.709 113.427,298.539 111.782 C 298.248 108.961,298.387 108.723,300.968 107.617 C 302.102 107.131,303.234 106.368,303.483 105.922 C 304.185 104.666,322.896 103.981,325.823 105.105 M335.675 106.742 C 337.198 107.506,337.303 107.672,336.834 108.569 C 335.428 111.258,334.616 112.000,333.081 112.000 C 331.295 112.000,331.104 112.541,332.642 113.241 C 333.594 113.675,333.680 113.901,333.343 115.076 C 332.734 117.202,332.533 117.333,329.885 117.333 C 327.404 117.333,327.029 117.987,329.333 118.296 C 330.915 118.508,330.773 121.566,329.118 122.906 C 327.721 124.037,327.724 124.330,329.151 125.819 C 331.006 127.756,330.055 128.998,326.978 128.658 L 324.667 128.403 326.667 129.424 C 329.311 130.773,329.565 132.138,327.487 133.833 C 326.447 134.681,325.794 135.757,325.315 137.412 C 324.658 139.682,324.559 139.787,322.871 140.014 C 321.429 140.207,321.280 140.309,322.048 140.579 C 322.563 140.760,323.306 141.654,323.699 142.565 C 324.092 143.477,324.659 144.555,324.958 144.961 C 325.799 146.104,324.591 149.298,322.982 150.187 C 320.178 151.736,320.138 151.820,321.804 152.673 C 323.868 153.732,323.985 153.988,323.993 157.458 C 323.998 159.732,323.836 160.535,323.333 160.728 C 322.937 160.880,322.666 161.550,322.665 162.381 C 322.663 164.283,321.154 166.667,319.952 166.667 C 319.140 166.667,319.086 166.768,319.581 167.364 C 320.073 167.957,319.966 168.216,318.864 169.094 C 317.595 170.106,317.581 170.167,318.137 172.064 C 319.072 175.252,319.051 175.346,317.444 175.221 C 316.387 175.138,316.000 175.293,316.000 175.797 C 316.000 176.176,315.408 176.825,314.685 177.240 C 313.661 177.828,313.426 178.216,313.622 178.997 C 313.824 179.800,313.688 180.000,312.937 180.000 C 312.422 180.000,312.000 180.200,312.000 180.444 C 312.000 180.689,312.204 180.889,312.454 180.889 C 313.321 180.889,313.967 183.015,313.332 183.780 C 312.858 184.350,312.861 184.673,313.346 185.580 C 314.000 186.802,313.109 188.528,311.311 189.521 C 310.137 190.170,309.793 190.706,309.785 191.894 C 309.778 192.807,309.624 192.875,308.100 192.631 C 306.821 192.427,306.169 192.567,305.360 193.222 L 304.298 194.082 305.816 194.400 L 307.333 194.719 305.667 195.592 C 304.521 196.193,304.000 196.767,304.000 197.431 C 304.000 197.962,303.493 198.925,302.873 199.572 C 301.938 200.548,301.819 200.939,302.172 201.868 C 302.500 202.732,302.402 203.311,301.744 204.394 C 301.273 205.167,300.883 206.244,300.876 206.789 C 300.864 207.710,300.773 207.679,299.543 206.326 C 298.015 204.647,297.870 203.727,299.074 203.345 C 300.230 202.978,301.033 200.673,300.235 200.011 C 299.534 199.429,299.861 197.778,300.677 197.778 C 300.992 197.778,301.555 196.881,301.929 195.786 C 302.667 193.618,302.735 193.737,300.017 192.378 C 298.104 191.420,299.022 191.336,301.889 192.206 L 304.000 192.846 304.000 191.391 C 304.000 190.110,304.240 189.815,306.001 188.936 C 307.757 188.059,307.967 187.802,307.723 186.831 C 307.520 186.021,307.710 185.478,308.429 184.808 C 309.217 184.074,309.356 183.593,309.130 182.387 C 308.881 181.062,308.982 180.831,309.979 180.452 C 311.403 179.911,311.395 179.733,309.916 178.958 L 308.721 178.332 310.155 177.590 C 310.944 177.182,311.919 176.158,312.321 175.313 C 312.724 174.469,313.220 173.778,313.423 173.778 C 313.626 173.778,313.748 173.198,313.694 172.489 C 313.640 171.780,313.864 170.876,314.192 170.480 C 314.697 169.873,314.676 169.636,314.061 168.957 C 312.967 167.747,313.135 166.667,314.418 166.667 C 315.913 166.667,316.211 165.963,315.238 164.728 C 314.168 163.366,314.293 161.002,315.624 157.449 C 316.625 154.777,316.637 154.603,315.942 152.671 L 315.221 150.667 316.366 150.667 C 317.257 150.667,317.393 150.548,316.978 150.133 C 316.225 149.381,316.316 147.493,317.163 146.284 C 317.659 145.575,317.738 145.116,317.419 144.797 C 317.100 144.478,317.103 144.015,317.430 143.299 C 317.776 142.539,317.751 141.898,317.337 140.898 C 316.866 139.760,316.878 139.405,317.414 138.766 C 318.710 137.218,319.698 134.150,319.773 131.438 C 319.849 128.683,320.439 126.553,321.267 126.041 C 321.505 125.894,321.841 124.924,322.013 123.887 C 322.432 121.356,322.893 120.580,324.458 119.771 C 325.759 119.098,326.265 117.570,325.294 117.246 C 325.027 117.157,325.821 116.139,327.056 114.983 C 328.292 113.828,329.204 112.624,329.083 112.308 C 328.962 111.993,329.369 111.260,329.987 110.679 C 331.512 109.246,331.472 107.451,329.889 106.286 L 328.667 105.387 331.333 105.644 C 332.800 105.786,334.754 106.280,335.675 106.742 M358.106 111.889 L 361.767 114.323 360.844 115.619 C 360.337 116.331,359.730 117.607,359.496 118.454 C 359.201 119.522,358.745 120.075,358.004 120.261 C 357.158 120.473,356.909 120.865,356.802 122.153 C 356.617 124.376,355.861 124.387,350.222 122.245 C 343.518 119.699,340.431 116.297,344.034 115.428 C 345.122 115.166,345.746 114.659,346.222 113.652 C 347.040 111.922,352.044 108.878,353.496 109.227 C 354.017 109.352,356.092 110.550,358.106 111.889 M265.778 111.746 C 265.778 111.976,254.878 116.269,244.062 120.301 C 233.684 124.169,224.525 128.143,215.399 132.737 C 206.905 137.013,206.069 137.004,213.452 132.718 C 224.043 126.568,235.882 121.492,253.556 115.522 C 265.282 111.561,265.778 111.408,265.778 111.746 M136.216 115.137 C 134.275 115.702,131.111 118.885,131.111 120.272 C 131.111 121.017,131.905 122.254,133.453 123.922 C 147.054 138.572,151.422 145.601,149.274 149.378 C 148.688 150.407,148.657 150.367,148.403 148.222 L 148.140 146.000 148.070 148.333 C 147.992 150.920,147.676 151.111,145.780 149.709 C 142.609 147.365,134.343 153.590,136.376 156.793 C 136.940 157.682,138.190 156.937,138.871 155.307 C 140.249 152.011,145.255 149.972,146.992 152.000 C 147.411 152.489,148.102 152.889,148.528 152.889 C 148.954 152.889,149.516 153.289,149.778 153.778 C 150.343 154.835,151.235 154.922,152.003 153.997 C 152.471 153.432,152.340 153.251,151.168 152.842 C 149.606 152.298,149.493 151.743,150.320 148.654 C 151.309 144.956,148.163 138.718,141.892 131.943 C 133.356 122.720,132.526 120.392,136.679 117.324 C 139.763 115.046,139.575 114.159,136.216 115.137 M320.444 117.723 C 320.444 117.938,320.131 118.373,319.748 118.691 C 318.475 119.748,317.778 121.707,317.778 124.230 C 317.778 126.394,317.674 126.698,317.000 126.510 C 316.572 126.390,315.822 126.185,315.333 126.052 C 314.844 125.920,311.344 125.298,307.556 124.669 C 289.701 121.707,286.765 120.942,290.667 120.270 C 291.770 120.080,291.964 120.117,291.333 120.398 C 290.134 120.932,290.739 121.130,295.989 121.929 C 300.399 122.600,300.539 122.491,297.615 120.667 C 296.094 119.717,298.095 118.283,301.556 117.842 C 305.668 117.318,320.444 117.225,320.444 117.723 M180.052 121.217 C 180.382 122.870,180.597 124.734,180.531 125.360 C 180.457 126.059,180.760 126.814,181.316 127.318 C 181.889 127.836,182.222 128.693,182.222 129.647 C 182.222 131.638,183.170 133.305,185.077 134.667 C 185.933 135.278,186.830 136.328,187.071 137.000 C 187.312 137.672,187.736 138.222,188.012 138.222 C 188.340 138.222,188.413 138.687,188.222 139.556 C 187.970 140.703,188.058 140.889,188.854 140.889 C 189.536 140.889,189.778 141.171,189.778 141.967 C 189.778 142.561,190.065 143.111,190.416 143.190 C 190.775 143.271,189.075 144.886,186.527 146.886 C 184.037 148.840,179.250 153.211,175.889 156.598 C 170.440 162.090,168.531 163.686,170.459 161.137 C 171.409 159.881,171.352 155.176,170.382 154.803 C 167.779 153.804,172.269 132.017,177.493 120.301 C 178.887 117.173,179.273 117.311,180.052 121.217 M294.444 119.556 C 293.956 119.766,293.256 119.938,292.889 119.938 C 292.469 119.938,292.551 119.796,293.111 119.556 C 293.600 119.345,294.300 119.174,294.667 119.174 C 295.087 119.174,295.005 119.315,294.444 119.556 M350.988 123.417 C 353.828 124.696,354.619 125.241,354.392 125.764 C 354.229 126.138,353.897 127.594,353.653 129.000 C 353.221 131.497,353.178 131.556,351.764 131.556 C 350.310 131.556,349.778 132.138,349.778 133.729 C 349.778 136.935,341.733 134.470,341.413 131.167 C 341.335 130.358,340.908 129.100,340.464 128.370 C 339.467 126.731,340.109 125.073,342.632 122.771 C 344.607 120.969,345.750 121.058,350.988 123.417 M286.667 122.667 C 287.658 122.984,287.599 123.027,286.111 123.067 C 284.159 123.119,284.072 123.490,285.339 126.353 C 286.098 128.069,286.552 128.494,288.339 129.164 C 289.497 129.597,291.704 130.637,293.244 131.473 C 296.717 133.360,296.723 133.353,295.428 128.855 C 294.444 125.439,294.252 125.120,292.849 124.581 L 291.333 123.998 293.333 124.213 C 294.433 124.331,298.433 124.739,302.222 125.120 C 313.953 126.297,314.445 126.426,315.124 128.484 C 315.598 129.919,315.597 130.426,315.120 131.317 C 314.733 132.040,314.621 133.299,314.783 135.090 C 315.059 138.129,314.882 138.260,312.097 137.074 C 311.188 136.686,309.344 136.198,308.000 135.989 C 306.656 135.780,302.656 135.013,299.111 134.284 C 295.567 133.555,288.976 132.630,284.466 132.228 C 275.083 131.392,275.556 131.534,275.556 129.546 C 275.556 127.988,271.996 123.905,270.111 123.300 C 269.683 123.163,269.333 122.865,269.333 122.637 C 269.333 122.130,285.077 122.157,286.667 122.667 M217.222 123.239 C 216.550 123.508,216.000 123.998,216.000 124.330 C 216.000 125.130,217.269 127.559,217.678 127.541 C 218.634 127.499,219.526 126.185,219.644 124.643 C 219.794 122.701,219.295 122.412,217.222 123.239 M261.567 126.889 C 263.818 129.211,265.864 131.111,266.113 131.111 C 267.374 131.111,268.001 133.219,267.316 135.161 C 266.490 137.502,267.000 139.377,269.104 141.725 C 270.455 143.232,272.242 146.194,271.922 146.395 C 271.843 146.445,269.429 148.046,266.559 149.952 C 259.381 154.720,256.088 155.691,255.109 153.329 C 254.322 151.429,256.110 148.747,258.985 147.514 L 261.034 146.636 259.545 145.100 C 258.635 144.162,257.441 143.454,256.473 143.280 C 254.219 142.874,254.210 142.860,254.964 140.648 C 256.001 137.604,255.264 135.656,252.891 135.171 C 251.752 134.938,251.340 134.555,250.945 133.360 C 250.589 132.281,250.060 131.720,249.111 131.411 C 247.474 130.879,247.069 130.335,247.204 128.850 C 247.368 127.049,246.004 125.333,244.408 125.333 C 240.708 125.333,247.117 123.341,252.000 122.973 C 257.778 122.537,257.065 122.245,261.567 126.889 M232.100 128.611 C 232.778 129.125,232.792 129.292,232.225 130.041 C 229.994 132.990,233.143 138.981,238.297 141.594 C 239.501 142.204,240.611 143.045,240.763 143.463 C 241.155 144.541,243.523 147.239,244.610 147.846 C 245.340 148.253,245.502 148.721,245.400 150.129 C 245.203 152.859,247.174 156.343,249.033 156.551 C 252.486 156.938,239.174 161.374,232.490 162.065 L 229.647 162.358 229.944 161.176 C 230.175 160.257,229.891 159.474,228.676 157.669 C 227.815 156.391,227.111 155.055,227.111 154.701 C 227.111 154.347,226.696 153.615,226.188 153.075 C 225.401 152.237,225.330 151.862,225.701 150.518 C 226.077 149.157,225.991 148.748,225.068 147.497 C 224.480 146.701,224.000 145.780,224.000 145.450 C 224.000 145.120,222.801 143.637,221.336 142.154 C 215.696 136.443,216.253 134.551,224.675 130.805 C 231.752 127.658,231.100 127.851,232.100 128.611 M283.778 133.310 C 293.003 134.257,306.756 136.641,310.526 137.947 C 312.287 138.556,313.204 140.332,312.482 141.734 C 312.281 142.125,312.140 144.094,312.169 146.111 C 312.198 148.128,312.162 149.778,312.089 149.778 C 312.016 149.778,311.347 149.463,310.602 149.078 C 308.462 147.971,295.243 146.198,287.000 145.913 C 282.906 145.771,279.556 145.483,279.556 145.272 C 279.556 145.061,279.723 144.889,279.929 144.889 C 280.416 144.889,281.333 142.860,281.333 141.783 C 281.333 141.320,280.233 139.335,278.889 137.372 C 275.487 132.406,275.431 132.453,283.778 133.310 M345.011 134.941 C 348.915 136.896,348.623 136.615,347.989 137.799 C 347.698 138.342,347.432 139.600,347.397 140.595 C 347.343 142.130,347.164 142.448,346.222 142.686 C 345.562 142.854,345.178 143.222,345.276 143.595 C 345.367 143.940,345.531 144.534,345.639 144.914 C 345.748 145.295,345.436 146.095,344.946 146.692 L 344.055 147.778 341.150 146.227 C 338.116 144.606,335.271 140.585,336.074 139.051 C 336.249 138.717,336.508 137.893,336.650 137.218 C 336.912 135.973,339.996 133.333,341.189 133.333 C 341.525 133.333,343.245 134.057,345.011 134.941 M168.049 142.511 C 166.966 146.598,166.660 148.491,166.378 152.839 C 166.128 156.706,166.181 157.421,166.707 157.247 C 167.174 157.092,167.415 155.693,167.653 151.742 C 167.829 148.828,168.175 145.258,168.423 143.807 C 168.942 140.770,168.717 139.991,168.049 142.511 M341.022 147.099 C 343.234 148.348,343.556 148.701,343.556 149.879 C 343.556 150.621,343.977 151.910,344.492 152.743 L 345.428 154.258 343.050 154.129 L 340.673 154.000 340.447 155.551 C 340.155 157.566,339.536 157.636,335.767 156.082 C 332.726 154.829,332.669 154.775,332.790 153.291 C 333.003 150.678,333.327 149.778,334.056 149.778 C 334.530 149.778,334.669 149.536,334.480 149.043 C 333.117 145.491,336.429 144.507,341.022 147.099 M301.413 147.942 C 311.126 149.525,310.966 149.456,311.231 152.151 C 311.355 153.412,311.330 154.644,311.176 154.889 C 311.021 155.133,310.863 155.733,310.824 156.222 C 310.785 156.711,310.608 158.419,310.432 160.018 C 310.126 162.789,310.161 162.950,311.167 163.433 C 312.903 164.267,311.071 164.091,308.382 163.166 C 305.049 162.019,295.703 159.877,295.023 160.104 C 294.717 160.205,295.462 160.531,296.678 160.828 C 305.007 162.859,308.929 164.143,308.692 164.761 C 308.556 165.116,308.444 166.094,308.444 166.935 C 308.444 168.134,308.205 168.573,307.333 168.970 C 306.590 169.308,306.222 169.835,306.222 170.560 C 306.222 171.200,305.655 172.173,304.838 172.937 C 303.465 174.219,303.348 174.950,304.196 176.956 C 304.458 177.577,304.039 177.520,301.475 176.584 C 299.808 175.976,294.544 174.410,289.778 173.103 C 285.011 171.797,277.711 169.692,273.556 168.425 C 269.400 167.158,265.544 166.020,264.987 165.895 C 264.429 165.771,263.749 165.243,263.476 164.723 C 263.203 164.203,262.509 163.212,261.934 162.521 C 260.579 160.892,260.610 160.619,262.333 158.999 C 265.978 155.572,269.191 155.337,281.484 157.599 C 284.869 158.222,287.730 158.641,287.840 158.530 C 287.951 158.419,287.282 158.195,286.354 158.031 C 285.426 157.867,281.738 156.943,278.158 155.978 C 273.763 154.792,270.723 154.222,268.798 154.222 C 265.536 154.222,263.883 153.435,264.807 152.321 C 265.633 151.325,271.434 147.521,272.803 147.077 C 275.106 146.330,295.262 146.940,301.413 147.942 M105.978 152.181 C 101.383 154.182,98.247 162.464,98.221 172.667 C 98.211 176.425,96.804 185.719,95.597 190.000 C 94.826 192.734,94.920 194.562,95.786 193.695 C 96.949 192.532,99.556 178.307,99.556 173.123 C 99.556 167.583,101.137 159.610,102.598 157.779 C 105.457 154.197,107.314 154.056,116.179 156.742 C 119.136 157.638,124.350 159.002,127.765 159.773 L 133.974 161.176 134.331 162.921 C 135.351 167.898,136.131 168.782,139.222 168.468 C 139.650 168.424,140.000 168.619,140.000 168.901 C 140.000 169.183,140.444 169.772,140.986 170.211 C 141.837 170.900,141.889 171.109,141.365 171.740 C 141.032 172.141,140.696 173.714,140.620 175.235 C 140.543 176.756,140.190 179.580,139.835 181.511 C 139.480 183.441,139.293 185.291,139.420 185.622 C 139.855 186.756,139.013 186.216,135.483 183.101 C 133.538 181.385,131.788 180.079,131.593 180.199 C 131.398 180.320,129.860 179.225,128.175 177.766 C 125.201 175.192,124.233 174.679,123.926 175.514 C 123.743 176.010,113.172 183.952,112.955 183.756 C 112.490 183.334,117.583 179.020,121.000 176.941 C 123.032 175.705,123.200 175.257,121.255 176.263 C 118.295 177.793,112.899 181.826,109.097 185.350 C 107.867 186.490,104.217 189.184,100.986 191.336 C 97.755 193.489,95.111 195.418,95.111 195.625 C 95.111 196.776,97.792 195.567,102.680 192.213 C 105.716 190.130,108.430 188.514,108.712 188.623 C 108.995 188.731,109.900 188.114,110.724 187.251 C 114.233 183.575,123.957 176.746,124.762 177.392 C 125.178 177.727,128.608 181.152,132.384 185.004 C 136.161 188.857,139.369 191.890,139.514 191.745 C 139.781 191.478,140.460 184.783,140.444 182.585 C 140.439 181.929,140.637 181.267,140.884 181.114 C 141.131 180.961,141.333 180.173,141.333 179.362 C 141.333 178.550,141.633 177.638,142.000 177.333 C 142.871 176.610,142.849 176.000,141.952 176.000 C 141.441 176.000,141.333 175.779,141.572 175.222 C 141.756 174.794,141.938 173.944,141.977 173.333 C 142.017 172.722,142.370 171.524,142.762 170.671 C 143.562 168.933,143.345 167.958,142.434 169.196 C 141.789 170.071,141.875 170.165,141.117 167.757 C 140.954 167.239,140.537 167.137,139.431 167.344 C 137.748 167.660,136.555 166.214,137.023 164.425 C 137.209 163.713,137.046 163.397,136.406 163.230 C 135.711 163.048,135.642 162.876,136.061 162.371 C 136.889 161.374,136.171 161.023,129.991 159.400 C 126.818 158.567,120.711 156.962,116.420 155.832 C 112.129 154.702,107.967 153.778,107.172 153.778 C 106.321 153.778,105.838 153.595,106.000 153.333 C 106.501 152.523,113.297 153.199,117.111 154.439 C 117.734 154.642,117.668 154.522,116.889 154.038 C 113.629 152.015,108.402 151.125,105.978 152.181 M152.444 155.778 C 152.444 157.049,152.962 157.205,153.806 156.188 C 154.288 155.608,154.278 155.419,153.749 155.084 C 152.731 154.440,152.444 154.592,152.444 155.778 M253.535 157.222 C 252.770 158.985,252.787 160.928,253.573 161.798 C 254.556 162.883,254.375 162.879,250.492 161.739 C 245.938 160.401,245.514 159.820,248.256 158.682 C 249.459 158.182,251.044 157.487,251.778 157.137 C 253.571 156.282,253.936 156.300,253.535 157.222 M174.267 163.339 C 173.997 164.412,172.673 167.774,171.325 170.811 C 169.976 173.847,168.988 176.631,169.129 176.996 C 169.292 177.422,169.055 177.747,168.470 177.900 C 167.633 178.119,167.556 177.942,167.556 175.797 C 167.556 171.115,168.241 169.118,171.412 164.571 C 174.465 160.192,175.132 159.904,174.267 163.339 M248.030 161.605 C 254.075 163.397,254.374 163.667,252.620 165.753 C 251.707 166.838,251.571 167.261,251.979 167.753 C 252.293 168.131,252.384 168.980,252.210 169.907 C 251.844 171.859,253.736 174.180,257.067 175.868 C 258.310 176.498,259.574 177.335,259.877 177.729 C 260.362 178.360,260.480 178.366,260.874 177.778 C 261.428 176.949,261.464 176.000,260.941 176.000 C 260.243 176.000,260.087 173.712,260.703 172.524 C 261.213 171.541,261.205 171.262,260.650 170.648 C 259.925 169.847,260.200 169.333,261.353 169.333 C 261.771 169.333,262.345 169.054,262.628 168.713 C 263.753 167.358,265.994 167.488,273.410 169.342 C 286.255 172.553,303.764 177.782,302.774 178.112 C 302.471 178.213,302.222 178.680,302.222 179.148 C 302.222 179.617,301.936 180.000,301.586 180.000 C 300.784 180.000,299.272 182.092,298.845 183.793 C 298.667 184.505,298.115 185.415,297.619 185.817 C 296.914 186.388,296.725 187.046,296.752 188.829 C 296.791 191.406,296.901 191.342,293.960 190.449 C 291.568 189.724,290.294 189.595,291.905 190.242 C 293.077 190.713,292.712 191.762,290.103 195.420 C 289.019 196.940,288.732 197.862,288.549 200.420 C 288.333 203.447,287.905 204.142,286.867 203.154 C 286.147 202.469,269.874 194.057,263.616 191.135 C 260.349 189.610,253.449 186.953,248.282 185.231 C 234.758 180.722,229.743 176.772,230.894 171.534 C 231.212 170.085,231.397 170.015,233.144 170.679 C 233.805 170.930,234.426 171.055,234.525 170.956 C 235.417 170.064,224.993 167.445,221.427 167.666 L 217.556 167.905 220.444 167.135 C 222.033 166.711,223.788 166.218,224.344 166.038 C 225.045 165.811,225.318 165.879,225.233 166.258 C 225.061 167.029,229.421 168.404,229.670 167.658 C 229.770 167.357,230.157 167.111,230.529 167.111 C 230.927 167.111,231.108 166.854,230.967 166.488 C 230.822 166.109,231.107 165.750,231.697 165.569 C 232.297 165.386,232.454 165.186,232.108 165.043 C 231.801 164.917,231.663 164.630,231.801 164.406 C 232.140 163.858,232.071 163.871,229.108 164.890 C 225.672 166.072,225.467 165.724,228.853 164.458 C 237.084 161.380,243.868 160.370,248.030 161.605 M261.968 180.695 C 264.395 181.530,266.457 182.135,266.552 182.041 C 266.753 181.840,258.649 179.095,257.999 179.145 C 257.755 179.163,259.541 179.861,261.968 180.695 M243.071 184.204 C 253.342 186.716,275.050 196.916,286.345 204.538 C 288.603 206.063,289.508 207.491,287.799 206.836 C 286.718 206.421,283.464 209.991,283.615 211.427 C 283.686 212.109,283.603 212.897,283.429 213.178 C 283.256 213.459,283.116 214.159,283.118 214.733 C 283.124 215.973,282.630 219.111,282.429 219.111 C 282.352 219.111,279.124 217.694,275.255 215.961 C 264.168 210.995,255.035 207.735,244.264 204.900 C 236.422 202.835,235.635 202.295,236.690 199.695 C 237.254 198.304,237.185 197.100,236.440 195.333 C 236.234 194.844,235.852 192.944,235.592 191.111 C 235.331 189.278,234.994 187.328,234.841 186.778 C 234.303 184.841,239.580 186.138,253.291 191.314 C 257.545 192.919,261.101 194.159,261.192 194.067 C 261.856 193.403,243.642 186.438,237.168 184.881 C 233.044 183.890,232.507 183.556,235.037 183.556 C 236.056 183.556,236.889 183.342,236.889 183.081 C 236.889 182.820,237.239 182.712,237.667 182.840 C 238.094 182.968,240.526 183.582,243.071 184.204 M170.222 188.101 C 170.222 188.217,170.443 188.946,170.713 189.721 C 171.308 191.427,170.676 192.444,169.020 192.444 C 168.342 192.444,167.996 192.656,168.111 193.000 C 168.213 193.306,168.530 193.536,168.815 193.511 C 169.100 193.487,169.728 193.437,170.211 193.400 C 171.395 193.310,172.618 190.932,172.038 189.848 C 171.603 189.035,170.222 187.707,170.222 188.101 M126.562 192.210 L 128.222 193.754 124.778 193.766 C 120.843 193.779,120.836 193.774,122.778 192.007 C 124.592 190.357,124.567 190.355,126.562 192.210 M173.966 195.965 C 175.598 197.636,175.645 197.768,175.122 199.187 C 174.107 201.943,173.812 203.728,174.277 204.288 C 174.854 204.983,173.287 206.014,171.061 206.403 C 168.981 206.767,167.642 208.144,168.438 209.103 C 169.306 210.149,170.516 209.905,171.531 208.478 C 172.681 206.864,174.841 206.284,175.954 207.291 C 176.384 207.681,176.871 208.000,177.035 208.000 C 177.579 208.000,177.343 205.412,176.778 205.178 C 176.438 205.038,176.603 204.833,177.201 204.650 L 178.180 204.352 177.259 203.105 C 176.415 201.963,176.394 201.777,177.019 200.885 C 177.546 200.133,177.599 199.619,177.249 198.617 C 177.001 197.905,176.918 197.010,177.064 196.629 C 177.621 195.178,176.538 194.222,174.339 194.222 L 172.264 194.222 173.966 195.965 M197.533 195.609 C 198.987 196.078,200.987 196.557,201.977 196.673 C 202.967 196.788,201.978 196.389,199.778 195.786 C 195.069 194.494,193.759 194.391,197.533 195.609 M114.311 197.000 C 114.055 197.306,113.181 197.919,112.368 198.362 L 110.889 199.169 112.428 197.807 C 113.945 196.463,115.215 195.919,114.311 197.000 M207.111 197.591 C 208.944 197.949,212.040 198.553,213.989 198.933 C 225.997 201.271,227.318 202.375,228.036 210.667 C 228.494 215.955,228.985 218.520,229.864 220.222 C 230.242 220.956,230.896 223.451,231.317 225.768 C 232.275 231.043,232.682 231.817,236.037 234.735 C 241.470 239.461,247.626 248.249,260.195 269.222 C 266.835 280.302,269.397 284.173,266.079 278.111 C 255.702 259.155,251.277 251.482,248.152 247.028 C 245.933 243.863,244.185 240.555,244.544 240.196 C 244.628 240.113,245.837 240.162,247.231 240.306 L 249.766 240.568 254.578 246.173 C 258.516 250.761,270.133 264.274,273.483 268.163 C 273.932 268.685,274.146 268.811,273.959 268.444 C 273.008 266.583,256.108 245.977,253.382 243.354 C 251.542 241.584,251.106 240.183,252.089 239.200 C 253.002 238.287,253.744 238.579,258.159 241.587 C 262.466 244.523,262.127 244.030,257.030 239.946 C 254.358 237.805,254.274 237.673,254.007 235.205 C 253.412 229.728,252.387 223.019,251.982 221.952 C 251.137 219.731,251.396 219.521,253.667 220.589 C 258.395 222.813,262.728 225.308,268.866 229.343 C 277.962 235.323,278.675 235.615,271.996 230.623 C 268.291 227.854,259.694 222.747,253.566 219.675 C 249.506 217.639,247.181 215.863,240.558 209.737 C 234.146 203.808,218.788 198.044,207.111 197.184 L 203.778 196.938 207.111 197.591 M108.434 201.047 C 104.267 205.012,101.274 207.553,100.789 207.539 C 99.804 207.511,108.262 200.000,109.279 200.000 C 109.420 200.000,109.040 200.471,108.434 201.047 M131.644 201.422 C 130.903 202.164,130.978 203.111,131.778 203.111 C 132.144 203.111,132.444 202.811,132.444 202.444 C 132.444 201.950,132.989 201.770,134.556 201.747 C 136.144 201.723,136.447 201.621,135.778 201.333 C 134.459 200.767,132.253 200.814,131.644 201.422 M238.981 210.000 C 243.668 215.408,245.871 219.240,246.002 222.217 C 246.117 224.819,246.719 227.147,247.824 229.265 C 248.162 229.914,248.440 230.854,248.442 231.356 C 248.443 231.857,248.625 232.457,248.846 232.689 C 249.067 232.921,249.333 234.011,249.437 235.111 C 249.541 236.211,249.782 237.461,249.972 237.889 C 250.277 238.577,250.042 238.665,247.936 238.654 C 244.921 238.637,239.411 236.518,239.170 235.282 C 239.081 234.821,238.655 233.944,238.225 233.333 C 237.673 232.551,237.365 230.985,237.182 228.036 C 237.039 225.734,236.747 223.734,236.534 223.592 C 235.626 222.986,235.189 221.573,235.647 220.719 C 235.967 220.121,235.951 218.628,235.595 215.818 C 234.575 207.762,234.564 207.549,235.138 206.857 C 235.445 206.487,235.828 206.343,235.990 206.537 C 236.151 206.730,237.497 208.289,238.981 210.000 M179.395 207.455 C 179.079 207.968,183.040 211.774,183.457 211.358 C 183.610 211.205,182.820 210.165,181.702 209.047 C 180.583 207.928,179.546 207.212,179.395 207.455 M150.303 208.778 C 152.533 211.177,152.046 212.781,148.080 216.101 C 145.548 218.220,144.251 219.706,143.181 221.714 C 142.381 223.216,141.559 224.444,141.355 224.444 C 141.151 224.444,140.868 224.747,140.726 225.117 C 140.527 225.634,140.703 225.730,141.489 225.532 C 142.132 225.371,142.724 225.534,143.087 225.971 C 143.869 226.913,144.444 226.847,144.444 225.815 C 144.444 225.343,146.431 222.883,148.903 220.294 C 151.355 217.726,153.172 215.508,152.941 215.366 C 151.940 214.747,151.877 211.495,152.842 210.191 C 154.002 208.621,154.103 207.568,152.996 208.570 C 152.279 209.218,152.123 209.207,151.107 208.426 C 149.471 207.169,148.999 207.375,150.303 208.778 M165.864 209.720 C 165.332 210.666,164.595 211.691,164.226 211.997 C 162.852 213.137,163.616 213.324,165.214 212.238 C 166.127 211.618,167.127 211.111,167.437 211.111 C 167.746 211.111,168.000 210.811,168.000 210.444 C 168.000 210.078,167.777 209.778,167.504 209.778 C 167.226 209.778,167.110 209.386,167.240 208.889 C 167.619 207.440,166.902 207.873,165.864 209.720 M298.260 210.741 C 300.439 212.249,302.222 213.649,302.222 213.852 C 302.222 214.474,301.753 214.277,300.064 212.947 C 299.173 212.245,297.261 210.845,295.815 209.835 C 294.369 208.826,293.436 208.000,293.742 208.000 C 294.047 208.000,296.081 209.234,298.260 210.741 M174.422 208.926 C 173.958 209.676,175.113 211.556,176.037 211.556 C 176.687 211.556,176.905 211.351,176.734 210.903 C 176.596 210.544,176.675 210.132,176.908 209.988 C 177.716 209.489,177.328 208.989,175.980 208.791 C 175.236 208.682,174.535 208.743,174.422 208.926 M177.922 210.556 C 178.585 211.683,177.349 212.831,175.915 212.420 C 173.553 211.743,172.960 211.903,174.153 212.897 C 175.235 213.800,175.309 215.311,174.501 220.059 C 174.305 221.212,174.416 221.830,174.891 222.224 C 175.257 222.527,175.556 223.041,175.556 223.365 C 175.556 224.102,177.229 225.915,178.556 226.615 C 179.158 226.932,179.556 227.556,179.556 228.183 C 179.556 228.756,179.860 229.477,180.232 229.786 C 180.636 230.121,180.799 230.694,180.636 231.207 C 180.237 232.465,181.160 234.322,182.689 235.336 C 183.425 235.823,184.147 236.722,184.295 237.333 C 184.443 237.944,184.857 238.782,185.214 239.194 C 185.572 239.607,185.748 240.133,185.605 240.364 C 185.462 240.595,185.743 241.289,186.228 241.907 C 186.714 242.524,187.111 243.211,187.111 243.432 C 187.111 243.884,181.983 245.789,180.785 245.782 C 179.917 245.777,177.691 241.909,177.334 239.783 C 177.114 238.474,175.556 237.551,175.556 238.729 C 175.556 239.523,179.052 246.248,180.029 247.333 C 180.469 247.822,181.246 249.122,181.755 250.222 C 182.265 251.322,183.267 253.036,183.983 254.031 C 184.699 255.026,185.747 256.724,186.313 257.804 C 187.301 259.690,188.889 260.714,188.889 259.464 C 188.889 259.134,187.792 257.216,186.452 255.202 C 181.352 247.540,181.354 247.558,185.772 245.336 C 189.719 243.352,190.437 243.382,190.037 245.516 C 189.834 246.598,190.030 247.280,190.871 248.420 C 191.476 249.240,191.865 250.081,191.737 250.289 C 191.068 251.371,197.419 249.349,201.556 247.163 C 204.134 245.800,203.577 245.683,200.501 246.942 C 198.285 247.849,197.850 247.720,197.695 246.113 C 197.578 244.902,197.341 244.632,196.222 244.433 C 195.010 244.218,194.893 244.046,194.940 242.542 C 194.981 241.203,194.832 240.889,194.156 240.889 C 193.571 240.889,192.974 240.124,192.159 238.333 C 191.520 236.928,190.823 235.711,190.610 235.630 C 190.397 235.548,190.222 234.998,190.222 234.407 C 190.222 233.817,190.004 233.383,189.736 233.444 C 189.469 233.506,189.019 233.173,188.736 232.706 C 187.981 231.457,186.731 230.222,186.222 230.222 C 185.615 230.222,185.661 229.183,186.297 228.547 C 186.981 227.863,184.774 225.556,183.794 225.932 C 182.657 226.368,181.532 223.372,181.025 218.556 C 180.846 216.854,180.639 216.444,179.957 216.444 C 179.367 216.444,179.111 216.131,179.111 215.407 C 179.111 214.837,178.969 214.229,178.796 214.055 C 178.623 213.882,178.538 212.948,178.608 211.981 C 178.686 210.890,178.543 210.222,178.230 210.222 C 177.952 210.222,177.814 210.372,177.922 210.556 M198.238 212.152 C 198.596 212.480,201.689 214.911,205.111 217.554 C 216.135 226.067,218.355 228.089,220.319 231.404 C 222.380 234.883,232.894 254.112,239.296 266.111 C 241.676 270.572,243.710 274.222,243.816 274.222 C 244.183 274.222,229.911 246.679,223.703 235.405 C 222.379 233.001,221.187 230.501,221.055 229.850 C 220.815 228.669,218.240 226.543,203.606 215.444 C 199.217 212.116,196.138 210.227,198.238 212.152 M167.862 213.643 C 167.219 214.546,166.774 215.367,166.873 215.465 C 167.207 215.800,170.222 213.233,170.222 212.614 C 170.222 211.474,169.038 211.990,167.862 213.643 M171.111 212.443 C 171.111 212.687,170.388 213.687,169.504 214.665 C 168.620 215.644,168.124 216.444,168.401 216.444 C 168.902 216.444,168.787 218.198,168.227 219.104 C 167.779 219.829,168.381 219.629,169.796 218.583 C 170.519 218.048,171.112 217.398,171.114 217.139 C 171.115 216.879,171.384 216.153,171.712 215.526 C 172.894 213.260,173.000 212.000,172.008 212.000 C 171.515 212.000,171.111 212.199,171.111 212.443 M190.237 214.312 C 190.206 214.972,191.376 217.124,192.323 218.148 C 192.868 218.737,193.441 219.897,193.596 220.726 C 193.933 222.524,194.457 222.963,195.035 221.930 C 195.392 221.292,195.600 221.457,196.389 223.002 C 196.901 224.007,197.540 224.964,197.808 225.130 C 198.076 225.296,198.711 226.359,199.219 227.493 C 200.275 229.853,200.858 229.044,199.992 226.420 C 199.505 224.944,198.818 224.029,193.999 218.444 C 192.944 217.222,191.670 215.722,191.167 215.111 C 190.663 214.500,190.245 214.141,190.237 214.312 M168.929 220.498 C 167.744 221.874,167.337 222.577,167.900 222.276 C 169.447 221.448,169.644 221.668,169.902 224.515 C 170.088 226.557,169.977 227.516,169.469 228.292 C 168.723 229.430,169.333 229.739,170.218 228.672 C 171.108 227.599,171.579 228.361,171.262 230.360 C 171.003 231.985,171.051 232.152,171.635 231.671 C 172.430 231.015,172.889 231.361,172.889 232.617 C 172.889 234.031,173.942 238.222,174.297 238.222 C 175.300 238.222,175.189 237.178,173.448 230.296 C 172.870 228.009,172.845 227.413,173.314 227.123 C 174.131 226.618,173.423 225.689,172.456 225.996 C 171.051 226.442,170.297 221.688,171.347 219.000 C 171.901 217.582,170.914 218.193,168.929 220.498 M140.160 228.210 C 139.819 228.705,137.605 232.011,135.242 235.556 C 132.879 239.100,129.382 243.915,127.473 246.257 C 123.771 250.794,123.612 251.125,124.701 252.029 C 125.534 252.720,125.387 252.892,132.887 242.478 C 139.596 233.164,141.012 231.086,140.797 230.871 C 140.592 230.666,133.258 240.350,129.758 245.444 C 128.457 247.339,127.216 248.889,127.001 248.889 C 126.140 248.889,141.306 228.393,142.706 227.665 C 143.749 227.122,143.738 227.110,142.280 227.208 C 141.358 227.270,140.543 227.655,140.160 228.210 M201.370 229.841 C 201.346 230.896,201.566 231.550,202.000 231.716 C 202.390 231.866,202.667 232.532,202.667 233.319 C 202.667 234.370,202.862 234.667,203.556 234.667 C 204.126 234.667,204.444 234.963,204.444 235.494 C 204.444 236.432,206.977 242.222,207.387 242.222 C 207.852 242.222,207.071 238.997,206.185 237.261 C 205.717 236.342,205.333 235.175,205.333 234.667 C 205.333 233.182,203.538 229.975,203.102 230.681 C 202.837 231.110,202.552 230.852,202.071 229.748 L 201.406 228.222 201.370 229.841 M230.778 233.362 C 232.183 234.087,233.333 234.935,233.333 235.246 C 233.333 235.557,233.925 236.504,234.649 237.350 C 235.372 238.196,235.972 239.364,235.982 239.945 C 235.992 240.525,237.399 243.825,239.109 247.278 C 241.063 251.224,242.629 255.124,243.324 257.778 C 245.106 264.584,247.111 275.062,247.111 277.571 C 247.111 278.847,247.411 280.609,247.778 281.487 C 248.838 284.026,248.601 284.172,245.889 282.656 C 238.255 278.388,232.624 273.529,230.966 269.778 C 230.371 268.433,228.849 265.833,227.583 264.000 C 225.682 261.247,225.325 260.432,225.531 259.320 C 225.863 257.532,222.734 253.419,217.765 249.111 C 214.700 246.454,213.888 245.435,212.204 242.129 C 211.119 240.000,209.829 238.043,209.338 237.780 C 208.847 237.517,208.444 237.040,208.444 236.720 C 208.444 236.132,207.072 234.667,206.521 234.667 C 205.839 234.667,206.296 236.465,207.275 237.633 C 209.422 240.195,219.107 256.058,219.110 257.017 C 219.111 257.210,220.011 259.331,221.111 261.731 C 222.211 264.130,223.111 266.718,223.111 267.481 C 223.111 268.483,223.431 269.078,224.261 269.622 C 225.285 270.293,225.381 270.576,225.136 272.209 C 224.440 276.852,230.248 282.109,235.529 281.618 C 239.371 281.260,242.940 283.135,246.010 287.124 C 247.544 289.117,248.329 289.778,249.166 289.778 C 249.779 289.778,250.668 289.985,251.140 290.238 C 252.028 290.713,252.411 290.084,251.556 289.556 C 251.291 289.392,251.108 286.543,251.104 282.529 C 251.090 269.079,249.702 259.994,247.231 257.180 C 246.497 256.344,245.752 254.891,245.576 253.951 C 243.632 243.592,239.238 236.899,232.181 233.550 C 228.208 231.665,227.238 231.535,230.778 233.362 M156.618 236.111 C 156.810 238.061,156.754 239.111,156.457 239.111 C 156.187 239.111,156.000 237.811,156.000 235.926 C 156.000 232.043,156.224 232.110,156.618 236.111 M281.344 239.981 C 281.000 240.623,281.069 241.321,281.611 242.675 C 282.124 243.959,282.202 244.642,281.872 244.972 C 281.614 245.230,281.509 245.717,281.638 246.054 C 281.767 246.391,281.647 246.667,281.371 246.667 C 280.822 246.667,280.961 252.049,281.547 253.444 C 281.732 253.886,281.680 254.222,281.426 254.222 C 281.180 254.222,280.839 255.622,280.667 257.333 C 280.294 261.048,280.326 261.039,277.539 258.189 C 276.326 256.948,274.933 255.731,274.444 255.483 C 273.956 255.235,275.756 257.140,278.444 259.717 C 284.013 265.051,284.000 265.045,284.000 262.721 C 284.000 261.773,284.262 260.780,284.583 260.514 C 285.005 260.164,285.150 258.706,285.110 255.237 C 285.069 251.670,285.217 250.251,285.689 249.687 C 286.182 249.098,286.219 248.630,285.855 247.586 C 285.566 246.758,285.547 246.143,285.804 245.984 C 286.034 245.842,286.222 245.147,286.222 244.440 C 286.222 243.681,286.539 242.978,286.996 242.722 C 287.949 242.189,287.957 242.196,284.571 240.498 C 281.896 239.158,281.793 239.141,281.344 239.981 M316.000 244.338 C 318.334 246.128,319.628 247.492,320.315 248.891 C 321.604 251.514,321.595 251.556,319.749 251.556 C 317.545 251.556,316.569 252.196,316.201 253.885 C 315.874 255.384,315.075 256.488,311.663 260.157 L 309.656 262.314 306.998 259.656 L 304.340 256.998 306.024 253.943 C 306.950 252.263,308.094 250.329,308.566 249.645 C 309.198 248.730,309.349 248.002,309.140 246.887 C 308.893 245.570,309.068 245.137,310.480 243.575 C 312.484 241.357,312.029 241.294,316.000 244.338 M206.418 244.690 C 205.572 245.366,205.574 245.374,206.485 245.126 C 207.352 244.891,208.889 249.379,208.889 252.146 C 208.889 252.457,207.293 253.489,205.343 254.440 C 200.698 256.704,201.095 256.958,205.993 254.854 C 209.367 253.404,209.815 253.082,209.596 252.266 C 209.459 251.753,209.130 250.133,208.865 248.667 C 207.902 243.331,207.973 243.447,206.418 244.690 M209.540 246.071 C 209.857 247.761,214.157 257.062,214.199 256.147 C 214.300 253.902,210.491 244.444,209.484 244.444 C 209.347 244.444,209.372 245.176,209.540 246.071 M194.689 251.710 C 194.419 252.528,194.325 253.528,194.480 253.932 C 194.635 254.336,194.565 254.667,194.326 254.667 C 194.086 254.667,194.292 255.481,194.785 256.477 C 195.742 258.412,196.134 258.483,199.177 257.283 C 200.997 256.565,201.159 254.343,199.500 252.849 C 198.797 252.216,198.222 251.490,198.222 251.234 C 198.222 250.795,196.835 250.241,195.701 250.228 C 195.415 250.225,194.959 250.892,194.689 251.710 M209.255 257.999 C 209.334 260.077,209.584 261.778,209.810 261.778 C 210.287 261.778,210.347 259.254,209.940 256.284 C 209.483 252.953,209.099 253.913,209.255 257.999 M197.099 260.960 C 196.840 262.495,196.935 262.928,197.662 263.515 C 198.650 264.313,199.288 265.661,199.166 266.692 C 199.013 267.986,201.084 270.455,202.214 270.326 C 202.783 270.262,203.646 270.562,204.133 270.993 C 204.781 271.567,205.071 271.629,205.213 271.222 C 205.863 269.365,209.956 272.506,209.956 274.862 C 209.956 278.279,206.499 279.278,202.207 277.104 C 199.349 275.655,199.398 276.015,202.327 277.988 C 207.174 281.252,212.396 278.259,211.871 272.519 C 211.625 269.832,210.798 264.766,210.381 263.390 C 209.999 262.134,206.366 262.783,202.579 264.784 C 202.408 264.874,202.378 264.275,202.511 263.453 C 202.682 262.399,202.544 261.785,202.043 261.369 C 201.653 261.045,201.333 260.483,201.333 260.120 C 201.333 259.723,201.074 259.560,200.681 259.711 C 200.322 259.849,199.910 259.770,199.766 259.536 C 198.991 258.283,197.409 259.128,197.099 260.960 M188.865 262.073 C 189.372 263.011,189.962 264.078,190.175 264.444 C 190.388 264.811,190.740 265.709,190.957 266.440 C 191.549 268.433,193.082 268.574,192.662 266.597 C 192.488 265.780,192.049 264.775,191.687 264.364 C 191.325 263.953,190.697 262.954,190.292 262.143 C 189.887 261.332,189.193 260.602,188.749 260.519 C 187.997 260.378,188.005 260.483,188.865 262.073 M209.510 264.627 C 210.159 266.180,210.410 268.089,210.275 270.444 L 210.198 271.778 208.556 270.010 C 207.653 269.038,206.509 268.205,206.013 268.158 C 201.778 267.757,202.003 265.439,206.444 263.700 C 208.498 262.897,208.829 262.997,209.510 264.627 M283.305 266.333 C 283.641 267.467,284.497 272.822,284.476 273.667 C 284.410 276.395,284.042 277.146,283.333 276.000 C 282.078 273.969,281.888 277.157,283.120 279.573 C 284.132 281.556,284.195 281.578,286.314 280.692 C 289.015 279.564,289.569 274.912,287.472 270.962 C 286.885 269.856,287.373 269.483,288.331 270.305 C 289.922 271.672,290.385 271.700,289.439 270.371 C 288.490 269.037,284.013 265.333,283.352 265.333 C 283.162 265.333,283.141 265.783,283.305 266.333 M218.712 268.022 L 218.757 270.000 219.226 268.536 C 219.569 267.468,219.556 266.934,219.181 266.559 C 218.792 266.169,218.678 266.525,218.712 268.022 M319.514 273.476 C 322.448 276.961,324.003 279.556,323.156 279.556 C 322.948 279.556,321.928 279.256,320.889 278.889 C 318.106 277.907,317.966 277.959,314.561 281.222 C 312.163 283.520,311.082 284.980,309.941 287.462 C 308.254 291.131,308.299 291.125,304.922 288.128 L 302.979 286.404 305.119 281.091 C 310.100 268.724,313.845 266.743,319.514 273.476 M221.113 272.441 C 220.767 273.001,221.005 273.887,222.753 278.556 C 223.509 280.572,224.277 282.222,224.460 282.222 C 225.227 282.222,225.228 280.838,224.463 279.253 C 224.012 278.319,223.311 276.409,222.904 275.008 C 222.147 272.402,221.612 271.635,221.113 272.441 M313.013 298.608 C 314.735 300.448,317.333 304.649,317.333 305.592 C 317.333 305.750,316.852 305.564,316.263 305.179 C 315.248 304.513,315.106 304.545,313.535 305.794 C 312.624 306.518,311.720 307.111,311.526 307.111 C 311.039 307.111,309.333 311.791,309.333 313.128 C 309.333 316.854,303.128 307.137,303.017 303.236 C 302.965 301.406,303.739 300.222,306.007 298.662 C 307.103 297.908,308.000 297.100,308.000 296.868 C 308.000 295.470,311.077 296.538,313.013 298.608 M277.994 300.679 C 279.131 302.764,279.984 304.814,279.890 305.235 C 279.737 305.922,278.329 303.310,276.170 298.333 C 275.039 295.724,275.891 296.820,277.994 300.679 M274.717 306.558 C 277.038 308.108,281.333 311.708,281.333 312.103 C 281.333 312.334,280.306 312.380,278.951 312.211 C 276.145 311.860,274.547 312.516,272.236 314.966 L 270.740 316.552 268.817 315.491 C 264.471 313.093,265.067 305.856,269.556 306.528 C 270.289 306.638,271.389 306.527,272.000 306.281 C 273.484 305.684,273.395 305.675,274.717 306.558 M284.800 309.517 C 286.283 310.293,295.556 319.669,295.556 320.392 C 295.556 321.451,294.255 321.368,292.485 320.196 C 290.642 318.977,289.972 318.933,286.222 319.792 C 285.183 320.031,285.017 319.809,283.655 316.357 C 281.311 310.415,281.730 307.910,284.800 309.517 M307.556 333.699 C 307.556 333.900,308.171 335.200,308.922 336.588 L 310.289 339.111 312.619 339.111 C 316.115 339.111,319.192 340.220,323.126 342.899 C 327.109 345.611,327.458 345.347,324.949 341.513 C 322.771 338.185,321.210 336.732,318.545 335.554 C 314.936 333.958,307.556 332.712,307.556 333.699 M285.778 337.738 C 283.719 338.578,283.136 339.615,284.006 340.889 C 284.404 341.472,284.536 341.458,285.057 340.778 C 285.861 339.730,288.525 339.751,289.487 340.813 C 290.491 341.923,290.463 341.979,288.457 342.883 C 286.543 343.746,286.403 344.457,288.214 344.110 C 288.833 343.992,289.646 344.150,290.021 344.462 C 291.324 345.543,291.765 344.297,290.922 341.916 C 290.505 340.740,290.020 339.178,289.844 338.444 C 289.448 336.802,288.482 336.634,285.778 337.738 M317.222 342.973 C 315.442 343.438,318.115 345.256,321.943 346.182 C 324.897 346.898,324.880 346.657,321.824 344.513 C 319.249 342.706,318.808 342.559,317.222 342.973 " stroke="none" fill="#000000" fill-rule="evenodd"></path></g></svg>