<svg id="svg" xmlns="http://www.w3.org/2000/svg" xmlns:xlink="http://www.w3.org/1999/xlink" width="400" height="243.5" viewBox="0, 0, 400,243.5"><g id="svgg"><path id="path0" d="M384.426 54.835 C 383.548 55.068,382.841 56.842,383.470 57.232 C 383.678 57.360,384.486 56.797,385.267 55.982 C 386.633 54.556,386.445 54.299,384.426 54.835 M322.515 61.806 C 322.503 62.660,322.261 62.816,321.250 62.622 C 320.334 62.447,320.000 62.599,320.000 63.192 C 320.000 63.636,320.303 64.000,320.673 64.000 C 321.609 64.000,322.860 65.508,323.161 67.000 C 323.385 68.106,323.413 68.078,323.404 66.750 C 323.399 65.925,323.418 65.123,323.447 64.967 C 323.476 64.811,324.624 65.767,325.998 67.092 C 327.372 68.416,328.779 69.493,329.123 69.485 C 329.796 69.469,325.538 65.540,324.822 65.515 C 324.586 65.507,324.521 65.165,324.679 64.756 C 324.843 64.326,324.708 64.062,324.357 64.131 C 324.023 64.196,323.742 63.913,323.732 63.500 C 323.698 62.131,322.534 60.510,322.515 61.806 M325.430 62.528 C 324.312 63.502,324.308 63.529,325.347 63.026 C 325.951 62.734,326.583 62.271,326.752 61.997 C 327.243 61.202,326.704 61.419,325.430 62.528 M331.000 72.689 C 331.000 73.068,331.337 73.658,331.750 74.000 C 332.163 74.342,332.500 74.905,332.500 75.250 C 332.500 76.220,333.958 77.242,334.528 76.672 C 335.203 75.997,334.134 73.107,332.980 72.489 C 331.706 71.808,331.000 71.879,331.000 72.689 M391.721 73.714 C 390.816 74.380,390.810 74.452,391.625 74.768 C 392.690 75.181,394.173 74.684,393.779 74.046 C 393.622 73.793,393.776 73.471,394.122 73.332 C 394.467 73.193,394.287 73.061,393.721 73.039 C 393.154 73.018,392.254 73.321,391.721 73.714 M347.026 76.549 C 347.556 77.538,346.840 77.954,346.250 77.000 C 346.080 76.725,345.572 76.500,345.120 76.500 C 344.482 76.500,344.433 76.633,344.900 77.100 C 345.723 77.923,345.655 78.667,344.787 78.333 C 344.394 78.183,343.804 78.384,343.475 78.780 C 343.147 79.176,343.074 79.517,343.314 79.538 C 343.554 79.559,344.200 79.688,344.750 79.824 C 345.300 79.961,346.130 80.071,346.595 80.069 C 347.060 80.068,347.924 80.887,348.516 81.889 C 349.750 83.981,351.120 83.093,349.971 80.946 C 349.573 80.201,349.566 79.982,349.950 80.219 C 350.253 80.406,350.500 80.321,350.500 80.030 C 350.500 79.738,350.669 79.527,350.875 79.559 C 351.855 79.714,352.068 79.434,351.495 78.744 C 351.018 78.169,350.704 78.123,350.184 78.555 C 349.706 78.952,349.500 78.959,349.500 78.579 C 349.500 78.280,349.950 77.794,350.500 77.500 C 351.050 77.206,351.500 76.720,351.500 76.421 C 351.500 76.080,351.202 76.125,350.700 76.542 C 349.615 77.442,348.500 77.555,348.500 76.764 C 348.500 76.408,348.054 76.000,347.509 75.857 C 346.665 75.637,346.593 75.740,347.026 76.549 M344.053 82.765 C 343.394 83.731,342.989 84.655,343.151 84.818 C 343.443 85.109,345.495 82.100,345.498 81.375 C 345.501 80.743,345.294 80.942,344.053 82.765 M246.927 82.239 C 246.383 82.783,243.468 83.456,243.770 82.968 C 243.929 82.711,243.834 82.500,243.559 82.500 C 242.269 82.500,242.603 83.594,244.090 84.240 L 245.750 84.961 243.875 84.980 C 242.844 84.991,242.000 85.169,242.000 85.375 C 242.000 85.581,243.128 85.721,244.508 85.686 C 245.888 85.651,247.138 85.819,247.288 86.061 C 247.437 86.302,247.827 86.497,248.155 86.492 C 248.521 86.488,248.462 86.280,248.000 85.952 C 247.429 85.546,247.607 85.492,248.750 85.725 C 249.742 85.927,250.017 85.875,249.561 85.571 C 249.182 85.318,248.990 84.918,249.133 84.681 C 249.277 84.444,249.081 83.960,248.698 83.605 C 248.314 83.251,247.984 83.138,247.965 83.355 C 247.946 83.572,247.770 83.345,247.574 82.849 C 247.379 82.353,247.088 82.079,246.927 82.239 M206.291 85.750 C 206.492 86.300,206.645 87.875,206.630 89.250 C 206.615 90.625,206.713 91.207,206.847 90.544 C 206.981 89.881,207.388 89.041,207.751 88.678 C 208.441 87.988,208.192 85.822,207.474 86.266 C 207.247 86.406,206.806 86.123,206.493 85.636 C 205.981 84.838,205.961 84.849,206.291 85.750 M205.160 87.178 C 206.039 87.886,206.039 87.921,205.160 88.218 C 204.176 88.551,202.204 90.213,201.000 91.723 C 199.855 93.159,201.693 92.003,204.442 89.557 L 206.634 87.607 205.442 87.026 C 204.353 86.495,204.328 86.508,205.160 87.178 M339.269 87.469 C 338.859 88.133,339.133 91.000,339.606 91.000 C 340.387 91.000,342.000 88.978,342.000 88.000 C 342.000 86.943,339.853 86.525,339.269 87.469 M312.843 88.189 C 312.697 88.568,312.729 89.079,312.914 89.325 C 313.099 89.570,312.856 89.348,312.375 88.830 C 311.861 88.278,311.500 88.143,311.500 88.503 C 311.500 88.870,311.099 89.012,310.500 88.855 C 309.850 88.685,309.500 88.840,309.500 89.297 C 309.500 89.684,309.894 90.007,310.375 90.016 C 311.167 90.030,311.158 90.102,310.279 90.766 C 309.446 91.396,309.427 91.500,310.142 91.500 C 310.824 91.500,310.889 91.727,310.500 92.750 C 309.802 94.586,310.429 94.275,311.255 92.375 C 311.734 91.273,311.967 91.058,311.980 91.708 C 311.991 92.235,312.150 92.516,312.334 92.332 C 312.784 91.883,314.500 93.477,314.500 94.344 C 314.500 95.181,316.576 96.059,317.191 95.481 C 317.890 94.826,317.189 93.646,315.657 92.898 C 314.797 92.477,314.306 91.881,314.395 91.363 C 314.503 90.736,314.308 90.603,313.645 90.852 C 312.877 91.140,312.842 91.074,313.399 90.388 C 313.814 89.878,313.867 89.477,313.546 89.279 C 313.270 89.108,313.170 88.638,313.325 88.234 C 313.480 87.830,313.494 87.500,313.357 87.500 C 313.219 87.500,312.988 87.810,312.843 88.189 M340.056 89.644 C 339.648 90.052,339.500 89.996,339.500 89.433 C 339.500 88.439,340.172 87.767,340.421 88.513 C 340.526 88.829,340.362 89.338,340.056 89.644 M173.750 90.318 L 174.750 91.103 173.750 90.824 C 173.200 90.670,171.963 90.736,171.000 90.971 C 169.464 91.345,169.659 91.404,172.595 91.449 C 176.301 91.506,176.741 91.802,176.003 93.742 C 175.623 94.741,175.262 94.992,174.536 94.762 C 173.666 94.485,173.630 94.576,174.162 95.705 C 174.642 96.725,174.803 96.804,175.039 96.135 C 175.219 95.623,175.451 95.517,175.658 95.852 C 175.840 96.146,175.660 96.660,175.258 96.993 C 174.618 97.524,174.619 97.691,175.269 98.340 C 176.125 99.196,175.797 100.083,174.770 99.689 C 174.261 99.493,174.139 99.734,174.318 100.586 L 174.563 101.750 173.835 100.524 L 173.107 99.298 173.220 101.024 C 173.372 103.357,172.994 103.881,172.196 102.443 L 171.535 101.250 171.518 102.655 C 171.507 103.519,171.295 103.932,170.967 103.729 C 170.673 103.548,170.554 103.279,170.702 103.131 C 170.850 102.984,170.527 102.240,169.985 101.479 C 169.443 100.718,169.000 99.896,169.000 99.651 C 169.000 99.407,168.100 98.966,167.000 98.673 C 165.900 98.379,165.000 98.333,165.000 98.569 C 165.000 98.806,164.430 99.000,163.734 99.000 C 162.246 99.000,161.680 100.068,162.493 101.345 C 163.018 102.170,163.048 102.153,162.840 101.157 C 162.520 99.634,163.573 99.401,165.495 100.570 C 166.944 101.452,167.091 101.745,166.844 103.266 C 166.220 107.116,165.278 108.065,160.364 109.801 C 159.051 110.265,158.067 110.734,158.177 110.843 C 158.561 111.228,165.000 109.373,165.000 108.878 C 165.000 108.597,165.326 108.648,165.745 108.996 C 166.361 109.507,166.572 109.410,166.963 108.432 C 167.454 107.207,167.574 107.384,167.684 109.500 C 167.740 110.564,167.527 110.755,166.245 110.783 C 165.417 110.801,164.292 111.095,163.745 111.435 C 162.896 111.964,163.136 112.025,165.390 111.849 C 166.842 111.736,168.134 111.812,168.261 112.017 C 168.388 112.223,169.675 113.004,171.121 113.754 C 174.917 115.721,175.000 115.830,175.000 118.811 C 175.000 120.797,174.749 121.751,174.039 122.461 C 173.307 123.193,173.236 123.484,173.740 123.677 C 175.188 124.232,178.485 120.167,178.526 117.778 L 178.552 116.250 179.337 118.143 C 180.069 119.910,180.060 120.105,179.206 121.049 C 178.431 121.905,178.400 122.129,179.007 122.504 C 179.448 122.777,179.850 122.743,180.051 122.417 C 180.265 122.071,180.473 122.124,180.650 122.568 C 180.842 123.052,180.932 123.069,180.961 122.625 C 180.983 122.272,181.708 121.978,182.625 121.950 C 184.142 121.904,184.167 121.876,183.000 121.531 C 182.313 121.328,181.806 120.900,181.875 120.581 C 181.944 120.261,181.692 120.000,181.316 120.000 C 180.911 120.000,180.297 118.825,179.813 117.125 C 178.840 113.707,178.028 112.203,177.992 113.750 C 177.970 114.652,177.908 114.670,177.347 113.933 C 177.005 113.484,176.281 113.004,175.738 112.866 C 175.155 112.719,175.057 112.592,175.500 112.558 C 177.598 112.397,175.572 105.500,173.427 105.500 C 172.537 105.500,172.475 105.383,173.020 104.726 C 173.532 104.108,173.745 104.083,174.073 104.601 C 174.409 105.131,174.486 105.130,174.492 104.595 C 174.497 104.236,174.725 104.080,175.000 104.250 C 175.275 104.420,175.500 104.232,175.500 103.833 C 175.500 102.203,176.999 102.499,177.058 104.141 C 177.090 105.026,177.214 105.379,177.335 104.926 C 177.682 103.619,179.575 103.396,180.774 104.522 C 181.351 105.065,181.928 105.405,182.055 105.278 C 182.182 105.151,182.331 105.590,182.386 106.253 C 182.443 106.952,182.121 107.671,181.618 107.964 C 180.796 108.443,180.796 108.470,181.625 108.485 C 182.106 108.493,182.500 108.725,182.500 109.000 C 182.500 109.275,182.176 109.500,181.780 109.500 C 181.383 109.500,180.920 109.275,180.750 109.000 C 180.580 108.725,180.187 108.500,179.877 108.500 C 179.567 108.500,179.973 109.189,180.781 110.032 C 182.239 111.554,181.412 111.730,179.531 110.297 C 178.961 109.863,178.877 109.921,179.123 110.579 C 179.346 111.174,179.089 111.495,178.217 111.714 C 176.477 112.150,176.710 112.989,178.508 112.762 C 179.337 112.657,179.902 112.754,179.763 112.979 C 179.624 113.203,179.888 113.693,180.349 114.068 C 181.084 114.666,181.145 114.639,180.849 113.849 C 180.646 113.308,180.709 113.070,181.006 113.254 C 181.711 113.689,181.618 114.310,180.714 115.214 C 180.000 115.929,180.011 116.001,180.839 116.008 C 181.458 116.013,181.556 116.139,181.144 116.401 C 180.804 116.617,180.664 117.270,180.826 117.887 C 180.984 118.493,181.307 118.870,181.542 118.724 C 181.778 118.578,182.114 119.031,182.290 119.730 C 182.601 120.971,183.500 121.521,183.500 120.470 C 183.500 120.179,183.709 120.070,183.965 120.229 C 184.221 120.387,184.572 120.288,184.745 120.008 C 184.918 119.729,184.764 119.497,184.405 119.492 C 183.928 119.487,183.954 119.351,184.500 118.992 C 185.159 118.560,185.160 118.442,184.514 118.027 C 183.884 117.622,183.902 117.506,184.645 117.221 C 185.122 117.038,185.857 117.174,186.278 117.523 C 186.857 118.004,187.183 118.017,187.621 117.579 C 187.940 117.260,188.886 116.986,189.725 116.968 L 191.250 116.937 190.000 116.392 C 188.970 115.943,188.904 115.811,189.625 115.637 C 190.106 115.521,190.500 115.244,190.500 115.022 C 190.500 114.799,191.006 114.478,191.625 114.308 C 192.563 114.051,192.626 113.918,192.000 113.508 C 191.588 113.237,191.475 113.008,191.750 113.000 C 192.025 112.992,191.939 112.788,191.559 112.547 C 191.016 112.203,191.096 112.037,191.934 111.771 C 192.520 111.585,193.000 111.110,193.000 110.716 C 193.000 110.322,193.394 109.582,193.875 109.070 C 195.837 106.986,197.734 104.212,197.599 103.625 C 197.521 103.281,197.761 103.000,198.133 103.000 C 198.505 103.000,199.246 102.651,199.779 102.224 C 200.723 101.470,200.718 101.457,199.625 101.758 C 198.377 102.101,198.170 101.576,199.125 100.488 C 199.469 100.097,199.244 100.199,198.625 100.716 C 197.404 101.735,197.219 101.303,197.998 99.254 C 198.330 98.383,198.330 98.046,197.998 98.251 C 197.724 98.420,197.493 98.827,197.484 99.155 C 197.449 100.467,195.997 101.801,195.479 100.998 C 195.108 100.422,195.026 100.537,195.123 101.500 C 195.274 102.991,191.797 103.410,190.970 102.000 C 190.586 101.344,190.529 101.349,190.515 102.037 C 190.506 102.514,189.761 103.031,188.625 103.349 L 186.750 103.874 188.686 103.937 C 191.884 104.041,190.074 105.500,186.747 105.500 C 184.064 105.500,182.826 104.374,184.105 103.095 C 185.439 101.761,184.241 100.906,182.849 102.199 C 181.293 103.644,180.500 103.851,180.500 102.811 C 180.500 101.975,181.718 100.884,182.159 101.326 C 182.334 101.500,182.634 101.217,182.827 100.697 C 183.231 99.605,183.960 99.019,184.928 99.008 C 185.369 99.003,185.490 99.307,185.274 99.875 C 185.014 100.557,185.074 100.618,185.545 100.151 C 186.014 99.685,186.494 99.725,187.699 100.333 C 188.744 100.859,189.046 100.900,188.625 100.457 C 187.787 99.576,187.836 99.000,188.750 99.000 C 189.162 99.000,189.500 98.751,189.500 98.447 C 189.500 98.142,189.170 98.020,188.766 98.175 C 188.362 98.330,187.914 98.266,187.770 98.033 C 187.561 97.695,190.332 96.000,191.094 96.000 C 191.271 96.000,191.482 97.195,191.614 98.941 C 191.656 99.491,191.782 99.475,192.229 98.863 C 192.645 98.294,193.046 98.220,193.771 98.578 C 194.309 98.845,194.075 98.478,193.250 97.763 L 191.750 96.464 193.250 96.983 L 194.750 97.502 193.388 96.368 L 192.026 95.233 193.245 93.742 C 193.916 92.921,194.470 92.025,194.476 91.750 C 194.483 91.475,193.892 92.008,193.163 92.933 L 191.836 94.617 190.893 92.933 L 189.950 91.250 190.257 92.712 C 190.527 94.005,190.471 94.098,189.770 93.517 C 189.095 92.956,189.024 92.980,189.292 93.679 C 189.544 94.336,189.271 94.508,187.928 94.541 L 186.250 94.581 187.694 95.219 L 189.139 95.857 187.796 96.194 C 187.058 96.379,186.256 96.408,186.013 96.258 C 185.770 96.108,185.428 96.439,185.252 96.993 C 185.024 97.711,184.476 98.011,183.341 98.039 C 182.466 98.061,182.029 98.192,182.371 98.330 C 183.303 98.706,182.261 100.339,180.510 101.245 C 178.659 102.202,178.496 102.192,178.585 101.125 C 178.782 98.780,178.433 98.219,177.732 99.750 C 177.124 101.078,177.043 101.121,177.023 100.125 C 177.010 99.506,176.987 98.831,176.970 98.625 C 176.954 98.419,177.444 98.131,178.058 97.986 C 178.673 97.841,179.271 97.438,179.387 97.089 C 179.538 96.636,179.229 96.549,178.299 96.782 C 177.041 97.098,177.000 97.035,177.000 94.804 C 177.000 92.645,177.545 91.859,178.250 93.000 C 178.420 93.275,178.827 93.488,179.155 93.474 C 179.482 93.459,179.244 93.094,178.625 92.663 C 178.006 92.231,177.500 91.555,177.500 91.160 C 177.500 90.764,177.298 90.566,177.052 90.718 C 176.806 90.870,175.962 90.660,175.177 90.250 C 173.314 89.279,172.478 89.318,173.750 90.318 M228.068 90.168 C 227.598 90.734,227.645 90.949,228.294 91.198 C 228.995 91.467,229.014 91.633,228.431 92.352 C 227.845 93.075,227.854 93.128,228.500 92.735 C 230.037 91.798,230.420 92.036,229.959 93.643 C 229.390 95.626,229.652 95.855,230.685 94.279 C 231.380 93.218,231.696 93.099,232.753 93.501 C 234.261 94.075,234.323 93.823,233.000 92.500 C 232.450 91.950,231.997 90.994,231.992 90.375 C 231.988 89.683,231.840 89.477,231.610 89.839 C 231.201 90.482,229.427 90.490,228.956 89.851 C 228.794 89.632,228.395 89.775,228.068 90.168 M269.000 90.972 C 269.000 92.105,271.136 93.842,271.433 92.950 C 271.537 92.639,271.313 92.189,270.936 91.950 C 270.559 91.711,270.446 91.512,270.686 91.508 C 271.254 91.498,270.015 90.000,269.439 90.000 C 269.197 90.000,269.000 90.437,269.000 90.972 M212.378 92.418 C 211.672 93.613,211.186 93.850,209.294 93.921 C 206.945 94.010,204.166 94.832,204.634 95.300 C 204.784 95.450,205.771 95.333,206.828 95.039 C 207.885 94.746,209.516 94.504,210.452 94.503 L 212.155 94.500 211.206 95.625 C 210.351 96.638,210.393 96.630,211.629 95.538 C 212.762 94.536,213.000 94.471,213.000 95.163 C 213.000 95.623,212.719 96.016,212.375 96.035 C 212.031 96.054,212.164 96.233,212.671 96.433 C 213.210 96.645,215.047 96.320,217.111 95.648 C 220.896 94.414,222.232 94.221,221.766 94.975 C 221.141 95.985,223.299 96.484,224.548 95.619 C 227.057 93.878,227.981 92.768,226.150 93.692 C 223.820 94.868,222.508 94.794,223.923 93.566 C 224.516 93.053,225.000 92.510,225.000 92.361 C 225.000 91.866,223.308 92.327,223.126 92.871 C 223.028 93.165,222.285 93.300,221.474 93.172 C 220.454 93.012,220.000 93.148,220.000 93.616 C 220.000 94.284,216.445 95.500,214.493 95.500 C 213.138 95.500,213.230 94.086,214.625 93.473 C 215.664 93.016,215.642 92.994,214.336 93.177 C 213.064 93.356,212.952 93.258,213.221 92.188 C 213.612 90.631,213.399 90.689,212.378 92.418 M239.477 95.043 C 239.170 95.616,239.068 96.235,239.250 96.417 C 239.590 96.756,241.000 95.134,241.000 94.404 C 241.000 93.610,240.025 94.019,239.477 95.043 M279.000 95.720 C 279.000 97.563,278.972 97.681,278.367 98.410 C 278.066 98.773,277.459 98.975,277.017 98.860 C 276.502 98.725,276.214 98.969,276.214 99.538 C 276.214 100.027,276.391 100.317,276.607 100.184 C 277.180 99.830,277.088 101.402,276.468 102.561 C 276.175 103.108,276.027 103.824,276.139 104.153 C 276.251 104.481,276.818 103.822,277.400 102.687 C 278.417 100.702,279.651 99.725,280.488 100.243 C 280.707 100.378,280.999 100.057,281.137 99.530 C 281.305 98.886,281.940 98.504,283.069 98.366 C 284.430 98.199,284.298 98.145,282.375 98.080 C 280.098 98.003,280.000 97.939,280.000 96.530 C 280.000 95.721,279.775 94.920,279.500 94.750 C 279.216 94.575,279.000 94.995,279.000 95.720 M171.500 96.034 C 171.500 96.347,171.036 96.437,170.375 96.252 C 169.259 95.940,169.260 95.945,170.450 96.902 C 172.010 98.157,173.717 97.834,172.852 96.449 C 172.203 95.409,171.500 95.193,171.500 96.034 M219.076 96.847 C 217.251 97.747,216.590 98.790,217.358 99.558 C 217.678 99.878,218.559 99.454,219.900 98.333 C 222.603 96.075,222.182 95.317,219.076 96.847 M209.250 97.500 C 209.080 97.775,208.532 98.000,208.032 98.000 C 207.532 98.000,206.842 98.338,206.500 98.750 C 205.478 99.981,207.436 99.688,209.750 98.263 C 211.378 97.261,211.546 97.028,210.655 97.016 C 210.052 97.007,209.420 97.225,209.250 97.500 M172.500 98.553 C 172.500 98.858,172.162 98.977,171.750 98.819 C 171.223 98.617,170.998 98.862,170.992 99.641 C 170.986 100.509,170.885 100.593,170.525 100.024 C 170.273 99.625,170.197 99.062,170.356 98.774 C 170.541 98.440,170.433 98.446,170.057 98.791 C 169.455 99.344,169.788 101.000,170.501 101.000 C 170.717 101.000,171.617 100.325,172.500 99.500 C 173.618 98.456,173.862 98.000,173.303 98.000 C 172.861 98.000,172.500 98.249,172.500 98.553 M335.000 99.406 C 335.000 99.630,335.627 100.413,336.393 101.147 C 337.260 101.978,337.833 103.096,337.910 104.108 C 337.978 105.002,338.267 105.962,338.552 106.242 C 338.909 106.591,338.969 106.336,338.743 105.423 C 338.500 104.439,338.646 103.968,339.309 103.597 C 340.065 103.174,340.100 102.973,339.540 102.298 C 339.176 101.859,339.052 101.500,339.266 101.500 C 339.480 101.500,339.270 101.074,338.799 100.554 C 338.290 99.992,337.549 99.712,336.972 99.863 C 336.437 100.002,336.000 99.865,336.000 99.558 C 336.000 99.251,335.775 99.000,335.500 99.000 C 335.225 99.000,335.000 99.183,335.000 99.406 M242.854 102.168 C 243.043 102.474,242.816 102.536,242.272 102.328 C 241.532 102.044,241.421 102.198,241.621 103.243 C 241.806 104.208,241.645 104.515,240.931 104.563 C 240.419 104.597,239.831 104.667,239.625 104.718 C 238.302 105.047,231.299 105.718,229.043 105.733 C 227.188 105.745,226.262 105.969,226.103 106.445 C 225.823 107.280,232.025 106.885,237.658 105.711 C 239.532 105.320,241.540 105.000,242.120 105.000 L 243.174 105.000 242.087 106.157 C 241.489 106.794,241.000 107.523,241.000 107.777 C 241.000 108.032,241.580 107.614,242.290 106.849 C 243.212 105.854,243.867 105.549,244.589 105.778 C 245.439 106.048,245.546 105.932,245.266 105.049 C 245.050 104.371,245.150 104.000,245.550 104.000 C 245.889 104.000,246.020 103.853,245.841 103.674 C 245.662 103.495,245.882 103.081,246.331 102.753 C 247.297 102.046,245.748 101.979,244.616 102.678 C 244.241 102.910,244.000 102.787,244.000 102.363 C 244.000 101.980,243.672 101.667,243.272 101.667 C 242.872 101.667,242.684 101.892,242.854 102.168 M333.275 102.365 C 333.092 102.841,333.181 103.310,333.471 103.407 C 334.406 103.719,334.038 104.387,332.625 104.945 C 329.216 106.292,326.799 107.446,327.334 107.472 C 327.852 107.497,329.529 106.850,334.125 104.853 C 335.605 104.210,335.949 103.500,334.780 103.500 C 334.383 103.500,333.928 103.288,333.768 103.030 C 333.597 102.752,334.250 102.662,335.364 102.809 C 337.237 103.058,337.241 103.054,336.000 102.297 C 334.357 101.296,333.679 101.313,333.275 102.365 M196.000 104.021 C 196.000 104.307,195.550 105.025,195.000 105.615 C 194.441 106.215,194.000 106.413,194.000 106.065 C 194.000 105.722,193.775 105.580,193.500 105.750 C 193.225 105.920,193.000 105.695,193.000 105.250 C 193.000 104.805,192.775 104.580,192.500 104.750 C 192.225 104.920,192.000 104.839,192.000 104.571 C 192.000 103.943,192.900 103.589,194.625 103.539 C 195.381 103.518,196.000 103.734,196.000 104.021 M369.000 104.456 C 369.000 104.936,368.499 105.027,367.125 104.795 C 365.550 104.530,365.410 104.572,366.250 105.058 C 366.800 105.376,367.787 106.112,368.444 106.693 C 369.286 107.439,369.703 107.566,369.860 107.125 C 370.172 106.252,371.000 106.343,371.000 107.250 C 371.000 107.662,371.241 108.000,371.537 108.000 C 372.806 108.000,371.656 106.240,370.284 106.083 C 369.210 105.961,369.012 105.801,369.534 105.479 C 370.098 105.131,370.115 104.915,369.621 104.421 C 369.126 103.926,369.000 103.933,369.000 104.456 M201.004 105.987 C 199.743 106.784,201.234 107.699,203.619 107.591 C 208.741 107.360,212.541 109.209,211.188 111.274 C 210.497 112.329,210.456 112.578,211.016 112.328 C 211.420 112.148,212.156 111.858,212.653 111.685 C 213.153 111.510,213.439 111.063,213.294 110.684 C 213.150 110.308,213.223 110.000,213.457 110.000 C 213.692 110.000,214.004 109.537,214.152 108.971 C 214.341 108.251,214.246 108.066,213.836 108.354 C 213.152 108.835,211.965 108.858,211.244 108.406 C 210.966 108.231,209.279 107.802,207.494 107.451 C 205.710 107.101,203.895 106.518,203.461 106.157 C 202.531 105.383,202.016 105.347,201.004 105.987 M358.895 106.076 C 358.460 106.352,358.657 106.490,359.500 106.500 C 360.408 106.511,360.561 106.635,360.061 106.952 C 358.895 107.690,359.983 108.619,361.684 108.337 C 362.545 108.194,364.561 108.453,366.163 108.911 L 369.077 109.744 368.740 111.991 C 368.555 113.226,368.087 114.847,367.702 115.594 C 366.870 117.201,366.766 120.500,367.547 120.500 C 367.848 120.500,368.211 120.050,368.355 119.500 C 368.499 118.950,368.844 118.500,369.123 118.500 C 369.441 118.500,369.505 117.568,369.295 115.983 C 368.875 112.816,369.367 110.000,370.341 110.000 C 372.092 110.000,369.616 108.652,367.278 108.331 C 365.923 108.146,364.302 107.658,363.675 107.247 C 363.048 106.836,362.190 106.500,361.768 106.500 C 361.345 106.500,361.000 106.313,361.000 106.083 C 361.000 105.549,359.731 105.545,358.895 106.076 M191.125 106.675 C 190.916 107.219,190.788 107.212,189.750 106.601 C 188.810 106.048,188.826 106.023,190.000 106.181 C 190.688 106.274,191.194 106.496,191.125 106.675 M171.758 107.375 C 171.596 109.255,169.997 111.501,168.862 111.442 C 167.937 111.394,167.906 111.344,168.678 111.145 C 169.404 110.958,169.544 110.594,169.319 109.472 C 169.131 108.530,169.297 107.775,169.802 107.269 C 170.832 106.239,171.851 106.294,171.758 107.375 M322.393 107.775 C 321.281 108.380,321.111 108.714,321.448 109.631 C 322.086 111.368,323.799 111.339,324.711 109.576 C 325.133 108.759,325.765 107.975,326.114 107.835 C 326.523 107.670,326.452 107.565,325.916 107.539 C 325.457 107.518,324.782 107.396,324.416 107.269 C 324.050 107.141,323.140 107.369,322.393 107.775 M186.901 108.741 C 186.818 108.811,185.850 109.002,184.750 109.167 C 183.650 109.332,183.033 109.343,183.378 109.191 C 183.724 109.039,183.908 108.756,183.788 108.562 C 183.668 108.368,184.353 108.300,185.311 108.412 C 186.268 108.524,186.983 108.672,186.901 108.741 M373.375 108.920 C 371.457 109.754,370.920 110.500,372.238 110.500 C 372.829 110.500,372.875 110.763,372.472 111.824 C 372.053 112.926,372.084 113.053,372.655 112.579 C 373.033 112.265,373.490 112.157,373.671 112.338 C 373.947 112.613,374.074 111.941,373.978 110.723 C 373.966 110.571,374.453 110.044,375.059 109.553 C 376.597 108.308,375.624 107.942,373.375 108.920 M185.113 110.998 C 186.013 111.547,186.525 111.996,186.250 111.995 C 185.975 111.994,185.075 111.546,184.250 111.000 C 182.295 109.705,182.990 109.704,185.113 110.998 M151.500 113.108 C 150.262 113.671,149.175 114.328,149.082 114.569 C 148.990 114.809,148.729 114.892,148.503 114.752 C 148.035 114.463,139.825 117.491,140.162 117.829 C 140.283 117.949,142.021 117.475,144.025 116.775 C 147.856 115.437,149.063 115.396,146.669 116.687 L 145.250 117.452 147.190 117.221 C 149.112 116.992,153.500 115.302,153.500 114.791 C 153.500 114.645,152.852 114.655,152.061 114.813 C 149.838 115.257,149.785 114.223,151.995 113.560 C 153.075 113.237,154.093 112.754,154.259 112.486 C 154.683 111.799,154.077 111.936,151.500 113.108 M159.000 112.500 C 158.053 113.112,159.588 113.112,161.500 112.500 C 162.725 112.108,162.720 112.099,161.250 112.057 C 160.425 112.034,159.412 112.233,159.000 112.500 M183.015 113.528 C 183.301 114.063,183.338 114.500,183.098 114.500 C 182.857 114.500,182.398 113.923,182.076 113.218 C 181.412 111.759,182.209 112.023,183.015 113.528 M154.500 114.000 C 153.833 114.431,153.833 114.485,154.500 114.485 C 154.912 114.485,155.588 114.267,156.000 114.000 C 156.667 113.569,156.667 113.515,156.000 113.515 C 155.588 113.515,154.912 113.733,154.500 114.000 M186.622 114.750 C 186.442 115.693,186.071 116.000,185.113 116.000 L 183.842 116.000 185.046 114.803 C 186.615 113.243,186.912 113.233,186.622 114.750 M292.532 114.625 C 292.495 116.215,292.183 116.320,290.914 115.173 C 290.341 114.653,290.000 114.566,290.000 114.938 C 290.000 115.264,290.327 115.657,290.726 115.810 C 291.783 116.215,292.601 119.142,292.273 121.344 C 292.063 122.752,292.112 122.989,292.459 122.250 C 292.718 121.700,292.946 120.786,292.965 120.219 C 293.004 119.057,294.999 117.014,297.250 115.829 C 298.075 115.395,298.525 115.039,298.250 115.038 C 297.975 115.036,297.188 115.357,296.500 115.750 C 294.879 116.676,294.500 116.671,294.500 115.720 C 294.500 115.292,294.273 115.081,293.996 115.253 C 293.718 115.424,293.283 115.044,293.027 114.407 C 292.572 113.272,292.563 113.276,292.532 114.625 M177.500 117.167 C 177.500 118.315,177.267 118.833,176.750 118.833 C 175.878 118.833,175.780 117.845,176.518 116.467 C 177.255 115.088,177.500 115.263,177.500 117.167 M203.500 117.030 C 203.500 117.596,203.676 117.950,203.892 117.817 C 204.107 117.684,204.839 118.275,205.517 119.132 C 208.561 122.976,210.000 124.554,210.000 124.049 C 210.000 123.749,209.242 122.658,208.316 121.626 C 207.390 120.594,206.461 119.198,206.250 118.523 C 205.519 116.176,203.500 115.080,203.500 117.030 M270.721 117.713 C 268.949 119.013,273.043 120.085,275.158 118.875 C 275.759 118.531,277.825 117.998,279.750 117.690 C 281.989 117.331,282.619 117.114,281.500 117.087 C 280.538 117.063,278.738 117.242,277.500 117.484 C 276.149 117.749,275.060 117.740,274.775 117.462 C 274.061 116.768,271.819 116.906,270.721 117.713 M235.833 118.833 C 235.271 119.395,235.464 120.081,236.077 119.702 C 236.436 119.481,236.519 119.565,236.297 119.925 C 236.096 120.248,235.425 120.375,234.774 120.211 C 234.133 120.051,233.476 120.135,233.313 120.399 C 233.150 120.662,233.744 121.044,234.633 121.248 L 236.250 121.617 234.750 121.998 C 231.576 122.804,230.537 123.531,233.000 123.222 C 234.761 123.002,235.087 123.066,234.500 123.518 C 233.878 123.996,233.920 124.037,234.750 123.760 C 235.300 123.576,235.975 123.386,236.250 123.338 C 236.525 123.290,236.873 123.085,237.024 122.884 C 237.175 122.682,238.187 122.172,239.274 121.749 C 241.077 121.049,241.112 121.002,239.678 121.218 C 238.309 121.423,238.139 121.327,238.363 120.470 C 238.560 119.718,238.429 119.559,237.810 119.796 C 237.270 120.003,237.000 119.839,237.000 119.303 C 237.000 118.477,236.423 118.244,235.833 118.833 M137.500 119.737 C 136.813 120.092,134.736 121.079,132.886 121.931 C 129.481 123.499,121.794 128.119,119.500 129.977 C 118.813 130.534,116.563 132.118,114.500 133.498 C 112.438 134.878,110.188 136.483,109.500 137.065 L 108.250 138.123 109.500 137.306 C 110.188 136.857,111.311 136.252,111.996 135.961 C 112.682 135.670,114.978 134.106,117.098 132.486 C 122.841 128.097,137.331 120.000,139.442 120.000 C 139.749 120.000,140.000 119.775,140.000 119.500 C 140.000 118.845,139.053 118.935,137.500 119.737 M213.499 122.792 C 213.498 123.044,212.839 123.691,212.034 124.230 C 211.229 124.769,210.674 125.377,210.799 125.580 C 210.925 125.783,210.224 126.100,209.242 126.284 C 208.237 126.473,207.543 126.867,207.655 127.185 C 207.764 127.496,208.255 127.677,208.745 127.587 C 209.385 127.471,209.546 127.646,209.318 128.212 C 209.143 128.646,208.861 129.345,208.690 129.767 C 208.425 130.423,208.568 130.448,209.681 129.941 C 210.396 129.615,211.114 128.929,211.276 128.417 C 211.439 127.905,211.755 127.599,211.979 127.737 C 212.203 127.876,212.650 127.672,212.972 127.284 C 213.454 126.703,213.354 126.629,212.404 126.863 C 210.860 127.244,211.414 126.705,213.797 125.508 L 215.750 124.527 214.000 124.840 L 212.250 125.153 213.205 124.073 C 213.731 123.480,214.012 122.845,213.830 122.664 C 213.649 122.482,213.499 122.540,213.499 122.792 M238.500 127.016 C 238.500 128.049,239.963 131.000,240.474 131.000 C 241.266 131.000,241.105 129.210,240.250 128.500 C 239.838 128.158,239.500 127.568,239.500 127.189 C 239.500 126.810,239.275 126.500,239.000 126.500 C 238.725 126.500,238.500 126.732,238.500 127.016 M118.348 128.489 C 115.839 130.080,115.050 131.118,117.408 129.725 C 119.157 128.692,121.345 127.026,120.973 127.011 C 120.820 127.005,119.639 127.670,118.348 128.489 M105.243 139.397 C 103.863 140.416,100.826 143.275,98.493 145.750 C 96.159 148.225,93.981 150.423,93.652 150.635 C 93.323 150.846,92.553 151.746,91.941 152.635 C 91.280 153.594,92.444 152.727,94.808 150.500 C 96.997 148.438,98.727 146.610,98.654 146.440 C 98.478 146.029,102.815 142.054,105.703 139.980 C 106.966 139.073,108.000 138.144,108.000 137.915 C 108.000 137.348,108.061 137.315,105.243 139.397 M323.000 137.993 C 323.000 138.272,323.238 138.500,323.530 138.500 C 323.821 138.500,323.926 138.715,323.763 138.978 C 323.601 139.241,323.081 139.312,322.609 139.135 C 321.844 138.848,321.829 138.910,322.470 139.697 C 323.142 140.522,323.058 140.559,321.220 140.253 C 319.764 140.011,319.446 140.063,320.000 140.455 C 320.413 140.746,321.594 140.988,322.625 140.992 C 323.656 140.997,324.500 141.096,324.500 141.214 C 324.500 141.520,319.653 146.787,317.061 149.299 C 315.239 151.064,314.926 151.636,315.195 152.710 C 315.724 154.818,317.458 153.662,317.524 151.158 C 317.537 150.659,318.966 148.722,320.699 146.855 L 323.850 143.460 325.487 144.355 C 326.726 145.033,327.180 145.097,327.355 144.622 C 327.482 144.276,327.847 144.125,328.168 144.285 C 328.488 144.445,328.219 144.109,327.570 143.538 C 326.388 142.499,326.488 142.307,328.125 142.474 C 328.606 142.523,329.000 142.324,329.000 142.031 C 329.000 141.739,328.759 141.500,328.463 141.500 C 327.253 141.500,328.358 139.737,329.756 139.438 L 331.250 139.118 329.779 139.059 C 328.370 139.002,328.349 138.969,329.279 138.242 C 330.195 137.528,330.164 137.503,328.750 137.807 C 327.925 137.984,327.058 138.304,326.822 138.517 C 326.587 138.730,325.631 138.586,324.697 138.196 C 323.684 137.772,323.000 137.691,323.000 137.993 M373.000 150.797 C 373.000 151.184,372.747 151.500,372.439 151.500 C 372.036 151.500,372.044 151.700,372.465 152.208 C 372.932 152.771,372.868 152.956,372.152 153.108 C 371.448 153.258,371.621 153.497,372.941 154.197 C 374.229 154.880,374.723 154.949,375.010 154.483 C 375.224 154.137,375.663 154.042,376.021 154.263 C 376.408 154.502,376.530 154.453,376.334 154.136 C 376.158 153.851,376.500 153.000,377.093 152.245 L 378.173 150.872 377.087 151.454 C 376.321 151.863,376.000 151.874,376.000 151.488 C 376.000 151.187,375.775 151.080,375.500 151.250 C 375.225 151.420,375.000 151.347,375.000 151.088 C 375.000 150.829,374.550 150.499,374.000 150.355 C 373.350 150.185,373.000 150.340,373.000 150.797 M377.000 154.881 C 377.000 155.147,377.521 155.901,378.157 156.557 C 380.185 158.647,381.880 161.230,381.646 161.872 C 381.521 162.214,382.014 162.720,382.742 162.997 C 384.458 163.649,384.605 163.634,384.412 162.819 C 384.206 161.951,377.000 154.234,377.000 154.881 M85.219 156.625 L 83.750 158.250 85.375 156.781 C 86.269 155.974,87.000 155.243,87.000 155.156 C 87.000 154.770,86.587 155.110,85.219 156.625 M79.294 167.538 C 78.583 168.384,78.000 169.298,78.000 169.568 C 78.000 169.838,77.719 169.897,77.375 169.699 C 77.031 169.502,76.883 169.490,77.045 169.673 C 77.207 169.857,76.532 170.885,75.545 171.959 C 72.659 175.096,70.328 179.281,70.897 180.299 C 71.532 181.432,72.661 179.580,72.201 178.161 C 71.973 177.457,72.019 177.409,72.402 177.948 C 73.010 178.801,74.762 175.828,74.193 174.908 C 73.995 174.587,74.069 174.483,74.366 174.667 C 74.652 174.844,75.755 173.701,76.818 172.127 C 77.881 170.553,79.256 168.702,79.875 168.013 C 80.908 166.862,81.302 166.000,80.794 166.000 C 80.681 166.000,80.006 166.692,79.294 167.538 M69.190 180.875 C 69.037 181.356,68.235 183.278,67.407 185.146 C 66.580 187.013,65.739 189.151,65.538 189.896 C 65.263 190.918,64.877 191.238,63.962 191.200 C 63.195 191.169,63.089 191.230,63.675 191.367 C 64.597 191.582,64.624 192.625,63.801 196.250 C 63.676 196.800,63.414 198.426,63.219 199.862 C 63.001 201.463,62.663 202.351,62.347 202.155 C 62.030 201.960,61.954 202.160,62.151 202.672 C 62.328 203.132,62.266 204.050,62.015 204.712 C 61.666 205.628,61.738 205.984,62.316 206.206 C 62.832 206.404,63.023 207.018,62.913 208.116 C 62.783 209.411,62.950 209.771,63.750 209.916 C 64.559 210.062,64.630 209.973,64.125 209.449 C 63.781 209.092,63.500 208.044,63.500 207.120 C 63.500 205.978,63.315 205.555,62.923 205.798 C 62.562 206.021,62.481 205.935,62.707 205.569 C 63.177 204.809,63.990 205.320,64.035 206.405 C 64.064 207.094,64.150 207.065,64.500 206.250 C 65.108 204.836,65.093 203.500,64.470 203.500 C 64.179 203.500,64.080 203.725,64.250 204.000 C 64.420 204.275,64.321 204.500,64.030 204.500 C 63.256 204.500,63.394 203.532,64.520 201.051 C 65.647 198.567,66.299 198.492,65.444 200.944 C 65.136 201.828,65.001 202.668,65.145 202.811 C 65.288 202.954,65.571 202.324,65.773 201.411 C 66.098 199.948,66.192 199.869,66.563 200.750 L 66.984 201.750 66.875 200.750 C 66.679 198.948,67.734 199.355,68.500 201.377 C 68.912 202.465,69.501 203.669,69.807 204.053 C 71.334 205.964,70.191 206.984,67.875 205.777 C 67.119 205.382,66.500 205.245,66.500 205.471 C 66.500 206.055,71.659 208.507,72.800 208.465 C 73.719 208.431,73.719 208.417,72.782 208.051 C 71.746 207.645,70.593 203.457,70.532 199.875 C 70.514 198.844,70.261 198.000,69.969 198.000 C 69.624 198.000,69.553 198.828,69.765 200.375 L 70.092 202.750 69.039 200.755 C 68.459 199.657,68.094 198.476,68.227 198.130 C 68.360 197.783,68.228 197.500,67.935 197.500 C 67.641 197.500,67.873 196.700,68.450 195.722 L 69.500 193.944 68.395 194.718 C 67.787 195.143,66.990 196.000,66.624 196.621 C 65.970 197.730,65.963 197.731,66.251 196.662 C 66.450 195.921,66.259 195.415,65.651 195.075 C 65.160 194.800,64.928 194.406,65.134 194.199 C 65.341 193.992,65.809 194.232,66.175 194.732 C 66.789 195.572,66.864 195.576,67.164 194.794 C 67.356 194.294,67.287 194.073,66.994 194.254 C 66.722 194.422,66.500 194.195,66.500 193.750 C 66.500 193.305,66.289 193.071,66.032 193.230 C 65.743 193.409,65.739 192.912,66.021 191.926 C 66.479 190.330,67.125 188.959,69.665 184.200 C 70.441 182.746,70.890 181.296,70.710 180.825 C 70.296 179.747,69.541 179.772,69.190 180.875 M74.221 186.778 C 73.266 187.543,73.266 187.548,74.250 187.095 C 74.800 186.842,75.588 186.510,76.000 186.357 C 76.648 186.117,76.644 186.074,75.971 186.039 C 75.542 186.018,74.754 186.350,74.221 186.778 M71.722 188.209 C 71.126 188.645,70.544 188.744,70.210 188.467 C 69.434 187.823,69.079 191.232,69.751 192.877 C 70.078 193.677,70.142 193.667,70.519 192.750 C 70.868 191.899,70.935 191.880,70.965 192.625 C 71.012 193.788,71.394 193.728,72.553 192.375 C 74.472 190.135,74.763 189.305,73.291 190.269 C 72.586 190.731,72.123 191.294,72.262 191.520 C 72.402 191.746,72.304 192.062,72.044 192.223 C 71.784 192.383,71.427 192.058,71.250 191.500 C 71.058 190.895,70.690 190.628,70.339 190.839 C 70.006 191.038,70.049 190.824,70.436 190.346 C 71.236 189.361,71.731 189.214,71.184 190.125 C 70.935 190.539,71.098 190.514,71.666 190.054 C 72.138 189.671,72.408 189.242,72.266 189.100 C 72.125 188.958,72.259 188.540,72.566 188.171 C 73.287 187.301,72.942 187.317,71.722 188.209 M58.750 191.186 L 57.250 191.826 59.481 191.719 C 60.709 191.659,61.796 191.361,61.898 191.056 C 62.142 190.323,60.623 190.386,58.750 191.186 M69.808 195.232 C 68.686 196.944,68.797 197.387,70.000 196.000 C 70.910 194.950,71.294 194.000,70.808 194.000 C 70.702 194.000,70.252 194.555,69.808 195.232 M53.000 195.644 C 53.000 196.799,54.672 199.541,55.242 199.322 C 55.666 199.160,56.329 199.725,56.950 200.778 C 57.509 201.725,58.184 202.500,58.449 202.500 C 58.715 202.500,59.075 202.950,59.250 203.500 C 59.425 204.050,59.890 204.500,60.284 204.500 C 61.206 204.500,61.213 203.689,60.294 203.336 C 59.906 203.187,59.298 202.263,58.944 201.283 C 58.589 200.302,58.018 199.500,57.674 199.500 C 57.331 199.500,56.870 199.190,56.650 198.812 C 56.210 198.056,53.000 195.270,53.000 195.644 M44.263 197.104 C 44.064 197.849,43.586 198.721,43.201 199.041 C 42.378 199.724,42.268 201.339,43.029 201.593 C 43.760 201.837,43.103 203.354,42.100 203.739 C 41.624 203.921,41.039 203.729,40.714 203.285 C 40.404 202.862,40.007 202.660,39.830 202.837 C 39.653 203.013,39.769 203.471,40.086 203.854 C 40.536 204.395,40.457 204.739,39.734 205.400 C 38.857 206.203,38.842 206.201,39.464 205.375 C 39.857 204.853,39.912 204.500,39.600 204.500 C 39.312 204.500,38.328 203.892,37.413 203.149 L 35.750 201.798 36.960 203.147 C 38.799 205.196,38.007 205.157,35.718 203.085 C 33.595 201.164,33.571 201.130,33.149 199.517 C 33.005 198.964,32.676 198.641,32.419 198.800 C 32.148 198.968,32.225 199.430,32.601 199.900 C 32.997 200.395,32.636 200.281,31.677 199.609 C 30.239 198.600,30.077 198.579,29.776 199.363 C 29.595 199.834,29.613 200.054,29.815 199.851 C 30.018 199.649,30.480 200.188,30.842 201.049 C 31.687 203.061,31.671 203.327,30.679 203.708 C 29.963 203.983,29.947 203.916,30.554 203.180 C 31.097 202.522,31.112 202.291,30.622 202.126 C 30.276 202.010,30.121 201.709,30.276 201.457 C 30.432 201.206,30.314 201.000,30.014 201.000 C 29.714 201.000,29.323 201.394,29.146 201.875 C 28.968 202.356,28.583 202.910,28.289 203.105 C 27.945 203.334,28.093 203.708,28.703 204.154 C 29.441 204.693,29.506 204.937,28.998 205.251 C 28.601 205.497,28.467 205.457,28.657 205.150 C 28.828 204.873,28.403 204.388,27.711 204.073 C 26.114 203.345,26.000 203.353,26.000 204.192 C 26.000 204.572,25.606 205.022,25.125 205.192 C 24.644 205.362,23.967 205.632,23.621 205.793 C 22.998 206.083,23.107 203.846,23.841 201.250 C 24.185 200.036,24.061 200.149,21.925 203.000 C 19.412 206.356,18.424 208.000,18.922 208.000 C 19.167 208.000,19.963 207.100,20.691 206.000 C 22.315 203.545,22.573 203.504,22.215 205.757 L 21.936 207.514 23.843 206.632 C 24.892 206.147,25.923 205.525,26.135 205.250 C 26.377 204.934,26.746 205.038,27.135 205.531 C 27.473 205.961,28.158 206.465,28.657 206.652 C 29.204 206.858,29.415 207.233,29.190 207.597 C 28.899 208.068,28.773 208.068,28.616 207.597 C 28.505 207.265,28.209 207.121,27.957 207.276 C 27.706 207.432,27.500 207.321,27.500 207.030 C 27.500 206.738,27.275 206.500,27.000 206.500 C 26.061 206.500,26.498 207.432,27.601 207.782 C 30.466 208.691,35.016 207.849,33.801 206.634 C 33.594 206.428,33.206 206.650,32.938 207.129 C 32.349 208.182,31.500 208.274,31.500 207.285 C 31.500 206.891,30.994 206.496,30.375 206.405 C 29.279 206.245,29.290 206.200,30.830 204.627 C 31.973 203.459,32.331 202.711,32.124 201.921 C 31.858 200.904,31.966 200.930,33.673 202.289 C 34.859 203.234,35.401 204.015,35.206 204.500 C 34.476 206.314,34.384 206.781,34.897 206.061 C 35.167 205.682,35.643 205.529,35.955 205.722 C 36.332 205.955,36.142 206.380,35.386 206.993 C 34.761 207.500,34.431 208.096,34.652 208.317 C 34.873 208.539,35.211 208.477,35.402 208.178 C 35.954 207.317,38.042 206.798,37.761 207.592 C 37.491 208.352,40.866 210.121,41.287 209.440 C 41.437 209.198,41.347 209.000,41.088 209.000 C 40.358 209.000,39.964 206.830,40.590 206.259 C 40.989 205.894,41.052 206.018,40.812 206.696 C 40.536 207.474,40.604 207.536,41.194 207.046 C 41.691 206.634,42.012 206.615,42.240 206.984 C 42.421 207.277,42.753 207.403,42.978 207.264 C 43.203 207.125,43.377 207.290,43.365 207.630 C 43.309 209.193,43.545 210.000,44.058 210.000 C 44.366 210.000,44.502 209.562,44.361 209.023 C 44.116 208.087,44.161 208.081,45.428 208.873 L 46.750 209.699 45.500 208.229 C 44.813 207.420,44.025 206.588,43.750 206.379 C 43.435 206.140,43.522 205.825,43.986 205.527 C 44.390 205.267,44.564 204.898,44.373 204.706 C 44.181 204.514,43.717 204.613,43.341 204.924 C 42.187 205.882,42.019 204.986,43.116 203.724 C 43.685 203.070,44.377 202.674,44.653 202.844 C 44.946 203.026,44.998 202.902,44.778 202.546 C 44.566 202.203,44.806 201.459,45.326 200.843 C 46.245 199.756,46.244 199.755,45.211 200.625 C 43.283 202.247,42.445 200.710,44.063 198.522 C 44.642 197.738,45.005 196.794,44.870 196.424 C 44.725 196.027,44.475 196.307,44.263 197.104 M64.714 199.735 C 63.578 201.468,63.470 201.201,64.110 198.244 C 64.623 195.875,64.673 195.818,65.107 197.095 C 65.449 198.103,65.351 198.763,64.714 199.735 M16.525 198.250 C 16.531 198.525,16.857 199.313,17.250 200.000 C 17.643 200.688,17.973 202.581,17.982 204.208 C 18.001 207.363,18.479 207.858,18.593 204.841 C 18.630 203.850,18.849 203.157,19.080 203.300 C 19.645 203.649,19.549 202.596,18.837 200.632 C 18.514 199.743,18.050 199.031,17.806 199.050 C 17.562 199.070,17.171 198.785,16.939 198.418 C 16.706 198.050,16.520 197.975,16.525 198.250 M48.750 201.278 C 46.193 203.403,46.055 203.500,45.579 203.500 C 45.325 203.500,45.009 204.063,44.878 204.750 C 44.615 206.123,44.966 206.334,45.921 205.379 C 46.415 204.885,46.638 204.910,47.013 205.504 C 47.273 205.914,47.488 206.065,47.492 205.839 C 47.497 205.613,47.874 205.803,48.331 206.260 C 49.037 206.965,49.056 207.166,48.456 207.593 C 47.913 207.978,47.970 208.022,48.703 207.783 C 49.317 207.582,50.068 207.859,50.815 208.561 C 51.844 209.527,52.010 209.557,52.290 208.825 C 52.465 208.371,52.821 208.000,53.083 208.000 C 53.345 208.000,53.396 208.263,53.197 208.585 C 52.952 208.982,53.112 209.064,53.694 208.841 C 54.170 208.658,54.425 208.717,54.267 208.973 C 54.110 209.226,54.605 209.433,55.366 209.432 C 56.127 209.431,57.256 209.546,57.875 209.687 C 58.970 209.936,59.350 209.516,58.656 208.823 C 58.468 208.634,58.261 208.090,58.198 207.615 C 57.890 205.285,57.363 203.713,56.475 202.465 C 55.939 201.712,55.500 200.847,55.500 200.544 C 55.500 200.166,55.178 200.191,54.482 200.621 L 53.464 201.250 54.538 202.125 C 55.128 202.606,55.485 203.000,55.332 203.000 C 55.179 203.000,55.395 204.147,55.811 205.549 C 56.227 206.951,56.457 208.209,56.322 208.345 C 55.803 208.863,54.000 207.893,53.992 207.091 C 53.986 206.366,53.919 206.353,53.505 207.000 C 53.083 207.659,52.858 207.645,51.638 206.883 C 50.874 206.407,49.384 205.589,48.326 205.067 C 47.267 204.544,46.592 204.031,46.826 203.926 C 47.336 203.697,50.791 199.993,50.473 200.016 C 50.350 200.024,49.575 200.593,48.750 201.278 M96.750 202.742 C 94.506 203.508,93.713 203.948,94.542 203.968 C 95.252 203.986,95.995 203.838,96.193 203.641 C 96.390 203.443,97.722 202.904,99.151 202.442 C 100.580 201.980,101.412 201.590,101.000 201.575 C 100.588 201.559,98.675 202.085,96.750 202.742 M67.015 202.500 C 67.015 202.912,67.233 203.588,67.500 204.000 C 67.931 204.667,67.985 204.667,67.985 204.000 C 67.985 203.588,67.767 202.912,67.500 202.500 C 67.069 201.833,67.015 201.833,67.015 202.500 M80.297 204.809 C 80.121 205.268,80.094 205.761,80.238 205.905 C 80.382 206.049,80.500 205.925,80.500 205.630 C 80.500 205.325,80.985 205.213,81.625 205.371 C 82.793 205.658,82.784 205.624,81.433 204.596 C 80.762 204.085,80.560 204.123,80.297 204.809 M89.750 204.931 C 88.650 205.430,87.581 205.875,87.375 205.920 C 87.169 205.964,86.888 206.028,86.750 206.063 C 86.612 206.097,86.219 206.163,85.875 206.210 C 85.531 206.257,85.304 206.558,85.369 206.880 C 85.441 207.232,85.160 207.338,84.662 207.147 C 84.060 206.916,83.948 207.011,84.250 207.500 C 84.555 207.994,84.438 208.083,83.806 207.841 C 83.327 207.657,83.075 207.716,83.235 207.975 C 83.392 208.230,83.123 208.671,82.636 208.954 C 81.806 209.437,81.811 209.471,82.711 209.485 C 83.239 209.493,84.050 209.157,84.513 208.739 C 84.975 208.320,87.131 207.086,89.302 205.996 C 93.225 204.028,93.576 203.193,89.750 204.931 M111.322 205.315 C 109.987 205.725,108.984 206.151,109.093 206.260 C 109.203 206.370,110.633 206.039,112.271 205.525 C 113.910 205.011,114.912 204.586,114.500 204.580 C 114.088 204.575,112.657 204.905,111.322 205.315 M76.034 205.250 C 76.037 206.133,77.463 208.319,77.482 207.471 C 77.492 207.042,77.170 206.254,76.766 205.721 C 76.362 205.187,76.033 204.975,76.034 205.250 M90.053 206.821 C 88.910 207.823,88.079 208.745,88.205 208.871 C 88.331 208.997,88.955 208.609,89.592 208.008 C 90.229 207.406,91.537 206.494,92.500 205.979 C 93.900 205.231,94.038 205.040,93.190 205.022 C 92.607 205.010,91.195 205.819,90.053 206.821 M74.585 206.252 C 75.387 208.689,76.717 211.500,77.068 211.500 C 77.735 211.500,77.615 211.159,75.960 208.357 C 75.112 206.923,74.494 205.976,74.585 206.252 M45.500 206.962 C 45.500 207.220,46.175 207.913,47.000 208.500 C 48.393 209.492,49.209 210.997,47.923 210.202 C 47.551 209.972,47.482 210.066,47.729 210.466 C 47.985 210.880,48.280 210.920,48.613 210.587 C 48.946 210.254,48.802 209.672,48.181 208.842 C 47.101 207.396,45.500 206.274,45.500 206.962 M79.960 208.375 C 79.620 209.406,78.984 210.524,78.546 210.859 C 77.550 211.621,78.194 211.649,80.706 210.951 C 82.047 210.579,82.454 210.280,82.001 210.001 C 81.638 209.776,80.983 209.726,80.545 209.890 C 79.857 210.147,79.842 210.074,80.436 209.344 C 80.814 208.880,80.974 208.500,80.794 208.500 C 80.613 208.500,80.706 208.050,81.000 207.500 C 81.320 206.902,81.343 206.500,81.056 206.500 C 80.793 206.500,80.300 207.344,79.960 208.375 M69.000 208.145 C 69.000 208.237,69.675 208.960,70.500 209.750 L 72.000 211.187 72.000 210.010 C 72.000 209.363,71.849 208.984,71.665 209.168 C 71.481 209.353,70.806 209.160,70.165 208.740 C 69.524 208.320,69.000 208.053,69.000 208.145 M93.911 209.118 C 96.280 209.432,98.573 209.431,100.411 209.116 C 102.955 208.679,102.574 208.629,96.750 208.631 C 90.365 208.634,90.315 208.643,93.911 209.118 M52.819 210.250 C 52.977 210.662,53.308 211.000,53.553 211.000 C 53.799 211.000,54.000 210.662,54.000 210.250 C 54.000 209.838,53.670 209.500,53.266 209.500 C 52.818 209.500,52.644 209.793,52.819 210.250 M104.500 209.977 C 104.912 210.256,105.681 210.488,106.208 210.492 C 107.488 210.503,107.088 210.216,105.250 209.805 C 104.155 209.560,103.952 209.607,104.500 209.977 M85.750 211.500 C 84.857 211.884,84.894 211.933,86.095 211.965 C 86.836 211.984,87.580 211.775,87.750 211.500 C 88.119 210.903,87.139 210.903,85.750 211.500 " stroke="none" fill="#000000" fill-rule="evenodd"></path></g></svg>