<svg id="svg" xmlns="http://www.w3.org/2000/svg" xmlns:xlink="http://www.w3.org/1999/xlink" width="400" height="211.26760563380282" viewBox="0, 0, 400,211.26760563380282"><g id="svgg"><path id="path0" d="M223.669 1.276 C 220.736 3.040,218.818 3.713,216.262 3.877 L 214.072 4.017 212.405 2.847 C 208.985 0.448,207.581 0.154,204.336 1.157 C 203.015 1.565,201.945 1.711,200.910 1.625 C 199.084 1.474,198.581 1.955,197.853 4.550 L 197.384 6.222 193.974 8.661 C 167.099 27.881,158.433 39.070,155.630 58.169 C 154.648 64.860,153.837 66.969,150.162 72.394 C 148.956 74.176,146.505 78.248,144.717 81.443 C 135.217 98.418,129.908 103.463,105.775 118.452 C 101.592 121.050,96.901 123.967,95.352 124.934 C 91.969 127.045,81.337 133.117,71.744 138.418 C 36.405 157.943,14.813 176.552,1.589 198.880 C -0.718 202.775,-0.693 203.867,1.761 206.318 C 4.437 208.992,5.529 209.324,12.535 209.592 C 17.544 209.783,18.401 209.888,20.261 210.537 C 23.189 211.560,24.621 211.495,28.336 210.170 C 30.029 209.566,32.173 208.985,33.101 208.879 C 39.730 208.120,46.727 206.581,58.310 203.334 C 61.641 202.400,66.148 201.219,68.326 200.708 C 71.486 199.968,72.621 199.566,73.949 198.717 C 77.785 196.263,83.765 194.221,94.085 191.843 C 108.286 188.569,113.467 186.779,117.873 183.624 C 119.493 182.464,119.934 181.746,118.803 182.110 C 118.454 182.223,116.458 182.686,114.366 183.139 C 110.066 184.072,108.553 184.700,107.376 186.040 C 106.689 186.822,106.250 187.024,104.618 187.305 C 98.896 188.291,94.471 189.553,79.859 194.368 C 70.852 197.336,65.271 198.978,62.274 199.543 C 60.900 199.801,61.163 199.657,64.698 198.214 C 70.003 196.049,73.404 194.158,72.902 193.653 C 72.639 193.390,69.714 194.343,66.761 195.656 C 64.409 196.701,61.291 197.159,60.681 196.549 C 60.384 196.252,59.420 196.664,74.225 190.767 C 99.502 180.700,108.841 177.724,122.113 175.504 C 124.127 175.167,126.746 174.646,127.934 174.347 C 130.414 173.722,131.977 173.669,132.896 174.179 C 133.471 174.499,133.206 174.589,130.361 175.040 C 125.007 175.888,120.922 176.942,116.408 178.638 C 114.501 179.355,113.475 180.000,114.242 180.000 C 115.146 180.000,119.446 179.154,123.753 178.130 C 126.669 177.436,129.187 176.912,129.348 176.966 C 130.134 177.228,127.876 179.014,124.959 180.436 C 120.492 182.615,119.309 183.743,122.324 182.948 C 123.137 182.734,125.324 182.189,127.183 181.738 C 132.900 180.350,134.298 179.437,130.704 179.437 C 127.910 179.437,128.222 179.164,132.465 177.900 C 136.208 176.784,142.894 176.046,141.690 176.881 C 141.458 177.043,140.887 177.177,140.423 177.180 C 138.820 177.192,133.239 179.184,133.239 179.745 C 133.239 180.262,136.300 179.977,139.577 179.155 C 143.035 178.288,144.227 178.169,145.211 178.592 C 145.764 178.829,145.764 178.834,145.185 178.853 C 144.404 178.880,143.702 179.692,143.347 180.977 C 143.158 181.659,142.773 182.183,142.235 182.489 C 141.782 182.747,141.411 183.053,141.410 183.169 C 141.406 183.652,145.589 183.507,148.116 182.936 C 149.094 182.716,150.362 182.537,150.933 182.540 C 155.798 182.560,147.397 185.559,135.554 188.029 C 120.902 191.086,117.583 191.955,112.606 194.039 C 110.543 194.903,109.002 196.168,110.634 195.659 C 110.905 195.574,115.296 194.548,120.391 193.379 C 136.673 189.642,146.059 187.867,155.211 186.794 C 164.831 185.665,164.904 185.826,155.634 187.720 C 143.349 190.230,138.315 191.658,132.853 194.182 C 130.847 195.109,129.865 196.070,131.338 195.667 C 131.687 195.571,133.620 195.115,135.634 194.653 C 137.648 194.192,141.197 193.363,143.521 192.812 C 157.873 189.407,165.893 188.053,175.070 187.486 L 177.606 187.329 176.121 187.745 C 174.037 188.328,171.268 189.831,171.268 190.378 C 171.268 191.318,187.966 190.128,190.597 189.000 L 191.906 188.438 193.488 189.073 C 195.757 189.982,201.914 189.977,206.238 189.062 L 209.236 188.427 210.291 189.143 C 211.687 190.090,212.940 190.064,216.586 189.012 C 219.874 188.064,220.989 187.966,221.234 188.604 C 222.160 191.018,229.976 190.208,241.690 186.482 C 248.873 184.198,261.432 181.023,277.465 177.438 C 281.391 176.561,281.972 176.247,281.972 175.008 C 281.972 174.246,281.856 174.292,285.352 173.670 C 286.824 173.408,290.627 172.564,293.803 171.795 C 303.841 169.364,309.346 168.451,313.954 168.451 C 315.561 168.451,315.744 168.391,315.825 167.845 C 316.003 166.653,317.285 166.063,319.808 166.013 C 321.075 165.988,321.764 166.027,321.338 166.101 C 320.630 166.223,320.563 166.341,320.563 167.483 C 320.563 168.170,320.500 168.732,320.422 168.732 C 318.927 168.732,301.689 171.642,298.023 172.514 C 293.745 173.530,287.351 175.788,286.299 176.654 C 286.123 176.799,283.905 177.240,281.370 177.634 C 269.230 179.521,258.767 182.248,249.366 185.976 C 244.402 187.944,243.830 188.543,247.419 188.012 C 251.088 187.469,252.437 187.165,263.099 184.474 C 274.664 181.556,277.863 180.842,283.099 180.010 C 290.430 178.845,292.407 178.013,290.695 176.814 C 290.161 176.440,290.223 176.400,291.611 176.220 C 292.429 176.114,295.634 175.458,298.732 174.763 C 315.389 171.025,322.534 169.961,326.812 170.582 L 328.310 170.799 327.324 171.023 C 326.353 171.244,322.067 171.970,310.141 173.933 C 301.425 175.367,292.958 177.407,292.958 178.073 C 292.958 178.558,295.958 178.284,299.623 177.465 C 303.319 176.638,305.911 176.449,307.324 176.901 L 308.028 177.127 307.290 177.155 C 305.315 177.230,297.942 178.666,290.423 180.440 C 283.589 182.053,282.930 182.202,278.592 183.114 C 268.287 185.282,259.718 187.903,259.718 188.888 C 259.718 189.571,272.906 186.950,286.761 183.514 C 308.287 178.175,317.179 176.491,327.558 175.786 C 329.933 175.625,333.419 175.504,335.304 175.519 L 338.732 175.544 335.070 176.507 C 330.032 177.831,325.250 178.150,327.042 177.042 C 328.431 176.184,327.007 176.201,324.437 177.073 C 319.925 178.604,314.684 179.843,302.450 182.269 C 296.222 183.504,290.049 184.780,288.732 185.104 C 282.133 186.729,275.601 189.014,277.556 189.014 C 279.195 189.014,312.762 183.248,342.394 177.876 C 345.036 177.397,345.838 176.894,346.663 175.197 C 347.461 173.556,348.220 173.268,351.782 173.252 C 354.949 173.238,356.338 172.544,356.338 170.975 C 356.338 170.201,355.806 170.252,346.620 171.904 C 339.315 173.218,332.039 173.550,329.296 172.694 L 328.028 172.298 329.155 172.079 C 329.775 171.958,332.437 171.719,335.070 171.548 C 340.127 171.218,342.573 170.793,345.005 169.820 C 348.339 168.486,344.523 167.889,340.856 169.170 C 338.368 170.039,338.152 169.978,337.906 168.339 C 337.644 166.591,337.816 166.600,328.873 167.876 C 327.374 168.090,326.243 168.108,325.493 167.930 C 324.454 167.683,324.536 167.660,326.544 167.634 C 328.913 167.603,330.830 167.015,331.276 166.182 C 331.691 165.406,331.636 165.352,330.439 165.352 C 329.829 165.352,329.255 165.232,329.164 165.086 C 328.860 164.593,331.103 164.229,334.451 164.227 C 338.034 164.225,339.237 163.891,339.583 162.799 C 339.686 162.476,339.726 162.170,339.674 162.120 C 339.559 162.012,328.918 162.715,326.901 162.965 C 326.127 163.060,323.845 163.320,321.831 163.541 C 318.083 163.952,313.292 164.586,310.282 165.069 C 309.352 165.218,306.880 165.600,304.789 165.918 C 302.697 166.235,299.426 166.753,297.520 167.069 C 293.059 167.807,292.720 167.657,296.371 166.564 C 297.980 166.082,301.197 165.080,303.521 164.337 C 308.218 162.835,307.322 162.909,318.169 163.134 C 323.242 163.240,323.552 163.207,328.451 162.071 C 334.636 160.636,346.254 156.650,347.683 155.472 C 348.701 154.633,349.140 153.586,348.346 153.891 C 344.856 155.230,337.629 156.643,330.141 157.451 C 317.278 158.838,313.362 159.506,305.352 161.674 C 299.189 163.342,291.831 164.530,291.831 163.856 C 291.831 163.139,298.754 161.626,310.141 159.855 C 321.556 158.081,325.778 156.819,327.811 154.576 C 328.788 153.498,328.434 153.550,312.113 156.859 C 306.320 158.033,301.731 158.726,301.470 158.465 C 301.385 158.380,301.530 158.310,301.793 158.310 C 302.460 158.310,304.999 156.995,306.279 155.987 C 307.438 155.074,308.044 154.932,318.028 153.240 C 335.439 150.289,341.359 149.102,347.958 147.243 C 352.989 145.825,353.358 145.352,349.431 145.352 C 347.144 145.352,346.306 145.495,343.727 146.326 C 339.851 147.575,338.723 147.743,337.171 147.302 L 335.915 146.945 337.746 146.550 C 338.754 146.334,342.049 145.540,345.070 144.786 C 348.092 144.032,351.451 143.266,352.535 143.084 C 354.630 142.732,356.338 141.905,356.338 141.245 C 356.338 140.427,350.948 141.349,343.099 143.510 C 336.032 145.455,332.514 145.998,330.493 145.456 C 328.920 145.035,329.255 144.944,348.592 140.528 C 364.090 136.990,370.780 135.126,378.028 132.330 C 386.404 129.098,378.320 130.837,352.817 137.753 C 320.798 146.437,309.512 148.789,304.225 147.880 L 302.113 147.517 303.280 147.001 C 304.985 146.246,307.955 145.680,313.521 145.050 C 320.158 144.299,326.479 142.660,326.479 141.691 C 326.479 140.361,317.470 141.420,307.324 143.941 C 301.303 145.438,296.924 146.314,296.682 146.071 C 296.596 145.986,296.712 145.915,296.940 145.915 C 297.666 145.915,301.840 143.761,302.877 142.850 C 303.789 142.049,304.048 141.972,305.812 141.972 C 312.593 141.971,319.808 140.469,326.959 137.569 C 328.322 137.016,329.729 136.450,330.087 136.311 C 331.702 135.682,330.169 135.633,327.543 136.229 C 315.397 138.984,305.563 140.551,300.367 140.560 L 298.621 140.563 298.923 139.696 C 299.294 138.632,298.861 138.776,304.789 137.748 C 318.208 135.420,334.745 132.038,351.690 128.155 C 353.859 127.658,356.331 127.092,357.183 126.898 C 361.129 126.001,368.126 124.360,375.211 122.671 C 379.472 121.655,384.194 120.553,385.704 120.222 C 388.374 119.637,389.260 119.155,387.664 119.155 C 385.210 119.155,371.804 121.765,355.211 125.474 C 351.415 126.322,346.028 127.524,343.239 128.144 C 340.451 128.763,335.360 129.908,331.926 130.687 C 320.075 133.377,313.864 134.574,307.012 135.488 C 302.747 136.057,292.089 136.775,291.085 136.561 C 290.512 136.439,296.045 135.354,298.732 135.062 C 304.791 134.402,309.875 133.282,313.141 131.888 C 317.539 130.010,312.401 129.930,307.574 131.801 C 302.067 133.936,291.736 133.551,292.963 131.257 C 293.394 130.452,294.233 130.343,295.407 130.940 C 297.724 132.120,298.365 132.149,301.636 131.227 C 309.318 129.061,318.947 126.984,340.563 122.829 C 360.410 119.013,379.442 114.278,378.543 113.379 C 378.465 113.301,376.258 113.677,373.637 114.214 C 364.065 116.177,351.720 118.028,348.205 118.028 C 345.451 118.028,342.817 118.343,342.817 118.672 C 342.817 118.849,343.587 118.896,344.883 118.798 C 347.801 118.578,348.074 118.987,345.288 119.406 C 340.474 120.129,334.680 121.412,322.254 124.506 C 308.660 127.890,301.859 129.010,294.903 129.013 C 289.797 129.014,289.568 129.084,289.152 130.754 C 288.978 131.448,287.987 132.637,287.805 132.369 C 287.482 131.896,286.759 129.276,286.762 128.592 C 286.766 127.786,286.864 127.717,288.858 127.111 C 294.917 125.272,302.660 123.332,316.620 120.159 C 337.851 115.331,348.732 112.506,348.732 111.822 C 348.732 111.472,349.283 111.402,343.041 112.540 C 335.339 113.945,328.816 115.399,313.521 119.121 C 301.258 122.105,293.367 123.750,287.113 124.627 C 285.925 124.794,285.915 124.789,285.915 123.919 C 285.915 121.154,288.312 119.503,293.662 118.581 C 294.746 118.394,298.359 117.614,301.690 116.848 C 305.021 116.082,310.507 114.893,313.882 114.206 C 330.477 110.828,343.962 107.690,344.602 107.057 C 345.025 106.639,344.383 106.522,343.094 106.781 C 342.399 106.920,339.042 107.493,335.634 108.053 C 324.987 109.802,312.956 112.307,293.692 116.785 C 288.751 117.933,284.610 118.873,284.488 118.873 C 284.367 118.873,284.522 118.151,284.832 117.268 C 285.143 116.385,285.344 115.391,285.281 115.059 C 285.091 114.067,291.507 112.319,309.050 108.584 C 325.540 105.073,332.952 102.952,326.831 103.497 C 321.187 103.999,314.647 105.297,303.239 108.178 C 293.572 110.621,291.898 111.006,287.336 111.836 C 283.802 112.480,284.049 112.676,284.465 109.547 C 285.520 101.628,291.180 96.274,301.845 93.107 C 305.249 92.096,305.175 92.124,304.967 91.915 C 304.603 91.552,301.938 91.871,299.672 92.549 C 296.873 93.387,296.801 93.390,297.196 92.652 C 297.658 91.788,297.392 88.904,296.619 86.409 C 296.159 84.923,296.035 84.134,296.231 83.938 C 297.043 83.126,304.142 81.668,310.680 80.971 C 314.115 80.605,315.218 80.381,315.958 79.902 C 317.213 79.090,317.144 78.762,315.764 78.983 C 315.139 79.083,312.698 79.356,310.342 79.589 C 305.845 80.034,301.703 80.570,297.124 81.301 C 294.052 81.791,294.048 81.790,293.407 80.440 C 291.972 77.414,292.182 75.050,293.973 74.100 C 297.085 72.449,298.290 68.378,296.765 64.668 L 296.078 62.998 298.191 60.786 C 303.632 55.091,305.192 50.070,302.858 45.762 C 302.372 44.864,302.005 44.114,302.043 44.096 C 306.293 42.037,307.387 39.748,308.579 30.423 L 309.173 25.775 307.027 22.958 C 305.847 21.408,304.334 19.317,303.665 18.310 C 302.995 17.303,302.408 16.430,302.360 16.370 C 302.311 16.311,301.951 16.471,301.560 16.728 C 299.840 17.855,297.706 18.103,294.157 17.590 C 290.570 17.071,288.354 17.257,286.069 18.269 L 284.954 18.762 281.984 17.724 C 280.351 17.153,278.819 16.604,278.580 16.504 C 278.017 16.269,275.243 17.724,272.281 19.808 L 269.951 21.447 266.133 20.970 C 263.066 20.586,261.966 20.554,260.542 20.805 C 258.455 21.172,258.417 21.154,258.993 20.040 C 259.712 18.651,259.584 18.028,258.583 18.028 C 257.194 18.028,256.035 17.382,253.879 15.403 C 251.688 13.392,250.774 12.983,249.528 13.454 C 248.779 13.736,248.732 13.710,248.731 13.004 C 248.725 10.899,245.145 8.182,242.323 8.142 C 239.069 8.095,237.414 7.614,237.091 6.620 C 236.939 6.155,236.518 5.333,236.154 4.794 C 235.791 4.254,235.493 3.478,235.493 3.069 C 235.493 2.422,235.350 2.303,234.391 2.149 C 233.785 2.052,231.746 1.529,229.861 0.987 C 225.670 -0.220,226.197 -0.244,223.669 1.276 M206.761 3.317 C 206.761 3.631,206.314 4.025,205.563 4.373 C 204.240 4.988,203.877 5.809,204.671 6.390 C 205.523 7.013,206.088 6.818,207.693 5.352 C 209.139 4.030,210.704 3.444,210.704 4.225 C 210.704 5.313,206.380 8.648,204.093 9.324 C 202.279 9.859,202.363 10.538,204.220 10.359 C 205.285 10.257,206.264 9.837,208.286 8.613 C 211.787 6.495,213.368 5.915,215.644 5.915 L 217.479 5.915 217.061 6.724 C 216.202 8.385,213.801 10.125,209.257 12.379 C 203.895 15.039,202.420 16.082,201.127 18.130 C 200.404 19.274,199.878 19.780,199.155 20.025 C 195.607 21.227,193.328 22.929,187.887 28.442 C 185.344 31.019,183.132 32.990,182.025 33.665 C 180.442 34.631,180.266 34.827,180.422 35.449 C 180.734 36.693,179.498 39.402,177.763 41.276 C 174.740 44.543,173.402 47.915,171.564 56.902 C 168.861 70.114,164.742 77.944,153.878 90.524 C 151.059 93.789,150.943 94.047,152.528 93.523 C 154.865 92.752,157.723 89.444,162.267 82.254 C 163.882 79.697,165.740 76.947,166.396 76.141 C 167.793 74.425,168.855 71.262,173.701 54.383 L 176.647 44.118 178.676 41.988 C 179.791 40.817,181.960 38.274,183.496 36.338 C 188.041 30.604,188.682 29.829,190.891 27.394 L 193.000 25.070 194.703 25.070 L 196.405 25.070 198.853 22.746 C 201.509 20.224,204.430 18.171,211.408 13.919 C 216.721 10.682,219.489 8.694,221.909 6.377 C 224.901 3.514,230.118 2.575,230.137 4.897 C 230.167 8.638,232.799 10.474,239.704 11.568 C 245.052 12.416,244.692 12.172,244.843 15.048 C 245.042 18.842,246.188 19.645,250.957 19.328 L 253.662 19.148 251.408 19.926 C 249.420 20.613,249.089 20.828,248.592 21.757 C 247.222 24.318,250.988 25.495,257.535 24.553 C 258.497 24.414,259.155 24.424,259.155 24.577 C 259.155 24.719,259.545 25.725,260.023 26.812 C 260.963 28.955,260.896 29.779,259.693 30.868 C 258.862 31.620,259.016 31.954,260.998 33.715 C 264.433 36.766,265.249 38.793,263.757 40.567 C 262.913 41.569,263.145 41.960,264.590 41.968 C 265.966 41.975,266.649 40.961,266.878 38.576 C 267.231 34.893,267.265 34.877,268.533 37.799 C 269.159 39.242,270.031 40.968,270.470 41.634 C 271.472 43.156,271.476 43.144,270.222 42.505 C 266.710 40.714,266.543 42.709,269.683 48.944 C 271.587 52.724,272.215 56.901,270.880 56.901 C 269.998 56.901,269.561 56.331,269.374 54.941 C 269.193 53.589,268.901 53.505,268.317 54.634 C 267.304 56.592,267.812 58.594,270.424 62.934 C 273.462 67.981,273.700 70.362,271.410 72.800 C 270.205 74.083,270.638 74.864,273.103 75.856 C 274.184 76.290,275.162 76.740,275.278 76.855 C 275.724 77.302,274.484 87.574,273.435 92.113 C 272.859 94.607,273.161 95.171,276.056 97.001 C 279.407 99.120,276.020 110.270,270.310 115.915 C 265.335 120.834,263.387 121.662,268.049 116.877 C 273.887 110.883,274.976 108.095,273.316 103.397 C 272.650 101.513,272.395 101.404,271.693 102.706 C 268.898 107.897,258.186 111.826,247.801 111.470 C 240.898 111.234,240.882 111.301,248.657 107.972 C 255.808 104.910,261.127 102.952,261.127 103.380 C 261.127 104.871,257.906 106.619,252.669 107.970 C 246.487 109.566,245.083 110.424,248.662 110.421 C 252.849 110.416,259.517 108.159,266.834 104.270 C 269.874 102.653,269.962 102.183,267.268 101.951 C 263.714 101.645,263.514 99.855,266.971 99.298 C 267.629 99.192,268.441 98.884,268.776 98.613 L 269.384 98.121 268.920 94.624 C 268.665 92.700,268.193 88.718,267.871 85.775 C 267.238 80.000,266.800 77.547,265.869 74.577 C 265.225 72.520,265.196 72.492,264.383 73.108 C 264.060 73.352,263.218 73.521,262.327 73.521 C 259.763 73.521,257.895 74.745,258.371 76.112 C 258.693 77.034,258.860 77.050,262.056 76.458 L 263.126 76.260 262.510 77.303 C 261.753 78.587,261.954 78.816,263.938 78.928 L 265.482 79.014 264.361 80.255 C 262.045 82.819,259.680 83.248,259.171 81.197 C 258.319 77.763,255.173 73.521,253.479 73.521 C 252.206 73.521,253.785 78.154,256.420 82.152 C 259.325 86.559,260.345 89.296,259.082 89.296 C 257.717 89.296,254.053 90.422,250.518 91.926 C 245.942 93.875,244.259 94.366,242.168 94.366 C 239.017 94.366,241.404 92.834,246.781 91.405 C 248.871 90.849,251.036 90.088,251.620 89.703 C 254.304 87.933,251.422 87.543,247.746 89.179 C 242.391 91.563,240.866 91.932,239.308 91.222 C 238.655 90.924,238.506 90.986,237.675 91.899 C 236.266 93.448,234.184 93.923,232.286 93.130 C 230.876 92.541,230.799 91.692,232.050 90.546 C 234.370 88.420,231.326 89.159,225.537 92.125 C 223.170 93.339,220.639 94.481,219.913 94.664 C 218.418 95.040,218.187 95.652,219.169 96.634 C 219.883 97.348,220.573 97.173,222.060 95.904 C 223.726 94.481,224.726 94.371,223.786 95.714 C 223.074 96.729,221.971 97.124,218.899 97.462 C 217.306 97.637,215.693 97.899,215.313 98.043 C 214.640 98.299,214.628 98.279,214.814 97.251 C 215.230 94.955,216.272 93.844,219.421 92.341 C 221.565 91.317,221.770 90.891,220.182 90.757 C 218.733 90.635,216.635 91.667,214.087 93.756 C 210.870 96.395,209.059 97.257,206.416 97.410 C 205.211 97.480,204.225 97.593,204.225 97.660 C 204.225 98.893,205.515 99.143,207.452 98.286 C 208.865 97.661,209.129 97.681,208.856 98.393 C 208.417 99.539,207.323 99.853,203.662 99.885 C 193.916 99.969,175.829 109.572,172.768 116.286 C 170.615 121.008,162.977 127.435,153.923 132.141 C 150.216 134.068,150.152 134.034,153.239 131.780 C 156.752 129.216,159.512 126.769,167.372 119.257 C 179.216 107.935,183.659 104.489,191.142 100.816 C 193.319 99.748,195.252 98.873,195.438 98.873 C 195.836 98.873,195.861 98.601,195.515 98.055 C 195.159 97.492,193.659 97.610,192.503 98.291 C 191.322 98.989,190.913 99.027,191.036 98.428 C 191.086 98.183,191.979 97.515,193.020 96.943 C 195.607 95.524,196.635 94.085,195.061 94.085 C 193.951 94.085,192.625 94.743,189.415 96.890 C 184.567 100.132,184.661 99.118,189.577 95.141 C 193.242 92.176,195.635 91.504,198.662 92.590 C 200.231 93.152,200.839 92.873,200.288 91.843 C 199.846 91.017,200.276 90.540,201.663 90.319 C 203.857 89.968,207.591 87.772,210.845 84.918 C 212.549 83.424,214.673 81.624,215.563 80.918 C 217.588 79.315,217.621 78.968,215.668 79.832 C 213.653 80.723,211.833 81.908,207.455 85.180 C 202.362 88.986,199.702 90.287,196.464 90.557 C 192.347 90.900,190.308 92.064,183.295 98.079 C 177.227 103.285,167.563 110.141,163.165 112.361 C 161.898 113.000,161.408 113.403,161.408 113.807 C 161.408 114.474,162.147 114.535,162.941 113.935 C 166.365 111.345,162.063 119.133,157.235 124.266 C 150.401 131.530,141.020 136.230,127.770 139.028 C 125.898 139.423,124.253 139.860,124.114 139.998 C 123.332 140.781,128.427 140.886,131.831 140.157 C 132.993 139.908,134.958 139.634,136.197 139.548 L 138.451 139.392 137.774 139.941 C 135.987 141.391,132.528 142.031,123.803 142.525 C 116.011 142.967,102.792 145.584,84.225 150.361 C 71.374 153.667,62.791 158.323,43.380 172.516 L 37.606 176.738 35.344 176.923 C 32.347 177.168,31.152 177.818,28.498 180.645 C 23.665 185.791,23.117 186.210,16.460 189.833 C 10.115 193.287,7.389 195.766,6.033 199.319 C 5.449 200.847,5.453 200.851,8.128 201.691 C 14.117 203.572,22.535 200.227,22.535 195.967 C 22.535 194.591,31.731 188.984,44.043 182.855 C 55.218 177.291,56.899 176.347,63.738 171.796 C 71.545 166.601,74.074 165.466,88.398 160.739 C 98.211 157.500,99.061 157.309,98.540 158.452 C 98.100 159.418,97.875 159.394,103.380 158.970 C 114.113 158.144,126.495 155.807,139.155 152.216 C 142.681 151.216,149.910 149.072,150.704 148.792 C 150.950 148.705,150.841 148.956,150.444 149.391 C 149.959 149.924,148.862 150.422,146.641 151.117 C 142.184 152.512,141.186 153.327,143.506 153.674 C 145.273 153.939,148.173 153.277,152.817 151.548 C 156.227 150.278,160.997 149.073,161.323 149.398 C 161.475 149.550,158.848 150.532,156.038 151.375 C 153.791 152.049,151.268 153.471,151.268 154.064 C 151.268 155.974,161.496 154.633,169.398 151.688 C 172.036 150.705,174.623 150.022,174.850 150.249 C 175.243 150.642,171.746 151.847,166.620 153.084 C 159.562 154.787,155.668 156.798,154.886 159.143 C 154.815 159.357,154.156 159.178,152.953 158.618 C 147.274 155.975,141.367 155.942,130.000 158.492 C 116.150 161.599,109.813 162.542,105.307 162.165 C 103.142 161.985,102.170 162.510,97.122 166.594 C 94.658 168.587,94.471 168.683,92.419 169.004 C 80.841 170.812,67.289 176.962,60.434 183.520 C 58.699 185.180,58.285 185.416,54.704 186.777 C 48.168 189.263,44.797 191.190,42.480 193.767 C 41.479 194.881,40.840 195.302,39.434 195.775 C 35.818 196.994,32.925 198.888,28.189 203.138 C 22.802 207.972,23.382 207.585,21.959 207.300 C 21.269 207.161,18.042 206.929,14.789 206.784 C 6.934 206.434,4.590 205.825,3.254 203.785 C 1.673 201.372,4.980 196.271,12.220 189.958 C 16.913 185.866,17.869 184.763,19.321 181.775 C 20.952 178.417,24.531 174.960,36.338 165.340 C 42.363 160.431,44.367 158.705,47.520 155.704 C 48.945 154.349,50.310 153.239,50.555 153.239 C 52.071 153.239,55.740 150.854,56.944 149.086 C 57.201 148.710,59.184 147.618,61.856 146.382 C 87.257 134.637,110.296 120.497,128.873 105.250 C 136.763 98.776,149.296 86.880,149.296 85.867 C 149.296 85.218,148.264 85.176,147.387 85.791 C 145.701 86.971,146.731 83.790,149.396 79.582 C 150.183 78.340,151.101 76.500,151.435 75.493 C 152.023 73.723,152.075 73.662,152.994 73.659 C 154.714 73.654,155.211 73.320,155.217 72.164 C 155.226 70.792,156.081 68.963,156.927 68.508 C 157.585 68.154,157.607 68.033,157.654 64.564 C 157.738 58.467,159.017 54.364,163.845 44.709 C 165.455 41.489,167.280 37.580,167.900 36.024 C 170.611 29.220,171.379 28.397,181.700 21.231 C 184.572 19.237,189.991 15.389,193.742 12.681 L 200.563 7.756 200.563 5.757 L 200.563 3.758 201.901 3.724 C 202.637 3.705,203.746 3.502,204.366 3.273 C 205.949 2.688,206.761 2.703,206.761 3.317 M294.602 23.508 C 296.176 24.745,296.901 25.730,296.901 26.633 C 296.901 26.952,296.466 27.042,294.930 27.042 C 292.251 27.042,292.360 28.447,295.216 30.742 C 296.713 31.945,297.185 32.867,297.174 34.563 L 297.164 35.915 296.578 35.211 C 296.255 34.824,294.908 32.669,293.585 30.423 C 291.693 27.211,290.708 25.871,288.979 24.155 L 286.779 21.973 287.429 21.547 C 287.787 21.312,288.955 20.958,290.025 20.758 L 291.972 20.396 292.460 21.302 C 292.728 21.801,293.692 22.793,294.602 23.508 M300.008 20.568 C 301.018 21.108,302.477 23.505,301.664 23.288 C 301.291 23.188,300.771 23.105,300.509 23.102 C 299.570 23.095,298.488 21.861,298.695 21.034 C 298.899 20.221,299.176 20.123,300.008 20.568 M276.338 23.938 C 284.661 24.478,288.301 25.955,290.410 29.646 L 291.198 31.026 289.866 32.414 C 287.563 34.817,286.761 34.077,286.761 29.551 L 286.761 27.074 285.563 27.601 C 283.202 28.642,281.968 28.808,279.989 28.351 C 277.852 27.857,277.787 27.884,278.551 28.957 C 279.807 30.721,282.093 31.970,283.269 31.535 C 283.899 31.302,287.279 40.504,287.759 43.761 L 287.960 45.127 290.205 45.025 C 292.154 44.936,292.520 44.836,292.985 44.261 L 293.521 43.600 293.521 44.321 C 293.521 45.507,290.983 47.042,289.021 47.042 C 288.398 47.042,287.982 46.639,286.619 44.718 C 284.479 41.703,283.525 40.601,282.205 39.624 C 280.692 38.502,280.718 37.716,282.255 38.126 C 284.098 38.618,284.462 38.031,283.809 35.618 C 282.766 31.764,278.801 30.541,279.519 34.295 C 279.941 36.503,272.854 28.822,270.033 24.014 C 269.779 23.582,270.681 23.572,276.338 23.938 M238.475 24.801 C 238.023 24.936,237.579 25.162,237.489 25.303 C 237.398 25.444,236.689 25.880,235.912 26.272 C 235.135 26.664,233.483 27.602,232.240 28.356 C 230.997 29.111,229.443 29.906,228.786 30.123 C 226.676 30.820,228.235 31.675,230.421 31.020 C 232.505 30.395,239.437 25.687,239.437 24.895 C 239.437 24.682,239.405 24.518,239.366 24.531 C 239.327 24.545,238.926 24.666,238.475 24.801 M252.464 29.558 C 250.751 30.503,247.441 32.823,247.161 33.274 C 246.294 34.679,250.769 32.679,252.792 30.759 C 255.063 28.603,254.950 28.188,252.464 29.558 M270.704 30.674 C 271.401 31.222,272.028 31.710,272.096 31.757 C 272.164 31.805,272.010 32.055,271.753 32.312 C 271.318 32.747,271.171 32.670,269.620 31.190 C 267.367 29.041,268.152 28.667,270.704 30.674 M238.873 31.549 C 238.641 31.699,238.049 31.824,237.558 31.827 C 236.276 31.833,235.808 32.076,235.342 32.978 C 234.681 34.255,234.795 34.366,236.770 34.366 C 239.993 34.366,241.563 33.105,240.048 31.734 C 239.450 31.192,239.430 31.189,238.873 31.549 M235.352 38.011 C 227.802 40.430,225.156 41.574,222.042 43.761 C 219.846 45.304,221.061 45.463,224.470 44.078 C 225.414 43.694,226.724 43.380,227.381 43.380 L 228.576 43.380 227.880 43.857 C 227.064 44.415,226.771 44.792,226.765 45.291 C 226.757 45.935,227.616 46.004,228.254 45.410 C 228.628 45.062,229.598 44.709,230.704 44.518 C 233.013 44.121,234.033 43.721,234.377 43.078 C 234.850 42.194,234.677 41.972,233.512 41.972 C 232.749 41.972,232.322 41.829,232.210 41.537 C 231.980 40.939,232.019 40.918,234.468 40.292 C 237.281 39.572,238.798 38.888,240.085 37.758 C 242.177 35.921,241.815 35.940,235.352 38.011 M275.103 38.073 C 276.390 39.499,277.228 41.302,276.777 41.676 C 276.178 42.174,275.876 41.877,274.789 39.718 C 274.254 38.657,273.685 37.707,273.524 37.607 C 273.362 37.507,273.303 37.308,273.393 37.163 C 273.601 36.826,274.324 37.210,275.103 38.073 M184.698 40.226 C 182.417 42.747,176.540 60.000,177.962 60.000 C 179.351 60.000,180.264 58.010,180.524 54.412 C 180.740 51.426,180.770 51.326,182.345 48.389 C 183.341 46.533,184.018 44.889,184.133 44.046 C 184.275 43.012,184.542 42.481,185.258 41.805 C 186.299 40.824,186.521 39.718,185.677 39.718 C 185.392 39.718,184.951 39.947,184.698 40.226 M165.361 44.111 C 165.356 44.435,164.845 46.167,164.225 47.960 C 163.066 51.312,162.855 52.961,163.425 54.212 C 163.877 55.203,164.129 55.111,164.360 53.873 C 164.469 53.292,164.938 51.676,165.402 50.282 C 166.565 46.792,166.716 45.138,165.957 44.225 C 165.397 43.553,165.370 43.548,165.361 44.111 M248.254 45.563 C 248.342 46.144,248.577 47.359,248.777 48.262 C 249.096 49.705,249.084 50.001,248.677 50.710 C 248.039 51.821,248.544 52.197,250.875 52.345 C 252.850 52.471,252.941 52.398,252.113 51.344 C 251.384 50.418,251.403 49.826,252.237 47.373 L 252.924 45.352 252.166 45.343 C 251.749 45.338,251.162 45.148,250.862 44.921 C 250.561 44.693,249.815 44.507,249.205 44.507 L 248.095 44.507 248.254 45.563 M279.716 47.175 C 280.417 50.299,281.588 51.508,283.555 51.139 C 284.469 50.967,284.507 50.995,284.507 51.829 C 284.507 52.869,285.330 54.572,286.208 55.352 C 287.002 56.057,288.451 58.019,288.451 58.390 C 288.451 58.543,288.185 58.330,287.861 57.918 C 287.537 57.506,286.509 56.651,285.577 56.018 C 283.930 54.899,283.886 54.837,284.045 53.842 L 284.208 52.817 282.456 52.791 C 281.231 52.772,280.323 52.571,279.437 52.122 C 277.822 51.304,277.895 51.411,278.429 50.652 C 278.808 50.113,278.859 49.512,278.725 47.183 C 278.549 44.114,279.030 44.110,279.716 47.175 M217.348 46.216 C 213.630 47.137,207.394 51.995,208.504 53.105 C 208.727 53.328,219.883 47.830,220.815 47.038 C 221.901 46.114,219.785 45.612,217.348 46.216 M257.196 46.887 C 256.263 47.880,256.473 50.247,257.642 51.910 C 258.672 53.375,259.643 53.724,259.266 52.493 C 258.951 51.467,258.947 47.983,259.259 46.972 C 259.587 45.908,258.171 45.850,257.196 46.887 M273.842 47.881 C 274.518 48.188,275.356 48.441,275.704 48.445 C 276.399 48.451,276.492 48.763,276.046 49.596 C 275.541 50.541,273.928 50.323,272.757 49.151 C 271.940 48.334,271.828 48.089,272.116 47.743 C 272.542 47.229,272.377 47.216,273.842 47.881 M276.630 54.957 C 277.536 55.407,278.602 55.775,278.998 55.775 C 279.853 55.775,279.955 56.472,279.289 57.760 C 278.636 59.022,278.154 58.798,276.626 56.521 C 276.040 55.649,275.313 54.977,274.616 54.665 C 274.015 54.396,273.609 54.091,273.713 53.986 C 273.960 53.739,274.616 53.958,276.630 54.957 M199.827 57.874 C 196.086 59.751,194.132 62.311,191.119 69.283 C 187.778 77.016,187.319 77.750,184.697 79.556 C 183.711 80.235,182.103 81.942,180.110 84.425 C 176.776 88.579,174.484 90.828,172.524 91.868 C 171.601 92.358,171.268 92.704,171.268 93.175 C 171.268 93.527,170.940 94.310,170.539 94.916 C 169.771 96.076,169.724 96.988,170.426 97.107 C 170.679 97.150,171.291 96.444,171.972 95.324 C 173.376 93.014,173.620 92.765,175.664 91.549 C 179.950 89.000,184.701 83.251,190.564 73.521 C 195.544 65.256,197.664 62.205,200.729 58.896 C 202.925 56.524,202.800 56.383,199.827 57.874 M259.867 58.239 C 260.764 60.356,260.860 60.997,260.679 63.629 L 260.492 66.343 261.332 67.242 L 262.172 68.142 260.171 69.179 C 255.555 71.569,255.463 73.556,260.054 71.690 C 261.845 70.962,263.499 70.776,263.803 71.268 C 264.139 71.812,264.574 71.553,264.394 70.915 C 264.296 70.567,264.086 68.824,263.928 67.042 C 263.450 61.650,262.757 59.471,261.160 58.334 C 260.138 57.606,259.581 57.565,259.867 58.239 M283.491 58.755 C 283.585 59.000,283.662 59.681,283.662 60.267 C 283.662 60.918,283.889 61.621,284.246 62.075 C 284.875 62.875,284.450 63.139,283.616 62.465 C 282.247 61.357,281.639 58.310,282.787 58.310 C 283.080 58.310,283.397 58.510,283.491 58.755 M277.654 60.883 C 279.358 61.204,279.790 61.615,279.667 62.797 L 279.577 63.659 278.732 63.199 C 276.196 61.820,276.283 61.845,275.872 62.406 C 275.664 62.691,275.493 63.217,275.493 63.575 C 275.493 63.933,275.371 64.225,275.221 64.225 C 274.729 64.225,274.366 63.159,274.366 61.716 L 274.366 60.296 275.282 60.452 C 275.785 60.537,276.853 60.731,277.654 60.883 M160.276 65.791 C 160.125 66.187,159.676 67.795,159.278 69.365 C 158.285 73.282,158.030 73.805,155.925 76.217 C 154.026 78.395,153.690 79.155,154.625 79.155 C 155.445 79.155,156.056 78.854,156.056 78.451 C 156.056 78.253,156.813 76.937,157.739 75.527 C 160.096 71.937,160.605 70.839,160.774 68.971 C 160.889 67.704,161.040 67.300,161.447 67.171 C 162.216 66.927,162.658 65.980,162.239 65.475 C 161.678 64.799,160.586 64.975,160.276 65.791 M247.443 67.670 C 248.620 70.668,249.098 71.391,250.270 71.948 C 251.902 72.722,252.217 72.575,251.583 71.334 C 251.286 70.752,250.915 69.221,250.760 67.934 C 250.442 65.305,250.306 65.019,249.738 65.795 C 249.379 66.286,249.252 66.302,248.403 65.962 C 246.400 65.158,246.433 65.099,247.443 67.670 M202.265 68.704 C 202.079 69.153,200.794 70.622,199.409 71.968 C 195.978 75.303,195.051 77.108,197.324 76.029 C 200.556 74.496,203.091 71.645,203.317 69.289 C 203.475 67.651,202.846 67.302,202.265 68.704 M170.996 73.310 C 170.854 73.658,170.477 74.324,170.159 74.789 C 169.841 75.254,169.580 75.885,169.579 76.191 C 169.578 76.497,169.039 77.245,168.380 77.852 C 167.183 78.956,167.252 79.508,168.506 78.851 C 171.039 77.522,172.731 75.014,172.109 73.511 C 171.695 72.513,171.346 72.450,170.996 73.310 M224.225 73.944 C 223.838 74.165,223.122 74.351,222.634 74.356 C 221.810 74.365,221.723 74.462,221.424 75.712 C 221.246 76.451,220.651 77.624,220.101 78.317 L 219.101 79.577 219.970 79.666 C 220.449 79.714,221.123 79.556,221.469 79.313 C 221.814 79.071,222.515 78.873,223.026 78.873 C 223.876 78.873,223.939 78.814,223.778 78.169 C 223.497 77.051,223.859 76.187,224.910 75.467 C 226.969 74.056,226.369 72.718,224.225 73.944 M186.740 83.780 C 182.845 86.691,180.706 88.852,180.416 90.168 C 180.135 91.449,180.425 91.466,181.755 90.249 C 182.416 89.643,184.352 88.055,186.056 86.719 C 189.249 84.216,190.263 83.127,190.581 81.859 C 190.855 80.768,190.595 80.898,186.740 83.780 M221.268 81.581 C 220.958 81.821,219.980 82.387,219.095 82.838 C 217.511 83.647,216.901 84.306,216.901 85.212 C 216.901 86.045,221.043 84.319,222.123 83.034 C 223.175 81.784,222.495 80.630,221.268 81.581 M265.581 82.741 C 265.495 83.187,265.170 83.340,263.099 83.903 C 262.561 84.049,262.373 84.310,262.306 85.007 C 262.195 86.151,262.842 86.470,263.948 85.817 C 266.236 84.466,265.678 85.732,263.239 87.428 C 262.616 87.860,262.501 88.124,262.593 88.907 C 262.670 89.573,262.590 89.859,262.323 89.859 C 261.689 89.859,261.127 88.020,261.127 85.948 L 261.127 83.990 262.606 83.128 C 264.291 82.146,265.732 81.958,265.581 82.741 M215.456 87.573 C 215.094 88.208,214.399 88.611,212.216 89.453 C 209.635 90.448,207.606 91.837,207.606 92.606 C 207.606 92.993,212.212 93.295,213.080 92.965 C 213.972 92.626,214.019 91.940,213.169 91.662 C 212.443 91.425,215.325 89.900,216.549 89.873 C 217.085 89.861,217.183 89.704,217.183 88.855 C 217.183 86.845,216.260 86.159,215.456 87.573 M324.888 87.346 C 324.233 87.647,322.440 88.022,320.804 88.198 C 318.883 88.405,317.810 88.646,317.662 88.904 C 317.538 89.120,317.181 89.296,316.869 89.296 C 316.164 89.296,315.211 89.787,315.211 90.151 C 315.211 90.579,316.130 90.479,321.602 89.458 C 326.833 88.481,330.704 87.437,330.704 87.003 C 330.704 86.512,326.111 86.783,324.888 87.346 M184.344 92.483 C 178.310 96.573,177.216 97.875,180.856 96.636 C 184.362 95.442,188.169 92.401,188.169 90.794 C 188.169 89.891,188.163 89.894,184.344 92.483 M307.661 90.870 C 306.856 91.271,306.197 91.700,306.197 91.823 C 306.197 92.969,312.767 91.699,313.175 90.474 C 313.411 89.768,309.277 90.065,307.661 90.870 M260.165 93.973 C 259.316 95.596,258.873 96.795,258.873 97.472 L 258.873 98.503 256.408 99.255 C 251.490 100.757,250.088 100.951,244.014 100.969 C 238.988 100.984,238.310 101.039,238.310 101.435 C 238.310 102.339,239.396 102.928,241.284 103.049 C 243.278 103.176,243.400 103.289,242.465 104.141 C 241.490 105.029,240.761 105.324,239.044 105.526 C 237.316 105.729,237.178 105.579,237.740 104.103 C 238.196 102.902,235.848 102.986,233.628 104.249 C 231.952 105.203,229.168 105.481,229.879 104.624 C 230.083 104.378,230.736 103.983,231.330 103.745 C 232.345 103.339,232.958 102.678,232.958 101.990 C 232.958 101.488,231.561 101.652,228.310 102.535 C 224.688 103.519,222.158 103.668,222.306 102.887 C 222.371 102.541,222.718 102.368,223.471 102.306 C 225.127 102.169,224.579 101.600,222.374 101.165 C 220.692 100.834,219.885 100.842,216.491 101.223 C 212.075 101.719,211.894 101.684,213.146 100.565 C 214.166 99.653,215.566 99.312,220.108 98.866 C 224.592 98.426,226.056 97.512,226.400 94.940 C 226.581 93.597,226.891 93.529,229.364 94.291 C 231.256 94.873,231.314 95.068,230.002 96.419 C 228.520 97.946,229.011 98.861,231.318 98.869 C 232.108 98.872,232.805 99.042,233.058 99.295 C 233.730 99.967,234.985 99.083,234.491 98.284 C 234.404 98.143,234.943 98.027,235.688 98.026 C 238.836 98.021,242.557 97.072,249.994 94.377 C 255.747 92.292,260.697 91.015,261.362 91.443 C 261.414 91.477,260.876 92.615,260.165 93.973 M266.479 91.496 C 266.479 91.790,265.550 92.787,264.763 93.338 C 263.986 93.882,264.240 94.648,265.198 94.648 C 265.905 94.648,265.904 94.651,264.626 96.831 C 262.320 100.763,261.107 100.405,262.391 96.172 C 262.622 95.411,262.812 94.181,262.814 93.437 C 262.817 92.183,262.883 92.057,263.732 91.688 C 264.733 91.253,266.479 91.131,266.479 91.496 M159.740 93.824 C 155.223 96.286,147.494 103.337,144.277 107.929 C 143.298 109.327,144.447 108.566,147.240 105.968 C 150.953 102.513,156.756 97.543,160.054 94.992 C 163.496 92.331,163.366 91.847,159.740 93.824 M256.195 94.652 C 255.749 95.374,253.665 96.043,250.551 96.466 C 245.785 97.113,243.380 98.079,243.380 99.346 C 243.380 101.145,257.327 97.556,257.699 95.661 C 257.878 94.753,256.644 93.925,256.195 94.652 M161.690 100.043 C 158.533 102.611,156.827 104.368,157.940 103.906 C 162.615 101.963,166.310 99.217,166.143 97.811 C 166.003 96.636,165.678 96.799,161.690 100.043 M305.493 99.726 C 297.642 101.148,286.201 105.199,285.688 106.738 C 285.515 107.259,286.363 107.036,294.348 104.463 C 301.866 102.040,306.099 100.860,309.930 100.118 C 311.285 99.856,312.394 99.532,312.394 99.398 C 312.394 98.996,308.499 99.181,305.493 99.726 M345.775 99.612 C 341.770 100.233,338.592 101.292,338.592 102.005 C 338.592 102.530,345.647 101.430,348.052 100.530 C 351.128 99.379,350.059 98.948,345.775 99.612 M257.904 101.856 C 251.303 105.836,243.427 108.606,237.887 108.895 L 235.070 109.043 236.056 108.470 C 236.599 108.155,238.310 107.507,239.859 107.029 C 246.991 104.829,247.547 104.561,246.713 103.728 C 246.274 103.289,246.186 103.313,252.817 102.005 C 259.853 100.617,259.963 100.614,257.904 101.856 M165.756 103.119 C 165.465 103.441,163.940 104.641,162.368 105.787 C 160.365 107.247,159.363 108.178,159.023 108.894 C 158.325 110.365,158.871 110.803,159.891 109.591 C 160.314 109.089,161.655 107.980,162.871 107.128 C 165.693 105.151,166.761 104.077,166.761 103.218 C 166.761 102.381,166.451 102.351,165.756 103.119 M358.895 103.393 C 354.358 104.305,353.949 104.503,355.079 105.243 C 355.913 105.789,356.426 105.696,364.014 103.629 C 368.803 102.324,365.071 102.152,358.895 103.393 M178.447 105.141 C 175.587 107.677,171.967 110.118,172.950 108.846 C 175.361 105.731,177.542 104.083,179.406 103.968 C 179.621 103.955,179.190 104.482,178.447 105.141 M234.930 106.423 C 234.930 107.022,234.108 107.324,232.479 107.324 C 230.664 107.324,230.166 106.959,231.338 106.488 C 232.131 106.169,234.930 106.118,234.930 106.423 M280.005 107.992 C 280.007 108.477,279.734 110.023,279.398 111.428 C 278.723 114.248,278.797 115.024,279.859 116.287 C 280.766 117.364,280.746 117.748,279.732 118.719 C 278.438 119.959,278.438 120.617,279.732 124.669 C 280.988 128.601,281.199 130.591,280.741 134.165 L 280.496 136.076 282.079 137.609 C 282.950 138.452,283.662 139.335,283.662 139.571 C 283.662 140.350,283.077 140.017,282.651 138.997 C 281.618 136.526,279.271 138.508,280.138 141.119 C 280.391 141.879,280.558 143.042,280.510 143.702 C 280.412 145.045,281.374 144.192,270.567 152.525 L 265.832 156.176 262.679 157.082 C 259.812 157.906,257.911 158.634,249.155 162.255 C 244.319 164.255,236.556 166.274,234.051 166.183 C 232.773 166.137,243.818 161.449,252.258 158.455 C 257.392 156.633,259.869 155.239,261.298 153.365 C 262.470 151.829,262.222 151.902,254.578 155.339 C 234.492 164.371,220.988 168.327,207.465 169.139 C 205.915 169.232,203.697 169.373,202.535 169.453 L 200.423 169.598 201.690 169.001 C 203.384 168.202,206.184 167.498,210.587 166.765 C 222.238 164.826,237.336 159.901,248.310 154.458 C 252.602 152.329,257.740 149.479,257.744 149.225 C 257.750 148.765,256.710 149.155,247.886 152.919 C 232.255 159.588,224.476 162.282,214.789 164.378 C 212.101 164.960,203.976 166.223,203.138 166.190 C 202.752 166.175,206.196 164.112,208.873 162.756 C 213.785 160.268,221.926 157.620,226.542 157.007 C 228.091 156.802,228.296 156.294,227.039 155.773 C 225.729 155.231,224.026 155.397,221.408 156.324 C 216.792 157.959,216.977 157.210,221.780 154.820 C 223.912 153.760,227.751 152.324,233.530 150.426 C 244.464 146.834,247.723 145.291,251.620 141.863 C 254.563 139.274,256.329 138.215,258.239 137.897 C 260.203 137.569,259.684 137.089,257.535 137.245 C 255.116 137.420,253.322 138.310,249.005 141.481 C 245.264 144.227,244.278 144.788,243.183 144.791 C 240.092 144.801,234.277 146.799,227.600 150.144 C 225.434 151.229,223.662 151.980,223.662 151.814 C 223.662 150.759,225.026 149.944,229.782 148.158 C 231.717 147.432,232.322 147.043,233.444 145.805 C 234.593 144.538,235.117 144.210,237.042 143.546 C 242.432 141.688,249.062 137.907,254.366 133.665 C 257.492 131.165,258.351 130.379,266.197 122.826 C 269.838 119.321,273.704 115.638,274.789 114.641 C 275.873 113.644,276.805 112.636,276.859 112.400 C 277.708 108.719,279.992 105.519,280.005 107.992 M390.141 110.553 C 384.637 111.543,380.845 112.751,380.845 113.515 C 380.845 113.842,381.660 113.780,386.479 113.086 C 390.511 112.505,393.960 111.237,394.297 110.211 C 394.440 109.779,394.461 109.777,390.141 110.553 M145.493 111.506 C 143.261 112.564,141.972 113.672,141.972 114.532 C 141.972 115.220,142.619 115.477,142.961 114.924 C 143.059 114.766,143.795 114.309,144.597 113.908 C 148.158 112.128,149.012 109.837,145.493 111.506 M158.732 115.527 C 157.411 117.767,152.967 121.789,147.882 125.349 C 142.368 129.210,140.563 130.610,140.563 131.028 C 140.563 131.515,142.246 131.067,143.388 130.276 C 145.108 129.085,145.704 129.382,144.296 130.728 C 140.899 133.977,144.848 132.672,149.905 128.874 C 154.969 125.071,159.250 119.158,159.918 115.043 C 160.138 113.689,159.716 113.861,158.732 115.527 M130.711 115.370 C 128.118 115.932,124.832 117.612,121.408 120.126 C 116.016 124.085,118.013 123.844,125.211 119.666 C 128.251 117.902,128.574 117.828,129.395 118.714 C 130.196 119.579,130.314 119.599,130.497 118.899 C 130.575 118.604,131.192 118.008,131.868 117.577 C 135.574 115.212,135.152 114.407,130.711 115.370 M168.473 116.296 C 168.111 116.972,164.842 120.000,164.474 120.000 C 164.035 120.000,166.503 117.192,167.601 116.444 C 168.781 115.639,168.829 115.630,168.473 116.296 M225.510 116.770 C 225.209 116.997,224.797 117.183,224.594 117.183 C 224.391 117.183,223.977 117.432,223.673 117.735 C 223.159 118.249,219.870 118.959,220.339 118.455 C 220.571 118.206,225.360 116.357,225.775 116.356 C 225.930 116.356,225.810 116.542,225.510 116.770 M273.241 117.516 C 272.017 119.500,272.122 121.491,273.653 125.352 C 275.198 129.246,275.196 131.422,273.647 132.016 C 272.799 132.342,273.201 132.950,274.155 132.784 C 277.725 132.160,278.183 131.076,276.882 126.331 C 276.302 124.218,276.250 122.269,276.743 121.091 C 276.880 120.764,276.749 120.582,276.284 120.455 C 275.040 120.115,274.566 119.560,274.970 118.913 C 275.229 118.499,275.252 118.116,275.053 117.552 C 274.655 116.419,273.927 116.405,273.241 117.516 M394.648 117.317 C 393.176 117.671,391.370 118.047,390.634 118.152 C 389.731 118.282,389.296 118.479,389.296 118.759 C 389.296 119.448,390.437 119.669,391.967 119.276 C 392.744 119.077,394.505 118.709,395.880 118.460 C 398.407 118.002,400.000 117.396,400.000 116.894 C 400.000 116.436,397.480 116.635,394.648 117.317 M334.903 118.339 C 333.881 118.471,331.472 119.033,329.551 119.588 C 325.241 120.831,322.561 121.408,321.097 121.408 C 320.481 121.408,319.500 121.652,318.916 121.950 C 317.343 122.752,314.887 123.315,311.436 123.662 C 306.684 124.141,303.739 124.734,302.081 125.546 C 300.349 126.394,300.014 127.158,301.479 126.917 C 301.982 126.835,304.169 126.507,306.338 126.189 C 316.553 124.694,325.523 122.777,335.389 119.980 C 341.400 118.276,341.178 117.529,334.903 118.339 M224.507 121.146 C 221.372 123.682,211.816 127.259,199.718 130.425 C 190.297 132.891,185.392 134.330,180.986 135.919 C 180.676 136.030,181.039 135.669,181.793 135.115 C 183.437 133.908,185.329 133.256,190.563 132.093 C 200.041 129.986,215.353 124.954,222.627 121.554 C 224.968 120.460,225.496 120.345,224.507 121.146 M210.139 121.833 C 209.945 122.066,208.694 122.582,207.358 122.978 C 206.022 123.374,204.771 123.750,204.577 123.812 C 203.894 124.033,204.236 123.644,205.000 123.330 C 206.536 122.700,210.005 121.440,210.246 121.424 C 210.381 121.416,210.333 121.599,210.139 121.833 M131.268 124.044 C 130.261 124.553,128.073 125.818,126.406 126.854 C 123.382 128.735,120.941 129.860,118.644 130.433 C 116.890 130.870,117.273 131.412,119.322 131.393 C 121.388 131.375,124.253 130.215,127.911 127.917 C 133.384 124.479,135.709 121.796,131.268 124.044 M267.739 123.959 C 266.938 125.508,266.874 127.438,267.601 128.164 C 268.340 128.903,268.736 128.643,269.259 127.071 C 270.121 124.481,268.832 121.844,267.739 123.959 M343.521 124.274 C 342.127 124.414,338.768 125.043,336.056 125.671 C 326.940 127.784,326.216 127.903,321.479 128.079 C 316.481 128.263,316.233 128.371,317.619 129.757 L 318.337 130.475 322.546 130.315 C 325.954 130.186,326.960 130.050,327.838 129.603 C 329.323 128.845,332.653 128.032,337.183 127.319 C 349.914 125.318,354.350 123.186,343.521 124.274 M254.023 125.423 C 253.060 126.688,251.580 127.463,250.597 127.217 C 249.309 126.893,250.304 125.728,252.551 124.927 C 254.499 124.234,254.841 124.349,254.023 125.423 M257.455 127.535 C 256.046 130.417,255.321 131.310,253.975 131.820 C 252.903 132.226,252.906 132.238,253.697 130.266 C 254.618 127.971,257.555 124.789,258.750 124.789 C 258.777 124.789,258.194 126.025,257.455 127.535 M226.583 125.986 C 226.919 127.240,226.829 127.324,225.141 127.326 C 223.092 127.328,219.761 128.123,216.189 129.461 C 213.300 130.543,210.664 131.322,210.488 131.145 C 209.822 130.480,213.989 128.727,219.510 127.349 C 222.096 126.704,224.626 125.996,225.134 125.775 C 226.353 125.245,226.386 125.250,226.583 125.986 M382.278 126.510 C 380.820 126.958,375.890 128.155,371.324 129.171 C 360.479 131.585,352.676 134.010,352.676 134.967 C 352.676 135.623,363.130 133.226,373.042 130.297 C 376.203 129.363,378.876 128.732,379.673 128.732 C 383.294 128.732,387.767 126.578,385.752 125.805 C 385.196 125.592,385.425 125.545,382.278 126.510 M186.730 129.296 C 186.480 129.442,184.487 130.011,182.300 130.562 C 180.112 131.112,178.098 131.633,177.823 131.720 C 177.440 131.841,177.473 131.746,177.963 131.312 C 178.824 130.550,180.772 129.934,183.814 129.461 C 187.022 128.962,187.331 128.945,186.730 129.296 M249.137 130.416 C 249.745 130.647,249.859 130.867,249.859 131.807 C 249.859 133.173,249.563 133.392,248.473 132.828 C 246.762 131.943,245.801 132.272,238.644 136.186 C 234.257 138.586,232.016 139.553,229.501 140.131 L 227.746 140.534 228.451 139.953 C 229.607 139.001,232.807 137.501,236.876 136.005 C 241.693 134.234,244.307 133.013,245.885 131.798 C 248.081 130.108,248.197 130.058,249.137 130.416 M349.577 130.991 C 348.798 131.505,346.407 132.107,341.727 132.969 C 338.457 133.570,336.551 134.076,335.300 134.673 C 332.927 135.805,332.877 136.445,335.213 135.773 C 335.754 135.617,338.099 135.171,340.423 134.781 C 345.357 133.952,347.688 133.245,349.276 132.094 C 350.641 131.106,350.912 130.112,349.577 130.991 M275.686 135.986 C 275.265 137.496,274.543 139.509,274.080 140.457 C 273.099 142.469,273.049 142.814,273.767 142.626 C 276.524 141.905,278.554 137.125,277.338 134.216 C 276.729 132.758,276.524 132.979,275.686 135.986 M223.380 134.241 C 223.380 135.076,206.344 140.523,205.712 139.890 C 205.185 139.363,211.656 136.944,217.450 135.501 C 223.645 133.958,223.380 134.014,223.380 134.241 M348.028 135.196 C 343.550 135.995,339.437 137.434,339.437 138.204 C 339.437 138.704,339.362 138.710,343.428 137.898 C 351.694 136.246,355.860 133.800,348.028 135.196 M96.173 138.429 C 94.340 139.227,93.640 140.793,94.831 141.431 C 96.533 142.342,100.563 141.708,100.563 140.529 C 100.563 138.489,98.406 137.456,96.173 138.429 M268.136 138.815 C 266.012 139.924,264.925 141.532,264.944 143.533 C 264.970 146.192,266.396 146.973,268.010 145.211 C 268.513 144.662,269.185 144.225,269.527 144.225 C 270.292 144.225,270.291 144.222,269.437 142.535 C 269.049 141.771,268.732 140.969,268.732 140.753 C 268.732 140.537,269.049 139.893,269.437 139.323 C 270.526 137.718,270.360 137.653,268.136 138.815 M336.338 138.211 C 331.981 138.865,329.900 139.484,328.724 140.473 C 327.712 141.325,327.606 142.041,328.521 141.852 C 328.870 141.780,329.789 141.644,330.563 141.550 C 332.559 141.308,335.192 140.402,336.721 139.433 C 338.589 138.248,338.477 137.889,336.338 138.211 M363.268 138.642 C 358.786 139.444,355.652 141.134,358.671 141.122 C 361.362 141.111,367.042 139.200,367.042 138.306 C 367.042 137.966,367.053 137.965,363.268 138.642 M261.910 139.993 C 260.155 140.665,256.620 142.859,256.620 143.274 C 256.620 144.122,261.853 142.030,263.127 140.674 C 264.056 139.685,263.509 139.379,261.910 139.993 M234.775 141.096 C 234.627 141.233,233.125 142.187,231.436 143.215 L 228.364 145.084 227.805 144.484 C 227.112 143.740,227.116 143.737,230.845 142.288 C 234.923 140.703,235.323 140.582,234.775 141.096 M191.268 141.390 C 189.533 142.400,182.830 144.235,178.310 144.938 C 176.455 145.226,176.926 144.987,180.751 143.700 C 185.364 142.148,192.754 140.525,191.268 141.390 M216.865 141.593 C 216.229 142.360,214.923 142.756,212.394 142.948 C 210.439 143.096,210.102 143.066,210.556 142.783 C 212.624 141.494,217.749 140.528,216.865 141.593 M111.127 141.707 C 107.601 142.110,103.946 143.669,106.549 143.660 C 109.706 143.649,114.366 142.484,114.366 141.706 C 114.366 141.378,114.017 141.378,111.127 141.707 M193.635 145.100 C 192.636 146.205,185.189 148.663,184.606 148.080 C 184.421 147.895,188.148 146.318,190.704 145.501 C 192.021 145.080,193.225 144.694,193.380 144.643 C 194.064 144.420,194.135 144.547,193.635 145.100 M272.113 146.001 C 272.113 146.593,270.429 148.002,268.376 149.128 C 266.643 150.078,265.335 151.344,265.704 151.713 C 266.243 152.253,271.684 149.580,272.544 148.353 C 273.106 147.551,273.100 145.634,272.535 145.634 C 272.303 145.634,272.113 145.799,272.113 146.001 M328.546 147.378 C 329.964 148.493,330.629 148.661,331.592 148.146 C 331.905 147.979,332.226 147.907,332.306 147.986 C 332.500 148.181,329.811 149.527,327.947 150.169 C 326.480 150.673,326.390 150.673,324.115 150.132 C 321.157 149.430,319.417 149.627,312.817 151.414 C 307.905 152.744,304.616 153.123,302.676 152.581 L 301.831 152.345 302.817 151.813 C 304.745 150.774,308.127 149.893,312.414 149.312 C 320.177 148.262,325.048 147.147,326.020 146.199 C 326.368 145.860,326.982 146.147,328.546 147.378 M284.039 148.995 C 284.439 149.600,286.007 151.103,287.524 152.334 C 291.137 155.268,291.399 155.567,290.998 156.315 C 290.294 157.631,289.475 157.865,286.949 157.472 L 284.634 157.112 282.616 158.129 C 279.949 159.471,278.338 159.826,276.811 159.405 L 275.634 159.080 276.492 158.765 C 278.192 158.142,279.434 157.118,281.492 154.643 C 283.909 151.738,283.980 151.261,282.219 149.754 C 280.901 148.626,280.904 148.672,282.035 147.244 L 282.943 146.098 283.127 146.997 C 283.228 147.491,283.638 148.390,284.039 148.995 M352.254 148.068 C 349.274 148.676,346.876 149.351,341.717 151.033 C 335.787 152.966,335.654 152.995,333.587 152.801 C 331.945 152.647,331.433 152.689,331.240 152.992 C 330.989 153.389,330.884 155.211,331.112 155.211 C 331.752 155.211,338.079 153.860,340.997 153.101 C 346.297 151.721,352.958 149.016,352.958 148.244 C 352.958 148.048,352.926 147.902,352.887 147.920 C 352.849 147.938,352.563 148.004,352.254 148.068 M190.389 150.141 C 189.304 150.714,182.809 152.762,182.633 152.586 C 182.175 152.128,188.844 149.625,190.563 149.610 L 191.408 149.602 190.389 150.141 M108.685 152.281 C 108.252 152.714,104.554 153.662,104.298 153.406 C 103.936 153.044,106.618 152.138,108.863 151.864 C 109.013 151.846,108.932 152.034,108.685 152.281 M198.570 152.573 C 197.457 153.784,195.810 154.353,192.915 154.527 L 190.282 154.685 191.408 153.963 C 192.810 153.066,194.589 152.462,196.771 152.144 C 199.360 151.767,199.320 151.758,198.570 152.573 M210.000 153.752 C 207.109 155.500,202.262 156.862,198.169 157.077 C 194.113 157.291,196.863 156.244,205.352 154.342 C 210.818 153.118,211.112 153.080,210.000 153.752 M211.831 156.489 C 211.831 157.267,209.971 158.301,208.559 158.308 C 208.386 158.309,207.911 158.573,207.503 158.894 L 206.761 159.478 206.761 158.637 C 206.761 157.575,208.046 156.431,209.515 156.185 C 210.092 156.089,210.690 155.976,210.845 155.934 C 211.317 155.806,211.831 156.095,211.831 156.489 M165.917 156.617 C 165.463 157.466,164.095 158.049,161.637 158.443 C 157.558 159.096,159.637 157.843,165.070 156.374 C 165.613 156.227,166.092 156.096,166.137 156.082 C 166.181 156.068,166.082 156.309,165.917 156.617 M147.110 160.093 C 147.844 160.320,149.048 160.862,149.786 161.296 L 151.127 162.086 150.083 162.336 C 149.318 162.519,147.736 162.383,144.167 161.828 C 137.546 160.799,135.861 160.993,127.042 163.797 C 120.756 165.796,118.725 166.192,113.247 166.490 C 105.951 166.886,103.089 167.662,100.381 169.981 C 99.135 171.047,98.873 171.024,98.873 169.848 C 98.873 167.379,103.654 165.071,108.773 165.069 C 113.916 165.068,115.799 164.764,126.901 162.141 C 132.873 160.730,136.959 159.904,139.437 159.608 C 141.255 159.390,145.761 159.675,147.110 160.093 M192.330 161.179 C 192.021 162.107,186.761 163.466,186.761 162.618 C 186.761 161.907,187.983 161.303,189.794 161.118 C 190.837 161.012,191.859 160.907,192.066 160.885 C 192.272 160.863,192.391 160.995,192.330 161.179 M260.279 161.552 C 258.593 163.584,252.043 166.698,243.320 169.614 L 236.479 171.901 234.742 171.444 C 231.389 170.560,224.940 170.977,220.000 172.398 C 213.328 174.317,214.605 174.503,225.896 173.256 C 228.751 172.941,231.136 172.733,231.197 172.793 C 231.730 173.326,226.011 174.689,219.861 175.494 C 210.041 176.781,205.807 178.519,212.958 178.328 C 215.710 178.255,225.920 176.821,228.310 176.172 C 229.428 175.869,228.080 176.593,226.197 177.308 C 223.697 178.257,221.412 178.746,214.944 179.716 C 209.077 180.596,205.964 181.190,204.712 181.666 C 203.818 182.006,203.796 181.948,204.383 180.812 C 205.578 178.501,204.028 177.739,200.406 178.858 C 197.664 179.705,197.069 179.654,197.282 178.592 C 197.484 177.582,197.567 177.593,195.715 178.375 C 193.007 179.518,186.084 179.322,182.324 177.995 L 179.437 176.977 179.437 177.728 C 179.437 178.141,179.595 178.646,179.789 178.851 C 180.458 179.558,178.260 178.923,173.349 176.989 C 170.732 175.958,167.831 174.882,166.901 174.596 L 165.211 174.078 167.870 174.236 C 169.332 174.323,172.120 174.643,174.067 174.948 C 186.692 176.922,187.134 176.972,192.254 177.007 C 197.154 177.041,198.873 176.875,198.873 176.367 C 198.873 175.857,196.246 175.474,189.881 175.055 C 182.795 174.589,180.772 174.165,178.918 172.759 C 178.118 172.152,177.874 172.092,177.285 172.361 C 176.402 172.763,176.325 172.757,176.500 172.300 C 176.667 171.865,175.106 170.712,173.239 169.892 C 170.991 168.904,167.239 168.465,158.578 168.178 C 148.890 167.856,146.734 167.568,147.519 166.700 C 149.531 164.475,153.703 164.306,161.268 166.143 C 166.514 167.417,168.451 167.779,168.451 167.487 C 168.451 165.363,165.427 163.838,160.203 163.327 C 157.530 163.065,156.969 162.940,157.499 162.722 C 158.521 162.302,167.633 162.162,171.127 162.512 C 172.831 162.683,176.095 162.974,178.380 163.158 C 180.665 163.342,182.535 163.592,182.535 163.712 C 182.535 164.367,180.916 164.866,177.893 165.141 C 174.245 165.473,174.066 165.628,175.690 167.053 C 179.513 170.411,186.072 171.725,203.972 172.719 L 215.128 173.338 216.930 172.592 C 220.166 171.253,223.029 170.705,234.209 169.286 C 245.663 167.832,249.201 166.910,253.803 164.180 C 257.892 161.753,261.239 160.395,260.279 161.552 M286.612 164.201 C 286.062 164.735,281.972 165.487,281.972 165.054 C 281.972 164.373,283.805 163.783,286.189 163.697 C 287.158 163.662,287.162 163.667,286.612 164.201 M41.614 165.210 C 41.340 165.587,40.240 166.462,39.169 167.155 C 37.096 168.496,36.481 169.261,36.764 170.151 C 36.966 170.789,37.616 170.887,37.836 170.313 C 37.919 170.098,38.949 169.198,40.126 168.312 C 42.434 166.575,42.946 165.921,42.673 165.060 C 42.445 164.342,42.223 164.373,41.614 165.210 M65.070 164.654 C 65.070 164.735,63.961 165.510,62.606 166.377 C 61.250 167.244,59.792 168.195,59.366 168.492 C 58.229 169.283,58.422 168.689,59.711 167.431 C 61.204 165.973,65.070 163.970,65.070 164.654 M136.056 165.518 C 131.170 167.098,113.069 170.211,111.105 169.808 C 109.933 169.568,122.584 166.347,127.887 165.535 C 131.718 164.949,137.857 164.936,136.056 165.518 M259.427 165.504 C 257.150 168.249,248.456 172.066,240.876 173.651 C 236.525 174.561,236.422 174.476,240.220 173.106 C 250.311 169.466,252.877 168.448,255.915 166.879 C 259.547 165.004,259.985 164.832,259.427 165.504 M283.861 167.474 C 283.274 167.690,281.436 168.011,279.777 168.189 C 278.118 168.366,276.646 168.580,276.506 168.665 C 276.366 168.750,276.350 168.660,276.470 168.465 C 277.038 167.547,278.976 167.054,281.972 167.068 C 284.830 167.081,284.894 167.095,283.861 167.474 M291.569 168.380 C 291.422 168.651,291.233 169.203,291.149 169.607 C 291.007 170.288,290.860 170.352,289.089 170.504 C 287.966 170.601,286.026 171.089,284.366 171.693 C 281.578 172.707,278.623 173.077,277.727 172.523 C 277.523 172.397,280.355 171.400,284.534 170.127 C 288.470 168.928,291.723 167.934,291.763 167.917 C 291.803 167.901,291.716 168.109,291.569 168.380 M136.925 169.770 C 137.177 170.022,136.966 170.178,136.033 170.429 C 134.522 170.836,132.676 170.399,132.676 169.634 C 132.676 169.059,136.331 169.176,136.925 169.770 M171.612 171.517 C 172.740 171.963,173.915 172.392,174.225 172.470 C 174.545 172.550,174.317 172.625,173.697 172.643 C 172.708 172.673,167.652 171.653,167.332 171.359 C 166.393 170.496,169.309 170.604,171.612 171.517 M94.930 173.652 C 94.930 174.254,93.928 174.695,92.063 174.914 C 91.161 175.021,90.423 175.078,90.423 175.042 C 90.423 174.802,92.496 173.768,93.405 173.554 C 94.943 173.194,94.930 173.193,94.930 173.652 M209.489 173.794 C 208.382 174.008,207.022 174.848,206.825 175.440 C 206.688 175.850,211.146 175.914,212.191 175.517 C 215.440 174.282,213.467 173.024,209.489 173.794 M274.644 174.577 C 274.625 175.472,273.316 176.058,271.357 176.048 C 269.967 176.041,269.804 175.989,270.282 175.708 C 271.691 174.878,274.653 174.111,274.644 174.577 M264.484 177.571 C 264.211 177.816,260.259 178.670,256.474 179.301 C 254.236 179.674,251.674 180.168,250.780 180.398 C 248.786 180.911,249.334 180.341,251.673 179.468 C 254.325 178.479,265.276 176.857,264.484 177.571 M108.873 180.409 C 97.586 183.030,87.534 186.489,77.990 191.036 C 72.475 193.663,72.796 193.779,80.157 191.817 C 92.325 188.575,103.330 184.801,110.802 181.309 C 115.274 179.220,114.849 179.022,108.873 180.409 M155.493 180.022 C 154.951 180.157,152.986 180.468,151.127 180.713 C 149.268 180.958,147.258 181.287,146.662 181.443 C 145.321 181.794,145.070 181.607,146.034 180.974 C 147.567 179.970,148.811 179.743,152.676 179.760 C 155.432 179.771,156.207 179.844,155.493 180.022 M196.761 180.990 C 198.000 181.214,199.394 181.404,199.859 181.411 C 200.553 181.423,200.619 181.475,200.227 181.704 C 199.939 181.872,197.244 181.952,193.466 181.907 L 187.183 181.831 188.732 181.212 C 190.600 180.465,193.425 180.387,196.761 180.990 M169.412 182.214 C 169.494 182.347,167.569 182.670,165.133 182.931 C 162.697 183.193,160.261 183.460,159.718 183.525 L 158.732 183.643 159.718 183.180 C 161.723 182.238,168.980 181.515,169.412 182.214 M128.169 185.491 C 125.195 186.268,121.385 187.152,108.732 190.000 C 98.590 192.283,91.817 194.092,85.758 196.133 C 80.888 197.774,73.521 200.812,73.521 201.180 C 73.521 201.557,74.103 201.443,76.761 200.545 C 81.203 199.045,87.887 197.236,100.234 194.193 C 117.864 189.848,132.676 185.540,132.676 184.758 C 132.676 184.380,132.015 184.487,128.169 185.491 M220.315 185.361 C 218.628 186.127,216.120 186.834,215.699 186.664 C 215.508 186.586,215.606 186.513,215.915 186.500 C 216.225 186.487,217.239 186.097,218.169 185.634 C 219.099 185.170,220.239 184.793,220.704 184.796 C 221.515 184.801,221.499 184.824,220.315 185.361 " stroke="none" fill="#000000" fill-rule="evenodd"></path></g></svg>