<svg id="svg" xmlns="http://www.w3.org/2000/svg" xmlns:xlink="http://www.w3.org/1999/xlink" width="400" height="400" viewBox="0, 0, 400,400"><g id="svgg"><path id="path0" d="M113.260 1.246 C 113.266 5.047,116.798 15.767,120.399 22.915 C 121.263 24.631,122.237 26.567,122.563 27.218 C 122.889 27.868,123.359 29.488,123.609 30.817 C 124.363 34.830,124.499 35.140,125.555 35.227 C 126.655 35.319,126.663 35.252,125.990 31.220 C 125.734 29.688,125.469 27.355,125.400 26.035 C 125.332 24.715,125.046 22.286,124.766 20.636 C 124.065 16.512,123.876 11.139,124.366 9.238 C 125.289 5.661,125.350 5.871,125.513 13.197 C 125.681 20.704,126.150 25.201,127.055 27.978 C 127.361 28.915,127.900 31.128,128.253 32.897 C 128.982 36.547,129.227 36.995,130.160 36.384 C 130.697 36.032,130.775 35.810,130.786 34.608 C 130.799 33.240,130.801 33.236,131.206 33.828 C 131.918 34.867,132.437 35.273,133.053 35.273 C 133.886 35.273,133.851 35.166,132.095 32.362 C 129.077 27.544,127.825 20.165,127.792 7.008 L 127.774 -0.022 126.815 0.049 L 125.855 0.120 125.709 2.699 C 125.575 5.057,125.509 5.330,124.938 5.901 C 124.595 6.244,124.013 7.376,123.645 8.417 L 122.975 10.310 122.855 5.215 L 122.735 0.120 122.023 0.120 C 120.820 0.120,120.703 0.687,120.699 6.579 C 120.697 9.471,120.652 11.793,120.598 11.738 C 120.543 11.683,120.060 9.459,119.522 6.795 C 118.419 1.324,117.988 0.000,117.310 0.000 C 116.189 0.000,118.118 9.864,120.338 15.490 C 122.215 20.245,122.483 22.523,120.715 18.689 C 118.756 14.441,115.827 4.925,115.463 1.627 L 115.297 0.120 114.277 0.046 L 113.257 -0.028 113.260 1.246 M131.177 1.745 C 130.632 8.185,132.391 17.207,135.451 23.673 C 136.578 26.055,137.417 27.448,139.759 30.834 C 140.406 31.768,140.419 31.854,140.265 34.073 C 140.178 35.327,140.014 37.723,139.901 39.398 C 139.682 42.647,138.635 45.459,137.756 45.161 C 137.498 45.073,137.464 45.180,137.608 45.619 C 138.438 48.132,137.944 50.479,136.987 48.573 C 135.703 46.017,134.121 45.144,134.450 47.174 L 134.589 48.030 133.902 47.080 C 133.296 46.245,131.932 45.602,131.530 45.963 C 131.438 46.046,133.179 50.837,134.644 54.534 C 135.201 55.940,135.574 57.285,135.576 57.893 C 135.579 58.972,134.858 62.390,134.629 62.383 C 134.450 62.378,133.546 60.276,132.313 56.998 C 131.373 54.500,130.151 52.910,130.626 54.805 C 130.757 55.325,130.701 55.429,130.291 55.429 C 129.486 55.429,129.463 56.099,130.209 57.896 L 130.913 59.594 128.790 61.498 C 121.624 67.923,120.828 70.602,120.821 88.308 L 120.816 99.951 117.799 104.025 C 102.429 124.780,99.575 138.362,107.439 153.329 C 112.977 163.870,114.217 167.208,114.217 171.568 C 114.217 173.108,113.601 176.273,113.260 176.483 C 112.032 177.242,101.388 156.019,97.796 145.651 C 96.162 140.932,95.956 140.758,92.687 141.320 C 87.233 142.256,81.155 147.560,64.763 165.689 C 56.602 174.714,55.908 175.327,49.421 179.244 C 46.909 180.762,44.391 182.725,44.391 183.168 C 44.391 183.507,45.100 184.694,47.924 189.082 C 56.274 202.061,65.607 222.507,65.788 228.221 C 65.828 229.492,65.291 230.680,57.174 247.271 C 48.348 265.311,47.411 267.585,48.744 267.740 C 49.634 267.843,50.010 267.237,52.771 261.252 C 54.066 258.445,57.610 251.074,60.647 244.871 C 69.500 226.792,70.677 223.809,72.954 213.677 C 74.050 208.805,74.196 208.989,73.190 213.973 C 72.250 218.630,70.878 224.165,69.273 229.769 C 68.558 232.268,67.828 234.883,67.652 235.579 C 67.412 236.531,67.280 236.751,67.120 236.466 C 66.803 235.898,66.227 236.480,66.227 237.368 C 66.227 237.906,66.316 238.049,66.587 237.946 C 67.270 237.683,66.381 240.254,65.375 241.450 C 65.051 241.834,64.787 242.356,64.787 242.610 C 64.787 243.349,65.497 243.144,65.886 242.292 L 66.242 241.512 66.089 242.320 C 65.781 243.949,62.426 251.124,62.400 250.210 C 62.386 249.723,62.285 249.700,61.652 250.038 C 61.043 250.364,61.048 251.174,61.660 251.273 C 62.068 251.339,61.721 252.036,59.111 256.389 C 55.690 262.095,53.030 267.049,52.039 269.560 C 51.669 270.498,51.363 271.131,51.358 270.966 C 51.322 269.657,50.160 271.045,50.153 272.406 C 50.149 273.349,50.840 273.274,51.033 272.310 C 51.165 271.650,51.221 271.604,51.473 271.950 C 52.316 273.102,53.117 272.479,54.357 269.706 C 55.591 266.949,57.776 262.931,60.942 257.598 C 65.939 249.181,66.526 247.744,69.717 236.113 C 75.976 213.293,77.145 206.508,77.436 191.285 L 77.576 184.010 80.000 184.175 C 83.375 184.404,85.620 184.692,84.352 184.733 C 83.522 184.759,83.445 184.807,83.752 185.107 C 84.408 185.750,85.423 185.848,85.423 185.269 C 85.423 184.596,86.470 184.579,87.038 185.243 C 87.514 185.798,88.542 185.892,88.542 185.379 C 88.542 185.039,89.790 184.901,94.781 184.692 C 95.639 184.656,96.571 184.498,96.853 184.341 C 97.134 184.185,98.646 183.891,100.212 183.689 C 101.778 183.487,103.653 183.110,104.379 182.851 C 105.105 182.591,106.030 182.376,106.435 182.371 C 106.840 182.367,107.754 182.190,108.466 181.979 C 109.191 181.764,110.165 181.648,110.677 181.717 C 111.229 181.791,111.866 181.703,112.285 181.494 C 113.345 180.965,116.445 180.444,118.528 180.444 C 119.569 180.444,120.756 180.297,121.206 180.112 C 121.651 179.930,123.090 179.656,124.403 179.504 C 125.716 179.353,126.841 179.178,126.903 179.115 C 126.965 179.053,127.270 179.169,127.580 179.372 C 128.090 179.706,128.254 179.701,129.323 179.322 C 130.438 178.926,130.529 178.925,130.958 179.313 C 131.531 179.832,131.974 179.840,131.974 179.331 C 131.974 178.590,137.270 179.531,138.823 180.549 C 139.622 181.073,139.610 181.145,137.718 187.085 C 135.771 193.201,135.658 194.361,137.013 194.361 C 137.512 194.361,137.669 193.987,138.811 190.099 C 139.286 188.481,140.056 186.105,140.521 184.820 C 141.281 182.724,141.352 182.323,141.212 180.924 C 141.127 180.066,141.172 178.014,141.313 176.365 C 141.454 174.715,141.675 171.151,141.805 168.444 C 142.160 161.041,142.395 160.964,142.531 168.206 C 142.634 173.645,142.704 174.565,143.011 174.565 C 143.214 174.565,143.406 174.303,143.452 173.965 C 143.496 173.635,143.644 173.257,143.781 173.125 C 144.767 172.176,142.951 185.443,141.056 193.034 C 140.661 194.613,140.236 196.826,140.110 197.953 C 139.824 200.511,139.549 201.368,138.530 202.879 C 137.330 204.660,136.501 207.471,136.352 210.269 C 136.231 212.545,136.206 212.630,135.558 212.965 C 133.873 213.837,129.740 219.327,127.751 223.335 C 127.015 224.820,126.300 226.035,126.164 226.035 C 125.449 226.035,127.246 221.801,128.689 220.083 C 129.198 219.478,129.614 218.685,129.696 218.164 C 129.772 217.676,129.883 216.971,129.942 216.596 C 130.147 215.308,131.899 213.700,134.981 211.973 C 135.690 211.576,135.735 210.442,135.062 209.935 C 134.520 209.526,134.516 209.486,134.802 207.507 C 135.202 204.743,135.195 204.679,134.507 204.679 C 133.794 204.679,133.185 205.479,133.142 206.472 C 133.111 207.187,133.108 207.185,132.962 206.359 C 132.709 204.928,132.094 205.269,132.094 206.839 C 132.094 207.968,132.156 208.153,132.531 208.122 C 133.414 208.049,132.761 210.281,131.506 211.625 C 131.007 212.159,130.774 212.652,130.774 213.173 C 130.774 214.038,128.618 214.793,127.642 214.270 C 127.007 213.931,124.883 213.985,123.987 214.364 C 121.339 215.485,121.557 219.437,124.346 220.863 C 125.010 221.203,125.024 221.057,123.958 225.145 C 122.930 229.091,122.891 229.941,123.685 231.110 C 124.839 232.808,128.099 234.731,131.482 235.707 L 133.406 236.263 131.670 237.142 C 130.630 237.669,129.405 238.084,128.614 238.177 C 126.309 238.448,125.015 239.711,125.015 241.692 C 125.015 244.562,130.025 246.408,132.810 244.563 C 134.124 243.693,136.818 243.091,137.366 243.546 C 137.719 243.839,138.692 246.193,138.692 246.755 C 138.692 246.924,138.341 247.231,137.912 247.439 C 137.484 247.646,136.166 248.425,134.984 249.171 C 133.802 249.916,132.561 250.591,132.225 250.672 C 129.190 251.399,127.569 254.035,128.989 255.936 C 130.486 257.941,132.775 258.261,136.053 256.924 C 138.843 255.785,139.465 255.693,140.239 256.302 C 141.001 256.901,141.572 256.736,141.572 255.916 C 141.572 255.582,141.663 255.309,141.774 255.309 C 142.313 255.309,143.610 257.533,143.396 258.090 C 143.222 258.544,142.292 258.526,142.292 258.068 C 142.292 257.868,142.078 257.708,141.812 257.708 C 141.464 257.708,141.332 257.868,141.332 258.287 C 141.332 259.257,138.312 261.299,136.868 261.305 C 135.204 261.313,133.572 263.849,134.099 265.607 C 135.220 269.348,139.518 270.192,142.703 267.295 C 144.667 265.510,146.746 264.945,147.443 266.009 C 148.259 267.255,146.093 269.835,143.629 270.551 C 140.978 271.322,139.411 274.050,140.530 275.945 C 141.747 278.005,145.989 278.254,147.885 276.378 C 148.813 275.458,149.113 275.259,150.473 274.658 L 151.780 274.080 152.480 275.072 C 152.939 275.724,153.013 275.921,152.696 275.645 C 151.861 274.920,151.602 275.105,151.781 276.297 C 151.961 277.494,151.021 278.824,149.996 278.824 C 148.713 278.824,146.884 281.848,147.188 283.466 C 147.877 287.139,153.772 288.408,155.443 285.244 C 156.730 282.808,159.113 281.872,159.374 283.701 C 159.425 284.058,159.889 284.457,160.845 284.965 L 162.242 285.707 161.001 287.065 C 160.318 287.811,159.652 288.422,159.520 288.422 C 157.982 288.422,156.298 290.662,156.554 292.368 C 157.224 296.837,163.058 297.818,165.087 293.803 C 166.329 291.345,168.926 290.127,168.926 292.003 C 168.926 292.519,169.389 292.981,169.905 292.981 C 170.601 292.981,170.837 293.504,170.502 294.301 C 170.222 294.966,169.830 295.354,167.487 297.288 C 164.828 299.482,167.990 304.056,171.938 303.728 C 173.672 303.584,174.393 303.034,175.305 301.156 C 176.393 298.914,177.481 298.399,178.852 299.478 C 179.881 300.287,179.708 301.195,178.126 303.274 C 177.102 304.621,177.083 305.516,178.052 306.834 C 180.367 309.981,185.723 309.776,185.723 306.540 C 185.723 304.757,187.452 304.850,192.044 306.882 C 193.854 307.683,195.440 308.338,195.568 308.338 C 195.978 308.338,195.817 308.749,195.261 309.123 C 194.468 309.656,194.829 309.802,196.048 309.442 C 197.623 308.977,200.203 309.895,198.680 310.378 C 197.933 310.615,198.095 311.060,198.860 310.871 C 200.524 310.462,200.782 310.479,202.160 311.088 C 204.506 312.125,204.827 312.565,203.719 313.219 C 202.280 314.069,203.017 314.413,204.535 313.599 C 205.589 313.035,206.152 313.112,207.183 313.965 L 207.888 314.547 207.243 314.840 C 206.889 315.002,206.599 315.225,206.599 315.335 C 206.599 315.618,207.497 315.587,208.062 315.284 C 208.465 315.069,208.735 315.226,209.906 316.359 L 211.278 317.687 210.439 317.452 C 209.412 317.163,208.998 317.154,208.998 317.419 C 208.998 317.675,210.348 318.348,211.233 318.532 C 212.509 318.798,213.152 321.080,212.041 321.398 C 211.530 321.545,211.533 321.557,212.169 321.905 C 213.368 322.562,213.912 325.856,213.296 328.727 C 212.729 331.375,210.153 333.392,206.479 334.065 C 203.963 334.526,190.922 334.445,184.763 333.929 C 175.205 333.129,166.526 331.970,169.428 331.880 C 170.090 331.860,170.350 331.721,170.552 331.276 C 170.948 330.408,171.965 330.299,174.094 330.896 C 175.102 331.179,175.983 331.356,176.050 331.288 C 176.313 331.025,175.828 330.673,174.670 330.289 C 173.200 329.801,173.246 329.571,175.021 328.518 L 176.397 327.701 177.281 328.114 C 179.478 329.141,180.625 329.986,180.496 330.481 C 180.337 331.090,181.337 330.905,182.435 330.123 C 183.068 329.672,183.251 329.650,184.328 329.899 C 185.736 330.224,187.642 330.262,187.642 329.965 C 187.642 329.850,187.184 329.684,186.623 329.598 C 183.889 329.175,183.585 328.829,185.029 327.783 C 186.123 326.991,186.426 327.047,187.995 328.333 C 188.612 328.838,188.664 328.970,188.386 329.306 C 188.101 329.649,188.149 329.694,188.808 329.694 C 189.217 329.694,190.374 329.970,191.379 330.307 C 193.834 331.131,194.444 330.933,192.399 329.976 C 190.300 328.992,190.235 328.838,191.478 327.778 C 192.045 327.294,192.463 326.758,192.405 326.586 C 192.336 326.379,191.917 326.607,191.157 327.264 C 189.751 328.481,189.464 328.490,188.301 327.355 C 187.123 326.205,185.784 326.107,184.504 327.077 C 183.014 328.207,182.687 328.310,181.898 327.902 C 180.449 327.153,179.865 327.668,181.224 328.497 C 182.564 329.314,181.276 329.062,179.329 328.125 C 177.179 327.091,177.181 327.161,179.244 325.752 C 180.878 324.635,181.271 324.175,180.591 324.175 C 180.321 324.175,178.755 325.153,176.990 326.423 C 176.803 326.558,176.301 326.351,175.576 325.840 C 174.516 325.092,173.825 325.022,174.334 325.713 C 175.528 327.337,175.505 327.266,175.017 327.814 C 173.913 329.053,172.295 329.253,170.426 328.383 C 168.867 327.657,168.867 327.557,170.426 326.426 C 171.949 325.322,171.492 325.019,169.724 325.960 C 169.089 326.298,168.326 326.575,168.028 326.575 C 167.614 326.575,167.487 326.712,167.487 327.160 C 167.487 328.517,166.379 328.239,164.074 326.302 C 160.357 323.179,159.668 323.411,163.036 326.651 C 165.390 328.914,165.418 328.955,164.984 329.435 C 164.197 330.305,163.717 330.279,162.424 329.293 L 161.219 328.374 161.833 327.846 C 162.879 326.946,162.658 326.569,161.451 327.193 C 160.729 327.567,160.696 327.557,159.049 326.462 C 155.859 324.341,154.909 324.674,157.908 326.862 L 159.608 328.102 159.048 328.537 C 153.785 332.619,143.417 328.365,124.165 314.223 C 107.843 302.233,103.303 300.293,89.622 299.462 C 72.952 298.450,58.708 295.200,54.262 291.394 C 53.180 290.468,52.661 290.371,52.480 291.062 C 52.379 291.447,52.153 291.542,51.337 291.542 L 50.319 291.542 51.116 291.002 C 52.112 290.327,52.294 289.862,51.562 289.862 C 51.136 289.862,51.078 289.798,51.302 289.574 C 52.145 288.731,51.316 287.463,49.922 287.463 C 48.115 287.463,47.592 290.448,49.258 291.252 C 49.780 291.504,49.778 291.510,49.151 291.525 C 48.277 291.548,48.197 292.588,48.149 304.499 C 48.096 317.649,48.399 318.601,53.006 319.730 L 54.672 320.139 54.555 321.017 C 52.898 333.413,45.594 336.592,22.817 334.831 C 16.318 334.329,11.953 334.428,10.798 335.105 C 8.463 336.474,7.652 341.255,9.481 342.862 C 10.951 344.153,10.226 343.988,37.073 349.130 C 59.132 353.355,67.981 355.054,72.705 355.972 C 75.015 356.421,81.494 357.656,87.103 358.716 C 103.250 361.768,103.042 361.745,102.895 360.470 C 102.788 359.540,104.089 359.819,65.627 352.490 C 30.932 345.879,20.864 343.919,20.688 343.743 C 20.634 343.689,21.032 343.419,21.572 343.143 C 22.113 342.867,22.555 342.536,22.555 342.407 C 22.555 342.048,22.154 342.122,21.053 342.683 C 17.709 344.390,10.318 342.602,10.318 340.087 C 10.318 336.467,13.208 335.929,26.155 337.137 C 45.306 338.924,54.704 334.488,56.511 322.809 C 56.773 321.111,57.291 321.020,60.051 322.189 C 60.904 322.550,60.932 322.595,60.558 323.009 C 60.243 323.357,60.187 323.768,60.287 325.013 C 60.414 326.589,60.169 327.327,59.889 326.213 C 59.806 325.884,59.579 325.615,59.384 325.615 C 58.772 325.615,58.900 328.116,59.542 328.715 C 60.049 329.186,60.050 329.204,59.611 329.864 C 59.244 330.415,59.149 330.459,59.079 330.114 C 59.032 329.883,58.844 329.694,58.662 329.694 C 58.201 329.694,57.937 331.306,58.259 332.157 C 58.611 333.091,58.498 333.296,56.838 334.740 C 54.951 336.381,55.176 336.472,57.476 334.998 L 59.343 333.802 60.350 334.628 C 62.228 336.166,62.426 335.640,60.708 333.677 C 59.363 332.140,59.346 332.083,59.920 331.111 C 60.438 330.234,60.625 330.239,61.571 331.156 C 62.882 332.427,63.382 331.960,62.187 330.579 C 61.637 329.944,61.188 329.266,61.188 329.072 C 61.188 328.878,61.026 328.657,60.828 328.581 C 60.258 328.362,60.394 328.024,61.548 326.790 C 62.142 326.155,62.627 325.469,62.627 325.265 C 62.627 324.849,62.254 324.768,62.028 325.135 C 61.662 325.727,61.188 325.353,61.191 324.475 C 61.199 322.651,61.846 322.690,63.684 324.625 L 64.380 325.358 63.830 327.642 C 62.816 331.854,63.487 334.157,66.587 337.101 C 70.291 340.620,72.468 341.285,94.548 345.638 C 108.168 348.323,109.201 348.452,110.992 347.684 C 112.461 347.055,112.616 347.125,107.486 346.109 C 105.051 345.627,102.791 345.131,102.462 345.006 C 101.720 344.724,100.802 345.222,119.923 335.535 L 134.387 328.207 138.759 330.380 C 141.164 331.574,143.995 332.845,145.051 333.203 C 146.107 333.562,147.000 333.875,147.036 333.899 C 147.246 334.042,147.810 338.240,147.810 339.662 C 147.812 348.327,140.017 352.041,126.851 349.647 C 123.123 348.969,123.242 348.960,123.429 349.910 C 123.697 351.277,124.619 351.515,131.594 352.017 C 145.556 353.024,151.461 348.184,149.747 337.140 C 149.598 336.176,149.538 335.325,149.615 335.248 C 149.877 334.986,154.641 335.928,154.915 336.296 C 155.062 336.492,155.475 336.653,155.834 336.653 C 156.515 336.653,159.310 337.682,160.206 338.263 L 160.724 338.599 159.907 340.367 C 159.458 341.340,158.812 342.997,158.473 344.050 C 157.632 346.658,157.342 347.037,156.898 346.112 C 156.713 345.726,156.425 345.411,156.257 345.411 C 155.574 345.411,155.213 343.691,155.728 342.891 C 155.932 342.575,156.049 342.582,156.704 342.951 C 158.079 343.728,158.581 343.400,157.528 342.412 C 156.727 341.658,156.771 341.352,157.768 340.764 C 158.610 340.267,158.876 339.772,158.302 339.772 C 157.400 339.772,156.939 339.074,157.358 338.344 C 157.891 337.414,157.573 337.161,156.691 337.813 L 155.979 338.339 155.096 337.865 C 154.610 337.605,154.105 337.458,153.973 337.539 C 153.729 337.690,155.465 339.468,156.324 339.948 C 156.788 340.207,156.789 340.224,156.350 340.708 L 155.902 341.204 154.928 340.488 C 153.234 339.242,152.644 339.789,154.229 341.137 L 155.129 341.902 154.709 342.656 C 154.182 343.603,154.185 343.808,154.742 345.108 C 155.185 346.141,155.185 346.179,154.748 346.748 C 153.969 347.761,154.733 348.179,155.604 347.216 C 156.192 346.567,156.445 346.809,156.274 347.859 L 156.132 348.738 156.890 348.198 L 157.648 347.658 157.648 348.634 C 157.648 349.738,157.618 349.759,156.793 349.218 C 156.463 349.002,156.120 348.899,156.030 348.989 C 155.801 349.218,156.279 349.921,156.867 350.219 C 157.786 350.686,158.075 351.063,158.349 352.153 C 158.999 354.735,160.005 353.105,160.034 349.420 C 160.074 344.336,162.640 338.824,165.523 337.631 C 166.493 337.229,192.115 339.734,193.676 340.383 C 194.016 340.524,195.451 342.284,196.586 343.953 C 201.153 350.666,196.069 358.291,187.043 358.265 C 180.734 358.247,163.691 355.716,162.579 354.632 C 162.051 354.116,160.768 354.776,160.768 355.563 C 160.768 357.699,185.275 361.356,191.022 360.078 C 199.144 358.271,202.391 351.696,198.948 344.031 L 198.220 342.412 200.550 342.413 L 202.879 342.414 201.980 343.240 C 200.128 344.941,201.095 345.045,203.118 343.363 C 203.909 342.705,204.746 342.107,204.978 342.033 C 206.660 341.499,204.240 341.323,200.000 341.671 C 198.021 341.833,196.955 341.657,197.374 341.238 C 197.454 341.158,199.193 340.872,201.239 340.603 C 206.209 339.949,206.372 340.058,209.508 346.131 C 211.494 349.976,212.454 351.491,213.513 352.450 C 213.999 352.890,214.289 353.300,214.157 353.360 C 211.265 354.687,211.200 354.851,212.858 356.665 C 213.541 357.413,214.058 358.068,214.006 358.120 C 213.954 358.172,213.384 358.411,212.740 358.651 C 211.036 359.287,210.885 359.672,211.820 360.998 L 212.588 362.088 210.932 362.088 C 208.259 362.088,207.760 362.889,209.196 364.871 L 209.875 365.807 207.757 365.723 C 205.064 365.616,204.923 366.029,206.952 368.079 L 208.265 369.406 204.312 369.321 C 201.071 369.252,200.360 369.296,200.360 369.568 C 200.360 370.141,201.088 370.970,202.196 371.660 L 203.265 372.325 199.706 372.852 C 191.828 374.018,190.356 373.934,170.622 371.175 C 162.270 370.007,161.866 369.972,161.564 370.385 C 160.555 371.764,160.942 371.870,173.365 373.614 C 191.998 376.229,193.467 376.262,203.709 374.291 C 207.143 373.631,207.574 373.351,206.680 372.363 C 206.147 371.774,206.191 371.752,208.468 371.466 C 211.507 371.085,211.861 370.757,210.847 369.260 C 209.803 367.716,209.781 367.790,211.225 367.970 C 213.835 368.296,214.209 367.581,212.485 365.563 L 211.412 364.307 213.329 364.063 C 216.229 363.692,216.836 362.741,215.003 361.443 C 213.885 360.652,213.889 360.341,215.017 360.152 C 217.686 359.703,218.069 358.820,216.350 357.082 C 214.697 355.412,214.696 355.516,216.377 354.888 C 219.314 353.791,219.298 352.621,216.334 351.687 C 214.667 351.161,214.141 350.531,212.313 346.871 C 211.517 345.276,210.355 343.215,209.732 342.292 C 208.024 339.759,207.264 338.374,207.434 338.100 C 207.517 337.965,208.637 337.003,209.922 335.962 C 214.283 332.431,215.121 330.992,215.110 327.055 C 215.085 317.571,210.911 313.057,196.641 307.084 C 190.151 304.368,186.575 302.357,187.180 301.764 C 187.236 301.709,190.576 299.967,194.601 297.892 C 205.103 292.480,207.079 291.336,207.079 290.669 C 207.079 290.110,206.038 290.373,205.762 291.001 C 205.599 291.373,205.127 291.656,204.246 291.913 C 203.542 292.117,199.226 294.169,194.654 296.472 C 185.215 301.227,186.165 300.887,185.052 299.910 C 183.798 298.809,182.794 298.458,181.418 298.641 C 179.963 298.834,179.419 298.229,180.104 297.183 C 180.768 296.170,180.257 295.622,176.365 293.173 C 174.902 292.253,174.839 292.177,175.345 291.950 C 175.944 291.682,176.112 290.582,175.554 290.582 C 175.372 290.582,174.621 290.858,173.884 291.195 C 172.067 292.027,170.050 291.970,169.924 291.082 C 169.719 289.629,165.794 285.228,164.440 284.931 C 164.070 284.850,163.476 284.674,163.119 284.539 C 162.267 284.218,160.048 281.859,160.048 281.275 C 160.048 280.054,156.321 275.465,155.328 275.465 C 154.500 275.465,153.329 274.243,153.329 273.377 C 153.329 272.297,151.773 269.329,150.488 267.957 C 149.007 266.377,148.770 265.912,148.770 264.586 C 148.770 262.803,149.739 262.687,168.086 262.268 C 184.593 261.891,187.365 261.620,191.409 259.989 L 193.384 259.193 195.732 261.632 C 198.701 264.714,199.780 266.638,200.154 269.515 C 200.596 272.920,201.517 273.753,202.222 271.386 C 203.079 268.511,201.751 265.121,198.204 261.124 C 197.001 259.769,196.077 258.564,196.150 258.446 C 196.307 258.191,200.260 255.878,203.531 254.126 C 206.207 252.692,205.877 252.477,206.321 255.935 C 207.392 264.271,214.050 269.697,220.263 267.298 C 226.928 264.725,240.751 256.482,243.714 253.313 C 249.932 246.667,247.876 238.694,239.083 235.354 L 237.047 234.581 240.247 231.381 L 243.447 228.181 245.986 229.123 C 247.383 229.641,249.971 230.751,251.737 231.589 C 254.930 233.104,254.962 233.113,257.049 233.108 C 258.203 233.104,259.148 233.126,259.148 233.156 C 259.148 233.185,258.771 233.836,258.309 234.601 C 257.149 236.525,257.190 236.754,258.728 236.940 C 262.304 237.373,262.184 237.261,260.828 238.902 C 259.423 240.602,259.844 241.384,262.168 241.390 C 263.101 241.393,262.964 241.684,261.403 243.017 C 259.359 244.762,259.388 245.163,261.606 245.827 C 263.405 246.365,263.503 246.468,262.606 246.877 C 259.014 248.513,258.783 249.779,262.073 249.787 C 264.432 249.792,263.781 250.967,260.252 253.071 C 257.137 254.928,257.071 255.269,259.808 255.360 L 261.908 255.429 258.304 259.028 C 253.117 264.209,247.610 267.946,234.433 275.225 C 227.815 278.881,226.577 279.784,228.186 279.784 C 229.168 279.784,247.837 269.182,253.269 265.539 C 255.219 264.232,265.147 254.637,265.147 254.060 C 265.147 253.967,264.389 253.859,263.462 253.820 L 261.777 253.749 263.458 252.469 C 266.787 249.933,266.997 249.082,264.423 248.551 C 262.945 248.246,262.677 248.038,263.407 247.764 C 267.222 246.335,267.078 245.257,262.983 244.603 L 262.008 244.447 263.817 242.779 C 266.054 240.718,266.163 240.199,264.367 240.175 C 262.133 240.145,262.071 240.032,263.343 238.303 C 264.866 236.235,264.778 236.022,262.344 235.873 C 259.819 235.718,259.805 235.693,261.008 233.474 C 261.569 232.439,262.028 231.530,262.028 231.453 C 262.028 231.196,260.422 231.310,258.758 231.686 L 257.109 232.058 254.282 230.714 C 252.728 229.975,249.921 228.774,248.044 228.045 C 246.167 227.316,244.395 226.567,244.107 226.382 L 243.582 226.044 244.016 224.529 C 245.377 219.769,245.546 215.699,244.465 213.738 C 243.816 212.561,242.903 212.285,243.016 213.300 C 243.052 213.621,242.960 213.958,242.813 214.049 C 242.619 214.168,242.658 214.683,242.952 215.891 C 244.650 222.878,236.148 229.834,202.160 249.262 C 193.046 254.471,190.224 255.454,181.044 256.617 C 173.553 257.566,148.520 258.435,145.949 257.836 C 144.282 257.447,143.273 255.083,144.564 254.592 C 146.776 253.751,144.480 248.343,141.254 246.792 C 139.209 245.810,138.443 242.971,140.072 242.418 C 141.433 241.956,141.573 241.347,140.830 239.135 C 140.515 238.199,140.221 237.298,140.177 237.133 C 140.121 236.923,140.446 236.832,141.254 236.832 C 142.831 236.831,143.802 236.189,144.600 234.622 C 146.486 230.919,144.145 228.959,137.792 228.922 C 137.100 228.918,136.533 228.810,136.533 228.683 C 136.533 228.094,137.680 225.652,139.233 222.933 C 142.526 217.169,143.180 213.446,140.999 212.881 C 140.501 212.752,140.223 212.504,140.130 212.104 C 139.914 211.184,139.049 211.198,138.725 212.126 C 138.434 212.961,137.807 212.988,137.927 212.160 C 137.968 211.877,137.903 211.472,137.784 211.258 C 137.062 209.968,140.073 201.596,141.137 201.934 C 141.585 202.076,141.619 202.030,141.439 201.527 C 141.009 200.326,141.264 198.123,142.129 195.561 C 144.215 189.378,145.206 181.081,145.693 165.704 L 145.982 156.603 147.893 153.347 C 159.540 133.498,159.339 121.630,146.703 83.217 L 144.402 76.220 145.029 74.163 C 146.220 70.257,146.376 66.068,145.547 60.228 C 145.369 58.974,145.239 57.942,145.257 57.934 C 145.690 57.753,149.555 54.556,149.725 54.238 C 149.990 53.743,149.793 52.310,149.460 52.310 C 149.009 52.310,148.269 53.305,148.404 53.730 C 148.517 54.084,148.372 54.194,147.637 54.317 C 147.138 54.401,146.496 54.533,146.209 54.612 C 145.787 54.728,145.566 54.566,145.066 53.773 C 144.320 52.591,143.731 52.475,143.731 53.509 C 143.731 53.992,143.612 54.229,143.368 54.229 C 143.079 54.229,143.012 54.538,143.038 55.745 C 143.079 57.618,142.900 58.219,142.251 58.388 C 141.223 58.657,141.959 66.097,143.084 66.807 C 144.096 67.446,144.158 66.379,143.331 62.532 C 143.098 61.449,143.670 61.989,143.982 63.147 C 144.539 65.218,144.157 72.705,143.494 72.705 C 142.948 72.705,141.345 66.067,141.175 63.107 C 140.989 59.870,141.964 54.298,142.763 54.032 C 143.252 53.869,143.068 51.110,142.569 51.110 C 141.846 51.110,141.234 52.003,141.189 53.122 C 141.167 53.683,140.976 54.476,140.766 54.883 C 139.363 57.595,136.254 72.863,135.230 82.064 C 133.236 99.988,134.514 114.883,139.647 133.543 C 140.182 135.490,140.565 137.140,140.496 137.208 C 140.428 137.277,140.372 137.202,140.372 137.043 C 140.372 136.884,140.165 136.461,139.912 136.103 C 139.659 135.745,139.013 133.974,138.477 132.166 C 137.324 128.277,136.508 126.166,136.105 126.032 C 135.607 125.866,135.770 126.726,137.016 130.859 C 138.714 136.488,139.649 140.227,139.652 141.402 C 139.653 141.957,139.653 143.383,139.652 144.571 C 139.649 146.922,140.115 150.080,140.761 152.079 C 141.069 153.032,141.102 153.415,140.895 153.622 C 140.477 154.040,140.452 153.951,139.894 150.090 C 139.184 145.178,137.789 137.700,135.820 128.254 C 129.688 98.836,129.714 90.693,136.023 63.347 C 137.888 55.266,138.329 52.832,138.119 51.783 C 138.009 51.231,138.106 50.969,138.575 50.556 C 138.991 50.188,139.309 49.471,139.628 48.174 C 139.975 46.764,140.322 46.021,141.075 45.075 C 141.619 44.391,142.026 43.715,141.978 43.571 C 141.828 43.120,141.070 43.131,140.702 43.590 C 140.375 43.999,140.358 43.978,140.466 43.311 C 140.530 42.915,140.773 41.296,141.005 39.712 C 141.238 38.128,141.469 37.022,141.518 37.253 C 141.644 37.849,141.851 37.782,142.756 36.849 C 143.195 36.395,144.085 35.796,144.734 35.517 L 145.914 35.010 145.482 34.455 C 145.245 34.149,144.252 32.886,143.275 31.647 C 136.480 23.028,134.014 16.365,133.425 5.032 C 133.157 -0.124,133.190 0.000,132.115 0.000 L 131.324 0.000 131.177 1.745 M134.431 3.419 C 134.774 12.859,138.346 21.027,146.352 30.674 C 149.310 34.239,150.991 36.534,152.025 38.420 C 153.222 40.605,153.433 40.537,153.256 38.025 C 153.074 35.447,152.583 34.500,149.547 30.878 C 146.642 27.413,146.705 27.560,146.513 23.783 C 146.056 14.796,143.265 0.524,141.874 0.061 C 141.506 -0.062,141.585 0.422,142.664 4.919 C 143.756 9.466,144.686 14.613,144.809 16.797 C 144.883 18.105,144.861 18.320,144.726 17.585 C 144.624 17.029,144.346 16.358,144.107 16.095 C 143.752 15.702,143.703 15.383,143.834 14.334 C 143.960 13.322,143.869 12.654,143.398 11.146 C 143.071 10.097,142.725 8.807,142.629 8.279 C 142.520 7.676,142.189 7.071,141.737 6.649 C 140.677 5.659,140.484 6.112,141.071 8.206 C 141.372 9.279,141.566 10.652,141.556 11.653 L 141.541 13.317 140.976 10.653 C 139.981 5.960,138.150 0.000,137.703 0.000 C 137.353 0.000,137.451 0.520,138.454 3.990 C 139.917 9.054,141.256 17.624,140.799 18.995 C 140.185 20.835,136.533 6.622,136.533 2.395 C 136.533 0.179,136.439 0.000,135.274 0.000 L 134.307 0.000 134.431 3.419 M145.171 22.915 C 145.171 24.435,145.076 25.435,144.931 25.435 C 144.665 25.435,144.600 22.349,144.841 21.146 C 145.094 19.880,145.171 20.292,145.171 22.915 M143.321 22.248 C 143.575 22.150,143.721 22.326,143.828 22.858 C 144.025 23.845,143.641 24.213,143.179 23.481 C 142.769 22.832,142.353 21.504,142.732 22.051 C 142.859 22.235,143.124 22.324,143.321 22.248 M125.015 38.023 C 125.015 39.045,125.990 43.272,126.358 43.848 C 126.547 44.143,126.763 45.061,126.838 45.887 C 127.076 48.513,129.129 55.189,129.698 55.189 C 130.388 55.189,130.308 53.974,129.514 52.415 C 128.807 51.026,128.769 50.630,129.345 50.630 C 130.009 50.630,129.985 50.453,128.308 43.071 L 127.055 37.552 126.035 37.479 C 125.080 37.410,125.015 37.444,125.015 38.023 M133.893 37.898 C 133.893 38.154,133.987 38.422,134.101 38.492 C 134.215 38.563,134.262 38.866,134.205 39.166 C 134.085 39.801,135.872 42.472,136.417 42.472 C 137.230 42.472,137.478 40.975,136.866 39.760 C 135.945 37.932,133.893 36.647,133.893 37.898 M145.483 37.903 C 144.231 38.666,143.575 40.679,144.117 42.092 C 144.571 43.276,145.407 41.699,145.410 39.652 C 145.412 37.962,145.979 38.439,147.581 41.477 C 148.506 43.233,148.758 43.398,149.590 42.792 C 150.342 42.244,150.349 41.940,149.639 40.416 C 148.374 37.698,147.091 36.922,145.483 37.903 M131.363 38.644 C 130.668 39.412,130.605 41.478,131.251 42.296 C 132.298 43.622,134.751 44.298,134.714 43.251 C 134.696 42.733,134.720 42.726,135.275 43.090 C 136.606 43.962,136.137 42.896,134.081 40.372 C 132.349 38.247,131.951 37.994,131.363 38.644 M142.791 45.660 C 141.945 47.885,141.864 50.750,142.648 50.750 C 143.736 50.750,144.490 45.372,143.432 45.160 C 143.164 45.106,142.933 45.286,142.791 45.660 M148.992 46.052 C 148.606 46.438,148.290 46.942,148.290 47.173 C 148.290 47.403,147.966 48.166,147.570 48.867 C 146.342 51.044,147.424 51.855,149.136 50.041 C 151.279 47.768,151.139 43.905,148.992 46.052 M153.664 46.434 C 152.900 47.198,151.557 50.042,151.738 50.513 C 152.167 51.632,153.647 50.587,154.631 48.470 C 155.721 46.125,155.158 44.940,153.664 46.434 M136.020 49.430 C 136.232 49.430,136.292 50.064,136.241 51.770 C 136.158 54.619,135.753 54.861,135.540 52.190 C 135.457 51.134,135.268 49.966,135.121 49.594 C 134.753 48.667,134.782 48.572,135.292 49.033 C 135.533 49.251,135.861 49.430,136.020 49.430 M129.574 51.454 C 129.574 52.030,130.027 53.029,130.288 53.029 C 130.630 53.029,130.597 51.749,130.246 51.398 C 129.859 51.011,129.574 51.034,129.574 51.454 M145.535 51.683 C 144.870 52.348,144.781 52.783,145.219 53.221 C 146.019 54.021,147.662 53.062,147.525 51.875 C 147.419 50.959,146.361 50.857,145.535 51.683 M150.503 51.483 C 149.739 52.018,149.755 53.269,150.525 53.269 C 151.162 53.269,152.370 52.122,152.370 51.517 C 152.370 50.988,151.239 50.968,150.503 51.483 M143.954 59.702 C 143.941 60.416,143.897 60.495,143.731 60.108 C 143.442 59.434,143.442 58.489,143.731 58.668 C 143.863 58.750,143.964 59.215,143.954 59.702 M132.242 62.629 L 132.530 63.589 130.973 65.208 C 124.998 71.420,124.415 85.626,128.173 133.413 C 129.228 146.830,128.848 155.977,126.941 163.075 C 125.739 167.546,123.373 173.265,123.347 171.760 C 123.340 171.405,123.227 171.047,123.095 170.966 C 122.963 170.884,122.855 170.509,122.855 170.131 C 122.855 169.192,122.631 168.686,122.214 168.686 C 121.994 168.686,121.908 168.530,121.984 168.266 C 122.050 168.035,122.324 167.091,122.592 166.167 C 126.560 152.479,127.025 141.023,124.660 115.177 C 123.002 97.052,122.445 80.074,123.313 74.145 C 123.849 70.487,126.689 65.744,130.247 62.567 C 131.532 61.421,131.884 61.432,132.242 62.629 M133.551 66.066 C 133.618 66.242,133.233 68.591,132.694 71.285 C 131.584 76.833,130.643 82.522,130.393 85.183 C 130.137 87.919,128.666 91.308,128.113 90.435 C 127.504 89.474,127.993 75.823,128.740 72.906 C 129.665 69.293,132.981 64.580,133.551 66.066 M144.208 82.424 C 158.519 126.823,158.139 133.758,139.831 162.212 C 134.955 169.791,133.187 173.190,132.808 175.718 C 132.630 176.902,132.214 177.342,131.460 177.145 C 130.908 177.001,130.894 176.762,131.414 176.334 C 131.976 175.872,133.009 173.522,134.627 169.021 C 136.868 162.788,137.992 160.699,142.037 155.249 C 154.453 138.522,155.080 131.076,146.589 101.186 C 145.270 96.542,143.650 90.528,142.989 87.822 C 142.328 85.117,141.253 80.723,140.600 78.058 C 139.377 73.070,139.164 71.090,139.687 69.590 L 139.961 68.802 140.538 70.814 C 140.855 71.920,142.506 77.145,144.208 82.424 M138.358 78.202 C 138.272 78.850,137.992 79.989,137.736 80.733 C 136.759 83.572,137.142 84.821,138.268 82.472 C 138.941 81.068,139.621 80.522,139.150 81.764 C 138.817 82.639,136.533 86.623,136.364 86.623 C 136.117 86.623,136.556 83.300,137.015 81.694 C 137.266 80.817,137.415 79.812,137.346 79.462 C 137.205 78.741,137.839 77.025,138.246 77.025 C 138.428 77.025,138.464 77.403,138.358 78.202 M144.325 101.500 C 151.555 125.730,151.839 134.895,145.705 145.994 C 144.401 148.355,144.326 148.195,141.645 137.373 C 136.491 116.566,135.924 113.014,135.659 99.820 L 135.502 92.022 137.745 88.569 L 139.988 85.117 141.351 90.609 C 142.100 93.629,143.439 98.530,144.325 101.500 M144.121 89.870 C 143.861 90.549,144.610 93.405,145.791 96.237 C 146.421 97.746,147.814 101.301,148.886 104.138 C 150.268 107.793,150.955 109.320,151.243 109.375 C 151.851 109.492,151.827 109.397,149.390 102.116 C 148.147 98.402,147.000 94.666,146.840 93.813 C 146.436 91.655,146.426 91.631,145.967 91.710 C 145.673 91.762,145.452 91.483,145.183 90.722 C 144.781 89.582,144.361 89.245,144.121 89.870 M129.360 95.921 C 128.944 96.678,128.416 97.302,128.294 97.180 C 128.055 96.941,128.842 95.501,129.211 95.501 C 129.501 95.501,129.536 95.601,129.360 95.921 M130.651 104.859 C 131.446 110.885,132.256 115.420,134.722 127.654 C 137.246 140.181,137.775 143.039,138.811 149.717 L 139.646 155.104 137.517 158.356 C 134.870 162.397,134.235 163.663,132.817 167.716 C 129.748 176.490,129.409 176.910,124.947 177.453 L 123.560 177.622 124.028 176.453 C 124.285 175.811,125.088 173.865,125.812 172.130 C 131.053 159.574,131.742 152.637,130.059 129.334 C 128.454 107.106,128.308 100.697,129.376 99.410 C 129.811 98.886,129.930 99.397,130.651 104.859 M121.192 102.430 C 121.052 102.692,120.593 103.151,120.173 103.450 C 119.343 104.041,119.424 103.804,120.544 102.364 C 121.258 101.447,121.694 101.491,121.192 102.430 M121.656 104.499 C 121.656 104.740,121.415 104.859,120.926 104.859 C 118.921 104.859,115.368 109.715,114.110 114.173 C 113.793 115.294,112.998 117.103,112.223 118.463 C 110.367 121.724,107.457 127.760,106.288 130.774 C 104.357 135.753,105.673 129.837,107.778 124.078 C 109.839 118.438,113.220 112.452,116.978 107.794 C 119.256 104.968,121.656 103.278,121.656 104.499 M119.346 107.079 C 118.309 108.744,115.643 112.537,115.511 112.537 C 115.444 112.537,115.436 112.457,115.494 112.358 C 117.147 109.541,119.568 106.059,119.873 106.059 C 119.933 106.059,119.696 106.518,119.346 107.079 M121.984 109.598 C 123.513 118.723,124.540 144.723,123.622 151.050 C 122.648 157.752,119.902 169.407,119.297 169.406 C 119.208 169.406,118.935 168.569,118.688 167.546 C 117.390 162.155,115.354 157.212,111.528 150.162 C 105.367 138.810,105.302 137.131,110.603 126.563 C 114.311 119.172,120.771 108.698,121.622 108.698 C 121.738 108.698,121.901 109.103,121.984 109.598 M94.102 142.591 C 94.306 142.756,95.126 144.727,95.923 146.971 C 97.804 152.264,97.987 152.959,97.660 153.571 C 97.439 153.983,97.491 154.088,98.014 154.287 C 98.853 154.606,99.295 155.601,98.887 156.255 C 98.552 156.791,98.722 157.075,99.458 157.208 C 100.133 157.330,100.690 158.553,100.332 159.125 C 99.918 159.789,100.002 160.048,100.634 160.048 C 101.381 160.048,102.077 161.572,101.650 162.273 C 101.420 162.650,101.529 162.849,102.381 163.602 C 102.931 164.089,103.618 164.973,103.907 165.567 C 104.196 166.161,104.290 166.512,104.118 166.347 C 103.311 165.578,103.166 166.468,103.900 167.672 C 104.164 168.105,104.633 168.555,104.944 168.673 C 105.432 168.858,107.102 171.316,110.822 177.325 L 111.193 177.924 110.590 177.385 C 109.443 176.358,109.081 176.754,109.966 178.067 C 110.590 178.993,111.334 179.281,111.345 178.602 C 111.352 178.185,111.365 178.185,111.613 178.613 C 111.810 178.953,111.794 179.112,111.546 179.269 C 110.783 179.752,110.082 179.474,108.935 178.233 C 106.414 175.505,101.980 176.671,101.980 180.062 L 101.980 181.097 100.600 181.225 C 99.841 181.295,98.518 181.593,97.660 181.886 C 95.280 182.700,90.109 182.870,89.262 182.162 L 88.662 181.660 90.042 181.652 C 91.386 181.644,91.656 181.499,91.198 181.032 C 91.059 180.890,91.105 180.627,91.319 180.337 C 91.655 179.881,91.699 179.889,93.178 180.679 C 94.135 181.190,94.849 181.429,95.117 181.326 C 95.743 181.086,95.457 180.604,94.529 180.338 C 94.055 180.201,93.208 179.572,92.498 178.827 C 91.828 178.124,90.961 177.464,90.571 177.361 C 90.102 177.236,89.836 176.995,89.785 176.649 C 89.689 175.992,89.121 175.962,88.953 176.605 C 88.685 177.629,86.927 176.696,85.738 174.901 C 84.866 173.583,85.023 173.575,87.846 174.797 C 89.219 175.391,90.477 175.879,90.642 175.881 C 91.522 175.892,90.542 175.241,86.851 173.360 C 82.337 171.058,82.170 170.904,81.577 168.473 C 81.296 167.317,81.072 166.864,80.755 166.803 C 80.306 166.716,80.301 167.943,80.744 169.646 L 80.900 170.246 80.424 169.706 C 79.939 169.157,79.184 168.973,79.184 169.404 C 79.184 169.534,79.720 170.233,80.376 170.957 C 81.364 172.048,82.543 173.863,82.543 174.293 C 82.543 174.352,82.328 174.344,82.064 174.275 C 81.186 174.045,81.561 174.678,83.348 176.442 C 85.556 178.622,86.033 179.388,85.029 179.140 C 83.996 178.886,83.263 178.330,83.263 177.799 C 83.263 177.245,83.042 177.202,82.443 177.640 C 81.664 178.210,82.082 178.843,83.627 179.432 C 86.594 180.564,86.699 180.651,85.123 180.669 C 83.220 180.690,83.393 181.054,85.451 181.359 C 86.642 181.536,87.332 181.775,87.731 182.150 C 88.633 182.998,88.446 183.155,86.754 182.973 C 85.110 182.797,75.492 182.147,75.426 182.208 C 75.405 182.227,75.212 184.133,74.999 186.443 C 73.788 199.537,70.694 218.160,69.389 220.214 C 69.171 220.558,68.812 219.872,66.546 214.783 C 61.487 203.422,54.979 192.612,48.273 184.430 L 46.722 182.537 47.296 182.101 C 47.612 181.861,49.267 180.823,50.973 179.795 C 52.679 178.766,54.910 177.303,55.931 176.544 C 57.122 175.658,57.924 175.217,58.170 175.311 C 58.689 175.510,59.268 174.989,59.268 174.322 C 59.268 173.480,60.057 172.702,61.321 172.296 C 62.610 171.882,63.196 171.133,61.999 171.429 L 61.308 171.601 62.135 170.743 C 62.589 170.272,63.140 169.886,63.357 169.886 C 63.880 169.886,64.590 169.084,64.442 168.661 C 64.378 168.477,64.651 167.948,65.048 167.487 C 65.446 167.025,65.705 166.825,65.623 167.042 C 65.369 167.717,65.952 167.783,66.585 167.150 C 67.182 166.553,67.388 165.680,66.968 165.527 C 66.705 165.431,69.767 162.036,75.720 155.825 C 81.172 150.136,83.698 147.830,83.981 148.286 C 84.298 148.800,85.508 147.922,85.344 147.296 C 84.987 145.931,92.942 141.657,94.102 142.591 M141.539 147.810 C 141.542 151.665,141.275 151.383,140.703 146.929 C 140.352 144.191,140.352 143.911,140.706 143.520 C 140.918 143.285,141.105 142.940,141.122 142.753 C 141.234 141.483,141.537 145.158,141.539 147.810 M109.681 151.560 C 115.009 161.185,116.966 166.820,117.261 173.383 C 117.417 176.864,117.160 178.284,116.375 178.284 C 115.762 178.284,115.723 177.732,116.077 174.085 C 116.374 171.030,116.369 170.926,115.797 169.046 C 115.475 167.990,114.885 166.047,114.485 164.727 C 113.610 161.840,112.014 158.515,109.383 154.095 C 107.195 150.421,106.230 148.321,105.703 146.085 C 105.059 143.352,105.269 143.196,106.448 145.531 C 107.048 146.719,108.503 149.432,109.681 151.560 M88.062 148.220 C 85.623 149.112,85.134 153.267,87.335 154.405 C 90.592 156.089,94.590 152.601,92.977 149.482 C 92.355 148.278,89.740 147.607,88.062 148.220 M143.490 149.204 C 143.489 149.706,142.556 151.275,142.370 151.088 C 142.295 151.014,142.409 150.778,142.623 150.564 C 142.837 150.351,143.011 149.799,143.011 149.339 C 143.011 148.842,143.109 148.562,143.251 148.650 C 143.383 148.732,143.491 148.981,143.490 149.204 M90.550 150.227 C 91.712 151.142,91.041 152.849,89.519 152.849 C 88.058 152.849,87.574 151.360,88.697 150.318 C 89.471 149.601,89.737 149.588,90.550 150.227 M83.503 153.070 C 83.503 153.847,83.773 154.289,84.249 154.289 C 84.805 154.289,84.824 153.977,84.316 153.201 C 83.852 152.493,83.503 152.437,83.503 153.070 M84.988 156.987 C 85.080 157.944,85.903 158.274,85.903 157.354 C 85.903 156.784,85.509 156.209,85.120 156.209 C 85.006 156.209,84.946 156.559,84.988 156.987 M94.623 159.193 C 90.132 160.597,90.365 165.900,94.888 165.221 C 97.988 164.757,99.998 161.492,98.257 159.750 C 97.351 158.844,96.269 158.678,94.623 159.193 M144.404 163.527 L 144.365 167.127 144.228 164.079 C 144.146 162.245,143.979 160.919,143.810 160.750 C 143.602 160.542,143.597 160.319,143.791 159.892 C 144.277 158.827,144.445 159.826,144.404 163.527 M96.079 160.786 C 97.678 162.686,95.994 164.908,94.155 163.325 C 93.315 162.603,93.277 161.483,94.063 160.646 C 94.806 159.855,95.327 159.892,96.079 160.786 M86.623 160.896 C 86.623 161.436,87.345 162.448,87.730 162.448 C 88.135 162.448,88.156 161.955,87.784 161.139 C 87.482 160.476,86.623 160.297,86.623 160.896 M89.022 165.339 C 89.022 166.059,89.698 167.247,90.108 167.247 C 90.601 167.247,90.548 166.551,89.985 165.627 C 89.444 164.740,89.022 164.614,89.022 165.339 M139.914 174.205 C 139.541 179.334,139.552 179.321,136.718 177.894 C 134.119 176.584,134.306 175.209,137.925 168.995 L 139.772 165.824 139.970 168.275 C 140.088 169.748,140.066 172.114,139.914 174.205 M98.529 168.934 C 95.981 169.697,95.579 172.979,97.891 174.145 C 101.379 175.904,105.562 172.619,103.284 169.911 C 102.366 168.820,100.317 168.399,98.529 168.934 M101.301 170.043 C 102.037 170.709,101.872 171.961,100.924 172.909 C 100.010 173.824,99.240 173.955,98.869 173.261 C 97.887 171.427,99.895 168.771,101.301 170.043 M92.142 170.056 C 92.142 170.391,92.870 171.326,93.131 171.326 C 93.656 171.326,93.231 170.007,92.681 169.929 C 92.385 169.887,92.142 169.944,92.142 170.056 M120.940 172.664 C 120.152 176.226,120.347 177.494,121.416 175.765 C 121.701 175.303,121.969 174.925,122.010 174.925 C 122.107 174.925,121.765 176.354,121.534 176.913 C 121.202 177.719,118.785 178.536,119.075 177.744 C 119.135 177.579,119.653 175.854,120.226 173.911 C 121.401 169.925,121.636 169.514,120.940 172.664 M84.226 174.282 C 84.618 174.966,84.939 175.633,84.939 175.765 C 84.940 176.062,84.125 174.880,83.474 173.640 C 82.765 172.290,83.389 172.823,84.226 174.282 M106.779 174.012 C 106.779 174.170,107.069 174.602,107.423 174.972 C 108.550 176.148,109.203 175.631,108.201 174.357 C 107.695 173.714,106.779 173.491,106.779 174.012 M96.505 177.624 C 96.563 178.222,96.707 178.422,97.121 178.481 C 97.769 178.573,97.786 178.450,97.249 177.542 C 96.707 176.625,96.412 176.658,96.505 177.624 M87.689 178.659 C 89.488 180.186,89.554 180.304,88.482 180.078 C 87.606 179.893,86.710 179.142,86.067 178.055 C 85.430 176.977,85.922 177.160,87.689 178.659 M107.098 178.484 C 107.684 179.487,107.374 179.885,105.658 180.327 C 103.828 180.799,103.494 179.841,104.974 178.362 C 105.962 177.373,106.467 177.402,107.098 178.484 M88.775 178.035 C 88.969 178.158,89.070 178.317,88.998 178.389 C 88.926 178.461,88.659 178.362,88.405 178.170 C 87.899 177.787,88.206 177.675,88.775 178.035 M89.022 180.924 C 89.342 181.131,89.342 181.156,89.022 181.156 C 88.824 181.156,88.500 181.052,88.302 180.924 C 87.982 180.717,87.982 180.691,88.302 180.691 C 88.500 180.691,88.824 180.796,89.022 180.924 M49.970 181.463 C 49.052 181.758,48.943 182.124,49.774 182.124 C 50.553 182.124,51.590 181.716,51.590 181.410 C 51.590 181.110,51.010 181.129,49.970 181.463 M128.709 182.143 C 125.915 182.954,125.886 186.581,128.662 188.025 C 129.521 188.472,131.349 188.454,132.328 187.989 C 136.587 185.968,133.380 180.788,128.709 182.143 M71.816 184.944 C 71.894 186.232,72.184 188.299,72.460 189.538 C 73.116 192.484,72.733 192.944,71.891 190.222 C 71.569 189.182,70.955 189.770,71.099 190.981 C 71.200 191.833,71.152 192.194,70.926 192.281 C 70.754 192.347,70.554 192.922,70.482 193.558 C 70.399 194.298,70.202 194.803,69.937 194.958 C 68.012 196.084,67.754 196.983,68.627 199.522 C 68.891 200.290,69.055 200.971,68.990 201.036 C 68.765 201.261,68.075 199.273,67.964 198.080 C 67.889 197.273,67.699 196.758,67.383 196.507 C 66.654 195.927,66.526 194.302,67.159 193.669 C 67.794 193.034,67.794 192.921,67.161 192.921 C 66.772 192.921,66.696 192.824,66.832 192.501 C 66.929 192.271,67.063 191.828,67.130 191.518 C 67.353 190.486,66.404 191.006,65.994 192.140 C 65.664 193.053,64.355 194.361,63.772 194.361 C 63.615 194.361,62.627 192.405,62.627 192.094 C 62.627 192.056,63.302 191.784,64.127 191.489 C 66.491 190.644,68.387 189.758,68.263 189.557 C 68.103 189.299,66.605 189.668,64.454 190.496 C 62.293 191.329,62.191 191.259,61.968 188.801 C 61.777 186.702,61.322 187.160,61.238 189.535 L 61.168 191.509 59.258 192.370 C 56.448 193.636,56.820 194.212,59.695 193.044 C 61.342 192.375,61.849 192.444,62.050 193.368 C 62.126 193.716,62.230 194.139,62.282 194.307 C 62.334 194.474,62.001 195.027,61.542 195.535 C 61.083 196.043,60.708 196.527,60.708 196.610 C 60.708 196.856,61.627 196.781,61.787 196.522 C 62.311 195.674,62.881 195.779,63.348 196.809 C 64.123 198.515,64.021 198.816,62.388 199.640 C 61.596 200.040,60.948 200.473,60.948 200.603 C 60.948 200.988,61.464 200.870,62.952 200.144 L 64.357 199.458 64.804 200.449 C 65.051 200.994,65.386 202.034,65.549 202.759 C 65.713 203.485,66.028 204.276,66.250 204.516 C 66.472 204.756,66.786 205.426,66.948 206.004 C 67.110 206.582,67.446 207.239,67.694 207.464 C 68.283 207.996,68.270 208.675,67.666 208.998 C 67.403 209.139,67.187 209.467,67.187 209.726 C 67.187 210.302,67.286 210.308,68.160 209.792 C 68.805 209.411,68.874 209.411,69.295 209.792 C 69.915 210.353,69.957 210.321,69.957 209.295 C 69.957 208.620,70.186 208.093,70.864 207.204 C 71.608 206.230,71.737 205.906,71.579 205.407 C 71.140 204.024,71.348 201.142,71.926 200.604 C 72.628 199.950,72.609 199.640,71.866 199.640 C 71.138 199.640,71.113 199.344,71.756 198.304 C 72.075 197.787,72.305 196.861,72.417 195.636 C 72.564 194.032,72.649 193.772,73.010 193.832 C 73.670 193.944,73.741 193.368,73.473 190.075 C 73.031 184.645,71.511 179.938,71.816 184.944 M124.158 183.186 C 123.962 183.968,124.171 184.523,124.662 184.523 C 124.956 184.523,125.027 184.319,124.969 183.642 C 124.881 182.595,124.377 182.312,124.158 183.186 M131.365 184.068 C 132.390 184.968,132.460 185.734,131.581 186.425 C 130.717 187.105,130.378 187.055,129.430 186.107 C 128.435 185.112,128.425 184.916,129.316 184.025 C 130.191 183.149,130.322 183.152,131.365 184.068 M79.664 185.015 C 79.664 185.291,81.105 185.963,81.696 185.963 C 82.354 185.963,82.084 185.467,81.231 185.111 C 80.250 184.700,79.664 184.665,79.664 185.015 M123.495 186.363 C 123.247 186.611,123.307 187.882,123.567 187.882 C 123.852 187.882,124.295 187.088,124.295 186.578 C 124.295 186.200,123.793 186.065,123.495 186.363 M97.938 190.222 C 96.862 192.366,96.167 195.081,96.694 195.081 C 96.996 195.081,97.487 194.100,98.016 192.442 C 98.839 189.860,99.061 189.911,100.280 192.965 C 101.337 195.614,101.971 196.070,101.994 194.199 C 102.008 193.097,102.187 191.853,102.588 190.078 C 102.907 188.665,101.950 189.180,101.536 190.644 L 101.198 191.841 100.812 191.242 C 99.555 189.288,98.581 188.943,97.938 190.222 M93.203 191.302 C 92.011 192.108,91.601 192.681,92.214 192.681 C 92.670 192.681,94.843 191.214,94.966 190.822 C 95.132 190.296,94.391 190.498,93.203 191.302 M106.185 191.542 C 105.954 192.274,105.720 200.762,105.936 200.555 C 106.165 200.336,107.007 193.857,107.013 192.262 C 107.019 190.917,106.518 190.482,106.185 191.542 M112.036 191.628 C 111.633 192.114,111.590 194.397,111.982 194.533 C 112.311 194.646,112.774 193.181,112.776 192.022 C 112.778 191.166,112.529 191.033,112.036 191.628 M71.722 194.075 C 71.735 194.248,71.638 194.323,71.506 194.241 C 71.374 194.160,71.277 193.748,71.290 193.327 C 71.314 192.552,71.650 193.134,71.722 194.075 M127.295 194.361 C 127.051 194.755,127.382 195.053,128.242 195.215 C 129.103 195.376,130.304 194.949,130.476 194.421 C 130.597 194.049,127.523 193.991,127.295 194.361 M65.873 194.859 C 66.317 196.259,65.880 198.459,65.236 198.061 C 64.179 197.408,63.844 195.218,64.727 194.738 C 65.600 194.265,65.687 194.274,65.873 194.859 M70.524 197.840 L 70.510 199.280 70.066 198.320 C 69.540 197.184,69.479 196.483,69.873 196.090 C 70.327 195.636,70.540 196.211,70.524 197.840 M124.706 196.189 C 123.897 196.999,125.024 199.180,126.552 199.764 C 128.335 200.445,128.821 199.621,127.488 198.175 C 127.171 197.832,126.829 197.238,126.727 196.856 C 126.544 196.165,125.181 195.715,124.706 196.189 M135.129 196.941 C 134.856 197.457,134.133 200.919,134.133 201.705 C 134.133 203.024,135.582 202.128,136.185 200.436 C 136.997 198.160,136.081 195.132,135.129 196.941 M131.285 197.323 C 130.793 197.916,130.665 199.160,131.095 199.160 C 131.564 199.160,131.974 198.440,131.974 197.616 C 131.974 196.940,131.700 196.823,131.285 197.323 M111.136 197.778 C 110.796 198.118,110.769 201.293,111.101 201.800 C 111.528 202.450,111.810 201.578,111.814 199.594 C 111.818 197.731,111.645 197.269,111.136 197.778 M67.562 200.495 C 68.277 202.598,67.426 203.324,66.385 201.500 C 65.534 200.008,65.398 199.198,65.904 198.639 C 66.439 198.048,66.910 198.576,67.562 200.495 M143.865 199.953 C 144.036 200.525,145.856 202.519,146.206 202.519 C 146.325 202.519,146.626 202.260,146.876 201.942 C 147.260 201.454,147.476 201.385,148.290 201.494 C 149.700 201.683,149.662 200.835,148.230 200.167 C 146.605 199.408,143.659 199.264,143.865 199.953 M70.059 203.119 C 70.059 203.517,70.019 203.537,69.826 203.239 C 69.698 203.041,69.593 202.663,69.593 202.400 C 69.593 202.002,69.633 201.981,69.826 202.280 C 69.954 202.478,70.059 202.855,70.059 203.119 M150.450 203.570 C 148.869 204.740,146.374 207.951,146.372 208.818 C 146.370 209.689,148.680 209.390,149.156 208.458 C 149.375 208.029,149.763 207.382,150.018 207.019 L 150.482 206.359 151.269 206.959 C 152.201 207.670,152.849 207.735,152.849 207.117 C 152.849 206.642,151.943 206.119,151.121 206.119 C 150.631 206.119,150.629 206.104,151.048 205.641 C 151.718 204.901,153.480 205.901,153.387 206.967 C 153.353 207.358,153.325 208.110,153.324 208.638 C 153.324 211.849,153.274 212.506,152.974 213.224 C 152.743 213.776,152.434 214.066,151.965 214.169 C 150.785 214.428,150.690 214.491,150.690 215.013 C 150.690 216.581,153.347 217.728,155.681 217.168 C 158.370 216.523,159.064 215.559,159.265 212.191 C 159.447 209.154,159.700 208.818,161.368 209.405 C 162.306 209.736,162.447 209.846,162.014 209.912 C 161.280 210.022,161.474 210.538,162.285 210.634 C 163.302 210.754,163.342 211.581,162.425 213.569 C 160.655 217.409,161.998 220.156,165.644 220.156 C 169.018 220.156,169.969 219.163,170.318 215.277 C 170.485 213.427,170.662 212.636,171.019 212.158 C 171.590 211.392,172.286 211.182,172.286 211.776 C 172.286 212.145,172.492 212.173,174.238 212.038 L 176.191 211.888 176.058 213.172 C 175.985 213.878,175.701 214.897,175.425 215.437 C 174.414 217.419,175.021 219.940,176.789 221.105 C 180.348 223.450,184.669 220.264,182.856 216.633 L 182.331 215.582 182.844 214.210 L 183.358 212.837 185.496 212.837 C 187.967 212.837,188.058 212.935,187.781 215.288 C 187.303 219.348,187.272 219.016,188.218 219.909 C 191.501 223.005,197.751 219.935,195.643 216.263 C 194.928 215.017,195.950 213.142,197.648 212.582 C 198.758 212.215,199.043 212.548,199.267 214.467 C 199.673 217.962,200.488 219.281,202.370 219.493 C 205.907 219.892,208.788 216.716,207.340 214.015 C 206.574 212.585,207.874 210.918,209.756 210.918 C 210.067 210.918,211.726 210.565,213.444 210.133 L 216.567 209.348 216.476 210.133 C 216.359 211.132,216.782 211.155,217.287 210.177 C 217.903 208.987,220.175 208.147,225.257 207.231 L 226.039 207.090 225.886 208.044 C 225.702 209.196,226.092 209.327,226.627 208.293 C 227.132 207.316,227.901 206.839,228.968 206.839 C 229.929 206.839,230.104 207.069,229.514 207.558 C 229.019 207.969,229.063 208.278,229.617 208.278 C 229.871 208.278,230.310 207.985,230.592 207.627 C 231.136 206.934,232.420 206.792,233.734 207.280 C 234.272 207.479,234.223 207.527,233.053 207.943 C 231.708 208.421,231.364 208.819,232.454 208.635 C 232.816 208.574,233.754 208.414,234.537 208.281 C 236.578 207.933,236.770 207.964,237.130 208.698 C 237.396 209.241,237.591 209.347,238.229 209.296 C 239.404 209.203,240.115 209.810,240.539 211.269 C 240.997 212.845,241.642 213.697,242.211 213.479 C 243.489 212.988,239.944 207.930,237.433 206.662 C 233.753 204.805,227.993 205.175,216.557 208.002 C 207.903 210.141,208.358 210.072,206.956 209.452 C 204.551 208.388,200.450 208.865,199.497 210.320 C 198.620 211.658,197.241 211.569,197.241 210.175 C 197.241 208.062,190.974 207.908,188.740 209.967 C 187.191 211.394,185.096 211.749,184.525 210.682 C 184.151 209.983,179.519 208.788,178.444 209.113 C 178.290 209.160,177.867 209.263,177.504 209.343 C 177.142 209.422,176.845 209.639,176.845 209.824 C 176.845 210.703,173.241 210.392,171.455 209.358 C 170.437 208.769,165.482 207.079,164.773 207.079 C 164.536 207.079,164.187 207.439,163.958 207.920 C 163.738 208.382,163.496 208.678,163.422 208.577 C 163.348 208.476,162.882 208.181,162.388 207.922 C 161.893 207.662,161.488 207.317,161.488 207.156 C 161.488 206.217,157.958 204.706,155.285 204.501 C 153.683 204.379,153.450 204.293,152.741 203.563 C 151.789 202.582,151.786 202.582,150.450 203.570 M68.955 203.952 C 69.625 205.625,68.575 206.426,67.814 204.823 C 67.350 203.846,67.339 203.663,67.714 203.287 C 68.216 202.786,68.563 202.971,68.955 203.952 M62.023 209.538 C 65.462 216.570,67.650 221.941,67.845 223.832 C 68.053 225.843,67.561 225.213,66.702 222.366 C 65.095 217.043,63.068 212.039,60.196 206.299 C 59.420 204.748,58.847 203.479,58.922 203.479 C 58.998 203.479,60.393 206.206,62.023 209.538 M142.879 204.791 C 142.688 205.249,142.531 205.782,142.531 205.976 C 142.531 206.171,142.100 206.829,141.572 207.439 C 140.239 208.978,140.259 210.786,141.596 209.576 C 141.839 209.356,142.211 209.256,142.476 209.340 C 142.918 209.481,143.130 209.807,143.696 211.218 C 143.842 211.581,144.137 211.878,144.352 211.878 C 144.602 211.878,144.692 211.747,144.603 211.515 C 144.527 211.315,144.595 210.865,144.755 210.514 C 144.984 210.011,144.983 209.855,144.748 209.777 C 144.366 209.650,144.355 207.432,144.729 205.946 C 145.182 204.148,143.569 203.141,142.879 204.791 M120.370 204.729 C 120.124 205.646,120.194 205.879,120.711 205.879 C 121.123 205.879,121.194 205.751,121.131 205.117 C 121.040 204.201,120.575 203.964,120.370 204.729 M110.858 206.791 C 110.858 208.723,110.928 209.238,111.192 209.238 C 111.751 209.238,111.851 208.514,111.556 206.613 C 111.138 203.927,110.858 203.999,110.858 206.791 M124.405 205.370 C 122.540 206.217,122.037 208.103,123.298 209.514 C 123.823 210.102,124.086 210.233,124.438 210.081 C 124.837 209.909,124.845 209.872,124.496 209.787 C 124.142 209.702,124.135 209.620,124.435 209.045 C 124.620 208.689,124.773 208.017,124.774 207.552 C 124.777 205.470,126.650 204.950,127.615 206.763 C 128.014 207.511,127.960 208.915,127.507 209.607 C 126.689 210.855,128.940 209.925,129.945 208.599 C 131.738 206.232,127.695 203.876,124.405 205.370 M70.066 206.462 C 70.066 206.835,69.435 207.558,69.109 207.558 C 68.784 207.558,68.673 206.995,68.907 206.539 C 69.166 206.035,70.066 205.975,70.066 206.462 M157.800 207.098 C 158.687 207.646,158.747 207.966,158.289 209.704 C 158.057 210.584,157.841 210.856,157.052 211.264 C 156.021 211.797,155.617 212.597,156.378 212.597 C 156.622 212.597,157.062 212.429,157.355 212.224 C 157.648 212.019,157.888 211.961,157.888 212.096 C 157.888 212.688,155.923 213.081,154.909 212.692 C 154.334 212.471,154.434 210.972,155.157 208.953 C 156.087 206.354,156.325 206.187,157.800 207.098 M222.537 208.625 C 222.367 209.304,222.559 209.718,223.045 209.718 C 223.424 209.718,223.769 208.689,223.524 208.292 C 223.243 207.838,222.688 208.025,222.537 208.625 M219.685 209.414 C 219.058 210.336,218.909 210.918,219.299 210.918 C 219.604 210.918,220.996 209.201,220.996 208.824 C 220.996 208.216,220.280 208.538,219.685 209.414 M167.991 209.750 C 169.383 210.213,169.479 210.442,168.741 211.540 C 166.166 215.374,164.607 215.804,164.607 212.680 C 164.607 209.881,165.656 208.973,167.991 209.750 M110.926 210.126 C 110.840 210.350,110.895 211.919,111.049 213.611 C 111.544 219.084,112.378 219.037,112.012 213.557 C 111.751 209.659,111.459 208.737,110.926 210.126 M125.015 210.073 C 125.015 210.511,126.157 210.831,126.499 210.489 C 126.887 210.102,126.499 209.718,125.721 209.718 C 125.257 209.718,125.015 209.840,125.015 210.073 M141.348 210.168 C 140.243 212.231,142.572 214.375,145.035 213.562 C 146.304 213.144,146.074 212.837,144.493 212.837 L 143.096 212.837 142.874 211.338 C 142.630 209.694,141.901 209.135,141.348 210.168 M145.270 210.316 C 144.693 211.196,144.990 211.734,145.947 211.542 C 146.551 211.422,146.653 211.451,146.423 211.681 C 145.993 212.111,146.067 212.597,146.563 212.597 C 147.227 212.597,147.570 212.107,147.570 211.158 C 147.570 209.651,146.066 209.101,145.270 210.316 M148.450 209.878 C 148.202 210.126,148.262 211.398,148.522 211.398 C 148.807 211.398,149.250 210.604,149.250 210.094 C 149.250 209.716,148.748 209.580,148.450 209.878 M238.272 209.936 C 238.272 210.247,239.702 211.007,239.906 210.804 C 239.988 210.722,239.940 210.471,239.799 210.246 C 239.516 209.794,238.272 209.541,238.272 209.936 M151.542 211.000 C 150.827 211.937,150.751 212.597,151.356 212.597 C 152.187 212.597,152.849 211.899,152.849 211.024 C 152.849 209.950,152.350 209.941,151.542 211.000 M204.814 210.706 C 205.715 211.136,205.789 211.733,205.106 213.063 C 203.994 215.230,202.326 215.511,201.457 213.679 C 200.180 210.988,202.012 209.366,204.814 210.706 M194.381 210.678 C 195.160 210.678,193.738 213.368,191.955 215.267 L 190.760 216.541 190.385 216.006 C 188.784 213.720,191.255 209.844,193.841 210.586 C 194.017 210.637,194.260 210.678,194.381 210.678 M213.451 210.971 C 212.982 211.641,212.972 212.118,213.429 212.118 C 213.814 212.118,214.277 211.406,214.277 210.814 C 214.277 210.276,213.886 210.350,213.451 210.971 M181.264 211.303 C 181.844 211.526,181.732 212.014,180.633 214.078 C 178.802 217.515,178.164 217.496,178.164 214.006 C 178.164 211.342,179.143 210.489,181.264 211.303 M235.704 213.959 C 235.007 214.708,234.485 215.369,234.544 215.427 C 234.715 215.599,237.524 213.227,237.539 212.897 C 237.567 212.274,236.929 212.643,235.704 213.959 M150.733 213.377 C 150.831 214.069,151.762 214.227,152.389 213.659 C 153.093 213.022,152.950 212.837,151.753 212.837 C 150.753 212.837,150.663 212.885,150.733 213.377 M212.503 213.697 C 212.296 214.237,212.323 214.997,212.549 214.997 C 212.921 214.997,213.317 214.415,213.317 213.869 C 213.317 213.241,212.726 213.116,212.503 213.697 M139.927 215.259 C 140.386 216.790,139.405 219.459,136.962 223.328 C 135.775 225.207,135.596 225.256,136.496 223.455 C 137.552 221.344,137.933 219.917,138.213 217.037 C 138.588 213.185,139.135 212.617,139.927 215.259 M236.617 215.376 C 235.661 216.422,235.393 216.889,235.393 217.510 C 235.393 218.442,233.573 220.662,232.610 220.903 C 231.933 221.073,231.896 221.203,232.419 221.585 C 232.757 221.832,232.576 222.171,230.960 224.316 C 228.934 227.005,228.269 227.482,225.842 227.983 C 225.024 228.152,224.355 228.379,224.355 228.487 C 224.355 228.595,224.598 228.633,224.895 228.572 C 228.292 227.871,228.302 227.962,225.195 231.246 C 223.809 232.711,222.675 233.974,222.675 234.052 C 222.675 234.540,223.550 233.841,226.351 231.114 C 229.229 228.312,229.671 227.975,231.254 227.374 C 233.061 226.687,233.598 226.110,232.214 226.343 C 231.785 226.415,231.234 226.553,230.989 226.649 C 229.979 227.048,230.776 225.879,232.276 224.763 C 233.894 223.560,234.472 222.719,233.459 223.040 L 232.921 223.211 233.458 222.458 C 233.971 221.737,235.104 221.018,236.325 220.640 C 236.846 220.479,236.808 220.587,235.905 221.848 C 234.935 223.203,234.682 223.875,235.143 223.875 C 235.269 223.875,236.258 222.848,237.340 221.593 C 239.441 219.155,239.809 218.915,238.995 220.511 C 237.869 222.717,238.903 223.141,241.150 221.396 C 242.539 220.317,243.169 219.236,242.073 219.811 C 241.764 219.973,241.113 220.418,240.626 220.799 L 239.741 221.493 240.326 219.999 C 241.413 217.228,241.140 216.685,239.318 217.994 C 238.677 218.455,237.404 219.222,236.489 219.699 L 234.825 220.566 235.267 219.881 C 235.511 219.504,235.963 218.820,236.271 218.361 C 236.580 217.901,236.837 217.253,236.842 216.921 C 236.848 216.589,237.172 215.943,237.562 215.486 C 238.263 214.666,238.477 214.037,238.056 214.037 C 237.938 214.037,237.290 214.640,236.617 215.376 M119.010 214.893 C 118.661 215.810,118.716 216.917,119.111 216.917 C 119.542 216.917,119.736 216.390,119.736 215.217 C 119.736 214.147,119.358 213.978,119.010 214.893 M127.157 216.349 C 128.475 218.024,126.372 219.975,124.869 218.472 C 124.160 217.763,124.251 217.090,125.168 216.257 C 125.949 215.547,126.548 215.575,127.157 216.349 M143.491 216.887 C 143.491 217.239,144.095 217.625,144.894 217.785 C 145.932 217.993,145.933 217.302,144.895 216.940 C 143.983 216.622,143.491 216.604,143.491 216.887 M134.613 219.196 C 134.613 220.236,134.512 220.996,134.373 220.996 C 134.114 220.996,134.038 218.403,134.279 217.776 C 134.544 217.085,134.613 217.378,134.613 219.196 M147.570 219.076 C 147.570 219.485,147.730 219.556,148.650 219.556 C 149.947 219.556,150.007 219.407,148.898 218.944 C 147.793 218.482,147.570 218.505,147.570 219.076 M177.992 220.484 C 177.703 220.592,176.553 219.762,176.415 219.346 C 176.359 219.180,176.745 219.349,177.271 219.720 C 177.798 220.092,178.122 220.436,177.992 220.484 M118.895 219.558 C 118.634 219.981,118.714 221.630,119.023 222.209 C 119.461 223.026,119.736 222.714,119.736 221.402 C 119.736 220.046,119.251 218.982,118.895 219.558 M192.090 219.845 C 192.170 219.925,191.923 220.059,191.541 220.143 C 190.847 220.295,189.722 220.010,189.482 219.620 C 189.342 219.394,191.856 219.611,192.090 219.845 M151.856 220.753 C 152.581 221.371,153.638 221.410,153.525 220.816 C 153.465 220.502,153.173 220.380,152.367 220.334 L 151.290 220.271 151.856 220.753 M132.801 228.492 C 133.613 231.910,133.630 231.794,132.334 231.794 C 131.110 231.794,130.294 231.191,130.294 230.288 C 130.294 229.988,129.973 229.097,129.582 228.308 C 128.539 226.211,128.594 225.820,130.354 222.727 L 131.350 220.978 131.769 223.446 C 131.999 224.804,132.464 227.075,132.801 228.492 M133.652 223.146 C 133.807 224.064,133.845 224.955,133.737 225.125 C 133.523 225.461,133.222 223.944,133.191 222.376 C 133.164 221.003,133.340 221.297,133.652 223.146 M156.251 221.878 C 156.306 222.162,156.545 222.316,156.932 222.316 C 157.786 222.316,157.712 221.617,156.848 221.518 C 156.297 221.455,156.183 221.524,156.251 221.878 M205.265 221.816 C 205.009 222.003,204.880 222.236,204.978 222.334 C 205.209 222.566,207.079 222.007,207.079 221.706 C 207.079 221.354,205.790 221.432,205.265 221.816 M159.455 222.665 C 159.271 222.963,160.429 223.725,160.757 223.522 C 160.895 223.437,161.008 223.223,161.008 223.047 C 161.008 222.514,159.740 222.202,159.455 222.665 M130.629 223.013 C 130.416 223.570,130.633 224.911,130.954 225.017 C 131.167 225.087,131.254 224.764,131.254 223.895 C 131.254 222.743,130.916 222.266,130.629 223.013 M200.280 223.555 C 199.925 223.910,200.153 224.355,200.690 224.355 C 201.286 224.355,201.911 223.826,201.638 223.553 C 201.432 223.348,200.486 223.349,200.280 223.555 M164.427 224.415 C 164.545 224.770,165.729 225.232,165.952 225.010 C 166.037 224.925,166.042 224.689,165.964 224.485 C 165.789 224.028,164.275 223.959,164.427 224.415 M196.821 224.589 C 195.684 225.104,195.409 225.705,196.426 225.450 C 197.187 225.259,198.200 224.618,198.200 224.328 C 198.200 224.023,197.970 224.067,196.821 224.589 M119.541 226.314 C 119.594 227.046,119.723 227.355,119.976 227.355 C 120.545 227.355,120.474 225.468,119.901 225.358 C 119.527 225.286,119.477 225.419,119.541 226.314 M173.725 225.801 C 173.725 226.143,174.795 226.515,175.780 226.515 C 176.729 226.515,176.932 225.938,176.065 225.706 C 175.197 225.474,173.725 225.533,173.725 225.801 M185.595 226.048 C 185.370 226.411,185.910 226.746,186.728 226.751 C 187.365 226.755,187.825 226.411,187.466 226.200 C 186.938 225.888,185.753 225.792,185.595 226.048 M180.504 226.194 C 179.909 226.434,180.190 226.995,180.904 226.995 C 181.847 226.995,182.364 226.773,182.364 226.369 C 182.364 226.038,181.169 225.925,180.504 226.194 M127.997 228.331 C 129.308 229.642,126.596 231.927,125.214 230.677 C 124.586 230.109,124.671 229.462,125.476 228.656 C 126.268 227.864,127.386 227.720,127.997 228.331 M119.854 230.602 C 119.624 231.325,119.934 232.753,120.321 232.753 C 120.750 232.753,120.966 231.820,120.735 230.958 C 120.505 230.096,120.070 229.920,119.854 230.602 M140.450 230.751 C 141.986 231.005,140.941 231.306,138.512 231.310 C 136.523 231.313,135.756 231.091,136.593 230.753 C 137.031 230.576,139.386 230.575,140.450 230.751 M131.235 233.142 C 133.250 233.522,137.107 233.507,141.452 233.101 L 142.891 232.966 142.328 233.458 C 140.492 235.057,134.355 235.301,129.978 233.949 C 126.716 232.942,127.501 232.437,131.235 233.142 M120.309 234.296 C 120.077 234.901,120.323 235.746,120.756 235.828 C 121.065 235.887,121.176 235.750,121.176 235.310 C 121.176 234.149,120.617 233.495,120.309 234.296 M237.961 236.722 C 245.500 239.560,247.454 247.026,242.153 252.738 C 238.028 257.183,220.846 266.813,217.531 266.538 C 213.073 266.168,208.038 259.325,208.038 253.635 C 208.038 251.795,208.044 251.790,214.637 247.869 C 216.485 246.770,220.858 244.091,224.355 241.916 C 234.552 235.575,234.731 235.506,237.961 236.722 M252.678 236.393 C 252.705 237.438,253.597 239.840,253.986 239.916 C 254.968 240.108,253.977 236.509,252.955 236.168 C 252.798 236.116,252.673 236.217,252.678 236.393 M137.269 237.081 C 137.826 237.380,138.831 239.287,139.052 240.468 C 139.477 242.729,131.405 243.486,129.639 241.351 C 129.392 241.053,129.599 240.781,130.904 239.693 C 133.823 237.259,135.961 236.381,137.269 237.081 M120.944 238.976 C 120.597 239.626,120.629 240.494,120.996 240.373 C 121.405 240.238,121.883 239.238,121.729 238.838 C 121.553 238.378,121.235 238.434,120.944 238.976 M130.294 243.943 C 130.583 244.055,130.559 244.121,130.174 244.274 C 129.404 244.581,127.894 244.100,127.894 243.547 C 127.894 243.373,129.509 243.639,130.294 243.943 M181.644 244.391 C 181.182 244.569,180.237 244.723,179.544 244.733 C 178.077 244.754,177.914 245.072,179.160 245.483 L 180.036 245.772 179.287 246.087 C 178.871 246.262,176.642 246.517,174.272 246.661 C 168.588 247.007,162.421 247.619,161.971 247.883 C 161.700 248.042,161.785 248.098,162.305 248.103 C 162.900 248.109,162.661 248.324,160.664 249.577 L 158.325 251.043 156.758 250.943 C 155.647 250.872,155.104 250.725,154.894 250.437 C 154.542 249.956,153.809 249.894,153.809 250.345 C 153.809 250.798,155.010 251.852,155.822 252.111 L 156.514 252.331 154.922 253.729 C 152.452 255.898,152.961 256.361,155.594 254.343 C 157.100 253.189,157.196 253.151,157.828 253.469 C 158.703 253.910,159.283 254.036,161.848 254.342 C 163.035 254.484,164.304 254.719,164.667 254.864 C 165.166 255.063,165.415 255.054,165.687 254.829 C 165.913 254.642,167.448 254.455,169.826 254.327 C 173.863 254.110,186.395 252.797,186.625 252.567 C 187.135 252.057,186.150 252.109,176.005 253.127 C 173.497 253.378,170.373 253.652,169.062 253.735 L 166.678 253.885 167.139 253.375 C 167.885 252.551,168.247 252.451,171.361 252.203 C 175.058 251.910,176.074 251.634,176.374 250.844 C 176.781 249.776,180.527 248.713,181.028 249.525 C 181.211 249.821,179.546 250.453,178.068 250.649 C 176.178 250.900,176.621 251.230,178.847 251.230 C 180.583 251.230,180.910 251.162,181.307 250.721 C 181.558 250.441,182.358 249.836,183.083 249.375 C 184.429 248.521,185.483 247.657,185.483 247.409 C 185.483 247.333,184.808 247.253,183.983 247.232 C 183.158 247.211,182.060 247.049,181.542 246.872 C 180.569 246.540,180.098 245.951,180.806 245.951 C 181.027 245.951,181.483 245.735,181.818 245.471 C 182.154 245.207,182.630 244.991,182.876 244.991 C 183.163 244.991,183.323 244.819,183.323 244.511 C 183.323 243.951,182.870 243.919,181.644 244.391 M136.336 245.266 C 136.420 245.828,137.126 246.397,137.400 246.123 C 137.494 246.030,137.447 245.682,137.297 245.352 C 136.953 244.598,136.227 244.533,136.336 245.266 M187.758 247.764 C 185.188 249.494,183.622 251.230,184.631 251.230 C 184.990 251.230,187.332 249.360,188.328 248.279 C 189.201 247.331,188.859 247.023,187.758 247.764 M122.969 247.891 C 122.743 248.604,123.057 250.030,123.440 250.030 C 123.860 250.030,124.093 249.077,123.904 248.134 C 123.734 247.285,123.205 247.148,122.969 247.891 M181.963 247.615 C 183.657 248.008,183.306 248.580,181.366 248.587 C 180.347 248.590,180.260 248.546,180.381 248.084 C 180.504 247.616,180.450 247.592,179.699 247.771 C 178.808 247.983,178.611 247.990,175.705 247.919 C 174.577 247.891,173.725 247.767,173.725 247.630 C 173.725 247.328,180.671 247.315,181.963 247.615 M172.596 247.930 C 174.155 248.655,171.260 250.270,168.403 250.270 C 167.113 250.270,166.856 250.626,167.969 250.870 C 168.971 251.090,168.672 251.389,167.129 251.709 C 164.915 252.169,164.736 251.744,166.587 250.423 C 168.240 249.244,168.839 248.663,168.623 248.447 C 168.443 248.267,167.123 248.961,165.773 249.942 C 163.929 251.284,163.281 251.468,161.526 251.147 L 160.005 250.870 161.646 250.001 C 163.372 249.088,165.220 248.561,168.206 248.131 C 169.196 247.989,170.276 247.832,170.606 247.784 C 171.746 247.617,171.953 247.632,172.596 247.930 M176.696 249.066 C 177.026 249.395,175.929 249.750,174.028 249.928 C 172.484 250.073,172.431 250.061,172.938 249.687 C 174.308 248.674,176.021 248.391,176.696 249.066 M189.060 249.610 C 187.998 250.422,187.623 250.990,188.149 250.990 C 188.591 250.990,190.269 249.784,190.545 249.268 C 190.922 248.563,190.217 248.725,189.060 249.610 M141.897 249.670 C 142.185 249.958,143.251 252.406,143.251 252.779 C 143.251 253.646,134.829 254.187,134.014 253.372 C 133.282 252.641,135.032 251.173,138.175 249.880 C 139.740 249.236,141.371 249.144,141.897 249.670 M174.445 250.750 C 174.445 250.882,174.364 250.991,174.265 250.992 C 174.093 250.993,171.767 251.336,170.246 251.584 C 168.885 251.806,170.357 251.157,171.926 250.844 C 173.772 250.476,174.445 250.451,174.445 250.750 M161.848 251.950 C 162.205 252.103,162.021 252.161,161.128 252.176 C 159.505 252.204,158.988 252.554,160.268 252.758 C 161.575 252.967,161.584 253.498,160.279 253.323 C 158.820 253.127,157.976 252.150,159.028 251.875 C 159.738 251.690,161.341 251.732,161.848 251.950 M124.581 252.969 C 124.633 253.683,124.763 253.989,125.015 253.989 C 125.467 253.989,125.610 253.093,125.262 252.442 C 124.825 251.625,124.502 251.876,124.581 252.969 M165.890 253.029 C 165.828 253.441,163.928 253.930,163.040 253.764 C 161.917 253.553,161.992 253.227,163.227 252.944 C 164.477 252.657,165.940 252.704,165.890 253.029 M121.158 256.542 C 120.734 257.334,121.046 259.474,122.003 262.332 C 122.705 264.431,122.803 264.972,122.608 265.651 C 122.019 267.706,122.386 269.849,123.644 271.695 C 123.984 272.196,124.452 273.113,124.683 273.735 C 125.234 275.214,126.527 277.278,127.608 278.404 C 129.203 280.066,129.341 279.299,127.819 277.231 C 127.250 276.458,126.578 275.510,126.326 275.126 L 125.868 274.426 126.521 274.590 C 127.503 274.837,127.346 274.355,125.884 272.635 C 124.328 270.805,123.409 269.170,123.200 267.863 C 122.955 266.334,123.477 266.351,124.159 267.894 C 124.491 268.644,124.904 269.226,125.103 269.226 C 125.298 269.226,125.790 269.506,126.196 269.847 C 127.395 270.856,127.167 269.805,125.640 267.285 C 123.648 263.996,121.896 259.077,121.896 256.773 C 121.896 256.069,121.481 255.939,121.158 256.542 M134.794 256.329 C 134.645 256.781,132.664 256.838,132.094 256.407 C 131.650 256.071,131.738 256.043,133.253 256.036 C 134.460 256.031,134.867 256.108,134.794 256.329 M57.007 257.169 C 56.788 257.386,56.149 258.883,56.149 259.177 C 56.149 259.606,56.826 259.370,57.190 258.813 C 57.987 257.597,57.847 256.334,57.007 257.169 M126.063 257.345 C 125.883 257.815,126.730 259.245,127.248 259.345 C 127.769 259.445,127.770 258.926,127.250 257.837 C 126.829 256.953,126.298 256.733,126.063 257.345 M245.891 259.659 C 244.483 260.390,243.351 261.155,243.048 261.580 C 242.772 261.969,241.945 262.730,241.211 263.272 C 240.478 263.814,239.112 264.962,238.175 265.823 C 236.158 267.679,233.579 269.413,231.705 270.173 C 230.962 270.475,230.354 270.817,230.354 270.934 C 230.354 272.408,239.317 266.662,243.911 262.243 C 244.571 261.609,245.866 260.678,246.788 260.175 C 247.711 259.672,248.501 259.073,248.545 258.844 C 248.659 258.255,248.505 258.303,245.891 259.659 M146.078 260.168 C 146.548 260.742,146.901 262.518,146.613 262.864 C 146.092 263.492,139.787 265.276,139.066 264.999 C 137.696 264.473,141.018 261.510,144.304 260.327 C 145.788 259.793,145.772 259.794,146.078 260.168 M54.478 261.292 C 54.133 261.935,54.167 262.747,54.537 262.747 C 54.855 262.747,55.669 261.556,55.669 261.091 C 55.669 260.644,54.740 260.801,54.478 261.292 M128.007 261.965 C 128.178 262.644,128.514 262.977,129.034 262.984 C 129.485 262.989,129.395 262.157,128.895 261.705 C 128.207 261.082,127.815 261.197,128.007 261.965 M247.198 263.830 C 244.684 264.382,244.297 264.533,244.603 264.839 C 245.012 265.248,250.750 263.973,250.750 263.473 C 250.750 263.133,250.061 263.202,247.198 263.830 M245.471 265.857 C 244.745 266.248,243.975 266.572,243.760 266.577 C 243.544 266.582,243.080 266.965,242.727 267.427 C 241.772 268.680,238.243 270.320,235.307 270.876 C 234.029 271.118,232.914 271.385,232.829 271.471 C 232.446 271.853,233.131 271.930,234.730 271.682 C 235.682 271.535,236.491 271.444,236.527 271.480 C 236.681 271.634,231.809 274.025,231.342 274.025 C 231.061 274.025,230.588 274.304,230.292 274.644 C 229.996 274.985,228.917 275.761,227.894 276.370 C 226.872 276.978,226.035 277.615,226.035 277.784 C 226.035 278.204,226.725 277.926,229.994 276.189 C 231.446 275.417,233.227 274.606,233.953 274.386 C 235.887 273.800,236.353 273.587,236.353 273.284 C 236.353 273.111,236.115 273.069,235.693 273.169 C 235.082 273.314,235.095 273.287,235.873 272.800 C 237.055 272.060,239.996 270.666,240.375 270.666 C 240.550 270.666,241.201 270.198,241.822 269.627 C 242.443 269.055,243.950 267.910,245.171 267.081 C 248.048 265.128,248.234 264.370,245.471 265.857 M52.177 266.219 C 51.793 267.139,51.711 268.506,52.040 268.506 C 52.351 268.506,53.324 266.116,53.174 265.724 C 52.952 265.147,52.540 265.352,52.177 266.219 M130.377 266.236 C 130.199 266.700,130.944 267.546,131.531 267.546 C 132.108 267.546,132.111 266.785,131.535 266.264 C 130.986 265.767,130.561 265.757,130.377 266.236 M145.171 266.358 C 145.171 266.955,146.274 268.114,146.632 267.893 C 146.916 267.718,146.724 266.653,146.322 266.168 C 145.915 265.678,145.171 265.800,145.171 266.358 M137.952 267.220 C 138.193 267.428,137.097 267.275,136.773 267.056 C 136.510 266.878,136.607 266.855,137.133 266.973 C 137.528 267.062,137.897 267.173,137.952 267.220 M240.352 267.227 C 239.996 267.583,240.236 267.786,241.012 267.786 C 241.965 267.786,242.591 267.586,242.591 267.281 C 242.591 267.034,240.593 266.986,240.352 267.227 M150.784 269.951 C 151.539 271.839,151.253 272.240,148.488 273.167 C 144.076 274.647,144.146 273.076,148.630 269.970 C 150.365 268.768,150.311 268.768,150.784 269.951 M47.357 270.128 C 46.659 270.582,46.311 273.528,46.899 274.016 C 47.379 274.414,48.204 274.103,48.348 273.469 C 48.938 270.861,48.962 270.186,48.464 270.186 C 48.357 270.186,48.126 270.133,47.950 270.069 C 47.774 270.004,47.508 270.031,47.357 270.128 M133.173 270.384 C 133.173 270.865,134.116 271.866,134.569 271.866 C 135.063 271.866,134.878 271.259,134.180 270.591 C 133.388 269.832,133.173 269.788,133.173 270.384 M142.651 272.346 C 142.411 272.611,142.161 272.774,142.095 272.708 C 142.029 272.642,142.171 272.371,142.412 272.106 C 142.652 271.840,142.902 271.677,142.968 271.743 C 143.034 271.809,142.892 272.080,142.651 272.346 M50.525 274.611 C 50.402 275.425,50.481 275.931,50.857 276.757 C 51.128 277.352,51.350 278.054,51.350 278.317 C 51.350 278.953,51.738 279.169,51.939 278.646 C 52.472 277.256,52.375 275.312,51.740 274.678 C 51.394 274.331,51.110 273.934,51.110 273.796 C 51.110 273.071,50.662 273.694,50.525 274.611 M135.097 274.445 C 135.102 275.005,135.342 275.335,135.996 275.679 C 136.805 276.105,136.999 275.377,136.281 274.613 C 135.635 273.925,135.091 273.848,135.097 274.445 M198.972 275.359 C 198.282 275.843,197.719 276.941,197.725 277.793 C 197.730 278.446,197.766 278.427,199.045 277.106 C 200.742 275.352,200.692 274.155,198.972 275.359 M146.852 275.824 C 146.443 276.316,144.824 276.771,144.289 276.543 C 143.947 276.398,144.139 276.263,145.171 275.926 C 146.882 275.366,147.250 275.344,146.852 275.824 M46.406 277.516 C 46.226 278.235,46.394 280.667,46.642 280.915 C 47.383 281.656,48.081 279.005,47.527 277.549 C 47.218 276.734,46.607 276.716,46.406 277.516 M156.755 278.284 C 158.198 280.272,158.241 280.433,157.435 280.850 C 156.348 281.412,153.166 282.222,152.373 282.139 L 151.661 282.064 152.195 281.003 C 152.770 279.861,155.206 277.145,155.655 277.145 C 155.805 277.145,156.300 277.657,156.755 278.284 M58.380 278.211 C 58.593 279.525,59.435 281.224,59.874 281.224 C 60.349 281.224,60.204 280.296,59.452 278.524 C 58.867 277.143,58.173 276.940,58.380 278.211 M137.493 277.931 C 137.493 278.336,138.179 279.304,138.466 279.304 C 138.792 279.304,138.745 278.253,138.404 277.912 C 138.025 277.533,137.493 277.544,137.493 277.931 M193.328 280.209 L 192.176 281.104 193.168 281.179 C 194.406 281.272,195.321 280.728,195.321 279.898 C 195.321 279.047,194.701 279.144,193.328 280.209 M51.110 280.376 C 51.110 280.569,50.759 281.128,50.330 281.617 C 49.596 282.455,49.552 282.606,49.590 284.205 L 49.629 285.903 49.055 284.643 C 48.021 282.378,47.043 283.100,47.882 285.509 C 48.082 286.084,48.181 286.759,48.102 287.009 C 47.948 287.495,48.552 287.672,48.830 287.223 C 48.912 287.091,49.566 286.983,50.284 286.983 L 51.590 286.983 51.590 283.503 C 51.590 281.344,51.499 280.024,51.350 280.024 C 51.218 280.024,51.110 280.182,51.110 280.376 M218.416 281.471 C 217.140 282.203,216.812 282.667,217.576 282.660 C 218.235 282.653,219.903 281.615,219.992 281.157 C 220.101 280.590,219.873 280.635,218.416 281.471 M223.611 281.292 C 222.614 281.962,222.310 283.049,223.196 282.775 C 224.656 282.324,225.735 281.469,225.441 280.994 C 225.191 280.590,224.485 280.704,223.611 281.292 M131.132 282.426 C 131.049 282.560,131.884 283.613,132.987 284.766 C 134.090 285.919,135.248 287.241,135.561 287.702 C 136.859 289.621,137.972 290.520,137.972 289.648 C 137.972 288.254,131.654 281.582,131.132 282.426 M60.708 283.023 C 60.708 283.223,60.495 283.383,60.228 283.383 C 59.964 283.383,59.527 283.604,59.257 283.875 L 58.765 284.366 58.038 283.755 C 56.251 282.251,56.253 283.435,58.041 285.375 L 58.661 286.046 57.645 285.884 C 56.468 285.696,56.210 286.412,57.071 287.476 C 57.619 288.152,58.426 287.970,58.189 287.224 C 57.970 286.533,58.687 286.595,60.132 287.389 C 61.113 287.929,61.706 288.058,63.707 288.169 C 65.966 288.295,66.111 288.334,66.183 288.842 C 66.226 289.139,66.145 289.382,66.003 289.382 C 65.299 289.382,65.890 290.493,67.356 291.923 L 68.965 293.493 67.656 292.973 C 66.936 292.687,66.097 292.356,65.791 292.237 C 63.896 291.502,63.909 292.290,65.807 293.181 C 70.978 295.607,72.597 295.458,69.835 292.810 C 67.831 290.888,67.814 290.862,68.516 290.783 C 69.669 290.652,69.492 289.698,68.146 288.797 C 67.552 288.399,66.203 287.259,65.147 286.262 C 61.352 282.682,60.708 282.212,60.708 283.023 M188.602 283.538 C 185.867 284.696,183.231 286.743,184.476 286.743 C 185.397 286.743,190.762 283.873,190.762 283.380 C 190.762 283.038,189.579 283.124,188.602 283.538 M213.490 283.512 C 211.345 283.939,210.918 284.085,210.918 284.392 C 210.918 284.768,213.702 284.486,214.937 283.985 C 216.896 283.190,216.219 282.969,213.490 283.512 M218.321 284.190 C 216.170 285.130,211.873 287.486,210.697 288.371 C 210.245 288.711,209.632 289.000,209.334 289.013 C 208.649 289.043,207.798 289.800,207.798 290.379 C 207.798 291.059,208.623 290.920,209.441 290.102 C 209.837 289.706,210.250 289.381,210.359 289.381 C 210.685 289.378,219.814 284.843,220.554 284.316 C 222.191 283.150,220.874 283.076,218.321 284.190 M61.864 285.051 C 64.070 286.795,64.281 287.492,62.417 286.872 C 60.889 286.365,59.988 285.658,59.988 284.966 C 59.988 283.832,60.342 283.848,61.864 285.051 M166.286 287.370 C 167.597 288.554,167.523 288.749,165.387 289.763 C 160.282 292.185,159.654 291.904,162.873 288.639 C 165.313 286.164,165.056 286.259,166.286 287.370 M178.704 288.808 C 177.209 289.732,176.823 290.582,177.897 290.582 C 178.730 290.582,180.788 289.134,180.881 288.482 C 180.992 287.698,180.343 287.795,178.704 288.808 M72.226 289.470 C 72.226 290.341,73.001 291.542,73.563 291.542 C 74.051 291.542,73.986 290.989,73.410 290.257 L 72.915 289.628 73.710 289.764 L 74.505 289.899 73.832 289.281 C 72.851 288.380,72.226 288.453,72.226 289.470 M145.171 288.974 C 145.171 289.419,145.673 289.862,146.179 289.862 C 146.672 289.862,146.749 289.376,146.323 288.950 C 145.939 288.566,145.171 288.582,145.171 288.974 M58.788 289.129 C 58.788 289.437,59.769 290.102,60.224 290.102 C 60.426 290.102,60.721 290.307,60.877 290.558 C 61.200 291.075,63.764 292.405,63.994 292.175 C 64.352 291.816,62.019 290.102,61.172 290.102 C 61.021 290.102,60.685 289.832,60.425 289.502 C 59.969 288.922,58.788 288.653,58.788 289.129 M76.936 289.092 C 76.862 289.210,76.896 289.675,77.010 290.124 C 77.125 290.574,77.282 291.230,77.361 291.583 C 77.679 293.009,79.664 294.459,79.664 293.266 C 79.664 292.130,77.297 288.508,76.936 289.092 M74.625 289.965 C 74.625 290.412,75.764 291.302,76.337 291.302 C 76.985 291.302,76.889 290.952,76.046 290.243 C 75.230 289.557,74.625 289.438,74.625 289.965 M69.586 290.324 C 69.586 290.952,71.030 292.107,73.105 293.139 C 74.958 294.061,75.480 294.030,75.225 293.017 C 74.947 291.910,73.905 291.232,73.905 292.158 C 73.905 292.924,71.867 291.893,71.506 290.944 C 71.125 289.941,69.586 289.445,69.586 290.324 M183.923 291.790 C 182.761 292.382,181.257 293.634,181.463 293.840 C 181.545 293.922,182.373 293.836,183.304 293.649 L 184.997 293.309 184.391 294.045 C 181.845 297.135,181.785 298.244,184.232 296.941 C 184.852 296.611,185.610 296.341,185.917 296.341 C 186.619 296.341,187.338 295.974,188.182 295.187 C 189.621 293.845,188.569 293.831,185.934 295.156 C 183.801 296.228,183.799 296.274,186.023 293.543 C 187.894 291.245,187.888 290.825,185.998 291.905 C 184.829 292.573,184.375 292.698,185.190 292.128 C 186.417 291.268,185.455 291.011,183.923 291.790 M79.814 292.134 C 80.153 293.016,82.468 294.178,82.697 293.581 C 83.067 292.617,82.069 291.292,81.541 292.047 C 81.361 292.305,81.279 292.313,81.185 292.082 C 81.003 291.633,79.642 291.685,79.814 292.134 M148.290 292.157 C 148.290 292.750,148.753 293.461,149.139 293.461 C 149.632 293.461,149.577 292.654,149.051 292.179 C 148.502 291.682,148.290 291.676,148.290 292.157 M86.623 292.507 C 86.623 292.849,89.479 294.661,90.019 294.661 C 91.064 294.661,89.771 293.387,87.973 292.645 C 86.889 292.198,86.623 292.170,86.623 292.507 M158.926 293.521 C 159.347 293.950,159.907 294.430,160.170 294.587 C 160.564 294.822,160.501 294.833,159.808 294.651 C 159.011 294.441,157.888 293.457,157.888 292.968 C 157.888 292.582,158.132 292.712,158.926 293.521 M190.402 295.070 C 186.610 296.987,185.470 297.904,188.080 296.936 C 189.510 296.406,194.053 294.069,194.841 293.458 C 196.211 292.395,194.369 293.064,190.402 295.070 M177.286 295.211 L 178.328 295.914 177.177 296.732 C 175.002 298.279,170.643 299.311,170.975 298.200 C 171.222 297.378,172.411 295.585,173.471 294.436 L 174.421 293.407 175.333 293.958 C 175.834 294.261,176.713 294.825,177.286 295.211 M151.890 295.699 C 151.890 296.336,152.802 297.301,153.405 297.301 C 153.973 297.301,153.909 296.920,153.181 295.965 C 152.452 295.010,151.890 294.894,151.890 295.699 M156.762 300.547 C 157.413 301.120,158.368 301.352,158.368 300.937 C 158.368 300.510,157.460 299.940,156.790 299.948 L 156.089 299.955 156.762 300.547 M171.446 300.420 C 171.364 300.552,171.148 300.660,170.966 300.660 C 170.783 300.660,170.567 300.552,170.486 300.420 C 170.401 300.283,170.608 300.180,170.966 300.180 C 171.324 300.180,171.530 300.283,171.446 300.420 M184.359 300.449 C 184.958 300.756,186.443 302.113,186.443 302.354 C 186.443 303.766,181.684 305.618,181.138 304.418 C 180.244 302.457,182.603 299.549,184.359 300.449 M160.851 302.948 C 160.673 303.413,161.418 304.259,162.005 304.259 C 162.582 304.259,162.584 303.498,162.009 302.977 C 161.460 302.480,161.035 302.470,160.851 302.948 M97.207 304.712 C 100.556 305.670,108.622 309.450,113.140 312.179 L 115.177 313.410 115.033 314.413 C 113.901 322.251,110.385 326.192,96.221 335.500 C 93.119 337.538,89.689 339.860,88.599 340.660 L 86.615 342.115 83.320 341.419 C 66.984 337.971,63.303 334.458,66.945 325.793 C 67.346 324.837,67.862 323.819,68.091 323.530 L 68.506 323.005 71.626 323.455 C 74.859 323.922,81.035 324.529,84.873 324.757 L 87.082 324.888 87.213 324.112 C 87.286 323.685,87.511 322.148,87.714 320.696 C 88.974 311.696,90.843 304.832,92.190 304.257 C 92.924 303.943,95.259 304.155,97.207 304.712 M181.351 305.902 C 181.420 306.108,181.305 306.195,181.031 306.142 C 180.796 306.096,180.555 305.914,180.496 305.736 C 180.427 305.529,180.543 305.443,180.816 305.496 C 181.052 305.542,181.292 305.724,181.351 305.902 M164.367 305.939 C 164.367 306.355,165.307 307.139,165.807 307.139 C 166.509 307.139,166.392 306.585,165.590 306.111 C 164.803 305.646,164.367 305.585,164.367 305.939 M191.895 307.999 C 191.087 308.437,191.260 308.880,192.156 308.666 C 192.882 308.493,193.401 308.144,193.401 307.829 C 193.401 307.509,192.641 307.595,191.895 307.999 M169.646 308.472 C 169.646 308.948,170.112 309.107,171.241 309.014 C 172.062 308.947,172.112 308.908,171.686 308.672 C 170.802 308.182,169.646 308.069,169.646 308.472 M173.768 310.171 C 173.863 310.655,174.733 311.005,175.171 310.734 C 175.438 310.569,175.439 310.468,175.180 310.156 C 174.750 309.637,173.665 309.649,173.768 310.171 M200.842 311.575 C 200.454 312.043,200.723 312.715,201.259 312.613 C 201.791 312.512,202.000 311.218,201.485 311.218 C 201.294 311.218,201.005 311.378,200.842 311.575 M178.764 311.689 C 178.764 312.026,179.595 312.418,180.308 312.418 C 180.992 312.418,181.160 311.839,180.544 311.603 C 179.950 311.375,178.764 311.433,178.764 311.689 M118.778 316.456 C 119.496 317.909,119.801 318.167,120.816 318.174 C 121.767 318.180,123.767 319.355,122.855 319.372 C 122.525 319.378,122.099 319.482,121.908 319.603 C 121.537 319.838,121.736 319.908,123.618 320.210 C 124.565 320.361,126.081 321.576,125.922 322.055 C 125.577 323.089,124.295 322.859,124.295 321.763 C 124.295 320.905,123.853 320.900,123.423 321.755 C 122.932 322.730,122.615 322.899,122.615 322.184 C 122.615 321.378,122.462 321.372,121.742 322.149 C 120.992 322.958,120.619 322.700,120.820 321.511 C 121.037 320.228,120.626 320.306,119.741 321.716 C 119.347 322.343,119.023 322.737,119.021 322.591 C 119.015 322.237,120.427 320.295,120.977 319.902 C 121.218 319.730,121.416 319.379,121.416 319.123 C 121.416 318.552,121.529 318.540,120.115 319.257 C 119.374 319.633,118.526 319.857,117.836 319.860 C 117.038 319.862,116.835 319.927,117.097 320.096 C 117.295 320.224,117.872 320.330,118.379 320.332 L 119.302 320.336 118.596 321.596 C 118.207 322.289,117.482 323.773,116.984 324.895 C 115.842 327.470,115.838 327.474,113.742 328.013 C 110.864 328.753,111.242 329.400,114.158 328.727 C 114.910 328.553,115.309 328.571,115.672 328.793 C 116.094 329.050,116.221 329.024,116.541 328.614 C 116.906 328.148,116.912 328.151,116.757 328.734 C 116.084 331.269,116.458 331.590,117.596 329.454 C 118.699 327.385,119.264 327.478,118.251 329.562 C 117.293 331.535,118.324 331.373,119.453 329.374 C 120.597 327.346,121.546 327.224,121.448 329.119 C 121.378 330.468,122.126 330.591,122.395 329.274 C 122.643 328.062,123.060 327.668,123.590 328.147 C 123.940 328.465,124.111 328.481,124.560 328.241 C 124.934 328.041,125.845 327.990,127.473 328.080 L 129.841 328.211 130.469 326.930 L 131.097 325.649 132.135 326.363 C 132.706 326.756,133.173 327.175,133.173 327.293 C 133.173 327.412,125.565 331.321,116.266 335.980 L 99.359 344.451 94.264 343.425 C 91.462 342.861,89.111 342.340,89.039 342.269 C 88.833 342.062,89.726 341.422,96.101 337.201 C 105.922 330.699,110.444 327.096,113.314 323.484 C 115.320 320.961,116.013 319.513,116.867 316.062 C 117.231 314.593,117.930 314.737,118.778 316.456 M127.892 323.092 C 128.329 323.619,127.901 324.001,127.024 323.868 C 126.369 323.768,126.362 323.754,126.875 323.581 C 127.525 323.362,127.536 323.271,126.995 322.659 C 126.589 322.202,126.592 322.195,127.074 322.447 C 127.349 322.591,127.717 322.882,127.892 323.092 M65.282 323.834 C 65.513 324.112,65.464 324.175,65.015 324.175 C 64.474 324.175,63.587 323.564,63.587 323.191 C 63.587 322.915,64.948 323.431,65.282 323.834 M120.977 324.080 C 120.798 325.109,119.496 326.248,119.496 325.375 C 119.496 325.243,119.712 325.135,119.976 325.135 C 120.538 325.135,120.558 325.053,120.156 324.405 C 119.909 324.006,119.919 323.880,120.216 323.692 C 120.724 323.369,121.070 323.545,120.977 324.080 M124.975 323.666 C 125.431 323.955,124.632 324.238,123.961 324.025 C 123.463 323.867,123.462 323.861,123.935 323.677 C 124.568 323.429,124.602 323.429,124.975 323.666 M118.404 324.809 C 118.183 325.318,117.954 325.607,117.895 325.451 C 117.775 325.135,118.505 323.584,118.688 323.767 C 118.752 323.831,118.624 324.300,118.404 324.809 M122.256 324.655 C 122.038 325.076,121.806 325.366,121.740 325.300 C 121.674 325.234,121.798 324.836,122.016 324.415 C 122.233 323.995,122.465 323.705,122.531 323.771 C 122.597 323.837,122.473 324.235,122.256 324.655 M129.896 324.771 C 130.924 325.799,129.950 326.143,128.640 325.213 C 128.501 325.115,129.120 324.415,129.346 324.415 C 129.453 324.415,129.700 324.575,129.896 324.771 M124.878 324.868 C 125.028 325.110,124.080 325.343,123.599 325.183 C 123.338 325.096,123.340 325.040,123.608 324.870 C 124.035 324.599,124.712 324.598,124.878 324.868 M127.317 324.817 C 127.709 324.967,127.707 324.990,127.281 325.140 C 126.646 325.363,125.819 325.142,126.254 324.865 C 126.647 324.617,126.780 324.611,127.317 324.817 M124.535 326.209 C 124.535 326.650,123.446 327.391,123.106 327.181 C 122.720 326.943,122.809 326.386,123.275 326.114 C 123.892 325.755,124.535 325.803,124.535 326.209 M127.175 326.201 C 127.175 326.626,126.262 327.295,125.681 327.295 C 125.087 327.295,125.149 326.676,125.788 326.228 C 126.457 325.760,127.175 325.746,127.175 326.201 M119.736 326.566 C 119.736 326.866,118.885 327.323,118.690 327.128 C 118.480 326.919,119.007 326.335,119.406 326.335 C 119.587 326.335,119.736 326.439,119.736 326.566 M121.896 326.566 C 121.896 326.955,120.990 327.336,120.800 327.028 C 120.625 326.746,121.089 326.345,121.596 326.338 C 121.761 326.336,121.896 326.439,121.896 326.566 M129.128 326.823 C 128.546 327.307,128.095 327.415,127.817 327.137 C 127.507 326.827,128.206 326.335,128.944 326.343 L 129.694 326.351 129.128 326.823 M117.521 327.100 C 117.469 327.256,117.298 327.427,117.141 327.480 C 116.966 327.538,116.912 327.428,117.002 327.195 C 117.169 326.758,117.665 326.668,117.521 327.100 M193.881 327.071 C 193.881 327.211,194.161 327.693,194.502 328.141 L 195.123 328.955 194.502 329.110 C 193.477 329.368,193.768 329.774,194.854 329.600 C 195.602 329.480,196.304 329.611,197.904 330.169 C 201.043 331.264,202.171 330.960,199.301 329.793 C 197.472 329.049,197.186 328.805,197.486 328.244 C 197.802 327.654,197.432 327.457,196.664 327.808 C 196.133 328.049,195.928 328.001,195.133 327.451 C 194.132 326.757,193.881 326.681,193.881 327.071 M200.360 327.546 C 200.360 328.826,203.469 331.477,204.150 330.778 C 204.243 330.683,203.858 330.207,203.295 329.720 L 202.271 328.834 202.935 328.332 C 203.780 327.694,203.516 327.379,202.554 327.877 C 201.612 328.364,201.649 328.375,201.356 327.534 C 201.019 326.567,200.360 326.575,200.360 327.546 M204.679 327.977 C 204.679 328.435,207.379 331.374,207.800 331.374 C 208.356 331.374,207.947 330.624,206.577 329.129 C 205.052 327.464,204.679 327.238,204.679 327.977 M170.252 329.352 C 170.974 329.654,171.075 329.777,170.836 330.065 C 170.212 330.818,167.910 330.170,167.586 329.151 C 167.319 328.310,167.929 327.955,168.699 328.504 C 169.073 328.770,169.771 329.151,170.252 329.352 M161.373 329.725 C 163.068 331.287,163.062 331.289,158.548 330.746 C 157.112 330.573,157.123 330.464,158.668 329.520 C 160.243 328.558,160.095 328.547,161.373 329.725 M168.073 330.981 C 168.653 331.911,166.877 332.154,165.643 331.314 C 164.663 330.646,164.662 330.578,165.623 329.970 L 166.398 329.479 167.109 330.027 C 167.500 330.328,167.934 330.758,168.073 330.981 M161.917 336.567 C 162.511 336.726,162.517 337.081,161.933 337.449 C 161.431 337.766,159.962 337.457,159.285 336.893 L 158.728 336.429 160.048 336.424 C 160.774 336.421,161.615 336.486,161.917 336.567 M22.185 339.275 C 22.260 339.397,23.427 339.840,24.778 340.260 C 26.129 340.680,28.559 341.551,30.178 342.197 C 33.118 343.370,33.833 343.558,33.833 343.159 C 33.833 342.717,28.270 340.401,25.080 339.517 C 23.293 339.021,21.959 338.910,22.185 339.275 M44.374 340.653 C 43.790 341.138,42.863 341.960,42.315 342.479 C 41.337 343.408,41.303 343.419,40.396 343.126 C 38.675 342.570,38.087 342.180,38.399 341.804 C 38.637 341.516,38.446 341.487,37.125 341.611 C 35.914 341.724,35.197 341.643,33.884 341.244 C 31.902 340.642,31.674 340.623,31.674 341.063 C 31.674 341.427,32.289 341.705,34.381 342.285 C 35.737 342.661,35.760 342.681,35.400 343.194 C 34.914 343.889,34.937 344.091,35.504 344.091 C 35.764 344.091,36.091 343.875,36.233 343.611 C 36.619 342.889,37.785 343.007,39.798 343.971 C 41.855 344.957,42.172 344.995,42.275 344.271 C 42.387 343.482,43.846 343.584,45.991 344.531 C 47.858 345.356,48.324 345.454,48.172 344.991 C 48.000 344.467,46.483 343.594,45.053 343.197 C 43.382 342.732,43.388 342.793,44.871 341.332 C 46.668 339.561,46.299 339.057,44.374 340.653 M51.933 342.475 C 50.106 343.994,50.308 343.939,48.977 343.265 C 46.502 342.011,46.280 342.834,48.733 344.172 L 49.541 344.613 48.764 345.252 C 48.336 345.603,47.987 346.026,47.988 346.191 C 47.992 346.736,48.695 346.503,49.652 345.638 L 50.596 344.786 51.813 345.402 C 53.110 346.060,53.238 346.258,52.669 346.731 C 51.539 347.669,52.679 347.652,53.978 346.711 C 55.040 345.942,55.592 345.911,56.493 346.569 C 56.935 346.893,56.909 346.939,55.953 347.543 C 54.969 348.164,54.653 348.658,55.249 348.643 C 55.414 348.639,55.962 348.381,56.468 348.070 C 56.973 347.760,57.594 347.560,57.848 347.626 C 58.155 347.706,58.308 347.623,58.308 347.376 C 58.308 347.172,58.578 346.793,58.908 346.534 C 59.238 346.274,59.508 345.996,59.508 345.916 C 59.508 345.666,58.417 345.758,58.144 346.031 C 57.878 346.297,56.581 345.797,56.283 345.313 C 56.208 345.192,56.697 344.489,57.371 343.752 C 58.852 342.132,58.613 342.034,56.736 343.491 C 55.063 344.790,55.253 344.778,54.039 343.658 C 53.281 342.958,53.082 342.621,53.188 342.218 C 53.378 341.489,53.035 341.559,51.933 342.475 M28.691 342.789 C 28.196 343.284,28.213 343.613,28.734 343.604 C 29.253 343.594,29.994 343.054,29.994 342.685 C 29.994 342.283,29.128 342.352,28.691 342.789 M53.912 344.837 C 55.198 345.632,54.485 345.673,52.768 344.902 L 51.291 344.239 51.834 343.800 C 52.361 343.373,52.386 343.373,52.703 343.826 C 52.882 344.082,53.426 344.537,53.912 344.837 M204.697 344.712 C 203.908 345.376,203.755 345.771,204.287 345.771 C 204.763 345.771,205.879 344.834,205.879 344.434 C 205.879 343.930,205.529 344.013,204.697 344.712 M200.178 345.111 C 200.320 345.547,201.426 346.041,203.512 346.600 C 204.520 346.870,205.374 347.199,205.409 347.331 C 205.504 347.689,203.700 348.642,202.919 348.646 C 201.977 348.652,202.221 349.198,203.258 349.404 C 205.684 349.885,207.900 350.084,208.141 349.844 C 208.470 349.514,207.962 349.184,206.839 348.998 C 205.133 348.715,205.040 348.581,206.099 347.927 C 207.441 347.098,207.319 346.980,203.945 345.853 C 200.732 344.779,200.024 344.640,200.178 345.111 M60.228 346.354 C 60.228 347.068,64.297 349.244,65.317 349.076 C 65.834 348.991,65.819 348.957,65.064 348.518 C 64.623 348.261,63.489 347.593,62.545 347.035 C 60.711 345.949,60.228 345.808,60.228 346.354 M116.377 348.125 C 116.377 348.266,116.485 348.449,116.617 348.530 C 116.749 348.612,116.857 348.945,116.857 349.270 C 116.857 350.400,120.170 350.989,120.833 349.977 C 121.052 349.643,121.434 349.370,121.683 349.370 C 122.703 349.370,122.030 348.905,120.516 348.563 C 118.030 348.002,116.377 347.827,116.377 348.125 M206.828 350.943 C 206.212 351.685,205.734 351.765,204.047 351.407 C 202.006 350.975,202.040 350.975,202.040 351.400 C 202.040 351.790,202.922 352.062,205.579 352.492 C 207.462 352.796,207.515 352.835,206.921 353.490 C 206.380 354.089,207.184 354.126,207.839 353.532 C 208.081 353.314,208.791 353.002,209.418 352.839 C 210.532 352.549,210.542 352.539,209.838 352.385 C 207.486 351.871,207.307 351.779,207.463 351.160 C 207.630 350.494,207.295 350.380,206.828 350.943 M105.819 360.978 C 105.819 361.937,106.189 362.301,107.357 362.491 C 108.381 362.657,108.504 362.286,107.618 361.706 C 107.289 361.489,107.019 361.121,107.019 360.886 C 107.019 360.493,106.575 360.168,106.039 360.168 C 105.918 360.168,105.819 360.533,105.819 360.978 M114.787 362.788 C 114.242 363.035,113.738 363.332,113.667 363.447 C 113.558 363.623,134.318 367.617,135.301 367.609 C 135.510 367.607,135.583 367.433,135.503 367.127 C 135.404 366.748,135.496 366.647,135.939 366.647 C 136.337 366.647,136.521 366.803,136.576 367.187 C 136.643 367.660,136.840 367.747,138.174 367.894 C 139.010 367.986,140.232 368.240,140.888 368.458 C 141.544 368.676,142.304 368.796,142.577 368.725 C 142.849 368.654,143.334 368.766,143.653 368.975 C 144.204 369.337,144.271 369.321,145.002 368.663 C 145.425 368.282,145.866 367.896,145.981 367.806 C 146.323 367.539,144.985 367.267,130.885 364.738 C 116.348 362.132,116.256 362.121,114.787 362.788 M187.516 365.457 C 187.249 365.889,187.499 365.957,189.900 366.100 C 192.273 366.242,193.270 365.846,191.182 365.592 C 188.189 365.227,187.670 365.208,187.516 365.457 M142.651 368.086 C 142.733 368.218,142.638 368.326,142.440 368.326 C 142.242 368.326,142.013 368.218,141.932 368.086 C 141.850 367.954,141.945 367.846,142.143 367.846 C 142.341 367.846,142.570 367.954,142.651 368.086 M148.950 368.012 C 148.019 368.255,148.131 370.096,149.069 369.963 C 149.519 369.899,149.622 369.715,149.684 368.866 C 149.724 368.305,149.670 367.859,149.564 367.874 C 149.457 367.890,149.181 367.951,148.950 368.012 M145.309 368.726 C 145.080 369.323,145.504 369.597,146.699 369.623 C 148.006 369.651,148.263 369.439,147.692 368.808 C 147.133 368.190,145.535 368.136,145.309 368.726 M150.346 368.788 C 149.782 369.411,149.953 370.066,150.752 370.347 C 151.687 370.676,152.707 370.273,152.812 369.535 C 152.972 368.414,151.177 367.871,150.346 368.788 M153.432 369.149 C 153.223 369.981,153.523 370.726,154.065 370.726 C 154.591 370.726,154.706 369.825,154.281 369.030 C 153.943 368.400,153.608 368.447,153.432 369.149 M156.273 369.739 C 155.094 369.946,154.897 370.088,155.092 370.596 C 155.257 371.027,156.705 371.102,157.424 370.717 C 157.826 370.502,157.888 370.550,157.888 371.077 C 157.888 371.412,157.988 371.686,158.109 371.686 C 158.598 371.686,159.088 371.375,159.088 371.065 C 159.088 370.804,159.208 370.791,159.673 371.002 C 160.611 371.430,161.663 370.439,160.823 369.920 C 160.455 369.693,157.264 369.566,156.273 369.739 M178.155 369.782 C 177.833 370.303,178.442 370.366,183.803 370.366 C 189.164 370.366,189.774 370.303,189.452 369.782 C 189.233 369.428,178.373 369.428,178.155 369.782 " stroke="none" fill="#000000" fill-rule="evenodd"></path></g></svg>