<svg id="svg" xmlns="http://www.w3.org/2000/svg" xmlns:xlink="http://www.w3.org/1999/xlink" width="400" height="1053.2915360501568" viewBox="0, 0, 400,1053.2915360501568"><g id="svgg"><path id="path0" d="M330.117 1.233 C 309.299 3.602,281.068 33.872,255.161 81.603 C 250.512 90.169,243.489 102.539,239.555 109.091 C 230.909 123.492,213.652 158.743,211.043 167.336 C 210.006 170.751,205.752 182.600,201.589 193.669 C 194.513 212.484,194.000 214.568,193.703 225.705 C 193.178 245.418,175.480 293.473,158.924 320.139 L 155.958 324.917 154.468 321.647 C 152.500 317.329,152.649 308.477,154.859 298.433 C 158.537 281.712,156.919 271.187,150.844 272.310 C 147.429 272.942,141.827 285.333,140.898 294.311 C 139.954 303.429,136.805 309.323,132.269 310.462 C 127.734 311.600,127.490 311.033,127.239 298.737 C 126.876 281.047,122.669 277.889,116.554 290.715 C 110.961 302.443,107.052 288.540,108.520 262.147 C 109.510 244.342,108.104 240.714,101.979 245.272 C 94.269 251.009,93.426 254.232,93.322 278.370 C 93.215 303.000,91.803 311.135,87.816 310.092 C 84.664 309.268,84.545 309.957,82.899 338.558 C 82.155 351.475,80.178 369.609,78.437 379.478 C 73.028 410.139,56.235 529.546,39.455 656.643 C 35.706 685.037,30.061 725.100,26.909 745.671 C 20.488 787.587,19.175 799.286,13.780 862.696 C 9.080 917.930,7.149 933.035,2.974 947.240 C -0.847 960.244,-0.750 977.501,3.206 988.626 C 5.332 994.603,5.311 995.573,2.570 1018.093 C -0.834 1046.062,-0.711 1048.002,4.668 1051.131 C 13.069 1056.019,17.406 1049.937,20.641 1028.732 C 23.104 1012.591,24.537 1007.735,28.095 1003.487 C 53.981 972.579,82.228 901.643,175.531 633.229 C 180.925 617.712,188.156 597.962,191.599 589.342 C 200.199 567.811,236.785 462.770,246.629 431.348 C 251.058 417.210,257.243 397.494,260.374 387.534 C 263.505 377.575,268.832 362.981,272.212 355.103 C 284.206 327.149,285.765 310.972,276.463 310.972 C 270.448 310.972,263.391 327.698,263.341 342.069 C 263.316 349.412,260.368 354.859,256.418 354.859 C 251.842 354.859,251.487 350.998,254.527 334.273 C 260.569 301.026,247.152 298.559,240.320 331.661 C 236.740 349.012,234.582 351.165,234.866 337.104 C 235.203 320.358,232.400 318.997,225.227 332.422 C 223.240 336.142,221.995 337.774,222.461 336.050 C 226.423 321.381,224.581 310.262,218.444 311.802 C 214.706 312.741,214.923 311.831,225.095 284.013 C 229.381 272.288,233.571 260.439,234.405 257.680 C 237.127 248.677,238.523 245.768,240.122 245.768 C 243.679 245.768,255.417 219.269,266.228 186.834 C 278.615 149.673,308.292 83.866,322.729 61.548 C 334.336 43.606,346.720 42.855,355.678 59.548 L 359.579 66.818 354.091 83.252 C 351.073 92.291,345.368 106.142,341.414 114.032 C 332.596 131.625,332.422 134.527,339.508 145.748 C 342.279 150.135,344.755 154.826,345.011 156.173 C 347.213 167.766,371.426 150.332,380.868 130.354 C 408.381 72.139,405.606 18.737,374.349 4.911 C 369.914 2.949,344.383 -0.484,339.185 0.182 C 338.495 0.271,334.415 0.743,330.117 1.233 M374.902 21.303 C 390.853 32.661,399.744 65.204,386.896 65.204 C 380.838 65.204,378.683 60.079,378.683 45.673 C 378.683 32.886,377.209 27.750,375.701 35.287 C 375.272 37.431,374.904 41.795,374.884 44.984 C 374.832 52.793,372.967 49.275,372.020 39.584 C 371.571 34.986,370.311 30.815,368.719 28.663 C 367.303 26.747,366.144 23.705,366.144 21.902 C 366.144 17.552,362.394 18.174,360.129 22.899 C 358.121 27.089,356.113 27.358,356.113 23.437 C 356.113 14.692,364.310 13.761,374.902 21.303 M351.610 21.501 C 350.228 23.738,348.591 22.432,348.629 19.122 C 348.667 15.855,348.764 15.799,350.470 18.053 C 351.460 19.362,351.973 20.913,351.610 21.501 M331.034 22.417 C 331.034 24.009,328.373 25.898,324.765 26.868 C 321.726 27.685,321.745 27.613,325.392 24.520 C 329.314 21.193,331.034 20.552,331.034 22.417 M282.585 65.831 C 283.013 66.945,282.599 67.712,281.570 67.712 C 280.615 67.712,278.703 69.262,277.323 71.158 C 274.547 74.969,272.369 74.404,274.498 70.425 C 277.593 64.642,281.317 62.526,282.585 65.831 M306.853 71.005 C 307.108 71.782,306.439 72.755,305.367 73.166 C 302.949 74.094,297.000 71.523,297.963 69.965 C 298.931 68.399,306.280 69.258,306.853 71.005 M385.580 72.727 C 386.006 73.417,385.226 73.981,383.847 73.981 C 382.468 73.981,380.990 73.417,380.564 72.727 C 380.138 72.038,380.918 71.473,382.297 71.473 C 383.676 71.473,385.154 72.038,385.580 72.727 M299.687 79.624 C 300.959 81.157,300.891 81.505,299.316 81.505 C 296.461 81.505,293.417 80.141,293.417 78.863 C 293.417 77.034,297.999 77.590,299.687 79.624 M384.326 82.759 C 384.787 83.505,383.294 84.013,380.638 84.013 C 378.184 84.013,376.176 83.448,376.176 82.759 C 376.176 82.069,377.835 81.505,379.863 81.505 C 381.892 81.505,383.900 82.069,384.326 82.759 M295.195 86.028 C 297.713 86.994,297.704 88.323,295.165 90.863 C 293.610 92.418,292.753 92.546,291.403 91.426 C 289.232 89.624,289.141 86.937,291.223 86.097 C 292.085 85.749,292.885 85.420,293.001 85.365 C 293.117 85.311,294.104 85.609,295.195 86.028 M292.871 96.682 C 293.341 97.443,292.218 99.559,290.375 101.384 C 288.366 103.373,287.334 103.874,287.798 102.635 C 288.224 101.498,287.969 100.195,287.233 99.739 C 285.217 98.494,285.620 96.807,288.088 96.162 C 291.715 95.214,291.981 95.243,292.871 96.682 M270.846 100.990 C 270.846 104.230,260.349 120.376,258.243 120.376 C 255.787 120.376,257.174 116.962,260.188 115.589 C 262.658 114.463,263.323 113.235,263.323 109.794 C 263.323 106.916,264.259 104.555,266.067 102.870 C 268.705 100.412,270.846 99.570,270.846 100.990 M377.357 102.107 C 378.549 103.543,378.314 104.185,376.176 105.329 C 372.688 107.196,369.051 104.735,371.298 102.028 C 373.134 99.816,375.481 99.846,377.357 102.107 M284.639 112.318 C 284.639 113.485,283.786 114.125,282.549 113.885 C 279.403 113.275,278.971 110.345,282.027 110.345 C 283.567 110.345,284.639 111.154,284.639 112.318 M370.584 121.714 C 371.921 123.876,370.749 124.055,367.396 122.199 C 364.375 120.527,364.361 120.463,367.011 120.421 C 368.522 120.396,370.130 120.978,370.584 121.714 M246.210 126.332 C 245.893 127.539,244.526 129.937,243.172 131.661 L 240.711 134.796 242.058 131.076 C 244.024 125.647,247.406 121.783,246.210 126.332 M275.548 128.631 C 274.353 129.826,271.958 127.891,272.848 126.450 C 273.378 125.593,274.079 125.615,274.980 126.516 C 275.718 127.254,275.974 128.206,275.548 128.631 M253.896 131.975 C 251.672 139.637,221.768 198.445,220.658 197.335 C 217.313 193.990,227.457 170.276,239.031 154.388 C 242.736 149.302,245.780 143.941,245.796 142.476 C 245.841 138.111,250.475 129.154,252.688 129.154 C 254.196 129.154,254.505 129.875,253.896 131.975 M366.771 130.408 C 367.197 131.097,366.700 131.661,365.665 131.661 C 364.631 131.661,363.436 131.097,363.009 130.408 C 362.583 129.718,363.081 129.154,364.115 129.154 C 365.150 129.154,366.345 129.718,366.771 130.408 M258.408 144.562 C 257.767 146.249,255.850 149.131,254.149 150.967 C 250.307 155.113,242.555 169.724,239.626 178.340 C 238.417 181.897,236.780 185.023,235.988 185.287 C 233.783 186.022,235.959 180.689,247.221 157.743 C 255.049 141.796,257.498 137.783,258.409 139.411 C 259.127 140.695,259.127 142.671,258.408 144.562 M266.191 150.612 C 264.074 152.728,261.559 150.714,263.460 148.425 C 264.509 147.160,265.372 147.002,266.279 147.909 C 267.186 148.816,267.159 149.644,266.191 150.612 M215.361 234.469 C 217.602 235.836,219.436 237.817,219.436 238.873 C 219.436 243.301,199.750 294.212,198.515 292.977 C 198.227 292.688,201.058 284.862,204.807 275.584 C 216.575 246.461,215.281 240.500,203.181 268.092 C 197.494 281.059,189.975 293.971,192.449 286.520 C 194.698 279.747,194.844 271.412,192.683 273.194 C 191.535 274.141,190.596 275.474,190.596 276.157 C 190.596 277.958,173.899 317.264,173.362 316.727 C 172.437 315.801,201.910 239.804,205.137 234.796 C 207.373 231.325,210.062 231.239,215.361 234.469 M229.467 242.414 C 229.467 249.756,198.681 321.762,197.264 317.734 C 196.580 315.790,209.374 277.600,215.338 263.781 C 223.065 245.879,229.467 236.196,229.467 242.414 M94.792 341.835 C 89.581 383.644,89.320 388.907,92.861 380.878 C 94.854 376.360,93.333 389.771,88.237 421.669 C 82.874 455.229,81.727 457.185,84.534 427.983 C 85.648 416.385,87.377 395.489,88.376 381.546 C 90.040 358.319,96.362 312.283,97.442 315.525 C 97.694 316.281,96.502 328.120,94.792 341.835 M124.365 324.765 C 125.664 324.765,128.671 323.952,131.047 322.959 C 138.339 319.913,138.175 321.281,121.086 406.270 C 103.822 492.130,102.354 501.295,106.537 497.095 C 107.178 496.451,115.367 458.264,124.734 412.235 C 144.718 314.043,142.709 321.503,147.030 329.443 C 153.098 340.590,160.353 343.590,169.592 338.772 C 172.179 337.424,174.295 336.595,174.295 336.932 C 174.295 339.326,164.181 378.596,156.899 404.478 C 144.371 449.008,131.020 499.286,118.554 548.887 C 112.619 572.498,105.865 598.172,103.545 605.940 C 101.225 613.707,98.378 625.423,97.219 631.975 C 96.060 638.527,90.952 661.379,85.868 682.759 C 74.948 728.678,74.483 731.034,76.349 731.034 C 77.116 731.034,77.743 730.892,77.743 730.717 C 77.743 728.620,103.020 631.362,104.446 627.973 C 106.330 623.496,106.519 623.391,110.202 624.781 C 114.900 626.555,115.804 625.781,114.142 621.409 C 112.236 616.397,112.546 610.697,114.771 609.843 C 115.917 609.404,116.409 608.226,115.994 606.917 C 115.457 605.226,116.653 604.172,121.237 602.290 L 127.175 599.853 121.695 596.792 C 118.681 595.108,115.600 592.735,114.847 591.519 C 113.403 589.183,128.450 526.847,146.094 462.069 C 150.602 445.517,154.860 429.872,155.556 427.302 L 156.821 422.630 162.423 423.397 C 168.130 424.180,170.910 421.091,166.144 419.262 C 163.301 418.171,163.891 416.303,167.085 416.282 C 173.380 416.239,173.701 413.996,167.631 412.467 C 159.587 410.441,159.631 411.500,166.579 387.178 C 169.982 375.264,173.482 362.132,174.356 357.994 C 176.476 347.959,176.690 347.845,183.468 353.126 C 191.375 359.286,190.912 364.682,177.309 424.931 C 173.383 442.323,172.843 447.011,175.019 444.835 C 175.417 444.437,178.229 435.615,181.268 425.231 C 184.307 414.847,187.649 404.499,188.695 402.235 L 190.597 398.119 189.858 403.135 C 188.865 409.866,190.619 407.811,193.946 398.345 C 195.444 394.083,196.731 391.724,196.807 393.103 L 196.945 395.611 198.916 393.103 L 200.886 390.596 200.197 393.103 C 184.362 450.712,154.845 544.451,151.134 548.915 C 150.986 549.094,148.038 548.067,144.585 546.632 L 138.307 544.022 141.927 531.259 C 154.106 488.313,160.668 458.022,156.902 462.132 C 154.631 464.609,126.007 574.074,127.293 575.360 C 127.641 575.708,128.698 574.936,129.642 573.646 C 131.604 570.962,139.938 572.550,142.951 576.181 C 146.522 580.484,150.242 577.252,151.893 568.412 C 153.695 558.765,160.265 552.650,162.518 558.522 C 166.097 567.849,59.394 895.376,49.578 905.191 C 44.439 910.330,45.899 901.678,55.331 871.090 C 58.692 860.189,61.442 850.174,61.442 848.833 C 61.442 840.188,55.239 854.762,43.972 889.879 C 40.392 901.037,36.658 910.834,35.674 911.651 C 30.912 915.603,32.212 906.549,45.044 846.395 C 57.417 788.395,62.798 757.367,60.484 757.367 C 58.642 757.367,58.307 758.601,53.960 781.337 C 47.631 814.444,37.737 861.358,35.083 870.846 L 32.627 879.624 33.311 871.473 C 33.687 866.991,36.776 844.702,40.176 821.944 C 52.039 742.519,56.504 697.671,52.776 695.366 C 51.384 694.506,50.831 697.858,47.616 726.646 C 36.291 828.076,29.373 859.095,29.719 806.897 C 29.935 774.235,31.690 756.985,43.813 668.339 C 54.774 588.193,58.913 557.336,63.407 522.257 C 67.819 487.829,75.052 439.611,78.362 422.571 L 80.188 413.166 79.570 425.705 C 78.285 451.770,70.706 513.381,60.635 579.633 C 55.226 615.214,54.636 623.037,57.729 618.146 C 59.437 615.445,59.295 618.167,56.479 642.006 C 52.971 671.710,52.042 685.893,53.603 685.893 C 55.406 685.893,55.906 683.267,58.854 658.307 C 75.704 515.622,76.375 510.654,84.831 465.831 C 87.304 452.727,92.880 421.693,97.222 396.865 C 101.565 372.038,105.166 353.245,105.224 355.104 C 105.452 362.423,102.481 391.294,100.218 403.762 C 98.903 411.003,95.266 441.473,92.137 471.473 C 86.035 529.965,81.473 568.569,74.653 619.436 C 67.096 675.795,62.781 728.971,65.538 731.772 C 68.892 735.179,71.081 725.282,72.080 702.194 C 72.791 685.749,76.164 665.784,77.788 668.411 C 80.283 672.449,83.094 661.221,96.013 595.611 C 100.426 573.197,107.958 539.219,112.750 520.103 C 123.095 478.844,124.269 472.525,121.100 475.154 C 116.783 478.738,114.248 486.442,108.486 513.497 C 97.380 565.646,79.723 640.462,78.161 641.994 C 77.802 642.345,77.853 640.094,78.273 636.991 C 81.305 614.633,89.855 538.976,94.002 497.806 C 100.596 432.359,101.849 426.000,108.477 424.336 C 111.210 423.650,111.660 422.983,111.044 420.530 C 110.624 418.857,110.856 417.555,111.575 417.555 C 114.009 417.555,112.837 415.180,109.404 413.156 C 105.333 410.755,105.264 407.529,108.599 375.549 C 109.678 365.204,110.590 348.192,110.626 337.745 L 110.692 318.751 116.348 321.758 C 119.459 323.412,123.066 324.765,124.365 324.765 M190.027 320.063 C 189.758 320.925,188.269 325.580,186.718 330.408 L 183.898 339.185 182.210 335.067 C 180.296 330.397,181.180 327.749,186.595 321.944 C 190.189 318.090,190.737 317.789,190.027 320.063 M207.003 338.689 C 205.898 341.451,205.795 341.482,205.722 339.080 C 205.678 337.644,206.019 336.092,206.479 335.632 C 207.976 334.135,208.231 335.620,207.003 338.689 M242.904 358.307 C 242.516 361.583,240.424 369.801,238.256 376.570 C 233.848 390.330,235.620 389.134,223.197 386.734 C 218.784 385.882,218.196 387.733,222.257 389.692 L 225.078 391.053 221.971 391.138 C 218.985 391.219,219.046 391.372,223.539 395.076 C 229.632 400.098,229.817 403.762,223.978 403.762 C 218.791 403.762,217.792 404.937,215.147 414.162 C 214.001 418.159,211.152 425.776,208.816 431.090 C 203.018 444.281,176.626 530.717,172.461 550.157 C 171.071 556.645,173.826 554.995,176.650 547.649 C 178.041 544.028,179.209 541.611,179.245 542.277 C 179.456 546.190,156.143 613.766,150.462 625.705 C 146.973 633.039,146.556 634.696,163.473 574.094 C 171.494 545.363,178.056 520.643,178.056 519.161 C 178.056 513.440,175.417 518.579,171.125 532.661 C 164.439 554.592,164.032 555.214,158.843 551.411 C 156.382 549.607,153.682 559.245,182.461 467.085 C 192.367 435.361,203.358 399.248,206.886 386.834 C 214.277 360.825,214.214 360.931,219.456 365.342 C 221.620 367.163,224.707 368.652,226.317 368.652 C 229.153 368.652,230.548 367.317,238.611 356.882 C 243.181 350.970,243.751 351.159,242.904 358.307 M256.557 368.099 C 258.799 377.034,250.637 389.969,242.757 389.969 C 240.275 389.969,238.245 389.797,238.245 389.588 C 238.245 388.675,246.912 363.574,247.626 362.419 C 248.934 360.304,255.677 364.593,256.557 368.099 M243.778 402.602 C 244.928 403.674,239.676 406.270,236.356 406.270 C 233.593 406.270,233.037 404.132,235.230 401.939 C 237.226 399.944,241.261 400.257,243.778 402.602 M136.809 404.389 C 134.934 408.884,129.158 432.304,129.155 435.423 C 129.152 439.939,131.657 437.387,133.462 431.034 C 138.822 412.179,141.088 394.134,136.809 404.389 M225.705 411.120 C 225.705 412.358,206.950 464.314,206.251 465.014 C 204.927 466.337,205.891 462.179,212.046 440.000 C 215.568 427.311,218.753 415.799,219.124 414.420 C 220.365 409.804,225.705 407.126,225.705 411.120 M239.498 413.793 C 239.498 414.483,238.121 415.047,236.438 415.047 C 234.754 415.047,233.028 414.483,232.602 413.793 C 232.150 413.062,233.425 412.539,235.663 412.539 C 237.772 412.539,239.498 413.103,239.498 413.793 M134.990 433.542 C 129.253 457.631,127.525 466.807,128.176 469.723 C 129.185 474.246,138.906 437.869,141.241 420.832 C 142.976 408.175,139.206 415.841,134.990 433.542 M236.535 420.685 C 236.931 421.717,232.457 435.965,226.593 452.347 C 220.728 468.728,209.413 503.009,201.447 528.527 C 170.637 627.229,154.956 673.816,139.196 713.480 C 133.852 726.928,126.246 748.088,122.294 760.502 C 113.777 787.257,105.200 810.884,97.202 829.631 C 80.765 868.158,92.210 833.601,137.280 708.623 C 141.850 695.951,145.378 684.384,145.121 682.917 C 144.492 679.325,141.519 686.050,129.516 718.216 C 124.297 732.201,119.874 743.486,119.687 743.295 C 118.231 741.807,143.617 660.774,159.333 616.744 C 177.937 564.625,193.816 518.768,214.413 457.680 C 225.754 424.042,233.106 411.748,236.535 420.685 M226.809 472.577 C 224.673 478.946,222.710 483.943,222.448 483.681 C 222.186 483.419,223.720 477.993,225.856 471.624 C 227.992 465.254,229.954 460.257,230.216 460.519 C 230.478 460.781,228.945 466.207,226.809 472.577 M142.947 551.097 C 144.956 552.246,145.380 552.905,144.127 552.934 C 143.052 552.958,141.077 552.150,139.738 551.137 C 136.621 548.779,138.844 548.752,142.947 551.097 M146.561 558.529 C 149.073 560.082,148.054 561.950,145.141 561.129 C 139.140 559.437,135.480 557.662,136.059 556.725 C 136.681 555.718,144.066 556.987,146.561 558.529 M141.023 565.123 C 145.961 567.477,146.778 569.279,142.906 569.279 C 138.966 569.279,131.386 565.723,132.272 564.290 C 133.403 562.460,135.947 562.702,141.023 565.123 M114.363 657.966 C 110.896 664.140,103.250 697.179,105.289 697.179 C 107.366 697.179,117.074 662.644,116.343 657.858 L 115.932 655.172 114.363 657.966 M119.906 660.562 C 119.565 661.112,117.523 668.589,115.367 677.176 C 113.211 685.764,108.096 704.679,103.999 719.210 C 96.746 744.942,95.333 751.634,97.678 749.154 C 100.994 745.645,122.884 669.229,122.884 661.160 C 122.884 659.392,120.878 658.989,119.906 660.562 M74.667 681.633 C 73.760 686.468,74.263 687.896,76.406 686.572 C 78.015 685.577,78.214 677.116,76.629 677.116 C 76.016 677.116,75.133 679.149,74.667 681.633 M101.684 703.231 C 99.567 707.185,99.851 712.917,102.071 711.074 C 103.038 710.272,104.198 708.146,104.649 706.350 C 105.719 702.087,103.529 699.783,101.684 703.231 M60.902 706.270 C 59.163 714.610,51.331 771.498,51.850 772.017 C 54.159 774.326,63.950 720.822,63.950 705.892 C 63.950 702.521,61.623 702.810,60.902 706.270 M100.998 790.059 C 87.768 831.767,64.133 901.435,61.921 905.246 C 54.038 918.829,65.356 880.540,82.097 836.991 C 87.400 823.197,95.717 800.185,100.581 785.851 C 112.367 751.115,112.602 753.481,100.998 790.059 M83.537 763.323 C 81.510 770.223,81.215 775.227,82.868 774.676 C 84.748 774.050,86.203 769.882,86.395 764.577 C 86.534 760.755,84.547 759.883,83.537 763.323 M75.419 794.671 C 67.733 822.391,64.773 835.097,65.768 836.092 C 67.321 837.644,70.060 832.528,71.587 825.224 C 72.397 821.351,75.242 809.543,77.909 798.985 C 83.015 778.776,83.441 776.176,81.653 776.176 C 81.045 776.176,78.240 784.498,75.419 794.671 M85.661 780.564 C 83.487 784.527,78.885 800.306,79.674 801.095 C 80.750 802.172,82.439 798.956,85.343 790.302 C 88.124 782.013,88.330 775.701,85.661 780.564 M24.770 839.191 C 24.468 845.573,23.760 848.271,21.902 850.131 C 19.449 852.586,19.446 852.483,21.307 831.629 L 23.179 810.658 24.175 820.690 C 24.723 826.207,24.990 834.533,24.770 839.191 M19.446 888.261 C 18.021 911.380,16.312 919.315,16.985 899.687 C 17.293 890.721,17.547 880.672,17.550 877.355 C 17.553 873.201,17.995 871.597,18.969 872.199 C 19.977 872.822,20.114 877.430,19.446 888.261 M26.244 876.176 C 26.038 881.319,24.003 883.507,23.913 878.683 C 23.864 876.097,24.389 873.981,25.078 873.981 C 25.768 873.981,26.293 874.969,26.244 876.176 M30.835 927.428 C 30.191 929.105,29.681 929.242,28.496 928.057 C 27.311 926.872,27.380 926.294,28.814 925.408 C 31.149 923.965,31.883 924.698,30.835 927.428 M41.953 929.067 C 42.880 930.567,40.521 932.054,38.851 931.022 C 37.449 930.155,38.369 927.900,40.125 927.900 C 40.734 927.900,41.556 928.425,41.953 929.067 M43.260 937.931 C 43.714 938.665,42.413 939.185,40.125 939.185 C 37.838 939.185,36.537 938.665,36.991 937.931 C 37.417 937.241,38.827 936.677,40.125 936.677 C 41.423 936.677,42.834 937.241,43.260 937.931 M21.370 947.220 C 22.023 947.899,23.120 947.814,24.090 947.009 C 25.394 945.926,25.714 947.371,25.710 954.333 L 25.705 963.006 21.142 963.008 C 18.417 963.009,15.386 962.006,13.619 960.519 L 10.658 958.029 13.742 958.325 C 15.682 958.511,16.932 957.923,17.113 956.740 C 17.271 955.705,17.824 951.473,18.341 947.335 C 18.910 942.786,19.479 941.051,19.779 942.947 C 20.052 944.671,20.768 946.594,21.370 947.220 M40.095 951.132 C 39.465 953.872,39.252 957.100,39.622 958.307 C 40.137 959.989,39.566 960.502,37.178 960.502 C 35.463 960.502,33.076 960.880,31.872 961.342 C 30.338 961.930,29.966 961.724,30.628 960.652 C 31.148 959.811,32.228 956.494,33.028 953.281 C 34.173 948.683,35.150 947.271,37.618 946.651 C 41.607 945.648,41.430 945.328,40.095 951.132 M9.496 969.427 C 11.486 972.648,12.290 979.792,11.014 982.925 L 9.678 986.207 8.743 981.818 C 6.014 969.017,6.303 964.261,9.496 969.427 M22.098 977.599 C 23.111 981.633,21.170 992.476,19.436 992.476 C 17.988 992.476,17.048 981.501,18.128 977.199 C 19.101 973.319,21.074 973.518,22.098 977.599 M16.968 1006.961 C 17.416 1007.686,16.320 1009.634,14.534 1011.290 L 11.285 1014.300 11.285 1010.807 C 11.285 1005.915,14.836 1003.512,16.968 1006.961 " stroke="none" fill="#000000" fill-rule="evenodd"></path></g></svg>