<svg id="svg" xmlns="http://www.w3.org/2000/svg" xmlns:xlink="http://www.w3.org/1999/xlink" width="400" height="400" viewBox="0, 0, 400,400"><g id="svgg"><path id="path0" d="M0.000 200.000 L 0.000 400.000 23.600 400.000 L 47.200 400.000 47.200 200.000 L 47.200 0.000 23.600 0.000 L 0.000 0.000 0.000 200.000 M88.000 140.000 L 88.000 280.000 111.600 280.000 L 135.200 280.000 135.200 140.000 L 135.200 0.000 111.600 0.000 L 88.000 0.000 88.000 140.000 M176.000 83.600 L 176.000 167.200 199.600 167.200 L 223.200 167.200 223.200 83.600 L 223.200 0.000 199.600 0.000 L 176.000 0.000 176.000 83.600 M264.800 140.000 L 264.800 280.000 288.400 280.000 L 312.000 280.000 312.000 140.000 L 312.000 0.000 288.400 0.000 L 264.800 0.000 264.800 140.000 M352.800 34.800 L 352.800 69.600 376.400 69.600 L 400.000 69.600 400.000 34.800 L 400.000 0.000 376.400 0.000 L 352.800 0.000 352.800 34.800 M352.800 259.600 L 352.800 400.000 376.400 400.000 L 400.000 400.000 400.000 259.600 L 400.000 119.200 376.400 119.200 L 352.800 119.200 352.800 259.600 M176.000 316.000 L 176.000 400.000 199.600 400.000 L 223.200 400.000 223.200 316.000 L 223.200 232.000 199.600 232.000 L 176.000 232.000 176.000 316.000 M264.800 364.800 L 264.800 400.000 288.400 400.000 L 312.000 400.000 312.000 364.800 L 312.000 329.600 288.400 329.600 L 264.800 329.600 264.800 364.800 " stroke="none" fill="#000000" fill-rule="evenodd"></path></g></svg>