<svg display="none" xmlns="http://www.w3.org/2000/svg">
    <symbol id="01d" viewBox="0 0 56.69 56.69">
        <path d="m28.346 43.64c-8.434 0-15.294-6.86-15.294-15.294 0-8.432 6.86-15.292 15.294-15.292 8.431 0 15.291 6.86 15.291 15.292 0 8.433-6.86 15.294-15.291 15.294zm0-28.587c-7.33 0-13.294 5.963-13.294 13.292 0 7.331 5.964 13.294 13.294 13.294s13.291-5.964 13.291-13.294c0-7.329-5.961-13.292-13.291-13.292zm2.824-6.632-.018-.024c0-.001 0-.006 0-.006 0-.819-2.098-4.25-2.809-4.257-.709-.012-2.808 3.438-2.808 4.257 0 0 .001.005.001.006l-.015.024h.017c.023 1.266 1.268 2.292 2.805 2.292 1.542 0 2.786-1.026 2.807-2.292zm-5.648 39.85.017.024v.008c0 .817 2.098 4.247 2.808 4.255.712.011 2.808-3.438 2.808-4.255 0-.003 0-.008 0-.008l.016-.024h-.018c-.021-1.266-1.268-2.29-2.806-2.29-1.54 0-2.784 1.024-2.804 2.29zm22.748-17.102.025-.016h.008c.818 0 4.248-2.098 4.256-2.809.01-.711-3.438-2.808-4.256-2.808-.004 0-.008.001-.008.001l-.025-.016v.018c-1.264.021-2.289 1.268-2.289 2.805 0 1.54 1.025 2.786 2.289 2.807zm-39.849-5.647-.025.018c-.001 0-.004 0-.006 0-.818 0-4.25 2.097-4.258 2.808-.011.71 3.439 2.81 4.258 2.81.002 0 .005-.002.006-.002l.025.014v-.016c1.266-.023 2.291-1.27 2.291-2.806 0-1.54-1.025-2.784-2.291-2.806zm7.831-13.261-.027-.006c-.001-.003-.004-.005-.004-.005-.58-.579-4.489-1.521-4.998-1.025-.51.496.446 4.418 1.024 4.997.004.002.004.002.007.004l.007.026.01-.01c.912.88 2.518.723 3.605-.364 1.088-1.089 1.243-2.693.363-3.603zm24.187 32.169.027.007c0 .003.004.005.004.008.58.576 4.488 1.521 4.996 1.021.512-.496-.443-4.418-1.023-4.994 0-.005-.004-.005-.006-.005l-.008-.027-.01.01c-.912-.88-2.518-.722-3.605.366-1.088 1.087-1.242 2.69-.361 3.602zm3.991-28.178.006-.026c.004-.001.006-.004.008-.006.576-.578 1.52-4.488 1.021-4.997-.494-.508-4.416.446-4.994 1.025-.004.002-.004.004-.004.008l-.027.006.01.01c-.879.912-.723 2.517.365 3.604 1.088 1.089 2.691 1.243 3.602.363zm-32.169 24.187-.006.027c-.002 0-.004.005-.004.005-.58.579-1.524 4.488-1.027 4.994.498.515 4.42-.442 4.997-1.021.003 0 .004-.005.004-.005l.027-.01-.01-.008c.88-.912.722-2.52-.366-3.606-1.088-1.088-2.691-1.243-3.602-.364z"/>
    </symbol>

    <symbol id="01n" viewBox="0 0 56.69 56.69">
        <path d="m50.184 40.273c-1.73.438-3.506.659-5.276.659-9.685 0-18.221-6.535-20.758-15.893-1.976-7.293-.054-14.931 5.143-20.431l1.693-1.792-2.463.106c-1.897.081-3.778.372-5.589.862-13.562 3.679-21.605 17.704-17.929 31.268 3.004 11.082 13.112 18.821 24.582 18.821 2.246 0 4.494-.301 6.682-.894 6.265-1.699 11.596-5.681 15.011-11.211l1.297-2.099zm-14.439 10.777c-2.017.546-4.089.823-6.158.823-10.569 0-19.883-7.132-22.652-17.345-3.388-12.499 4.023-25.424 16.522-28.811.902-.244 1.823-.435 2.755-.57-4.437 5.8-5.932 13.26-3.992 20.417 2.772 10.227 12.103 17.369 22.688 17.369 1.104 0 2.209-.079 3.306-.235-3.122 4.067-7.474 6.996-12.469 8.352zm-5.11-35.313 4.904-1.393 1.5-4.87 1.394 4.902 4.872 1.501-4.905 1.394-1.5 4.871-1.393-4.902zm10.665 8.394 3.409-1.116.918-3.466 1.116 3.407 3.467.922-3.408 1.114-.921 3.466-1.114-3.407z"/>
    </symbol>

    <symbol id="02d" viewBox="0 0 56.69 56.69">
        <path d="m23.081 7.695.012-.019c0-.001-.001-.005-.001-.005 0-.639 1.636-3.328 2.188-3.318.555.006 2.189 2.68 2.189 3.318v.005l.014.019h-.016c-.017.986-.986 1.786-2.188 1.786-1.198 0-2.168-.8-2.187-1.786zm-13.353 17.72c.001 0 .004-.001.005-.001l.02.011v-.013c.986-.018 1.785-.988 1.785-2.187 0-1.2-.799-2.17-1.785-2.187v-.015l-.02.013c-.001 0-.004 0-.005 0-.638 0-3.313 1.635-3.318 2.188-.009.555 2.68 2.191 3.318 2.191zm3.012-11.637.005.021.008-.008c.711.686 1.962.563 2.811-.284.848-.849.969-2.099.283-2.808l.01-.011-.021-.005c-.001-.002-.003-.004-.003-.004-.452-.451-3.499-1.186-3.896-.799s.348 3.443.799 3.895c.001.002.001.002.004.003zm22.26-.273c.848.849 2.098.969 2.807.283l.012.01.004-.021c.002-.001.004-.003.006-.005.449-.45 1.186-3.498.797-3.895-.387-.396-3.443.348-3.893.799-.004.002-.004.003-.004.006l-.021.005.008.008c-.687.712-.564 1.963.284 2.81zm18.68 28.556c0 5.667-4.611 10.277-10.277 10.277h-30.114c-5.667 0-10.278-4.61-10.278-10.277 0-5.073 3.6-9.279 8.508-10.118.185-1.953.983-3.72 2.191-5.12-.37-1.178-.568-2.385-.568-3.598 0-6.693 5.446-12.14 12.141-12.14 4.938 0 9.352 2.998 11.213 7.528 7.523.139 13.603 6.29 13.603 13.845 0 .552-.039 1.119-.117 1.721 2.358 1.96 3.698 4.8 3.698 7.882zm-28.884-17.406c.715-.981 1.906-2.367 3.72-3.59 2.307-1.554 4.534-2.111 5.848-2.335-1.691-3.424-5.195-5.647-9.082-5.647-5.592.001-10.141 4.55-10.141 10.141 0 .696.074 1.391.222 2.078.636-.466 2.286-1.544 4.675-1.693 2.327-.146 4.062.67 4.758 1.046zm26.884 17.406c0-2.645-1.229-5.069-3.369-6.651l-.494-.365.102-.605c.121-.716.18-1.364.18-1.981 0-6.535-5.314-11.852-11.85-11.857l-.034.001c-1.148.052-3.06.29-5.139 1.326-2.857 1.424-4.426 3.556-5.086 4.586l-.534.919-.885-.59c-1.175-.783-2.543-1.197-3.956-1.197-.245 0-.788.048-.819.051-3.551.408-6.319 3.43-6.319 7.09v.917l-.912.12c-4.235.367-7.553 3.986-7.553 8.238 0 4.564 3.714 8.277 8.278 8.277h30.114c4.563-.002 8.276-3.715 8.276-8.279z"/>
    </symbol>

    <symbol id="02n" viewBox="0 0 56.69 56.69">
        <path d="m51.59 28.291c-1.139.288-2.307.433-3.469.433-6.367 0-11.979-4.296-13.646-10.447-1.301-4.793-.035-9.814 3.381-13.431l1.693-1.792-2.463.106c-1.307.057-2.596.255-3.83.591-4.504 1.221-8.263 4.122-10.584 8.17-2.076 3.621-2.769 7.772-2.021 11.829-.773-.152-1.561-.253-2.364-.253-6.839 0-12.402 5.563-12.402 12.399 0 .475.032.963.098 1.479-2.06 1.745-3.273 4.332-3.273 7.035 0 5.087 4.139 9.226 9.227 9.226h26.698c5.088 0 9.227-4.139 9.227-9.226 0-3.085-1.484-5.81-3.811-7.483 3.575-1.359 6.603-3.848 8.637-7.142l1.297-2.099zm-10.266 9.415c2.689 1.062 4.535 3.66 4.535 6.705 0 3.984-3.242 7.226-7.227 7.226h-26.697c-3.984 0-7.227-3.241-7.227-7.226 0-2.31 1.072-4.426 2.941-5.806l.494-.365-.102-.605c-.106-.631-.158-1.199-.158-1.738 0-5.734 4.666-10.399 10.402-10.399.968.008 3.551.16 6.074 1.954 2.039 1.45 3.033 3.258 3.45 4.151l.885-.59c1.024-.682 2.213-1.043 3.444-1.043 3.428 0 6.217 2.789 6.215 6.254v.916.001c.447-.007 1.01.023 1.644.156.521.108.967.26 1.327.409zm-9.185-9.735c-1.283 0-2.535.297-3.67.866-.485-.7-1.206-1.587-2.233-2.445-1.271-1.061-2.521-1.668-3.413-2.016-2.045-8.143 2.818-16.487 10.957-18.693.338-.092.682-.173 1.029-.241-2.674 3.879-3.523 8.713-2.264 13.359 1.902 7.021 8.307 11.924 15.576 11.924.488 0 .977-.021 1.463-.066-2.01 2.356-4.682 4.059-7.713 4.88-.137.037-.275.063-.412.091l-.012.003c-.369-.116-.745-.219-1.135-.289-.071-.727-.383-2.933-2.184-4.834-2.351-2.481-5.433-2.538-5.989-2.539z"/>
    </symbol>

    <symbol id="03d" viewBox="0 0 56.69 56.69">
        <path d="m43.402 45.215h-30.113c-5.667 0-10.278-4.611-10.278-10.277 0-5.074 3.6-9.28 8.508-10.119.441-4.664 4.353-8.297 9.096-8.297 1.466 0 2.894.348 4.183 1.013 2.568-3.76 6.866-6.058 11.442-6.058 7.643 0 13.859 6.216 13.859 13.857 0 .552-.039 1.119-.117 1.721 2.359 1.961 3.699 4.801 3.699 7.883-.001 5.666-4.613 10.277-10.279 10.277zm-22.788-26.694c-3.937 0-7.139 3.203-7.139 7.141v.917l-.912.12c-4.235.367-7.553 3.987-7.553 8.239 0 4.564 3.714 8.277 8.278 8.277h30.114c4.564 0 8.277-3.713 8.277-8.277 0-2.645-1.229-5.07-3.369-6.652l-.494-.365.102-.605c.121-.716.18-1.364.18-1.981 0-6.538-5.32-11.857-11.859-11.857-4.201 0-8.128 2.266-10.25 5.913l-.534.919-.885-.59c-1.175-.785-2.543-1.199-3.956-1.199z"/>
    </symbol>

    <symbol id="03n" viewBox="0 0 56.69 56.69">
        <path d="m43.402 45.215h-30.113c-5.667 0-10.278-4.611-10.278-10.277 0-5.074 3.6-9.28 8.508-10.119.441-4.664 4.353-8.297 9.096-8.297 1.466 0 2.894.348 4.183 1.013 2.568-3.76 6.866-6.058 11.442-6.058 7.643 0 13.859 6.216 13.859 13.857 0 .552-.039 1.119-.117 1.721 2.359 1.961 3.699 4.801 3.699 7.883-.001 5.666-4.613 10.277-10.279 10.277zm-22.788-26.694c-3.937 0-7.139 3.203-7.139 7.141v.917l-.912.12c-4.235.367-7.553 3.987-7.553 8.239 0 4.564 3.714 8.277 8.278 8.277h30.114c4.564 0 8.277-3.713 8.277-8.277 0-2.645-1.229-5.07-3.369-6.652l-.494-.365.102-.605c.121-.716.18-1.364.18-1.981 0-6.538-5.32-11.857-11.859-11.857-4.201 0-8.128 2.266-10.25 5.913l-.534.919-.885-.59c-1.175-.785-2.543-1.199-3.956-1.199z"/>
    </symbol>

    <symbol id="04d" viewBox="0 0 56.69 56.69">
        <path d="m51.688 33.816c1.207-1.721 1.867-3.785 1.867-5.899 0-3.035-1.373-5.938-3.699-7.882.078-.601.117-1.168.117-1.721 0-7.641-6.217-13.857-13.859-13.857-4.576 0-8.874 2.298-11.442 6.058-1.289-.666-2.717-1.013-4.183-1.013-4.743 0-8.654 3.633-9.096 8.297-4.908.839-8.508 5.046-8.508 10.119 0 4.858 3.431 8.983 8.049 10.012-.652 1.32-1.028 2.801-1.028 4.371 0 5.477 4.456 9.934 9.933 9.934h22.331c.359 0 .715-.021 1.051-.059 6.033-.578 10.584-5.592 10.584-11.66 0-2.493-.787-4.799-2.117-6.7zm-9.782-5.021c-2.227-3.181-5.816-5.063-9.711-5.063-5.315 0-9.993 3.585-11.419 8.635-1.076-.011-3.057.114-5.222 1.163-1.649.799-2.775 1.828-3.445 2.547-.01.013-.023.025-.032.036-4.073-.535-7.191-4.037-7.191-8.196 0-4.323 3.247-7.865 7.553-8.238l.912-.12v-.917c0-3.938 3.202-7.141 7.139-7.141 1.413 0 2.781.414 3.956 1.197l.885.59.534-.919c2.121-3.647 6.048-5.913 10.25-5.913 6.539 0 11.859 5.319 11.859 11.857 0 .618-.059 1.266-.18 1.981l-.102.606.494.365c2.141 1.582 3.369 4.007 3.369 6.652 0 1.52-.422 3.008-1.203 4.297-.706-.717-2.05-1.895-4.08-2.671-1.805-.688-3.397-.772-4.366-.748zm7.727 5.609c1.355 1.67 2.172 3.797 2.172 6.111 0 5.034-3.774 9.19-8.789 9.673-.277.029-.561.047-.846.047h-22.332c-4.374 0-7.933-3.559-7.933-7.934 0-1.631.496-3.148 1.343-4.41.384-.588 1.221-1.697 2.698-2.527 1.64-.922 3.184-1.002 3.892-.995h2.533l.166-.797c.948-4.541 5.01-7.838 9.658-7.838 3.393 0 6.508 1.719 8.332 4.598l.295.465c.967-.059 2.809-.042 4.887.825 2.002.836 3.281 2.068 3.924 2.782z"/>
    </symbol>

    <symbol id="04n" viewBox="0 0 56.69 56.69">
        <path d="m51.688 33.816c1.207-1.721 1.867-3.785 1.867-5.899 0-3.035-1.373-5.938-3.699-7.882.078-.601.117-1.168.117-1.721 0-7.641-6.217-13.857-13.859-13.857-4.576 0-8.874 2.298-11.442 6.058-1.289-.666-2.717-1.013-4.183-1.013-4.743 0-8.654 3.633-9.096 8.297-4.908.839-8.508 5.046-8.508 10.119 0 4.858 3.431 8.983 8.049 10.012-.652 1.32-1.028 2.801-1.028 4.371 0 5.477 4.456 9.934 9.933 9.934h22.331c.359 0 .715-.021 1.051-.059 6.033-.578 10.584-5.592 10.584-11.66 0-2.493-.787-4.799-2.117-6.7zm-9.782-5.021c-2.227-3.181-5.816-5.063-9.711-5.063-5.315 0-9.993 3.585-11.419 8.635-1.076-.011-3.057.114-5.222 1.163-1.649.799-2.775 1.828-3.445 2.547-.01.013-.023.025-.032.036-4.073-.535-7.191-4.037-7.191-8.196 0-4.323 3.247-7.865 7.553-8.238l.912-.12v-.917c0-3.938 3.202-7.141 7.139-7.141 1.413 0 2.781.414 3.956 1.197l.885.59.534-.919c2.121-3.647 6.048-5.913 10.25-5.913 6.539 0 11.859 5.319 11.859 11.857 0 .618-.059 1.266-.18 1.981l-.102.606.494.365c2.141 1.582 3.369 4.007 3.369 6.652 0 1.52-.422 3.008-1.203 4.297-.706-.717-2.05-1.895-4.08-2.671-1.805-.688-3.397-.772-4.366-.748zm7.727 5.609c1.355 1.67 2.172 3.797 2.172 6.111 0 5.034-3.774 9.19-8.789 9.673-.277.029-.561.047-.846.047h-22.332c-4.374 0-7.933-3.559-7.933-7.934 0-1.631.496-3.148 1.343-4.41.384-.588 1.221-1.697 2.698-2.527 1.64-.922 3.184-1.002 3.892-.995h2.533l.166-.797c.948-4.541 5.01-7.838 9.658-7.838 3.393 0 6.508 1.719 8.332 4.598l.295.465c.967-.059 2.809-.042 4.887.825 2.002.836 3.281 2.068 3.924 2.782z"/>
    </symbol>

    <symbol id="09d" viewBox="0 0 56.69 56.69">
        <path d="m49.98 20.655c.078-.597.117-1.164.117-1.721 0-7.641-6.217-13.857-13.859-13.857-4.576 0-8.873 2.298-11.441 6.059-1.29-.665-2.718-1.014-4.184-1.014-4.743 0-8.654 3.634-9.096 8.298-4.907.84-8.507 5.045-8.507 10.117 0 5.667 4.611 10.277 10.279 10.277h30.113c5.668 0 10.277-4.61 10.277-10.277.001-3.082-1.339-5.922-3.699-7.882zm-6.578 16.159h-30.112c-4.565 0-8.279-3.713-8.279-8.277 0-4.251 3.317-7.869 7.554-8.237l.911-.12v-.917c0-3.938 3.202-7.141 7.139-7.141 1.413 0 2.781.414 3.957 1.198l.885.59.534-.92c2.121-3.647 6.047-5.913 10.249-5.913 6.539 0 11.859 5.319 11.859 11.857 0 .624-.059 1.271-.178 1.979l-.104.607.494.365c2.141 1.581 3.369 4.005 3.369 6.65 0 4.567-3.713 8.279-8.278 8.279zm-26.784 11.341-.008 2.461c-.002.552-.449.997-1 .997-.001 0-.002 0-.003 0-.553-.002-.999-.451-.997-1.003l.008-2.461c.002-.552.449-.997 1-.997h.003c.552.002.999.452.997 1.003zm.019-6-.01 3c-.002.552-.449.997-1 .997-.001 0-.002 0-.003 0-.553-.002-.999-.451-.997-1.003l.01-3c.002-.553.454-1.001 1.003-.997.553.002.999.452.997 1.003zm6.721-.001-.002 1c-.001.552-.448.998-1 .998-.001 0-.001 0-.002 0-.553-.001-.999-.449-.998-1.002l.002-1c.001-.552.448-.998 1-.998h.002c.553.001.999.45.998 1.002zm-.016 4.91-.002 1c-.001.552-.448.998-1 .998-.001 0-.001 0-.002 0-.553-.001-.999-.449-.998-1.002l.002-1c.001-.552.448-.998 1-.998h.002c.553.001.999.45.998 1.002zm6.726 1.091-.008 2.461c-.002.552-.449.997-1 .997h-.002c-.553-.002-1-.451-.998-1.003l.008-2.461c.002-.552.449-.997 1-.997h.004c.553.002.998.452.996 1.003zm.02-6-.01 3c-.002.552-.449.997-1 .997h-.002c-.553-.002-1-.451-.998-1.003l.01-3c.002-.552.449-.997 1-.997h.004c.553.002.998.452.996 1.003zm6.723.001-.004 1c-.002.551-.449.996-1 .996 0 0-.002 0-.004 0-.553-.002-.998-.451-.996-1.004l.004-1c.002-.551.449-.996 1-.996h.004c.552.002.998.452.996 1.004zm-.016 4.91-.004 1c-.002.551-.449.996-1 .996 0 0-.002 0-.004 0-.553-.002-.998-.451-.996-1.004l.004-1c.002-.551.449-.996 1-.996h.004c.553.002.998.452.996 1.004zm6.726 1.089-.008 2.461c-.002.552-.449.997-1 .997h-.002c-.553-.002-1-.451-.998-1.003l.008-2.461c.002-.552.449-.997 1-.997h.004c.553.002.998.452.996 1.003zm.018-6-.008 3c-.002.551-.449.997-1 .997-.002 0-.002 0-.004 0-.553-.002-.998-.45-.996-1.003l.008-3c.002-.552.449-.997 1-.997h.004c.553.002.998.451.996 1.003z"/>
    </symbol>

    <symbol id="09n" viewBox="0 0 56.69 56.69">
        <path d="m49.98 20.655c.078-.597.117-1.164.117-1.721 0-7.641-6.217-13.857-13.859-13.857-4.576 0-8.873 2.298-11.441 6.059-1.29-.665-2.718-1.014-4.184-1.014-4.743 0-8.654 3.634-9.096 8.298-4.907.84-8.507 5.045-8.507 10.117 0 5.667 4.611 10.277 10.279 10.277h30.113c5.668 0 10.277-4.61 10.277-10.277.001-3.082-1.339-5.922-3.699-7.882zm-6.578 16.159h-30.112c-4.565 0-8.279-3.713-8.279-8.277 0-4.251 3.317-7.869 7.554-8.237l.911-.12v-.917c0-3.938 3.202-7.141 7.139-7.141 1.413 0 2.781.414 3.957 1.198l.885.59.534-.92c2.121-3.647 6.047-5.913 10.249-5.913 6.539 0 11.859 5.319 11.859 11.857 0 .624-.059 1.271-.178 1.979l-.104.607.494.365c2.141 1.581 3.369 4.005 3.369 6.65 0 4.567-3.713 8.279-8.278 8.279zm-26.784 11.341-.008 2.461c-.002.552-.449.997-1 .997-.001 0-.002 0-.003 0-.553-.002-.999-.451-.997-1.003l.008-2.461c.002-.552.449-.997 1-.997h.003c.552.002.999.452.997 1.003zm.019-6-.01 3c-.002.552-.449.997-1 .997-.001 0-.002 0-.003 0-.553-.002-.999-.451-.997-1.003l.01-3c.002-.553.454-1.001 1.003-.997.553.002.999.452.997 1.003zm6.721-.001-.002 1c-.001.552-.448.998-1 .998-.001 0-.001 0-.002 0-.553-.001-.999-.449-.998-1.002l.002-1c.001-.552.448-.998 1-.998h.002c.553.001.999.45.998 1.002zm-.016 4.91-.002 1c-.001.552-.448.998-1 .998-.001 0-.001 0-.002 0-.553-.001-.999-.449-.998-1.002l.002-1c.001-.552.448-.998 1-.998h.002c.553.001.999.45.998 1.002zm6.726 1.091-.008 2.461c-.002.552-.449.997-1 .997h-.002c-.553-.002-1-.451-.998-1.003l.008-2.461c.002-.552.449-.997 1-.997h.004c.553.002.998.452.996 1.003zm.02-6-.01 3c-.002.552-.449.997-1 .997h-.002c-.553-.002-1-.451-.998-1.003l.01-3c.002-.552.449-.997 1-.997h.004c.553.002.998.452.996 1.003zm6.723.001-.004 1c-.002.551-.449.996-1 .996 0 0-.002 0-.004 0-.553-.002-.998-.451-.996-1.004l.004-1c.002-.551.449-.996 1-.996h.004c.552.002.998.452.996 1.004zm-.016 4.91-.004 1c-.002.551-.449.996-1 .996 0 0-.002 0-.004 0-.553-.002-.998-.451-.996-1.004l.004-1c.002-.551.449-.996 1-.996h.004c.553.002.998.452.996 1.004zm6.726 1.089-.008 2.461c-.002.552-.449.997-1 .997h-.002c-.553-.002-1-.451-.998-1.003l.008-2.461c.002-.552.449-.997 1-.997h.004c.553.002.998.452.996 1.003zm.018-6-.008 3c-.002.551-.449.997-1 .997-.002 0-.002 0-.004 0-.553-.002-.998-.45-.996-1.003l.008-3c.002-.552.449-.997 1-.997h.004c.553.002.998.451.996 1.003z"/>
    </symbol>

    <symbol id="10d" viewBox="0 0 56.69 56.69">
        <path d="m49.98 19.711c.078-.601.117-1.168.117-1.72 0-7.642-6.217-13.857-13.859-13.857-4.576 0-8.874 2.298-11.442 6.058-1.289-.665-2.717-1.013-4.183-1.013-4.743 0-8.654 3.633-9.096 8.297-4.907.839-8.507 5.045-8.507 10.118 0 5.666 4.611 10.276 10.278 10.276h30.114c5.666 0 10.277-4.61 10.277-10.276.001-3.082-1.339-5.922-3.699-7.883zm-6.578 16.159h-30.113c-4.564 0-8.278-3.713-8.278-8.276 0-4.322 3.247-7.863 7.554-8.237l.911-.12v-.917c0-3.938 3.202-7.141 7.139-7.141 1.413 0 2.781.414 3.956 1.197l.885.591.534-.92c2.121-3.647 6.048-5.913 10.25-5.913 6.539 0 11.859 5.319 11.859 11.857 0 .618-.059 1.266-.18 1.98l-.102.606.494.364c2.141 1.582 3.369 4.007 3.369 6.651 0 4.565-3.713 8.278-8.278 8.278zm-26.766 5.36-.032 10.33c-.002.552-.449.997-1 .997-.001 0-.002 0-.003 0-.553-.002-.999-.451-.997-1.003l.032-10.329c.002-.552.449-.997 1-.997h.003c.553.001.999.451.997 1.002zm6.722-.004-.022 7.215c-.002.552-.449.997-1 .997-.001 0-.002 0-.003 0-.553-.002-.999-.451-.997-1.003l.022-7.215c.002-.552.449-.997 1-.997h.003c.553.002.999.451.997 1.003zm6.73-.005-.033 10.329c-.002.552-.449.997-1 .997h-.002c-.553-.002-1-.451-.998-1.003l.033-10.329c.002-.552.449-.997 1-.997h.004c.553.002.998.451.996 1.003zm6.723-.004-.023 7.215c-.002.552-.449.997-1 .997h-.002c-.553-.002-1-.451-.998-1.003l.023-7.215c.002-.553.42-1.034 1.002-.997.552.002 1 .451.998 1.003zm6.728-.005-.031 10.329c-.002.552-.449.997-1 .997-.002 0-.002 0-.004 0-.553-.002-.998-.451-.996-1.003l.031-10.329c.002-.552.449-.997 1-.997h.004c.553.002.998.451.996 1.003z"/>
    </symbol>

    <symbol id="10n" viewBox="0 0 56.69 56.69">
        <path d="m49.98 19.711c.078-.601.117-1.168.117-1.72 0-7.642-6.217-13.857-13.859-13.857-4.576 0-8.874 2.298-11.442 6.058-1.289-.665-2.717-1.013-4.183-1.013-4.743 0-8.654 3.633-9.096 8.297-4.907.839-8.507 5.045-8.507 10.118 0 5.666 4.611 10.276 10.278 10.276h30.114c5.666 0 10.277-4.61 10.277-10.276.001-3.082-1.339-5.922-3.699-7.883zm-6.578 16.159h-30.113c-4.564 0-8.278-3.713-8.278-8.276 0-4.322 3.247-7.863 7.554-8.237l.911-.12v-.917c0-3.938 3.202-7.141 7.139-7.141 1.413 0 2.781.414 3.956 1.197l.885.591.534-.92c2.121-3.647 6.048-5.913 10.25-5.913 6.539 0 11.859 5.319 11.859 11.857 0 .618-.059 1.266-.18 1.98l-.102.606.494.364c2.141 1.582 3.369 4.007 3.369 6.651 0 4.565-3.713 8.278-8.278 8.278zm-26.766 5.36-.032 10.33c-.002.552-.449.997-1 .997-.001 0-.002 0-.003 0-.553-.002-.999-.451-.997-1.003l.032-10.329c.002-.552.449-.997 1-.997h.003c.553.001.999.451.997 1.002zm6.722-.004-.022 7.215c-.002.552-.449.997-1 .997-.001 0-.002 0-.003 0-.553-.002-.999-.451-.997-1.003l.022-7.215c.002-.552.449-.997 1-.997h.003c.553.002.999.451.997 1.003zm6.73-.005-.033 10.329c-.002.552-.449.997-1 .997h-.002c-.553-.002-1-.451-.998-1.003l.033-10.329c.002-.552.449-.997 1-.997h.004c.553.002.998.451.996 1.003zm6.723-.004-.023 7.215c-.002.552-.449.997-1 .997h-.002c-.553-.002-1-.451-.998-1.003l.023-7.215c.002-.553.42-1.034 1.002-.997.552.002 1 .451.998 1.003zm6.728-.005-.031 10.329c-.002.552-.449.997-1 .997-.002 0-.002 0-.004 0-.553-.002-.998-.451-.996-1.003l.031-10.329c.002-.552.449-.997 1-.997h.004c.553.002.998.451.996 1.003z"/>
    </symbol>

    <symbol id="11d" viewBox="0 0 56.69 56.69">
        <path d="m49.98 19.644c.078-.601.117-1.168.117-1.721 0-7.641-6.217-13.857-13.859-13.857-4.576 0-8.874 2.298-11.442 6.059-1.289-.666-2.716-1.015-4.182-1.015-4.743 0-8.654 3.634-9.096 8.298-4.908.84-8.508 5.046-8.508 10.118 0 5.666 4.611 10.276 10.278 10.276h11.854l-3.01 5.955h6.35l-4.171 8.867 11.804-11.066-6.305.006 2.182-3.762h11.41c5.666 0 10.277-4.61 10.277-10.276.001-3.083-1.339-5.922-3.699-7.882zm-6.578 16.159h-30.113c-4.564 0-8.278-3.713-8.278-8.276 0-4.323 3.247-7.864 7.554-8.238l.911-.12v-.917c0-3.938 3.202-7.141 7.139-7.141 1.413 0 2.781.414 3.956 1.198l.885.59.534-.92c2.121-3.647 6.048-5.913 10.25-5.913 6.539 0 11.859 5.319 11.859 11.857 0 .618-.059 1.267-.18 1.981l-.102.605.494.365c2.141 1.582 3.369 4.006 3.369 6.651 0 4.565-3.713 8.278-8.278 8.278z"/>
    </symbol>

    <symbol id="11n" viewBox="0 0 56.69 56.69">
        <path d="m49.98 19.644c.078-.601.117-1.168.117-1.721 0-7.641-6.217-13.857-13.859-13.857-4.576 0-8.874 2.298-11.442 6.059-1.289-.666-2.716-1.015-4.182-1.015-4.743 0-8.654 3.634-9.096 8.298-4.908.84-8.508 5.046-8.508 10.118 0 5.666 4.611 10.276 10.278 10.276h11.854l-3.01 5.955h6.35l-4.171 8.867 11.804-11.066-6.305.006 2.182-3.762h11.41c5.666 0 10.277-4.61 10.277-10.276.001-3.083-1.339-5.922-3.699-7.882zm-6.578 16.159h-30.113c-4.564 0-8.278-3.713-8.278-8.276 0-4.323 3.247-7.864 7.554-8.238l.911-.12v-.917c0-3.938 3.202-7.141 7.139-7.141 1.413 0 2.781.414 3.956 1.198l.885.59.534-.92c2.121-3.647 6.048-5.913 10.25-5.913 6.539 0 11.859 5.319 11.859 11.857 0 .618-.059 1.267-.18 1.981l-.102.605.494.365c2.141 1.582 3.369 4.006 3.369 6.651 0 4.565-3.713 8.278-8.278 8.278z"/>
    </symbol>

    <symbol id="13d" viewBox="0 0 56.69 56.69">
        <path d="m53.033 28.345c0 .553-.447 1-1 1h-5.287l4.057 4.057c.391.391.391 1.023 0 1.414-.195.195-.451.293-.707.293s-.512-.098-.707-.293l-5.471-5.471h-13.841l6.858 11.879 7.644 2.048c.533.143.85.691.707 1.225-.119.446-.523.741-.965.741-.086 0-.173-.011-.26-.034l-5.712-1.53 2.706 4.688c.276.479.112 1.09-.366 1.366-.157.091-.329.134-.499.134-.346 0-.682-.179-.867-.5l-2.643-4.577-1.484 5.539c-.119.446-.523.741-.965.741-.086 0-.173-.011-.26-.034-.533-.143-.85-.691-.707-1.225l2.002-7.471-6.922-11.988-6.857 11.877 2.049 7.644c.144.533-.174 1.082-.707 1.225-.087.023-.174.034-.26.034-.441 0-.845-.294-.965-.741l-1.531-5.712-2.706 4.688c-.186.32-.521.5-.867.5-.17 0-.342-.043-.499-.134-.479-.276-.643-.888-.366-1.366l2.643-4.578-5.539 1.484c-.087.023-.174.034-.26.034-.441 0-.846-.294-.965-.741-.143-.533.174-1.082.707-1.225l7.471-2.002 6.922-11.987h-13.716l-5.595 5.593c-.195.195-.451.293-.707.293s-.512-.098-.707-.293c-.391-.391-.391-1.023 0-1.414l4.182-4.182h-5.414c-.552 0-1-.447-1-1 0-.552.448-1 1-1h5.287l-4.055-4.054c-.391-.391-.391-1.023 0-1.414s1.023-.391 1.414 0l5.47 5.47h13.84l-6.856-11.877-7.644-2.048c-.533-.143-.85-.691-.707-1.225.144-.534.692-.85 1.225-.707l5.711 1.531-2.705-4.686c-.276-.479-.112-1.09.366-1.366.477-.276 1.089-.113 1.366.366l2.644 4.578 1.484-5.542c.143-.534.693-.852 1.225-.707.533.143.85.691.707 1.225l-2.002 7.474 6.919 11.985 6.858-11.878-2.048-7.643c-.143-.534.174-1.082.707-1.225.534-.142 1.082.174 1.225.707l1.53 5.711 2.705-4.686c.276-.479.889-.643 1.366-.366.479.276.643.888.366 1.366l-2.644 4.58 5.542-1.486c.535-.143 1.081.173 1.225.707.144.533-.174 1.082-.707 1.225l-7.475 2.003-6.919 11.985h13.717l5.595-5.595c.391-.391 1.023-.391 1.414 0s.391 1.023 0 1.414l-4.181 4.181h5.411c.553-.002 1 .446 1 .998z"/>
    </symbol>

    <symbol id="13n" viewBox="0 0 56.69 56.69">
        <path d="m53.033 28.345c0 .553-.447 1-1 1h-5.287l4.057 4.057c.391.391.391 1.023 0 1.414-.195.195-.451.293-.707.293s-.512-.098-.707-.293l-5.471-5.471h-13.841l6.858 11.879 7.644 2.048c.533.143.85.691.707 1.225-.119.446-.523.741-.965.741-.086 0-.173-.011-.26-.034l-5.712-1.53 2.706 4.688c.276.479.112 1.09-.366 1.366-.157.091-.329.134-.499.134-.346 0-.682-.179-.867-.5l-2.643-4.577-1.484 5.539c-.119.446-.523.741-.965.741-.086 0-.173-.011-.26-.034-.533-.143-.85-.691-.707-1.225l2.002-7.471-6.922-11.988-6.857 11.877 2.049 7.644c.144.533-.174 1.082-.707 1.225-.087.023-.174.034-.26.034-.441 0-.845-.294-.965-.741l-1.531-5.712-2.706 4.688c-.186.32-.521.5-.867.5-.17 0-.342-.043-.499-.134-.479-.276-.643-.888-.366-1.366l2.643-4.578-5.539 1.484c-.087.023-.174.034-.26.034-.441 0-.846-.294-.965-.741-.143-.533.174-1.082.707-1.225l7.471-2.002 6.922-11.987h-13.716l-5.595 5.593c-.195.195-.451.293-.707.293s-.512-.098-.707-.293c-.391-.391-.391-1.023 0-1.414l4.182-4.182h-5.414c-.552 0-1-.447-1-1 0-.552.448-1 1-1h5.287l-4.055-4.054c-.391-.391-.391-1.023 0-1.414s1.023-.391 1.414 0l5.47 5.47h13.84l-6.856-11.877-7.644-2.048c-.533-.143-.85-.691-.707-1.225.144-.534.692-.85 1.225-.707l5.711 1.531-2.705-4.686c-.276-.479-.112-1.09.366-1.366.477-.276 1.089-.113 1.366.366l2.644 4.578 1.484-5.542c.143-.534.693-.852 1.225-.707.533.143.85.691.707 1.225l-2.002 7.474 6.919 11.985 6.858-11.878-2.048-7.643c-.143-.534.174-1.082.707-1.225.534-.142 1.082.174 1.225.707l1.53 5.711 2.705-4.686c.276-.479.889-.643 1.366-.366.479.276.643.888.366 1.366l-2.644 4.58 5.542-1.486c.535-.143 1.081.173 1.225.707.144.533-.174 1.082-.707 1.225l-7.475 2.003-6.919 11.985h13.717l5.595-5.595c.391-.391 1.023-.391 1.414 0s.391 1.023 0 1.414l-4.181 4.181h5.411c.553-.002 1 .446 1 .998z"/>
    </symbol>

    <symbol id="50d" viewBox="0 0 56.69 56.69">
        <path d="m38.908 13.095h-22.375c-.553 0-1-.448-1-1s.447-1 1-1h22.375c.553 0 1 .448 1 1s-.447 1-1 1zm6.75 3.643c0-.552-.447-1-1-1h-37.625c-.552 0-1 .448-1 1s.448 1 1 1h37.625c.553 0 1-.448 1-1zm-5.75 4.643c0-.552-.447-1-1-1h-31.75c-.552 0-1 .448-1 1s.448 1 1 1h31.75c.553 0 1-.447 1-1zm10.75 4.643c0-.553-.447-1-1-1h-31.75c-.553 0-1 .447-1 1s.447 1 1 1h31.75c.553 0 1-.447 1-1zm-2 4.642c0-.553-.447-1-1-1h-36.25c-.553 0-1 .447-1 1s.447 1 1 1h36.25c.553 0 1-.447 1-1zm-3.25 4.643c0-.553-.447-1-1-1h-37.5c-.552 0-1 .447-1 1s.448 1 1 1h37.5c.553 0 1-.448 1-1zm5.375 4.644c0-.553-.447-1-1-1h-29.25c-.553 0-1 .447-1 1s.447 1 1 1h29.25c.553 0 1-.447 1-1zm-2.375 4.643c0-.553-.447-1-1-1h-29.5c-.553 0-1 .447-1 1s.447 1 1 1h29.5c.553 0 1-.448 1-1z"/>
    </symbol>

    <symbol id="50n" viewBox="0 0 56.69 56.69">
        <path d="m38.908 13.095h-22.375c-.553 0-1-.448-1-1s.447-1 1-1h22.375c.553 0 1 .448 1 1s-.447 1-1 1zm6.75 3.643c0-.552-.447-1-1-1h-37.625c-.552 0-1 .448-1 1s.448 1 1 1h37.625c.553 0 1-.448 1-1zm-5.75 4.643c0-.552-.447-1-1-1h-31.75c-.552 0-1 .448-1 1s.448 1 1 1h31.75c.553 0 1-.447 1-1zm10.75 4.643c0-.553-.447-1-1-1h-31.75c-.553 0-1 .447-1 1s.447 1 1 1h31.75c.553 0 1-.447 1-1zm-2 4.642c0-.553-.447-1-1-1h-36.25c-.553 0-1 .447-1 1s.447 1 1 1h36.25c.553 0 1-.447 1-1zm-3.25 4.643c0-.553-.447-1-1-1h-37.5c-.552 0-1 .447-1 1s.448 1 1 1h37.5c.553 0 1-.448 1-1zm5.375 4.644c0-.553-.447-1-1-1h-29.25c-.553 0-1 .447-1 1s.447 1 1 1h29.25c.553 0 1-.447 1-1zm-2.375 4.643c0-.553-.447-1-1-1h-29.5c-.553 0-1 .447-1 1s.447 1 1 1h29.5c.553 0 1-.448 1-1z"/>
    </symbol>
</svg>