<svg display="none" xmlns="http://www.w3.org/2000/svg">

    <symbol id="backwards" viewBox="0 0 512 512">
        <path d="M501.333,234.667H68.417l109.792-109.792c2-2,3.125-4.708,3.125-7.542V96c0-4.313-2.594-8.208-6.583-9.854
            c-1.323-0.552-2.708-0.813-4.083-0.813c-2.771,0-5.5,1.083-7.542,3.125l-160,160c-4.167,4.167-4.167,10.917,0,15.083l160,160
            c3.063,3.042,7.615,3.969,11.625,2.313c3.99-1.646,6.583-5.542,6.583-9.854v-21.333c0-2.833-1.125-5.542-3.125-7.542
            L68.417,277.333h432.917c5.896,0,10.667-4.771,10.667-10.667v-21.333C512,239.438,507.229,234.667,501.333,234.667z"/>
    </symbol>
    <use fill="#264d4b" href="#backwards" width="10" height="10" x="0" y="0"/>
    <view id="backwards-view" viewBox="0 0 10 10" />

    <symbol id="arrow" viewBox="0 0 306 306">
        <polygon points="94.35,0 58.65,35.7 175.95,153 58.65,270.3 94.35,306 247.35,153"/>
    </symbol>
    <use fill="#ffffff" href="#arrow" width="10" height="10" x="0" y="10"/>
    <view id="arrow-view" viewBox="0 10 10 10" />

    <symbol id="quote" viewBox="0 0 16 16">
        <path d="M7 7v7h-7v-7.1c0-4.8 4.5-5.4 4.5-5.4l0.6 1.4c0 0-2 0.3-2.4 1.9-0.4 1.2 0.4 2.2 0.4 2.2h3.9z"/>
        <path d="M16 7v7h-7v-7.1c0-4.8 4.5-5.4 4.5-5.4l0.6 1.4c0 0-2 0.3-2.4 1.9-0.4 1.2 0.4 2.2 0.4 2.2h3.9z"/>
    </symbol>
    <use fill="#000000" href="#quote" width="10" height="10" x="0" y="20"/>
    <view id="quote-view" viewBox="0 20 10 10" />
    <use fill="#264d4b" href="#quote" width="10" height="10" x="0" y="30"/>
    <view id="quote-green" viewBox="0 30 10 10" />
    <use fill="#cdb7aa" href="#quote" width="10" height="10" x="0" y="40"/>
    <view id="quote-sand" viewBox="0 40 10 10" />

    <symbol id="clock" viewBox="0 0 612 612">
        <path d="M587.572,186.881c-32.266-75.225-87.096-129.934-162.949-162.285C386.711,8.427,346.992,0.168,305.497,0.168
            c-41.488,0-80.914,8.181-118.784,24.428C111.488,56.861,56.415,111.535,24.092,186.881C7.895,224.629,0,264.176,0,305.664
            c0,41.496,7.895,81.371,24.092,119.127c32.323,75.346,87.403,130.348,162.621,162.621c37.877,16.247,77.295,24.42,118.784,24.42
            c41.489,0,81.214-8.259,119.12-24.42c75.853-32.352,130.683-87.403,162.956-162.621C603.819,386.914,612,347.16,612,305.664
            C612,264.176,603.826,224.757,587.572,186.881z M538.724,440.853c-24.021,41.195-56.929,73.876-98.375,98.039
            c-41.195,24.021-86.332,36.135-134.845,36.135c-36.47,0-71.27-7.024-104.4-21.415c-33.129-14.384-61.733-33.294-85.661-57.215
            c-23.928-23.928-42.973-52.811-57.214-85.997c-14.199-33.065-21.08-68.258-21.08-104.735c0-48.52,11.921-93.428,35.807-134.509
            c23.971-41.231,56.886-73.947,98.039-98.04c41.146-24.092,85.99-36.142,134.502-36.142c48.52,0,93.649,12.121,134.845,36.142
            c41.446,24.164,74.283,56.879,98.375,98.039c24.092,41.153,36.135,85.99,36.135,134.509
            C574.852,354.185,562.888,399.399,538.724,440.853z"/>
        <path d="M324.906,302.988V129.659c0-10.372-9.037-18.738-19.41-18.738c-9.701,0-18.403,8.366-18.403,18.738v176.005
            c0,0.336,0.671,1.678,0.671,2.678c-0.671,6.024,1.007,11.043,5.019,15.062l100.053,100.046c6.695,6.695,19.073,6.695,25.763,0
            c7.694-7.695,7.188-18.86,0-26.099L324.906,302.988z"/>
    </symbol>
    <use fill="#264d4b" href="#clock" width="10" height="10" x="0" y="50"/>
    <view id="clock-green" viewBox="0 50 10 10" />
    <use fill="#444444" href="#clock" width="10" height="10" x="0" y="60"/>
    <view id="clock-view" viewBox="0 60 10 10" />

    <symbol id="like" viewBox="0 0 455 455">
        <path d="M326.632,10.346c-38.733,0-74.991,17.537-99.132,46.92c-24.141-29.384-60.398-46.92-99.132-46.92
            C57.586,10.346,0,67.931,0,138.714c0,55.426,33.05,119.535,98.23,190.546c50.161,54.647,104.728,96.959,120.257,108.626l9.01,6.769
            l9.01-6.768c15.529-11.667,70.098-53.978,120.26-108.625C421.949,258.251,455,194.141,455,138.714
            C455,67.931,397.414,10.346,326.632,10.346z M334.666,308.974c-41.259,44.948-85.648,81.283-107.169,98.029
            c-21.52-16.746-65.907-53.082-107.166-98.03C61.236,244.592,30,185.717,30,138.714c0-54.24,44.128-98.368,98.368-98.368
            c35.694,0,68.652,19.454,86.013,50.771l13.119,23.666l13.119-23.666c17.36-31.316,50.318-50.771,86.013-50.771
            c54.24,0,98.368,44.127,98.368,98.368C425,185.719,393.763,244.594,334.666,308.974z"/>
    </symbol>
    <use fill="#444444" href="#like" width="10" height="10" x="0" y="70"/>
    <view id="like-view" viewBox="0 70 10 10" />

    <symbol id="filledlike" viewBox="0 0 455 455">
        <path d="M326.632,10.346c-38.733,0-74.991,17.537-99.132,46.92c-24.141-29.384-60.398-46.92-99.132-46.92
            C57.586,10.346,0,67.931,0,138.714c0,55.426,33.05,119.535,98.23,190.546c50.161,54.647,104.728,96.959,120.257,108.626l9.01,6.769
            l9.01-6.768c15.529-11.667,70.098-53.978,120.26-108.625C421.949,258.251,455,194.141,455,138.714
            C455,67.931,397.414,10.346,326.632,10.346z"/>
    </symbol>
    <use fill="#444444" href="#filledlike" width="10" height="10" x="0" y="80"/>
    <view id="filledlike-view" viewBox="0 80 10 10" />

    <symbol id="views" viewBox="0 0 456.795 456.795">
        <path d="M448.947,218.475c-0.922-1.168-23.055-28.933-61-56.81c-50.705-37.253-105.877-56.944-159.551-56.944
            c-53.672,0-108.844,19.691-159.551,56.944c-37.944,27.876-60.077,55.642-61,56.81L0,228.397l7.846,9.923
            c0.923,1.168,23.056,28.934,61,56.811c50.707,37.252,105.879,56.943,159.551,56.943c53.673,0,108.845-19.691,159.55-56.943
            c37.945-27.877,60.078-55.643,61-56.811l7.848-9.923L448.947,218.475z M228.396,315.039c-47.774,0-86.642-38.867-86.642-86.642
            c0-7.485,0.954-14.751,2.747-21.684l-19.781-3.329c-1.938,8.025-2.966,16.401-2.966,25.013c0,30.86,13.182,58.696,34.204,78.187
            c-27.061-9.996-50.072-24.023-67.439-36.709c-21.516-15.715-37.641-31.609-46.834-41.478c9.197-9.872,25.32-25.764,46.834-41.478
            c17.367-12.686,40.379-26.713,67.439-36.71l13.27,14.958c15.498-14.512,36.312-23.412,59.168-23.412
            c47.774,0,86.641,38.867,86.641,86.642C315.037,276.172,276.17,315.039,228.396,315.039z M368.273,269.875
            c-17.369,12.686-40.379,26.713-67.439,36.709c21.021-19.49,34.203-47.326,34.203-78.188s-13.182-58.697-34.203-78.188
            c27.061,9.997,50.07,24.024,67.439,36.71c21.516,15.715,37.641,31.609,46.834,41.477
            C405.91,238.269,389.787,254.162,368.273,269.875z"/>
        <path d="M173.261,211.555c-1.626,5.329-2.507,10.982-2.507,16.843c0,31.834,25.807,57.642,57.642,57.642
            c31.834,0,57.641-25.807,57.641-57.642s-25.807-57.642-57.641-57.642c-15.506,0-29.571,6.134-39.932,16.094l28.432,32.048
            L173.261,211.555z"/>
    </symbol>
    <use fill="#444444" href="#views" width="10" height="10" x="0" y="90"/>
    <view id="views-view" viewBox="0 90 10 10" />

    <symbol id="magnifier" viewBox="0 0 512 512">
        <path d="M281.1,0c-127.318,0-230.9,103.582-230.9,230.9c0,45.12,13.019,87.25,35.483,122.853l-70.654,70.654
            c-20.039,20.039-20.039,52.527,0,72.564c20.039,20.039,52.527,20.039,72.564,0l70.654-70.654
            c35.605,22.464,77.735,35.483,122.853,35.483c127.318,0,230.9-103.582,230.9-230.9S408.42,0,281.1,0z M281.1,410.489
            c-99.025,0-179.589-80.564-179.589-179.589S182.074,51.311,281.1,51.311S460.689,131.875,460.689,230.9
            S380.127,410.489,281.1,410.489z"/>
    </symbol>
    <use fill="#444444" href="#magnifier" width="10" height="10" x="0" y="100"/>
    <view id="magnifier-view" viewBox="0 100 10 10" />

    <symbol id="pencil" viewBox="0 0 512 512.00004">
        <path d="M511.13,79.93c-0.02-21.39-8.37-41.49-23.51-56.59C456.4-7.82,405.63-7.78,374.44,23.45L52.23,346.96
            c-10.48,10.47-18.48,23.44-23.14,37.5l-0.3,0.91L0,512l126.98-28.43l0.95-0.31c14.06-4.66,27.04-12.65,37.54-23.15l322.25-323.54
            C502.84,121.43,511.15,101.32,511.13,79.93z M70.42,455.27L56.95,441.8l9.72-42.77l46.61,46.64L70.42,455.27z M459.42,108.34
            L146.57,422.44l-56.65-56.69l214.3-215.16l32.63,32.63l28.26-28.26l-32.69-32.69l30.4-30.52l32.75,32.75l28.26-28.26l-32.81-32.81
            l11.71-11.75c15.61-15.63,41.02-15.65,56.66-0.05c7.58,7.56,11.76,17.63,11.77,28.33C471.17,90.67,467.01,100.74,459.42,108.34z
             M511.13,471.6c0,13.32,0,26.65,0,39.97"/>
    </symbol>
    <use fill="#264d4b" href="#pencil" width="10" height="10" x="0" y="110"/>
    <view id="pencil-green" viewBox="0 110 10 10" />

    <symbol id="logotype" viewBox="-8, 0, 127.37,123.21">
        <line stroke-width="15px" x1="0" x2="0" y1="0" y2="123.21" class="logo-lines"/>
        <line stroke-width="15px" x1="27.75" x2="27.75" y1="0" y2="85.84" class="logo-lines"/>
        <line stroke-width="15px" x1="55.12" x2="55.12" y1="0" y2="45.96" class="logo-lines"/>
        <line stroke-width="15px" x1="55.12" x2="55.12" y1="76.25" y2="123.21" class="logo-lines"/>
        <line stroke-width="15px" x1="82.87" x2="82.87" y1="0" y2="78.08" class="logo-lines"/>
        <line stroke-width="15px" x1="82.87" x2="82.87" y1="107.37" y2="123.21" class="logo-lines"/>
        <line stroke-width="15px" x1="112.37" x2="112.37" y1="0" y2="10.83" class="logo-lines"/>
        <line stroke-width="15px" x1="112.37" x2="112.37" y1="40.12" y2="123.21" class="logo-lines"/>
    </symbol>
    <use stroke="#000000" href="#logotype" width="10" height="10" x="0" y="120"/>
    <view id="logotype-view" viewBox="0 120 10 10" />

    <symbol id="close" viewBox="0 0 386.667 386.667">
        <path d="m386.667 45.564-45.564-45.564-147.77 147.769-147.769-147.769-45.564 45.564 147.769 147.769-147.769 147.77 45.564 45.564 147.769-147.769 147.769 147.769 45.564-45.564-147.768-147.77z"/>
    </symbol>
    <use fill="#ffffff" href="#close" width="10" height="10" x="0" y="130"/>
    <view id="close-view" viewBox="0 130 10 10" />
    <use fill="#264d4b" href="#close" width="10" height="10" x="0" y="140"/>
    <view id="close-green" viewBox="0 140 10 10" />
    <use fill="#444444" href="#close" width="10" height="10" x="0" y="150"/>
    <view id="close-gray" viewBox="0 150 10 10" />

    <symbol id="tops" viewBox="0 0 512 512">
        <path d="M352.459,220c0-11.046-8.954-20-20-20h-206c-11.046,0-20,8.954-20,20s8.954,20,20,20h206
            C343.505,240,352.459,231.046,352.459,220z"/>
        <path d="M126.459,280c-11.046,0-20,8.954-20,20c0,11.046,8.954,20,20,20H251.57c11.046,0,20-8.954,20-20c0-11.046-8.954-20-20-20
            H126.459z"/>
        <path d="M173.459,472H106.57c-22.056,0-40-17.944-40-40V80c0-22.056,17.944-40,40-40h245.889c22.056,0,40,17.944,40,40v123
            c0,11.046,8.954,20,20,20c11.046,0,20-8.954,20-20V80c0-44.112-35.888-80-80-80H106.57c-44.112,0-80,35.888-80,80v352
            c0,44.112,35.888,80,80,80h66.889c11.046,0,20-8.954,20-20C193.459,480.954,184.505,472,173.459,472z"/>
        <path d="M467.884,289.572c-23.394-23.394-61.458-23.395-84.837-0.016l-109.803,109.56c-2.332,2.327-4.052,5.193-5.01,8.345
            l-23.913,78.725c-2.12,6.98-0.273,14.559,4.821,19.78c3.816,3.911,9,6.034,14.317,6.034c1.779,0,3.575-0.238,5.338-0.727
            l80.725-22.361c3.322-0.92,6.35-2.683,8.79-5.119l109.573-109.367C491.279,351.032,491.279,312.968,467.884,289.572z
             M333.776,451.768l-40.612,11.25l11.885-39.129l74.089-73.925l28.29,28.29L333.776,451.768z M439.615,346.13l-3.875,3.867
            l-28.285-28.285l3.862-3.854c7.798-7.798,20.486-7.798,28.284,0C447.399,325.656,447.399,338.344,439.615,346.13z"/>
        <path d="M332.459,120h-206c-11.046,0-20,8.954-20,20s8.954,20,20,20h206c11.046,0,20-8.954,20-20S343.505,120,332.459,120z"/>
    </symbol>
    <use fill="#264d4b" href="#tops" width="10" height="10" x="0" y="160"/>
    <view id="tops-view" viewBox="0 160 10 10" />

    <symbol id="bell" viewBox="0 0 512 512">
        <path d="m450.201 407.453c-1.505-.977-12.832-8.912-24.174-32.917-20.829-44.082-25.201-106.18-25.201-150.511 0-.193-.004-.384-.011-.576-.227-58.589-35.31-109.095-85.514-131.756v-34.657c0-31.45-25.544-57.036-56.942-57.036h-4.719c-31.398 0-56.942 25.586-56.942 57.036v34.655c-50.372 22.734-85.525 73.498-85.525 132.334 0 44.331-4.372 106.428-25.201 150.511-11.341 24.004-22.668 31.939-24.174 32.917-6.342 2.935-9.469 9.715-8.01 16.586 1.473 6.939 7.959 11.723 15.042 11.723h109.947c.614 42.141 35.008 76.238 77.223 76.238s76.609-34.097 77.223-76.238h109.947c7.082 0 13.569-4.784 15.042-11.723 1.457-6.871-1.669-13.652-8.011-16.586zm-223.502-350.417c0-14.881 12.086-26.987 26.942-26.987h4.719c14.856 0 26.942 12.106 26.942 26.987v24.917c-9.468-1.957-19.269-2.987-29.306-2.987-10.034 0-19.832 1.029-29.296 2.984v-24.914zm29.301 424.915c-25.673 0-46.614-20.617-47.223-46.188h94.445c-.608 25.57-21.549 46.188-47.222 46.188zm60.4-76.239c-.003 0-213.385 0-213.385 0 2.595-4.044 5.236-8.623 7.861-13.798 20.104-39.643 30.298-96.129 30.298-167.889 0-63.417 51.509-115.01 114.821-115.01s114.821 51.593 114.821 115.06c0 .185.003.369.01.553.057 71.472 10.25 127.755 30.298 167.286 2.625 5.176 5.267 9.754 7.861 13.798z"/>
    </symbol>
    <use fill="#264d4b" href="#bell" width="10" height="10" x="0" y="170"/>
    <view id="bell-green" viewBox="0 170 10 10" />

    <symbol id="exit" viewBox="0 0 512 512">
        <path d="M452.033,0.142H60.251c-33.066,0-59.967,26.901-59.967,59.967v79.956h39.978V60.109c0-11.022,8.967-19.989,19.989-19.989
            h391.783c11.022,0,19.989,8.967,19.989,19.989v391.783c0,11.022-8.967,19.989-19.989,19.989H60.251
            c-11.022,0-19.989-8.967-19.989-19.989v-79.956H0.284v79.956c0,33.066,26.901,59.967,59.967,59.967h391.783
            c33.066,0,59.967-26.901,59.967-59.967V60.109C512,27.043,485.099,0.142,452.033,0.142z"/>
        <polygon points="364.082,236.011 76.526,236.011 152.483,160.053 124.215,131.785 0,256 124.215,380.215 152.483,351.947
            76.526,275.989 364.082,275.989"/>
    </symbol>
    <use fill="#264d4b" href="#exit" width="10" height="10" x="0" y="180"/>
    <view id="exit-green" viewBox="0 180 10 10" />

    <symbol id="comment" viewBox="0 0 511.096 511.096">
        <path d="m74.414 480.548h-36.214l25.607-25.607c13.807-13.807 22.429-31.765 24.747-51.246-59.127-38.802-88.554-95.014-88.554-153.944 0-108.719 99.923-219.203 256.414-219.203 165.785 0 254.682 101.666 254.682 209.678 0 108.724-89.836 210.322-254.682 210.322-28.877 0-59.01-3.855-85.913-10.928-25.467 26.121-59.973 40.928-96.087 40.928z"/>
    </symbol>
    <use fill="#444444" href="#comment" width="10" height="10" x="0" y="190"/>
    <view id="comment-gray" viewBox="0 190 10 10" />

    <symbol id="user" viewBox="0 0 512 512">
        <path d="M256,288.389c-153.837,0-238.56,72.776-238.56,204.925c0,10.321,8.365,18.686,18.686,18.686h439.747
            c10.321,0,18.686-8.365,18.686-18.686C494.56,361.172,409.837,288.389,256,288.389z M55.492,474.628
            c7.35-98.806,74.713-148.866,200.508-148.866s193.159,50.06,200.515,148.866H55.492z"/>
        <path d="M256,0c-70.665,0-123.951,54.358-123.951,126.437c0,74.19,55.604,134.54,123.951,134.54s123.951-60.35,123.951-134.534
            C379.951,54.358,326.665,0,256,0z M256,223.611c-47.743,0-86.579-43.589-86.579-97.168c0-51.611,36.413-89.071,86.579-89.071
            c49.363,0,86.579,38.288,86.579,89.071C342.579,180.022,303.743,223.611,256,223.611z"/>
    </symbol>
    <use fill="#264d4b" href="#user" width="10" height="10" x="0" y="200"/>
    <view id="user-green" viewBox="0 200 10 10" />

    <symbol id="author" viewBox="0 0 964.07 964.07">
        <path d="M850.662,877.56c-0.77,0.137-4.372,0.782-10.226,1.831c-230.868,41.379-273.337,48.484-278.103,49.037
            c-11.37,1.319-19.864,0.651-25.976-2.042c-3.818-1.682-5.886-3.724-6.438-4.623c0.268-1.597,2.299-5.405,3.539-7.73
            c1.207-2.263,2.574-4.826,3.772-7.558c7.945-18.13,2.386-36.521-14.51-47.999c-12.599-8.557-29.304-12.03-49.666-10.325
            c-12.155,1.019-225.218,36.738-342.253,56.437l-57.445,45.175c133.968-22.612,389.193-65.433,402.622-66.735
            c11.996-1.007,21.355,0.517,27.074,4.4c3.321,2.257,2.994,3.003,2.12,4.997c-0.656,1.497-1.599,3.264-2.596,5.135
            c-3.835,7.189-9.087,17.034-7.348,29.229c1.907,13.374,11.753,24.901,27.014,31.626c8.58,3.78,18.427,5.654,29.846,5.654
            c4.508,0,9.261-0.292,14.276-0.874c9.183-1.065,103.471-17.67,280.244-49.354c5.821-1.043,9.403-1.686,10.169-1.821
            c9.516-1.688,15.861-10.772,14.172-20.289S860.183,875.87,850.662,877.56z"/>
        <path d="M231.14,707.501L82.479,863.005c-16.373,17.127-27.906,38.294-33.419,61.338l211.087-166.001
            c66.081,29.303,118.866,38.637,159.32,38.637c71.073,0,104.065-28.826,104.065-28.826c-66.164-34.43-75.592-98.686-75.592-98.686
            c50.675,21.424,156.235,46.678,156.235,46.678c140.186-93.563,213.45-296.138,213.45-296.138
            c-14.515,3.99-28.395,5.652-41.475,5.652c-65.795,0-111-42.13-111-42.13l183.144-39.885C909.186,218.71,915.01,0,915.01,0
            L358.176,495.258C295.116,551.344,250.776,625.424,231.14,707.501z"/>
    </symbol>
    <use fill="#264d4b" href="#author" width="10" height="10" x="0" y="210"/>
    <view id="author-green" viewBox="0 210 10 10" />

    <symbol id="books" viewBox="0 0 335.08 335.079">
        <path d="M311.175,115.775c-1.355-10.186-1.546-27.73,7.915-33.621c0.169-0.108,0.295-0.264,0.443-0.398
            c7.735-2.474,13.088-5.946,8.886-10.618l-114.102-34.38L29.56,62.445c0,0-21.157,3.024-19.267,35.894
            c1.026,17.89,6.637,26.676,11.544,31l-15.161,4.569c-4.208,4.672,1.144,8.145,8.88,10.615c0.147,0.138,0.271,0.293,0.443,0.401
            c9.455,5.896,9.273,23.438,7.913,33.626c-33.967,9.645-21.774,12.788-21.774,12.788l7.451,1.803
            c-5.241,4.736-10.446,13.717-9.471,30.75c1.891,32.864,19.269,35.132,19.269,35.132l120.904,39.298l182.49-44.202
            c0,0,12.197-3.148-21.779-12.794c-1.366-10.172-1.556-27.712,7.921-33.623c0.174-0.105,0.301-0.264,0.442-0.396
            c7.736-2.474,13.084-5.943,8.881-10.615l-7.932-2.395c5.29-3.19,13.236-11.527,14.481-33.183
            c0.859-14.896-3.027-23.62-7.525-28.756l15.678-3.794C332.949,128.569,345.146,125.421,311.175,115.775z M158.533,115.354
            l30.688-6.307l103.708-21.312l15.451-3.178c-4.937,9.036-4.73,21.402-3.913,29.35c0.179,1.798,0.385,3.44,0.585,4.688
            L288.14,122.8l-130.897,32.563L158.533,115.354z M26.71,147.337l15.449,3.178l99.597,20.474l8.701,1.782l0,0l0,0l26.093,5.363
            l1.287,40.01L43.303,184.673l-13.263-3.296c0.195-1.25,0.401-2.89,0.588-4.693C31.44,168.742,31.651,156.373,26.71,147.337z
             M20.708,96.757c-0.187-8.743,1.371-15.066,4.52-18.28c2.004-2.052,4.369-2.479,5.991-2.479c0.857,0,1.474,0.119,1.516,0.119
            l79.607,25.953l39.717,12.949l-1.303,40.289L39.334,124.07l-5.88-1.647c-0.216-0.061-0.509-0.103-0.735-0.113
            C32.26,122.277,21.244,121.263,20.708,96.757z M140.579,280.866L23.28,247.98c-0.217-0.063-0.507-0.105-0.733-0.116
            c-0.467-0.031-11.488-1.044-12.021-25.544c-0.19-8.754,1.376-15.071,4.519-18.288c2.009-2.052,4.375-2.479,5.994-2.479
            c0.859,0,1.474,0.115,1.519,0.115c0,0,0.005,0,0,0l119.316,38.908L140.579,280.866z M294.284,239.459
            c0.185,1.804,0.391,3.443,0.591,4.693l-147.812,36.771l1.292-40.01l31.601-6.497l4.667,1.129l17.492-5.685l80.631-16.569
            l15.457-3.18C293.261,219.146,293.466,231.517,294.284,239.459z M302.426,185.084c-0.269,0.006-0.538,0.042-0.791,0.122
            l-11.148,3.121l-106.148,29.764l-1.298-40.289l34.826-11.359l84.327-27.501c0.011-0.005,4.436-0.988,7.684,2.315
            c3.144,3.214,4.704,9.537,4.52,18.28C313.848,184.035,302.827,185.053,302.426,185.084z"/>
    </symbol>
    <use fill="#264d4b" href="#books" width="10" height="10" x="0" y="220"/>
    <view id="books-green" viewBox="0 220 10 10" />

    <symbol id="email" viewBox="0 0 483.3 483.3">
        <path d="M424.3,57.75H59.1c-32.6,0-59.1,26.5-59.1,59.1v249.6c0,32.6,26.5,59.1,59.1,59.1h365.1c32.6,0,59.1-26.5,59.1-59.1
            v-249.5C483.4,84.35,456.9,57.75,424.3,57.75z M456.4,366.45c0,17.7-14.4,32.1-32.1,32.1H59.1c-17.7,0-32.1-14.4-32.1-32.1v-249.5
            c0-17.7,14.4-32.1,32.1-32.1h365.1c17.7,0,32.1,14.4,32.1,32.1v249.5H456.4z"/>
        <path d="M304.8,238.55l118.2-106c5.5-5,6-13.5,1-19.1c-5-5.5-13.5-6-19.1-1l-163,146.3l-31.8-28.4c-0.1-0.1-0.2-0.2-0.2-0.3
            c-0.7-0.7-1.4-1.3-2.2-1.9L78.3,112.35c-5.6-5-14.1-4.5-19.1,1.1c-5,5.6-4.5,14.1,1.1,19.1l119.6,106.9L60.8,350.95
            c-5.4,5.1-5.7,13.6-0.6,19.1c2.7,2.8,6.3,4.3,9.9,4.3c3.3,0,6.6-1.2,9.2-3.6l120.9-113.1l32.8,29.3c2.6,2.3,5.8,3.4,9,3.4
            c3.2,0,6.5-1.2,9-3.5l33.7-30.2l120.2,114.2c2.6,2.5,6,3.7,9.3,3.7c3.6,0,7.1-1.4,9.8-4.2c5.1-5.4,4.9-14-0.5-19.1L304.8,238.55z"/>
    </symbol>
    <use fill="#264d4b" href="#email" width="10" height="10" x="0" y="230"/>
    <view id="email-green" viewBox="0 230 10 10" />

    <symbol id="fun" viewBox="0 0 512.002 512.002">
        <path fill="#264d4b" d="M500.436,26.299c-16.249-1.906-59.882-6.342-113.98-6.342c-47.76,0-81.229,13.715-96.931,21.891
            c-5.754,2.997-11.846,5.209-18.105,6.574c-10.231,2.231-20.607,2.232-30.837,0c-6.261-1.365-12.353-3.577-18.107-6.574
            c-15.7-8.176-49.17-21.891-96.93-21.891c-54.097,0-97.73,4.436-113.98,6.342C4.971,27.074,0,32.664,0,39.303v17.19
            c0,2.635,0.783,5.179,2.266,7.36C3.358,65.457,6.92,71.832,6.92,86.48c0,39.181,7.504,66.812,22.942,84.473
            c9.915,11.342,24.456,19.606,42.051,23.899c15.302,3.733,31.098,4.171,45.966,4.298c19.155,0.158,39.346-0.404,57.14-9.069
            c23.178-11.288,37.058-33.466,46.56-51.526c5.584-10.616,10.055-21.72,13.273-32.955l0.061-0.211
            c2.317-8.206,9.857-13.938,18.336-13.938h5.506c8.48,0,16.021,5.731,18.315,13.861l0.068,0.241
            c3.229,11.277,7.699,22.381,13.286,33.001c9.502,18.061,23.381,40.239,46.559,51.526c16.38,7.977,34.791,9.09,52.556,9.09
            c1.534,0,3.063-0.008,4.586-0.021c14.866-0.127,30.661-0.564,45.964-4.298c17.596-4.293,32.137-12.558,42.051-23.899
            c15.438-17.661,22.942-45.292,22.942-84.473c0-14.647,3.563-21.022,4.654-22.627c1.482-2.179,2.266-4.724,2.266-7.36v-17.19
            C512,32.664,507.028,27.073,500.436,26.299z "/>
        <path fill="#ffffff" d="M479.671,54.386c-2.568-3.509-6.528-5.722-10.864-6.072c-19.029-1.542-48.763-3.38-82.351-3.38
            c-42.435,0-71.719,11.946-85.4,19.068l-0.279,0.146c-3.866,1.997-6.585,5.406-7.656,9.599c-1.084,4.239-0.319,8.591,2.151,12.251
            c2.62,3.885,4.599,8.158,5.89,12.732c2.758,9.615,6.581,19.102,11.364,28.196c11.479,21.817,22.393,34.369,35.39,40.699
            c11.198,5.453,24.649,6.57,41.401,6.57c1.534,0,3.064-0.009,4.593-0.021c13.956-0.119,27.537-0.483,40.257-3.586
            c8.767-2.14,20.943-6.666,29.166-16.074c11.285-12.909,16.771-35.163,16.771-68.033c0-7.268,0.695-13.968,2.068-19.919
            C483.147,62.328,482.235,57.89,479.671,54.386z "/>
        <path fill="#ffffff" d="M218.873,73.744c-1.071-4.191-3.79-7.599-7.628-9.584l-0.306-0.159c-13.677-7.121-42.958-19.066-85.395-19.066
            c-33.606,0-63.333,1.838-82.35,3.38c-4.336,0.351-8.296,2.563-10.865,6.073c-2.565,3.506-3.476,7.944-2.5,12.175
            c1.372,5.954,2.067,12.655,2.067,19.919c0,32.871,5.486,55.125,16.771,68.032c8.224,9.409,20.4,13.936,29.168,16.075
            c12.718,3.103,26.298,3.467,40.255,3.586c1.525,0.013,3.06,0.021,4.592,0.021c16.751,0,30.202-1.117,41.399-6.57
            c12.996-6.328,23.911-18.88,35.391-40.699c4.789-9.104,8.622-18.624,11.401-28.323c1.268-4.49,3.235-8.73,5.847-12.603
            C219.192,82.338,219.956,77.985,218.873,73.744z "/>
        <path fill="#264d4b" d="M413.984,240.057c0.002-0.002,0-0.004-0.001-0.006c-2.511-3.112-6.867-3.953-10.357-2
            c-3.495,1.956-5.057,6.115-3.712,9.895c1.729,4.844,1.936,9.084,0.538,11.067c-1.351,1.916-5.029,2.971-10.358,2.971
            c-10.898,0-22.058-9.79-33.872-20.155c-15.593-13.68-33.266-29.185-57.216-29.185c-23.621,0-36.294,9.586-42.971,18.513
            c-1.601-2.155-3.546-4.337-5.905-6.407c-9.153-8.032-21.647-12.105-37.136-12.105c-23.95,0-41.623,15.505-57.216,29.185
            c-11.815,10.365-22.974,20.155-33.873,20.155c-5.329,0-9.008-1.056-10.358-2.972c-1.398-1.982-1.192-6.223,0.537-11.064
            c1.348-3.773-0.211-7.935-3.707-9.895c-3.492-1.956-7.85-1.116-10.365,2.003c-8.598,10.675-10.912,23.229-6.35,34.442
            c5.035,12.376,17.485,23.287,33.304,29.188c21.706,8.097,46.644,5.955,70.221-6.031c35.304-17.948,53.219-18.09,57.872-17.697
            c1.951,0.162,3.928,0.16,5.88,0c4.646-0.394,22.563-0.252,57.87,17.697c14.182,7.21,28.855,10.857,43.023,10.857
            c9.385,0,18.548-1.601,27.196-4.826c15.819-5.901,28.27-16.813,33.305-29.188C424.895,263.286,422.58,250.732,413.984,240.057z"/>
    </symbol>
    <use fill="#264d4b" href="#fun" width="10" height="10" x="0" y="240"/>
    <view id="fun-green" viewBox="0 240 10 10" />

    <symbol id="password" viewBox="0 0 512 512">
        <path d="M400,188h-36.037v-82.23c0-58.322-48.449-105.77-108-105.77c-59.551,0-108,47.448-108,105.77V188H112
            c-33.084,0-60,26.916-60,60v204c0,33.084,26.916,60,60,60h288c33.084,0,60-26.916,60-60V248C460,214.916,433.084,188,400,188z
             M187.963,105.77c0-36.266,30.505-65.77,68-65.77s68,29.504,68,65.77V188h-136V105.77z M420,452c0,11.028-8.972,20-20,20H112
            c-11.028,0-20-8.972-20-20V248c0-11.028,8.972-20,20-20h288c11.028,0,20,8.972,20,20V452z"/>
        <path d="M256,286c-20.435,0-37,16.565-37,37c0,13.048,6.76,24.51,16.963,31.098V398c0,11.045,8.954,20,20,20
            c11.045,0,20-8.955,20-20v-43.855C286.207,347.565,293,336.08,293,323C293,302.565,276.435,286,256,286z"/>
    </symbol>
    <use fill="#264d4b" href="#password" width="10" height="10" x="0" y="250"/>
    <view id="password-green" viewBox="0 250 10 10" />

    <symbol id="placeholder" viewBox="0 0 512 512">
        <path d="M256,0C156.748,0,76,80.748,76,180c0,33.534,9.289,66.26,26.869,94.652l142.885,230.257
            c2.737,4.411,7.559,7.091,12.745,7.091c0.04,0,0.079,0,0.119,0c5.231-0.041,10.063-2.804,12.75-7.292L410.611,272.22
            C427.221,244.428,436,212.539,436,180C436,80.748,355.252,0,256,0z M384.866,256.818L258.272,468.186l-129.905-209.34
            C113.734,235.214,105.8,207.95,105.8,180c0-82.71,67.49-150.2,150.2-150.2S406.1,97.29,406.1,180
            C406.1,207.121,398.689,233.688,384.866,256.818z"/>
        <path d="M256,90c-49.626,0-90,40.374-90,90c0,49.309,39.717,90,90,90c50.903,0,90-41.233,90-90C346,130.374,305.626,90,256,90z
             M256,240.2c-33.257,0-60.2-27.033-60.2-60.2c0-33.084,27.116-60.2,60.2-60.2s60.1,27.116,60.1,60.2
            C316.1,212.683,289.784,240.2,256,240.2z"/>
    </symbol>
    <use fill="#264d4b" href="#placeholder" width="10" height="10" x="0" y="260"/>
    <view id="placeholder-green" viewBox="0 260 10 10" />

    <symbol id="upload" viewBox="0 0 514.105 514.105">
        <polygon points="257.498,182.808 159.151,280.941 187.311,309.101 226.778,269.421 236.164,245.741 236.164,458.221
            278.831,458.221 278.831,245.955 287.578,269.208 327.684,309.101 355.631,281.155 		"/>
        <path d="M396.164,160.195h-2.133c-22.933-62.302-82.088-103.86-148.475-104.308c-88.01-0.594-159.838,70.271-160.431,158.281
            c0,3.413,0,6.613,0,10.027c-47.482,0.471-85.591,39.345-85.12,86.827c0.471,47.482,39.345,85.591,86.827,85.12h106.667v-42.667
            H86.831c-23.859,0-43.2-19.341-43.2-43.2s19.341-43.2,43.2-43.2l42.667,1.067c0,0-1.92-43.947-1.92-53.973
            c-0.469-54.972,37.561-102.788,91.229-114.704c62.801-13.944,125.014,25.663,138.958,88.464l4.693,20.053l20.053-3.627
            c4.496-0.916,9.066-1.416,13.653-1.493c41.591,0,75.307,33.716,75.307,75.307c0,41.591-33.716,75.307-75.307,75.307h-74.667
            v42.667h74.667c65.129-0.018,117.922-52.811,117.94-117.94C514.123,213.046,461.319,160.213,396.164,160.195z"/>
    </symbol>
    <use fill="#264d4b" href="#upload" width="10" height="10" x="0" y="270"/>
    <view id="upload-green" viewBox="0 270 10 10" />

    <symbol id="wishlist" viewBox="0 0 512.001 512.001">
        <path d="M250.5,472h-144c-22.056,0-40-17.944-40-40V80c0-22.056,17.944-40,40-40H352.39c22.056,0,40,17.944,40,40v189
            c0,11.046,8.954,20,20,20c11.046,0,20-8.954,20-20V80c0-44.112-35.888-80-80-80H106.5c-44.112,0-80,35.888-80,80v352
            c0,44.112,35.888,80,80,80h144c11.046,0,20-8.954,20-20C270.5,480.954,261.547,472,250.5,472z"/>
        <path d="M332.5,169h-126c-11.046,0-20,8.954-20,20s8.954,20,20,20h126c11.046,0,20-8.954,20-20S343.547,169,332.5,169z"/>
        <path d="M206.5,329c-11.046,0-20,8.954-20,20c0,11.046,8.954,20,20,20h30.028c11.046,0,20-8.954,20-20c0-11.046-8.954-20-20-20
            H206.5z"/>
        <path d="M332.5,89h-126c-11.046,0-20,8.954-20,20s8.954,20,20,20h126c11.046,0,20-8.954,20-20S343.547,89,332.5,89z"/>
        <path d="M352.5,269c0-11.046-8.954-20-20-20h-126c-11.046,0-20,8.954-20,20c0,11.046,8.954,20,20,20h126
            C343.547,289,352.5,280.046,352.5,269z"/>
        <circle cx="128.5" cy="269" r="20"/>
        <path d="M467.138,347.165C455.567,335.451,439.718,329,422.51,329c-17.123,0-31.911,5.445-42.992,15.601
            C368.44,334.445,353.651,329,336.529,329c-17.207,0-33.055,6.451-44.628,18.166c-11.842,11.987-18.363,28.842-18.363,47.458
            c0,39.23,33.325,64.076,60.1,84.039c12.178,9.079,23.68,17.655,30.303,25.881c3.797,4.715,9.524,7.457,15.578,7.457
            s11.781-2.743,15.578-7.457c6.623-8.226,18.125-16.802,30.303-25.881c26.777-19.964,60.101-44.81,60.101-84.04
            C485.5,376.007,478.979,359.152,467.138,347.165z M401.49,446.594c-7.444,5.55-15.026,11.203-21.972,17.172
            c-6.947-5.969-14.528-11.622-21.972-17.172c-21.636-16.131-44.009-32.812-44.009-51.971c0-15.805,8.809-25.623,22.99-25.623
            c11.838,0,16.444,4.872,18.88,8.537c3.225,4.851,4.058,10.243,4.179,11.146c0.596,10.582,9.316,18.873,19.932,18.873
            c10.616,0,19.336-8.29,19.932-18.872c0.12-0.901,0.954-6.295,4.179-11.147c2.436-3.665,7.043-8.537,18.881-8.537
            c14.18,0,22.99,9.818,22.99,25.623C445.5,413.783,423.128,430.463,401.49,446.594z"/>
        <circle cx="128.5" cy="109" r="20"/>
        <circle cx="128.5" cy="189" r="20"/>
        <circle cx="128.5" cy="349" r="20"/>
    </symbol>
    <use fill="#264d4b" href="#wishlist" width="10" height="10" x="0" y="280"/>
    <view id="wishlist-green" viewBox="0 280 10 10" />

    <symbol id="vkontakte" viewBox="0 0 65.716 37.495">
        <path d="M65.37,33.86c-0.08-0.171-0.154-0.314-0.223-0.428c-1.141-2.053-3.319-4.574-6.535-7.562l-0.069-0.068l-0.034-0.035
            l-0.034-0.033h-0.034c-1.46-1.392-2.384-2.327-2.771-2.807c-0.707-0.911-0.867-1.835-0.479-2.77c0.275-0.707,1.301-2.201,3.08-4.483
            c0.935-1.208,1.676-2.177,2.224-2.909c3.946-5.246,5.656-8.598,5.132-10.059l-0.206-0.342C65.284,2.158,64.93,1.97,64.36,1.799
            s-1.3-0.198-2.189-0.085l-9.854,0.07c-0.228-0.023-0.456-0.017-0.685,0.016c-0.228,0.035-0.376,0.069-0.445,0.103
            c-0.069,0.035-0.125,0.063-0.171,0.085l-0.137,0.103c-0.114,0.068-0.239,0.188-0.376,0.36c-0.137,0.171-0.252,0.37-0.342,0.599
            c-1.072,2.76-2.292,5.326-3.661,7.699c-0.844,1.414-1.62,2.641-2.326,3.678c-0.707,1.039-1.3,1.803-1.779,2.292
            c-0.479,0.49-0.913,0.885-1.3,1.18c-0.388,0.298-0.685,0.422-0.889,0.377c-0.206-0.045-0.4-0.091-0.582-0.138
            c-0.319-0.205-0.577-0.484-0.77-0.838c-0.194-0.353-0.325-0.798-0.394-1.334c-0.068-0.536-0.109-0.998-0.119-1.386
            c-0.012-0.388-0.006-0.935,0.017-1.642c0.023-0.707,0.034-1.185,0.034-1.437c0-0.866,0.017-1.807,0.052-2.823
            c0.034-1.015,0.063-1.819,0.085-2.412c0.023-0.592,0.034-1.22,0.034-1.882c0-0.66-0.04-1.18-0.12-1.557
            c-0.08-0.376-0.2-0.74-0.359-1.095c-0.16-0.353-0.394-0.627-0.702-0.82c-0.308-0.194-0.69-0.348-1.146-0.462
            c-1.21-0.274-2.749-0.421-4.619-0.445c-4.243-0.044-6.969,0.23-8.178,0.822c-0.479,0.252-0.913,0.593-1.3,1.027
            c-0.411,0.502-0.468,0.777-0.171,0.82c1.369,0.206,2.338,0.697,2.908,1.472l0.206,0.41c0.159,0.298,0.319,0.822,0.479,1.574
            c0.16,0.753,0.262,1.585,0.308,2.498c0.114,1.665,0.114,3.09,0,4.277c-0.114,1.187-0.222,2.11-0.325,2.77
            c-0.103,0.662-0.257,1.197-0.462,1.608c-0.206,0.412-0.342,0.663-0.411,0.754c-0.069,0.091-0.125,0.148-0.171,0.171
            c-0.297,0.113-0.604,0.171-0.924,0.171s-0.707-0.16-1.164-0.48c-0.456-0.318-0.93-0.758-1.42-1.317
            c-0.491-0.558-1.043-1.34-1.66-2.344c-0.616-1.003-1.255-2.189-1.916-3.558l-0.547-0.993c-0.342-0.638-0.81-1.568-1.403-2.788
            c-0.593-1.22-1.118-2.4-1.574-3.542c-0.183-0.478-0.456-0.843-0.821-1.095L12.9,2.159c-0.114-0.091-0.297-0.188-0.548-0.29
            c-0.252-0.103-0.513-0.177-0.787-0.223L2.19,1.714c-0.958,0-1.608,0.218-1.95,0.651L0.103,2.57C0.034,2.685,0,2.868,0,3.118
            C0,3.37,0.069,3.677,0.206,4.041c1.369,3.217,2.857,6.319,4.465,9.306c1.609,2.989,3.005,5.396,4.192,7.22
            c1.186,1.826,2.395,3.547,3.627,5.167s2.047,2.657,2.446,3.113c0.399,0.457,0.712,0.799,0.941,1.027l0.855,0.822
            c0.547,0.547,1.352,1.203,2.412,1.967c1.061,0.765,2.235,1.517,3.524,2.257c1.288,0.742,2.789,1.345,4.499,1.814
            c1.711,0.468,3.376,0.656,4.995,0.564h3.935c0.799-0.068,1.403-0.318,1.813-0.753l0.137-0.171c0.091-0.136,0.177-0.348,0.257-0.632
            c0.079-0.285,0.12-0.599,0.12-0.941c-0.024-0.981,0.051-1.866,0.222-2.652c0.171-0.787,0.365-1.38,0.582-1.78
            c0.217-0.398,0.461-0.735,0.736-1.009c0.274-0.274,0.467-0.438,0.582-0.496c0.114-0.056,0.206-0.096,0.274-0.12
            c0.547-0.182,1.191-0.005,1.933,0.53c0.741,0.537,1.437,1.197,2.087,1.985c0.65,0.787,1.431,1.67,2.344,2.652
            c0.912,0.981,1.71,1.71,2.395,2.189l0.685,0.412c0.456,0.273,1.049,0.524,1.779,0.753c0.73,0.227,1.369,0.285,1.916,0.171
            l8.759-0.138c0.867,0,1.54-0.142,2.019-0.428c0.479-0.283,0.764-0.599,0.855-0.941s0.097-0.728,0.017-1.163
            C65.529,34.333,65.449,34.031,65.37,33.86z"/>
    </symbol>
    <use fill="#264d4b" href="#vkontakte" width="10" height="10" x="0" y="290"/>
    <view id="vkontakte-green" viewBox="0 290 10 10" />
    <use fill="#444444" href="#vkontakte" width="10" height="10" x="0" y="300"/>
    <view id="vkontakte-gray" viewBox="0 300 10 10" />

    <symbol id="telegram" viewBox="0 0 63.918 54.832">
        <path d="M61.889,0.103L0.933,23.34c-1.228,0.477-1.245,2.384-0.047,2.931L16.5,32.675l5.815,18.34
            c0.346,0.988,1.577,1.32,2.372,0.639l8.931-8.311l16.979,11.261c0.881,0.551,2.042,0.053,2.248-0.965l11.04-51.852
            C64.121,0.633,62.986-0.323,61.889,0.103z M25.183,36.148l-0.992,9.428l-4.714-14.513L52.722,9.231L25.183,36.148z"/>
    </symbol>
    <use fill="#264d4b" href="#telegram" width="10" height="10" x="0" y="310"/>
    <view id="telegram-green" viewBox="0 310 10 10" />
    <use fill="#444444" href="#telegram" width="10" height="10" x="0" y="320"/>
    <view id="telegram-gray" viewBox="0 320 10 10" />

    <symbol id="errors" viewBox="0 0 451.74 451.74">
        <path style="fill:#264d4b" d="M446.324,367.381L262.857,41.692c-15.644-28.444-58.311-28.444-73.956,0L5.435,367.381
	c-15.644,28.444,4.267,64,36.978,64h365.511C442.057,429.959,461.968,395.825,446.324,367.381z"/>
        <path style="fill:#FFFFFF;" d="M225.879,63.025l183.467,325.689H42.413L225.879,63.025L225.879,63.025z"/>
        <path style="fill:#264d4b" d="M196.013,212.359l11.378,75.378c1.422,8.533,8.533,15.644,18.489,15.644l0,0
    c8.533,0,17.067-7.111,18.489-15.644l11.378-75.378c2.844-18.489-11.378-34.133-29.867-34.133l0,0
    C207.39,178.225,194.59,193.87,196.013,212.359z"/>
        <circle style="fill:#264d4b" cx="225.879" cy="336.092" r="17.067"/>
    </symbol>
    <use href="#errors" width="10" height="10" x="0" y="330"/>
    <view id="errors-green" viewBox="0 330 10 10" />

    <symbol id="adduser" viewBox="0 0 433.18 433.18">
        <path fill="#264d4b" d="M130.768,150c41.355,0,75-33.645,75-75s-33.645-75-75-75s-75,33.645-75,75S89.413,150,130.768,150z M130.768,30
		    c24.813,0,45,20.187,45,45s-20.187,45-45,45s-45-20.187-45-45S105.955,30,130.768,30z"/>
        <path fill="#264d4b" d="M296.732,174.321c-33.601,0-64.25,12.873-87.281,33.943C187.424,190.157,159.497,180,130.768,180
            c-68.236,0-123.75,55.514-123.75,123.75v15h161.159c7.458,64.327,62.261,114.43,128.555,114.43
            c71.368,0,129.43-58.062,129.43-129.43S368.101,174.321,296.732,174.321z M130.768,210c21.86,0,42.411,7.35,59.036,20.907
            c-11.523,16.861-19.161,36.574-21.627,57.843H38.216C45.418,244.162,84.179,210,130.768,210z M296.732,403.18
            c-54.826,0-99.43-44.604-99.43-99.43s44.604-99.429,99.43-99.429s99.43,44.604,99.43,99.429S351.559,403.18,296.732,403.18z"/>
        <polygon fill="#264d4b" points="311.732,242.134 281.732,242.134 281.732,288.75 235.116,288.75 235.116,318.75 281.732,318.75 281.732,365.366
		    311.732,365.366 311.732,318.75 358.349,318.75 358.349,288.75 311.732,288.75 	"/>
    </symbol>
    <use href="#adduser" width="10" height="10" x="0" y="340"/>
    <view id="adduser-green" viewBox="0 340 10 10" />

    <symbol id="statusdone" viewBox="0 0 46.124 46.125">
        <path fill="#264d4b" d="M37.727,0.062H8.397C3.759,0.062,0,3.822,0,8.46v29.204c0,4.639,3.759,8.398,8.397,8.398h29.33
            c4.637,0,8.397-3.76,8.397-8.398V8.46C46.125,3.822,42.365,0.062,37.727,0.062z M38.007,19.14L22.142,35.005
            c-0.673,0.674-1.586,1.052-2.538,1.052s-1.865-0.379-2.538-1.052l-7.863-7.863c-1.401-1.402-1.401-3.674,0.001-5.077
            c0.673-0.673,1.585-1.051,2.537-1.051c0.952,0,1.864,0.378,2.537,1.051l4.686,4.687c0.17,0.17,0.401,0.266,0.641,0.266
            c0.24,0,0.471-0.096,0.641-0.266l12.686-12.687c0.674-0.673,1.586-1.052,2.539-1.052c0.951,0.001,1.864,0.379,2.537,1.052
            C39.409,15.467,39.409,17.739,38.007,19.14z"/>
    </symbol>
    <use href="#statusdone" width="10" height="10" x="0" y="350"/>
    <view id="statusdone-green" viewBox="0 350 10 10" />

    <symbol id="bookmark" viewBox="-120 0 511 511.99905">
        <path d="m.5 45v451.992188c0 6.066406 3.648438 11.542968 9.257812 13.859374 5.625 2.328126 12.039063 1.054688
            16.347657-3.253906l109.394531-109.394531 109.390625 109.394531c4.332031 4.332032 10.820313 5.558594 16.347656
            3.253906 5.613281-2.316406 9.257813-7.792968 9.257813-13.859374v-451.992188c0-24.8125-20.183594-45-44.996094-45h-180c-24.816406
             0-45 20.1875-45 45zm0 0"/>
    </symbol>

    <symbol id="group" viewBox="0 0 499.421 499.421">
        <path d="M404.421,241.348c32.608,0,59.138-26.529,59.138-59.138s-26.529-59.138-59.138-59.138
            c-32.609,0-59.139,26.529-59.139,59.138S371.812,241.348,404.421,241.348z M404.421,153.073c16.066,0,29.138,13.071,29.138,29.138
            s-13.071,29.138-29.138,29.138c-16.067,0-29.139-13.071-29.139-29.138S388.354,153.073,404.421,153.073z"/>
        <path d="M499.421,361.348c0-52.383-42.617-95-95-95c-28.833,0-55.502,12.89-73.327,34.594
            c-21.772-19.047-50.252-30.607-81.384-30.607c-31.132,0-59.612,11.56-81.384,30.607c-17.826-21.704-44.494-34.594-73.327-34.594
            c-52.383,0-95,42.617-95,95v15h127.237c-0.835,5.795-1.276,11.715-1.276,17.737v15h247.5v-15c0-6.022-0.441-11.943-1.276-17.737
            h127.237V361.348z M31.747,346.348c6.789-28.635,32.573-50,63.253-50c21.302,0,40.883,10.289,52.983,27.357
            c-4.895,7.053-9.079,14.634-12.44,22.643H31.747z M157.159,379.086c7.202-44.588,45.962-78.75,92.551-78.75
            s85.35,34.162,92.551,78.75H157.159z M363.878,346.348c-3.362-8.009-7.546-15.59-12.44-22.643
            c12.099-17.068,31.681-27.357,52.983-27.357c30.681,0,56.465,21.365,63.253,50H363.878z"/>
        <path d="M95,241.348c32.609,0,59.138-26.529,59.138-59.138S127.609,123.073,95,123.073s-59.138,26.529-59.138,59.138
            S62.391,241.348,95,241.348z M95,153.073c16.066,0,29.138,13.071,29.138,29.138S111.066,211.348,95,211.348
            s-29.138-13.071-29.138-29.138S78.934,153.073,95,153.073z"/>
        <path d="M249.71,240.336c41.355,0,75-33.645,75-75s-33.645-75-75-75c-41.355,0-75,33.645-75,75S208.355,240.336,249.71,240.336z
             M249.71,120.336c24.813,0,45,20.187,45,45s-20.187,45-45,45c-24.813,0-45-20.187-45-45S224.897,120.336,249.71,120.336z"/>
    </symbol>

    <symbol id="home" viewBox="0 0 39.413 39.413">
        <path d="M39.108,18.186c-0.379,0.607-1.03,0.941-1.697,0.941c-0.36,0-0.729-0.098-1.059-0.304L19.707,8.428L3.061,18.824
            c-0.938,0.586-2.172,0.3-2.756-0.638c-0.586-0.937-0.301-2.171,0.637-2.756L18.647,4.373c0.647-0.405,1.471-0.405,2.119,0
            l17.707,11.058C39.409,16.017,39.694,17.249,39.108,18.186z M32.668,19.264l-11.9-7.433c-0.648-0.405-1.472-0.405-2.119,0
            L6.747,19.264c-0.585,0.365-0.939,1.006-0.939,1.696v12.384c0,1.104,0.896,2,2,2h6.567c1.104,0,2-0.896,2-2v-5.638
            c0-1.838,1.496-3.332,3.334-3.332c1.837,0,3.333,1.496,3.333,3.332v5.637c0,1.104,0.896,2,2,2h6.567c1.104,0,2-0.896,2-2V20.96
            C33.608,20.269,33.253,19.628,32.668,19.264z"/>
    </symbol>

    <symbol id="statistic" viewBox="0 0 231.233 231.233">
        <path d="M230.505,102.78c-0.365-3.25-4.156-5.695-7.434-5.695c-10.594,0-19.996-6.218-23.939-15.842
            c-4.025-9.855-1.428-21.346,6.465-28.587c2.486-2.273,2.789-6.079,0.705-8.721c-5.424-6.886-11.586-13.107-18.316-18.498
            c-2.633-2.112-6.502-1.818-8.787,0.711c-6.891,7.632-19.27,10.468-28.836,6.477c-9.951-4.187-16.232-14.274-15.615-25.101
            c0.203-3.403-2.285-6.36-5.676-6.755c-8.637-1-17.35-1.029-26.012-0.068c-3.348,0.37-5.834,3.257-5.723,6.617
            c0.375,10.721-5.977,20.63-15.832,24.667c-9.451,3.861-21.744,1.046-28.621-6.519c-2.273-2.492-6.074-2.798-8.725-0.731
            c-6.928,5.437-13.229,11.662-18.703,18.492c-2.133,2.655-1.818,6.503,0.689,8.784c8.049,7.289,10.644,18.879,6.465,28.849
            c-3.99,9.505-13.859,15.628-25.156,15.628c-3.666-0.118-6.275,2.345-6.68,5.679c-1.016,8.683-1.027,17.535-0.049,26.289
            c0.365,3.264,4.268,5.688,7.582,5.688c10.07-0.256,19.732,5.974,23.791,15.841c4.039,9.855,1.439,21.341-6.467,28.592
            c-2.473,2.273-2.789,6.07-0.701,8.709c5.369,6.843,11.537,13.068,18.287,18.505c2.65,2.134,6.504,1.835,8.801-0.697
            c6.918-7.65,19.295-10.481,28.822-6.482c9.98,4.176,16.258,14.262,15.645,25.092c-0.201,3.403,2.293,6.369,5.672,6.755
            c4.42,0.517,8.863,0.773,13.32,0.773c4.23,0,8.461-0.231,12.692-0.702c3.352-0.37,5.834-3.26,5.721-6.621
            c-0.387-10.716,5.979-20.626,15.822-24.655c9.514-3.886,21.752-1.042,28.633,6.512c2.285,2.487,6.063,2.789,8.725,0.73
            c6.916-5.423,13.205-11.645,18.703-18.493c2.135-2.65,1.832-6.503-0.689-8.788c-8.047-7.284-10.656-18.879-6.477-28.839
            c3.928-9.377,13.43-15.673,23.65-15.673l1.43,0.038c3.318,0.269,6.367-2.286,6.768-5.671
            C231.476,120.379,231.487,111.537,230.505,102.78z M115.616,182.27c-36.813,0-66.654-29.841-66.654-66.653
            s29.842-66.653,66.654-66.653s66.654,29.841,66.654,66.653c0,12.495-3.445,24.182-9.428,34.176l-29.186-29.187
            c2.113-4.982,3.229-10.383,3.228-15.957c0-10.915-4.251-21.176-11.97-28.893c-7.717-7.717-17.978-11.967-28.891-11.967
            c-3.642,0-7.267,0.484-10.774,1.439c-1.536,0.419-2.792,1.685-3.201,3.224c-0.418,1.574,0.053,3.187,1.283,4.418
            c0,0,14.409,14.52,19.23,19.34c0.505,0.505,0.504,1.71,0.433,2.144l-0.045,0.317c-0.486,5.3-1.423,11.662-2.196,14.107
            c-0.104,0.103-0.202,0.19-0.308,0.296c-0.111,0.111-0.213,0.218-0.32,0.328c-2.477,0.795-8.937,1.743-14.321,2.225l0.001-0.029
            l-0.242,0.061c-0.043,0.005-0.123,0.011-0.229,0.011c-0.582,0-1.438-0.163-2.216-0.94c-5.018-5.018-18.862-18.763-18.862-18.763
            c-1.242-1.238-2.516-1.498-3.365-1.498c-1.979,0-3.751,1.43-4.309,3.481c-3.811,14.103,0.229,29.273,10.546,39.591
            c7.719,7.718,17.981,11.968,28.896,11.968c5.574,0,10.975-1.115,15.956-3.228l29.503,29.503
            C141.125,178.412,128.825,182.27,115.616,182.27z"/>
    </symbol>
</svg>