<svg display="none" xmlns="http://www.w3.org/2000/svg">

    <symbol id="letter-1" fill="#ffffff" viewBox="0 0 177.8 146.8">
        <g>
            <g>
                <path d="M73.2,74.3H29.5L23.6,89C19.3,99.9,19,103,19,104.2c0,4.5,0.8,11,15.4,11v0.6H0.4v-0.6c12.2,0,17.9-15.2,22.1-25.8L59.1-2
			h0.5l44.3,108.2c2.9,6.9,6.6,9.1,13.9,9.1v0.6H73v-0.6c12.3,0,13.8-2.7,13.8-5.3c0-1.3-0.5-2.7-1-4L73.2,74.3z M29.8,73.4h43
			L51.6,19L29.8,73.4z"/>
            </g>
            <g>
                <path d="M59.1-2c25.6,62.5,44.5,108.1,45.4,109.9c0.9,1.7,2.1,3.1,2.1,3.1c0.4,0.5,0.8,0.9,1,1c0.5,0.5,1.6,1.4,3.1,2.2
		c1.4,0.7,2.6,0.9,3.4,1c1.5,0.2,2.8,0.2,3.7,0.1c0-39.1,0-78.2,0-117.3C98.3-2,78.7-2,59.1-2z"/>
            </g>
        </g>
    </symbol>

    <symbol id="letter-2" fill="#ffffff" viewBox="0 0 177.8 146.8">
        <g>
            <g>
                <path d="M77.3-0.6c2.9,0,7.7-0.3,9.1-2.4H87l4.2,38.1h-0.6C84.6,11.6,78.1,0.4,52,0.4H39.8c-4,0-6.1,1.6-6.1,9.3v41.4h24.8
			c23.5,0,38.1,12.2,38.1,32c0,20-15.4,31.8-38.1,31.8H0.5v-0.6c14.2,0,15.2-4.2,15.2-10.4V9.6c0-6.2-1-9.6-15.2-9.6v-0.6H77.3z
			 M33.7,51.9v53c0,5.8,1.8,9,5,9h15.2c13.9,0,24.6-15.7,24.6-30.7s-6.7-31.2-24.6-31.2C53.9,51.9,33.7,51.9,33.7,51.9z"/>
            </g>
            <g>
                <path d="M96.6,83.1v31.8H60.8c4.7-0.8,9.5-1.7,14.3-2.5c3-1.2,8.8-3.9,13.9-10C95.4,94.6,96.4,86.2,96.6,83.1z"/>
            </g>
        </g>
    </symbol>

    <symbol id="letter-3" fill="#ffffff" viewBox="0 0 177.8 146.8">
        <g>
            <path d="M59.5,115.7H0.3V115c14.2,0,15.2-4.2,15.2-10.4V10.4c0-6.2-1-9.6-15.2-9.6V0.1h47.5c27.5,0,43.7,7.5,43.7,28.3
			c0,12.5-10.1,23.8-28.5,26.7c24.5,2.7,34.6,14.4,34.6,29.3C97.6,103,83.1,115.7,59.5,115.7z M48.2,1.1h-4.5
			c-4.8,0-10.1,0.2-10.1,9.1v45.3h19c12,0,20.8-11.5,20.8-26.6C73.5,13.3,67.4,1.1,48.2,1.1z M51.2,56.3H33.6v48.3
			c0,10.1,5.9,10.2,11.7,10.2h5.3c15.8,0,29-9.6,29-30.4C79.5,66.5,68.2,56.3,51.2,56.3z"/>
        </g>
        <g>
            <path d="M50.2,0.2c0-0.3,23.7,0,23.7,0C88.1,0.4,108,0.5,132.6,0c0.2,19.3,0.4,38.6,0.6,57.8c0.2,19.3,0.3,38.5,0.4,57.8
		c-58.2,0.4-71.8,0.3-71.8,0.1c0-0.1,2.5-0.1,6.3-0.9c1.4-0.3,4.7-1,8-2.4c6.1-2.6,9.9-6.8,11.3-8.3c3-3.3,8.9-9.9,8.6-19.1
		c-0.3-8.4-5.6-14.3-9-18c-1.7-1.8-4.5-4.9-9.1-7.2c-3.7-1.9-7.8-2.9-11.6-3.9c-1.1-0.3-2.2-0.5-3.1-0.7c2.7-0.6,17.7-4.5,24-17
		c2.4-4.8,2.8-9.3,2.8-10.1c0.2-2.4,0.7-9.3-3.8-15.2c-0.4-0.5-0.7-0.9-1-1.2c-2.7-3-8.2-7.6-20.3-10C56.4-0.1,50.2,0.3,50.2,0.2z"/>
        </g>
    </symbol>

    <symbol id="letter-4" fill="#ffffff" viewBox="0 0 177.8 146.8">
        <g>
            <path d="M0.5,114.3c14.2,0,15.2-4.2,15.2-10.4V9.6c0-6.2-1-9.6-15.2-9.6v-0.6h77c3,0,7.8-0.3,9.1-2.4h0.8l4.2,38.1h-0.8
		C84.2,8.8,77.8,0.4,49.3,0.4H40c-3,0-6.1,1.3-6.1,10.2v93.3c0,7.5,2.4,10.4,17.1,10.4v0.6H0.5V114.3z"/>
        </g>
    </symbol>

    <symbol id="letter-5" fill="#ffffff" viewBox="0 0 177.8 146.8">
        <g>
            <path d="M96.3,103.6c0,8,4.8,10.4,15.7,10.4l2.6,31.8h-0.6c-4.6-30.9-20-30.9-35.5-30.9H29.6c-13.1,0-25.4,4.6-29.4,30.9h-0.6
		L1.8,114h12.2c14.2-10.4,25-44.5,25-96.2c0-6.6-1.6-17.8-16-17.8v-0.6h88.8v0.6C98.6,0.1,96.3,2,96.3,9.7V103.6z M78.4,8.1
		c0-5.9-1.8-7.7-5.6-7.7h-16c-14.2,0-17,7-17,17.4c0,37.1-6.1,78.1-22.6,96.2h54.2c4.5,0,6.9-1.6,6.9-7.7V8.1z"/>
        </g>
    </symbol>

    <symbol id="letter-6" fill="#ffffff" viewBox="0 0 177.8 146.8">
        <g>
            <path d="M74.3-0.3c3.8,0,11,0,12.8-2.4h0.8l4.2,38.1h-0.8C85,11.4,78.9,0.7,52.4,0.7H39.6c-3,0-6.1,1.3-6.1,10.2v44h12.2
		c10.9,0,22.7-6.1,22.9-27h0.6v54.7h-0.6c-0.2-21-12-26.9-22.9-26.9H33.5v48.5c0,7.5,2.7,10.2,6.9,10.2h12.3c25.3,0,33-1,42.9-41
		h0.6l-4.6,41.8H0.1v-0.6c14.4,0,15.5-4.2,15.5-10.4V10.9c0-7.2-1.4-10.6-15.5-10.6v-0.6H74.3z"/>
        </g>
    </symbol>

    <symbol id="letter-7" fill="#ffffff" viewBox="0 0 177.75 146.81">
        <g>
            <g>
                <path d="M58.88,114.28c13.12,0,15.36-2.72,15.36-10.4V55.56h-8c-26.24,0-15.68,61.12-50.88,61.12c-7.52,0-12.64-4.48-15.2-9.12
			l0.64-0.48c2.08,3.52,5.28,5.92,8,5.92c6.4,0,9.76-10.88,13.28-20c7.84-20.8,13.6-37.92,42.72-38.24L30.56,13.8
			C25.12,7.4,14.4,0.04,4,0.04V-0.6h39.52v0.64c-6.72,0.32-13.6,3.2-13.6,8.16c0,1.6,0.64,3.52,2.4,5.6l33.6,40.96h8.32V11.24
			c0-7.52-2.24-11.2-15.36-11.2V-0.6h48.8v0.64c-13.12,0-15.36,3.68-15.36,11.2v43.52h8.32l33.6-40.96c1.76-2.08,2.4-4,2.4-5.6
			c0-4.96-6.88-7.84-13.6-8.16V-0.6h39.52v0.64c-10.4,0-21.12,7.36-26.56,13.76l-34.24,40.96c29.12,0.32,34.88,17.44,42.72,38.24
			c3.52,9.12,6.88,20,13.28,20c2.72,0,5.92-2.4,8-5.92l0.64,0.48c-2.56,4.64-7.68,9.12-15.2,9.12c-35.2,0-24.64-61.12-50.88-61.12
			h-8v48.32c0,7.68,2.24,10.4,15.36,10.4v0.64h-48.8L58.88,114.28L58.88,114.28z"/>
            </g>
            <g>
                <rect x="83.28" y="-0.6" width="83.12" height="115.47"/>
            </g>
        </g>
    </symbol>

    <symbol id="letter-8" fill="#ffffff" viewBox="0 0 177.8 146.8">
        <g>
            <g>
                <path d="M65.5,85.4c0-16.8-10.6-27-22.9-27H29v-1h13.6c9.3,0,19.5-11.8,19.5-28.2C62.1,8.8,49.3,1.4,38,1.4
			c-14.6,0-28.5,11-33.8,41.8H3.6L6.9-0.2h0.8c0.6,2.6,2.4,5.3,6.9,5.3c8,0,14.7-5.4,29.3-5.4c21.4,0,36,10.2,36,29.8
			c0,13.8-10.9,24.3-27.5,28c18.4,2.4,31.4,12.6,31.4,28.5c0,22.1-22.2,34.1-43.5,34.1c-17.9,0-40.5-9.3-40.5-34.1
			c0-5.6,2.1-9.9,7.2-9.9c4.3,0,7.8,3.5,7.8,8.2c0,5-2.1,10.2-2.1,15.4c0,9,6.2,19.4,26.2,19.4C53,118.9,65.5,103.5,65.5,85.4z"/>
            </g>
            <g>
                <path d="M41.7,120c31.2,0,62.5-0.1,93.7-0.1c0.3-40,0.6-79.9,0.9-119.9c-29.4-0.1-58.9-0.2-88.3-0.3c1.8,0.1,15.5,0.7,24.6,12.6
		c8.5,11.2,6.2,23.7,5.8,25.6c-2.2,3.3-6.3,8.7-13.1,13.2c-5.6,3.7-10.9,5.3-14.4,6.2c3.9,0.8,9.8,2.7,15.7,6.9
		c11.6,8.3,15.3,20.3,16.3,24.3c-0.7,9.5-4.8,15-6.6,17.1c-4.2,4.9-9.1,6.8-16.5,9.7C53.5,117.7,47.3,119.2,41.7,120z"/>
            </g>
        </g>
    </symbol>

    <symbol id="letter-9" fill="#ffffff" viewBox="0 0 177.75 146.81">
        <g>
            <g>
                <path d="M34.06,103.88c0,7.68,2.24,10.4,15.36,10.4v0.64H0.62v-0.64c14.4,0,15.52-4.16,15.52-10.4V11.24
			c0-6.24-1.12-11.2-15.52-11.2V-0.6h48.8v0.64c-13.12,0-15.36,3.68-15.36,11.2v83.04l56.8-77.44v-5.6c0-7.52-2.24-11.2-15.36-11.2
			V-0.6h48.8v0.64c-14.4,0-15.52,4.96-15.52,11.2v92.64c0,6.24,1.12,10.4,15.52,10.4v0.64H75.5v-0.64c13.12,0,15.36-2.72,15.36-10.4
			V18.76l-56.8,77.28V103.88z"/>
            </g>
        </g>
    </symbol>

    <symbol id="letter-10" fill="#ffffff" viewBox="0 0 177.75 146.81">
        <g>
            <g>
                <path d="M48.98-0.42v0.64c-15.04,0-15.36,4.64-15.36,14.24v40.48h8.32L81.3,13.99c1.92-2.08,2.72-3.84,2.72-5.6
			c0-4.8-6.88-8-13.92-8.16v-0.64h39.52v0.64c-10.24,0-18.56,6.08-24.64,11.52l-41.92,43.2c29.12,0.32,40,17.44,48.32,38.24
			c3.68,9.12,8,20,14.4,20c2.72,0,5.6-2.4,7.84-5.92l0.8,0.48c-2.56,4.64-7.68,9.12-15.2,9.12c-35.52,0-31.36-61.12-57.6-61.12h-8
			v48.32c0,7.68,2.24,10.4,15.36,10.4v0.64H0.18v-0.64c14.24,0,15.2-4.16,15.2-10.4V9.83c0-6.24-0.96-9.6-15.2-9.6v-0.64L48.98-0.42
			L48.98-0.42z"/>
            </g>
            <g>
                <path d="M113.62,107.27V-0.42c-1.93-0.22-4.75-0.31-8.04,0.42c-2.49,0.55-4.51,1.41-5.98,2.18c-1.67,0.53-4.27,1.47-7.24,3.07
		c0,0-3.36,1.81-6.61,4.41c-4.59,3.67-21.14,20.95-42.69,45.29c5.66,0.86,11.32,1.73,16.98,2.59c3.75,1.5,9.9,4.52,15.78,10.43
		c6.67,6.71,9.71,13.86,11.06,17.81c4.33,6.58,6.22,11.79,7.13,15.56c0.41,1.72,1.57,7.1,4.59,8.63c0.39,0.19,1.66,0.76,3.32,1.83
		c1.06,0.68,1.88,1.31,2.4,1.74c0.17,0.12,1.78,1.15,3.66,0.47c1.48-0.54,2.12-1.79,2.25-2.06c0.69-0.64,1.5-1.5,2.25-2.63
		C112.96,108.59,113.33,107.89,113.62,107.27z"/>
            </g>
        </g>
    </symbol>

    <symbol id="letter-11" fill="#ffffff" viewBox="0 0 177.8 146.8">
        <g>
            <path d="M26.4,0.1v-0.6h94.4v0.6c-13,0-15.2,1.9-15.2,9.6v95.2c0,7,2.2,9.4,15.2,9.4v0.6H72.5v-0.6c13,0,15.2-2.2,15.2-9.4V8.1
		c0-6.4-1.6-7.7-12-7.7H57.1c-7.7,0-11.5,9.1-11.5,16.8c0,41.1-2.9,99.7-30.7,99.7c-9.6,0-15.2-10.1-15.2-17.9
		c0-5.1,3.4-9.8,8.5-9.8s8,4.8,8,9.6c0,2.2-0.6,5.3-0.6,9.4c0,3.2,1,5.8,4.2,5.8c9.1,0,25-14.9,25-97C44.6,9.5,41.3,0.1,26.4,0.1z"
            />
        </g>
    </symbol>

    <symbol id="letter-12" fill="#ffffff" viewBox="0 0 177.8 146.8">
        <g>
            <g>
                <path d="M17.75,6.44V89.8c0,9.92,0.8,24.48,16,24.48v0.64H-0.02v-0.64c15.52,0,16.8-13.92,16.8-24v-72c0-10.56,0-18.24-16.8-18.24
			V-0.6h35.04l35.36,90.4l35.68-90.4h32.16v0.64c-14.4,0-15.52,4.96-15.52,11.2v92.64c0,6.24,1.12,10.4,15.52,10.4v0.64h-31.38
			H89.42v-0.64c13.12,0,15.36-4.16,15.36-10.4l-0.64-97.44L60.79,114.92L18.39,6.44H17.75z"/>
            </g>
            <polygon points="60.79,114.92 104.14,6.44 106.84,114.92 	"/>
        </g>
    </symbol>

    <symbol id="letter-13" fill="#ffffff" viewBox="0 0 177.8 146.8">
        <g>
            <path d="M120.8-0.7v0.6c-13.1,0-15.5,3.2-15.5,11.4v92.5c0,7,1.4,10.4,15.5,10.4v0.6H72v-0.6c13.1,0,15.4-2.7,15.4-10.4V55H33.8
		v48.8c0,7.7,2.2,10.4,15.4,10.4v0.6H0.3v-0.6c14.4,0,15.5-4.2,15.5-10.4V11.3c0-7.7-2.6-11.4-15.5-11.4v-0.6h48.8v0.6
		C36-0.1,33.8,3.6,33.8,11.1V54h53.6V11.1c0-8-2.4-11.2-15.4-11.2v-0.6H120.8z"/>
        </g>
    </symbol>

    <symbol id="letter-14" fill="#ffffff" viewBox="0 0 177.8 146.8">
        <g>
            <g>
                <path d="M52.9,120C20.4,120,0.6,94.1,0.6,60.2c0-33.8,19.8-59.8,52.3-59.8c32.6,0,52.3,26.1,52.3,59.8
				C105.2,94.1,85.5,120,52.9,120z M52.9,1.1c-21.1,0-33.6,25.1-33.6,59c0,34.1,12.5,59,33.6,59c21.3,0,33.8-25,33.8-59
				C86.7,26.2,74.2,1.1,52.9,1.1z"/>
            </g>
            <g>
                <path d="M52.9,120l91.1-0.9V0c-30.4,0.1-60.7,0.3-91.1,0.4C57,0.7,73.1,2.5,85.8,15.9c16.9,18,13.2,41.4,12.7,44.1
		c0.8,3.6,4,20.7-6.5,37.2C78.8,117.8,55.5,119.8,52.9,120z"/>
            </g>
        </g>
    </symbol>

    <symbol id="letter-15" fill="#ffffff" viewBox="0 0 177.75 146.81">
        <g>
            <path d="M86.94,11.23c0-6.72-2.24-10.4-15.36-10.4H48.7c-13.12,0-15.36,3.68-15.36,10.4v93.12c0,7.68,2.24,10.4,15.36,10.4v0.64
		H-0.1v-0.64c14.4,0,15.52-4.16,15.52-10.4V10.91c0-6.24-1.12-10.4-15.52-10.4v-0.64h120.48v0.64c-14.56,0-15.52,4.16-15.52,10.4
		v93.44c0,6.24,0.96,10.4,15.52,10.4v0.64h-48.8v-0.64c13.12,0,15.36-2.72,15.36-10.4V11.23z"/>
        </g>
    </symbol>

    <symbol id="letter-16" fill="#ffffff" viewBox="0 0 177.75 146.81">
        <g>
            <g>
                <path d="M57.34-0.13c21.92,0,38.24,12.48,38.24,32.32c0,20-16.32,36.32-41.12,36.32c-7.2,0-15.04-1.44-21.12-5.44v41.28
			c0,7.52,2.4,10.4,16.96,10.4v0.64H-0.1v-0.64c14.4,0,15.52-4.16,15.52-10.4V11.07c0-6.24-1.12-10.56-15.52-10.56v-0.64
			C-0.1-0.13,57.34-0.13,57.34-0.13z M53.98,0.83h-9.44c-4.8,0-11.2,1.6-11.2,10.24v39.2c0,10.72,4.16,17.12,18.24,17.12
			c17.6,0,25.76-18.08,25.76-35.2C77.34,15.39,67.74,0.83,53.98,0.83z"/>
            </g>
            <g>
                <path d="M61.14,0l34.44-0.13v32.32c-1.11-4.07-3.77-11.66-10.39-18.78C76.1,3.64,65.24,0.84,61.14,0z"/>
            </g>
        </g>
    </symbol>

    <symbol id="letter-17" fill="#ffffff" viewBox="0 0 177.8 146.8">
        <g>
            <g>
                <path d="M80.8,7.7c3,0,5.3-2.6,6.1-7.2h0.8l3.7,44.3h-0.8C84,13.3,65.9,1.4,53.1,1.4c-22.1,0-34.7,23-34.7,59.4
			c0,37.4,15.7,57.9,36,57.9s32.8-17.3,34.7-39.2c0.2-2.4,1.4-3.4,2.4-3.4c1.8,0,2.6,1.3,2.6,2.7c-0.6,23.7-19.5,41.4-42.1,41.4
			c-32.3,0-52.5-24.6-52.5-57.4C-0.5,31,16.8,0.3,51.4,0.3C64.3,0.3,74.7,7.7,80.8,7.7z"/>
            </g>
            <path d="M52,120.3c29-0.3,57.9-0.6,86.9-0.9c0-14.3,0-28.5,0-42.8c-15.8-0.2-31.6-0.4-47.4-0.5c0.3,3.7,0.6,15.5-7.2,26.7
		C73.1,118.9,54.5,120.2,52,120.3z"/>
        </g>
    </symbol>

    <symbol id="letter-18" fill="#ffffff" viewBox="0 0 177.8 146.8">
        <g>
            <path d="M61.7,104.1c0,6.2,1.1,10.4,15.5,10.4v0.6h-49v-0.6c14.4,0,15.5-4.2,15.5-10.4V7.8c0-6.1-0.3-7.2-3.5-7.2h-3.8
		c-24,0-29.1,9.9-36.2,34.7h-0.6L3.8-2.8h0.6c1.4,2.1,6.9,2.4,9.8,2.4h77.1c3,0,8.5-0.3,9.9-2.4h0.6l4.2,38.1h-0.6
		c-5.8-22.2-11-34.7-36.3-34.7h-4c-2.9,0-3.4,1.3-3.4,7.2V104.1z"/>
        </g>
    </symbol>

    <symbol id="letter-19" fill="#ffffff" viewBox="0 0 177.8 146.8">
        <g>
            <g>
                <path d="M32.8,99.7c0,1.9-1.6,4.5-1.6,7.5c0,3.7,1.8,8.6,9,8.6c6.2,0,13.4-6.2,19.7-21.8L21.8,18C16,6.5,12.8,0.7,0.7,0.4v-0.6h49
			v0.6c-11.4,0-13.8,3-13.8,6.2c0,3.8,1.1,5.4,3.7,10.6L68.7,75l25.6-60.6c0.6-1.6,1.3-3.5,1.3-5.1c0-3.8-2.7-8.8-13.9-8.8v-0.6h33
			v0.6c-8.8,0-15.7,5.6-19.2,13.9L61.2,94.1c-8.2,16.2-12,23.4-24.5,23.4c-10.1,0-21.3-5.8-21.3-18.1c0-5.8,3.5-10.7,8.6-10.7
			C29.8,88.7,32.8,93.5,32.8,99.7z"/>
            </g>
            <g>
                <path d="M38.2,117.5h76.4l1.3-117.8c-2.7-0.2-7.4-0.1-11.9,2.4c-5.4,3.1-8,8.2-9.2,10.8c-6.6,14.5-35.8,88.4-41.5,95.5
		c-1.9,2.3-4.7,4.8-4.7,4.8c-0.8,0.7-2,1.7-3.8,2.4c-0.7,0.3-1.2,0.5-2,0.7C41.7,116.7,40.2,117.1,38.2,117.5z"/>
            </g>
        </g>
    </symbol>

    <symbol id="letter-20" fill="#ffffff" viewBox="0 0 177.75 146.81">
        <g>
            <g>
                <path d="M70.82,18.46c32.96,0,52.96,14.56,52.96,40.48s-20,40.64-52.96,40.64v11.2c0,7.52,2.24,9.44,15.36,9.44v0.64H37.54v-0.64
			c13.12,0,15.36-1.92,15.36-9.44v-11.2c-32.96,0-53.12-14.72-53.12-40.64S19.94,18.46,52.9,18.46V9.34c0-7.68-2.24-9.6-15.36-9.6
			v-0.65h48.64v0.64c-13.12,0-15.36,1.92-15.36,9.6V18.46z M52.9,98.62v-79.2c-22.24,0-35.68,11.2-35.68,39.68
			C17.22,87.42,30.66,98.62,52.9,98.62z M70.82,19.42v79.2c22.24,0,35.52-11.2,35.52-39.52C106.34,30.62,93.06,19.42,70.82,19.42z"/>
            </g>
            <g>
                <rect x="61.78" y="-0.91" width="62" height="121.77"/>
            </g>
        </g>
    </symbol>

    <symbol id="letter-21" fill="#ffffff" viewBox="0 0 177.8 146.8">
        <g>
            <g>
                <path d="M75.4,98L51.2,60.5L32.8,88.1c-4,6.1-9,13.6-9,19.8c0,4.5,2.2,6.6,12.6,6.6v0.6H0.3v-0.6c16.5,0,24.8-16.2,31.7-26.6
			l18.7-28.2l-28-43.4C16.3,6.5,13.6,0.2,2.9,0.2v-0.6h48.6v0.6C39,0.2,38.9,3.9,38.9,5.5c0,3.2,1.3,5.3,4.8,10.9l20.6,32L84,19.3
			c2.6-3.8,4.3-7.7,4.3-11c0-4.3-1.9-8-11.2-8v-0.6h34.6v0.6c-12.2,0-21,10.2-26.9,19L64.7,49.2l36,55.5c4.2,6.4,8.3,9.8,17.1,9.8
			v0.6H67.2v-0.6c13.3,0,13.4-4.3,13.4-5.3C80.7,104.9,78.4,102.8,75.4,98z"/>
            </g>
            <g>
                <path d="M64.7,49.2C72.8,36.9,80.9,24.7,89,12.4c1.6-2.5,3.3-4.3,4.6-5.5c1.3-1.2,3.9-3.4,7.7-5.3c1.2-0.6,3.1-1.3,5.5-1.6
		c2-0.2,3.7,0,4.9,0.2c2,0,4.1,0,6.1,0v114.2c-2.8,0.2-6.9,0.1-10.9-2.1c-4.3-2.4-6.4-6.1-7.2-7.5C95.3,97.4,82.3,77,64.7,49.2z"/>
            </g>
        </g>
    </symbol>

    <symbol id="letter-22" fill="#ffffff" viewBox="0 0 177.8 146.8">
        <g>
            <path d="M0.6,114.3c14.4,0,15.5-4.5,15.5-10.7V10.5C16.1,4.2,15,0.1,0.6,0.1v-0.6h48.8v0.6c-13.1,0-15.4,2.7-15.4,10.4v93.1
		c0,6.7,2.2,10.4,15.4,10.4h22.9c13.1,0,15.4-3.7,15.4-10.4V10.5c0-7.7-2.2-10.4-15.4-10.4v-0.6h48.8v0.6
		c-14.6,0-15.5,4.2-15.5,10.4v93.1c0,8,4.8,10.7,15.7,10.7l2.6,31.5h-0.6c-4.6-30.9-20-30.9-35.5-30.9h-87V114.3z"/>
        </g>
    </symbol>

    <symbol id="letter-23" fill="#ffffff" viewBox="0 0 177.8 146.8">
        <g>
            <path d="M99.7,104.8c0,7.5,2.2,9.4,15.2,9.4v0.6H65.1v-0.6c14.4,0,16.6-1.9,16.6-9.4V58.6C72.9,63.2,59.3,68,47.5,68
		C27.8,68,15,60.2,15,38.3V9.6C15,2,12.8,0,0.3,0v-0.6H47V0C35.2,0,32.9,2,32.9,9.6v28.6c0,18.2,8.3,26.2,22.7,26.2
		c8.8,0,17.6-3,26.1-6.9v-48C81.8,2,79.5,0,67.7,0v-0.6h47.2V0c-13,0-15.2,1.9-15.2,9.6V104.8z"/>
        </g>
    </symbol>

    <symbol id="letter-24" fill="#ffffff" viewBox="0 0 177.8 146.8">
        <g>
            <g>
                <path d="M0.3,114.3c14.6,0,15.5-4.2,15.5-10.4V11.3c0-6.2-1-11.2-15.5-11.2v-0.7h48.2V0C35.4,0,33.8,3.7,33.8,11.2v93
			c0,7.4,2.2,9.8,8.5,9.8h28.5c6.2,0,8.3-2.4,8.3-9.8v-93C79.1,3.7,77.5,0,64.5,0v-0.6h47.2V0c-13,0-14.6,3.7-14.6,11.2v93
			c0,7.4,2.1,9.8,8.5,9.8h28.3c6.4,0,8.5-2.4,8.5-9.8v-93c0-7.5-1.6-11.2-14.7-11.2v-0.6h48.2V0c-14.6,0-15.5,5-15.5,11.2v92.6
			c0,6.2,1,10.4,15.5,10.4v0.6H0.3V114.3z"/>
            </g>
            <g>
                <rect x="88.1" y="-0.6" width="89.7" height="115.5"/>
            </g>
        </g>
    </symbol>

    <symbol id="letter-25" fill="#ffffff" viewBox="0 0 177.8 146.8">
        <g>
            <g>
                <path d="M159.8,103.4c0,8,4.8,10.7,15.7,10.7l2.6,31.5h-0.6c-4.6-30.9-20-30.9-35.5-30.9H0v-0.6c14.6,0,15.5-4.5,15.5-10.7V11
			c0-6.2-1-11.2-15.5-11.2v-0.6h48.2v0.6C35-0.2,33.4,3.5,33.4,11v92.3c0,7.4,2.2,10.4,8.5,10.4h28.5c6.2,0,8.3-3,8.3-10.4V11
			c0-7.5-1.6-11.2-14.6-11.2v-0.6h47.2v0.6c-13,0-14.6,3.7-14.6,11.2v92.3c0,7.4,2.1,10.4,8.5,10.4h28.3c6.4,0,8.5-3,8.5-10.4V11
			c0-7.5-1.6-11.2-14.7-11.2v-0.6h48.2v0.6C161-0.2,160,4.8,160,11L159.8,103.4z"/>
            </g>
            <g>
                <rect x="87.2" y="-0.8" width="90.3" height="146.4"/>
            </g>
        </g>
    </symbol>

    <symbol id="letter-26" fill="#ffffff" viewBox="0 0 177.8 146.8">
        <g>
            <g>
                <path d="M8.1,77.1c4.3,0,7.2,3.4,7.2,7.7c0,5-1.9,9.1-1.9,16c0,7.5,6.4,18.6,26.6,18.6c22.2,0,33.1-29.4,33.4-59.5H29.2v-1h44.2
			C72.7,23.7,63.3,1,42.2,1C27.1,1,10,10.2,3,44.8H2.3L5.9,0.2h0.6c0.6,2.8,1.8,6,6.7,6c8,0,15.8-6.2,29-6.2
			C75,0,91.9,27.7,91.9,61.4c0,35.2-22.1,58.9-52,58.9c-21.6,0-39.4-13.1-39.4-35C0.6,80.6,3.9,77.1,8.1,77.1z"/>
            </g>
            <g>
                <path d="M41.9,120.3c32.2-0.1,64.5-0.3,96.7-0.4c-0.3-40-0.5-79.9-0.8-119.9c-30.5,0-61.1,0-91.6,0c5.3,0.8,17.9,3.3,28.6,13.8
		c19.6,19.2,14.5,47.1,14,49.5c0,0.1,0.1,0.3,0.1,0.6c1.4,9.3-0.9,18-3.7,24.5c-0.5,1.2-2.8,6.6-6.9,11.9
		C66.5,115.7,47.5,119.4,41.9,120.3z"/>
            </g>
        </g>
    </symbol>

    <symbol id="letter-27" fill="#ffffff" viewBox="0 0 177.8 146.8">
        <g>
            <g>
                <path d="M106.9,117C74.4,117,55,91.1,55,57.2v-2.1H34v48.8c0,7.7,2.2,10.4,15.4,10.4v0.6H0.6v-0.6c14.4,0,15.5-4.2,15.5-10.4V11.2
			C16.1,5,15,0,0.6,0c0-1,0-2,0-3c16.3,0,32.6,0,48.9,0c0,1-0.1,2-0.1,3C36.3,0,34.1,3.7,34.1,11.2v42.9h21
			c1.1-32.3,20.3-56.8,51.8-56.8c32.6,0,51.8,26.1,51.8,59.8C158.7,91.1,139.5,117,106.9,117z M106.9-1.9c-21.1,0-33.1,25.1-33.1,59
			c0,34.1,12,59,33.1,59c21.3,0,33.3-25,33.3-59C140.1,23.2,128.1-1.9,106.9-1.9z"/>
            </g>
            <g>
                <path d="M129.8,9C119.2-1.7,105.6-5.5,96-0.7c-2.1,1-5.5,3.2-8.4,8c-2.3,1.5-8.1,5.9-11.4,14.1c-3.4,8.6-2,16.1-1.3,18.7
		c-1.2,2.1-3.2,6.3-3.4,12c-0.3,6,1.5,10.5,2.5,12.7c-0.7,3.1-1.5,7.8-0.9,13.5c0.7,6.9,3.1,12,4.8,15c0.4,2.1,1.2,4.9,2.8,7.7
		c3.8,6.7,9.8,9.8,12.3,10.9c1.6,1.1,3.3,2,4.8,2.6c13.3,5.4,27.3-2.6,31-4.8c3-4.5,5.7-9.6,7.9-15.2C151,58.3,136,22.1,129.8,9z"/>
            </g>
        </g>
    </symbol>

    <symbol id="letter-28" fill="#ffffff" viewBox="0 0 177.75 146.81">
        <g>
            <path d="M64.04,114.59c14.4,0,15.52-4.16,15.52-10.4V58.27H65.64c-25.12,0-16.8,58.56-52.48,58.56c-6.88,0-10.72-3.52-13.44-8
		c0.32-0.32,0.64-0.32,0.96-0.64c2.08,3.68,4.32,5.12,6.72,5.12c16,0,12.8-48.32,50.88-55.04C33.48,57.47,17,46.59,17,28.83
		C17,9.63,33.48-0.29,56.04-0.29H113v0.64c-14.4,0-15.52,4.32-15.52,10.56v93.28c0,6.24,1.12,10.4,15.52,10.4v0.64H64.04V114.59z
		 M58.6,0.67c-13.44,0-23.52,12.48-23.52,28.64c0,16.16,10.08,28,28.64,28h15.84V11.07c0-6.4-1.92-10.4-7.52-10.4H58.6z"/>
        </g>
    </symbol>

</svg>