<svg fill="#264d4b" height="512pt" viewBox="0 0 512 512" width="512pt" xmlns="http://www.w3.org/2000/svg"><path d="m492 434h-303.554688c-8.167968-22.15625-29.488281-38-54.445312-38s-46.277344 15.84375-54.445312 38h-59.554688c-11.046875 0-20 8.953125-20 20s8.953125 20 20 20h59.554688c8.167968 22.15625 29.488281 38 54.445312 38s46.277344-15.84375 54.445312-38h303.554688c11.046875 0 20-8.953125 20-20s-8.953125-20-20-20zm-358 38c-9.925781 0-18-8.074219-18-18s8.074219-18 18-18 18 8.074219 18 18-8.074219 18-18 18zm358-472h-472c-11.046875 0-20 8.953125-20 20v326c0 11.046875 8.953125 20 20 20h472c11.046875 0 20-8.953125 20-20v-326c0-11.046875-8.953125-20-20-20zm-20 326h-432v-286h432zm-287.054688-45.109375 160-80c14.707032-7.355469 14.722657-28.417969 0-35.777344l-160-80c-13.269531-6.636719-28.945312 3.023438-28.945312 17.886719v160c0 14.898438 15.703125 24.507812 28.945312 17.890625zm11.054688-145.53125 95.277344 47.640625-95.277344 47.640625zm0 0"/></svg>