<?xml version="1.0" encoding="iso-8859-1"?>
<!-- Generator: Adobe Illustrator 19.0.0, SVG Export Plug-In . SVG Version: 6.00 Build 0)  -->
<svg version="1.1" id="Capa_1" xmlns="http://www.w3.org/2000/svg" xmlns:xlink="http://www.w3.org/1999/xlink" x="0px" y="0px"
	 viewBox="0 0 512.002 512.002" style="enable-background:new 0 0 512.002 512.002;" xml:space="preserve">
<g>
	<g>
		<path fill="#264d4b" d="M500.436,26.299c-16.249-1.906-59.882-6.342-113.98-6.342c-47.76,0-81.229,13.715-96.931,21.891
			c-5.754,2.997-11.846,5.209-18.105,6.574c-10.231,2.231-20.607,2.232-30.837,0c-6.261-1.365-12.353-3.577-18.107-6.574
			c-15.7-8.176-49.17-21.891-96.93-21.891c-54.097,0-97.73,4.436-113.98,6.342C4.971,27.074,0,32.664,0,39.303v17.19
			c0,2.635,0.783,5.179,2.266,7.36C3.358,65.457,6.92,71.832,6.92,86.48c0,39.181,7.504,66.812,22.942,84.473
			c9.915,11.342,24.456,19.606,42.051,23.899c15.302,3.733,31.098,4.171,45.966,4.298c19.155,0.158,39.346-0.404,57.14-9.069
			c23.178-11.288,37.058-33.466,46.56-51.526c5.584-10.616,10.055-21.72,13.273-32.955l0.061-0.211
			c2.317-8.206,9.857-13.938,18.336-13.938h5.506c8.48,0,16.021,5.731,18.315,13.861l0.068,0.241
			c3.229,11.277,7.699,22.381,13.286,33.001c9.502,18.061,23.381,40.239,46.559,51.526c16.38,7.977,34.791,9.09,52.556,9.09
			c1.534,0,3.063-0.008,4.586-0.021c14.866-0.127,30.661-0.564,45.964-4.298c17.596-4.293,32.137-12.558,42.051-23.899
			c15.438-17.661,22.942-45.292,22.942-84.473c0-14.647,3.563-21.022,4.654-22.627c1.482-2.179,2.266-4.724,2.266-7.36v-17.19
			C512,32.664,507.028,27.073,500.436,26.299z "/>
	</g>
</g>
<g>
	<g>
		<path fill="#ffffff" d="M479.671,54.386c-2.568-3.509-6.528-5.722-10.864-6.072c-19.029-1.542-48.763-3.38-82.351-3.38
			c-42.435,0-71.719,11.946-85.4,19.068l-0.279,0.146c-3.866,1.997-6.585,5.406-7.656,9.599c-1.084,4.239-0.319,8.591,2.151,12.251
			c2.62,3.885,4.599,8.158,5.89,12.732c2.758,9.615,6.581,19.102,11.364,28.196c11.479,21.817,22.393,34.369,35.39,40.699
			c11.198,5.453,24.649,6.57,41.401,6.57c1.534,0,3.064-0.009,4.593-0.021c13.956-0.119,27.537-0.483,40.257-3.586
			c8.767-2.14,20.943-6.666,29.166-16.074c11.285-12.909,16.771-35.163,16.771-68.033c0-7.268,0.695-13.968,2.068-19.919
			C483.147,62.328,482.235,57.89,479.671,54.386z "/>
	</g>
</g>
<g>
	<g>
		<path fill="#ffffff" d="M218.873,73.744c-1.071-4.191-3.79-7.599-7.628-9.584l-0.306-0.159c-13.677-7.121-42.958-19.066-85.395-19.066
			c-33.606,0-63.333,1.838-82.35,3.38c-4.336,0.351-8.296,2.563-10.865,6.073c-2.565,3.506-3.476,7.944-2.5,12.175
			c1.372,5.954,2.067,12.655,2.067,19.919c0,32.871,5.486,55.125,16.771,68.032c8.224,9.409,20.4,13.936,29.168,16.075
			c12.718,3.103,26.298,3.467,40.255,3.586c1.525,0.013,3.06,0.021,4.592,0.021c16.751,0,30.202-1.117,41.399-6.57
			c12.996-6.328,23.911-18.88,35.391-40.699c4.789-9.104,8.622-18.624,11.401-28.323c1.268-4.49,3.235-8.73,5.847-12.603
			C219.192,82.338,219.956,77.985,218.873,73.744z "/>
	</g>
</g>
<g>
	<g>
		<path fill="#264d4b" d="M413.984,240.057c0.002-0.002,0-0.004-0.001-0.006c-2.511-3.112-6.867-3.953-10.357-2
			c-3.495,1.956-5.057,6.115-3.712,9.895c1.729,4.844,1.936,9.084,0.538,11.067c-1.351,1.916-5.029,2.971-10.358,2.971
			c-10.898,0-22.058-9.79-33.872-20.155c-15.593-13.68-33.266-29.185-57.216-29.185c-23.621,0-36.294,9.586-42.971,18.513
			c-1.601-2.155-3.546-4.337-5.905-6.407c-9.153-8.032-21.647-12.105-37.136-12.105c-23.95,0-41.623,15.505-57.216,29.185
			c-11.815,10.365-22.974,20.155-33.873,20.155c-5.329,0-9.008-1.056-10.358-2.972c-1.398-1.982-1.192-6.223,0.537-11.064
			c1.348-3.773-0.211-7.935-3.707-9.895c-3.492-1.956-7.85-1.116-10.365,2.003c-8.598,10.675-10.912,23.229-6.35,34.442
			c5.035,12.376,17.485,23.287,33.304,29.188c21.706,8.097,46.644,5.955,70.221-6.031c35.304-17.948,53.219-18.09,57.872-17.697
			c1.951,0.162,3.928,0.16,5.88,0c4.646-0.394,22.563-0.252,57.87,17.697c14.182,7.21,28.855,10.857,43.023,10.857
			c9.385,0,18.548-1.601,27.196-4.826c15.819-5.901,28.27-16.813,33.305-29.188C424.895,263.286,422.58,250.732,413.984,240.057z
			 "/>
	</g>
</g>

<g>
</g>
<g>
</g>
<g>
</g>
<g>
</g>
<g>
</g>
<g>
</g>
<g>
</g>
<g>
</g>
<g>
</g>
<g>
</g>
<g>
</g>
<g>
</g>
<g>
</g>
<g>
</g>
<g>
</g>
</svg>
