<?xml version="1.0" encoding="iso-8859-1"?>
<!-- Generator: Adobe Illustrator 19.0.0, SVG Export Plug-In . SVG Version: 6.00 Build 0)  -->
<svg version="1.1" id="Layer_1" xmlns="http://www.w3.org/2000/svg" xmlns:xlink="http://www.w3.org/1999/xlink" x="0px" y="0px"
	 viewBox="0 0 499.421 499.421" style="enable-background:new 0 0 499.421 499.421;" xml:space="preserve">
<g id="group">
	<path d="M404.421,241.348c32.608,0,59.138-26.529,59.138-59.138s-26.529-59.138-59.138-59.138
		c-32.609,0-59.139,26.529-59.139,59.138S371.812,241.348,404.421,241.348z M404.421,153.073c16.066,0,29.138,13.071,29.138,29.138
		s-13.071,29.138-29.138,29.138c-16.067,0-29.139-13.071-29.139-29.138S388.354,153.073,404.421,153.073z"/>
	<path d="M499.421,361.348c0-52.383-42.617-95-95-95c-28.833,0-55.502,12.89-73.327,34.594
		c-21.772-19.047-50.252-30.607-81.384-30.607c-31.132,0-59.612,11.56-81.384,30.607c-17.826-21.704-44.494-34.594-73.327-34.594
		c-52.383,0-95,42.617-95,95v15h127.237c-0.835,5.795-1.276,11.715-1.276,17.737v15h247.5v-15c0-6.022-0.441-11.943-1.276-17.737
		h127.237V361.348z M31.747,346.348c6.789-28.635,32.573-50,63.253-50c21.302,0,40.883,10.289,52.983,27.357
		c-4.895,7.053-9.079,14.634-12.44,22.643H31.747z M157.159,379.086c7.202-44.588,45.962-78.75,92.551-78.75
		s85.35,34.162,92.551,78.75H157.159z M363.878,346.348c-3.362-8.009-7.546-15.59-12.44-22.643
		c12.099-17.068,31.681-27.357,52.983-27.357c30.681,0,56.465,21.365,63.253,50H363.878z"/>
	<path d="M95,241.348c32.609,0,59.138-26.529,59.138-59.138S127.609,123.073,95,123.073s-59.138,26.529-59.138,59.138
		S62.391,241.348,95,241.348z M95,153.073c16.066,0,29.138,13.071,29.138,29.138S111.066,211.348,95,211.348
		s-29.138-13.071-29.138-29.138S78.934,153.073,95,153.073z"/>
	<path d="M249.71,240.336c41.355,0,75-33.645,75-75s-33.645-75-75-75c-41.355,0-75,33.645-75,75S208.355,240.336,249.71,240.336z
		 M249.71,120.336c24.813,0,45,20.187,45,45s-20.187,45-45,45c-24.813,0-45-20.187-45-45S224.897,120.336,249.71,120.336z"/>
</g>
</svg>
