<svg id="Layer_1" enable-background="new 0 0 56.69 56.69" height="512" viewBox="0 0 56.69 56.69" width="512" xmlns="http://www.w3.org/2000/svg">
    <path fill="#ffffff" d="m28.346 43.64c-8.434 0-15.294-6.86-15.294-15.294 0-8.432 6.86-15.292 15.294-15.292 8.431 0 15.291 6.86 15.291 15.292 0 8.433-6.86 15.294-15.291 15.294zm0-28.587c-7.33 0-13.294 5.963-13.294 13.292 0 7.331 5.964 13.294 13.294 13.294s13.291-5.964 13.291-13.294c0-7.329-5.961-13.292-13.291-13.292zm2.824-6.632-.018-.024c0-.001 0-.006 0-.006 0-.819-2.098-4.25-2.809-4.257-.709-.012-2.808 3.438-2.808 4.257 0 0 .001.005.001.006l-.015.024h.017c.023 1.266 1.268 2.292 2.805 2.292 1.542 0 2.786-1.026 2.807-2.292zm-5.648 39.85.017.024v.008c0 .817 2.098 4.247 2.808 4.255.712.011 2.808-3.438 2.808-4.255 0-.003 0-.008 0-.008l.016-.024h-.018c-.021-1.266-1.268-2.29-2.806-2.29-1.54 0-2.784 1.024-2.804 2.29zm22.748-17.102.025-.016h.008c.818 0 4.248-2.098 4.256-2.809.01-.711-3.438-2.808-4.256-2.808-.004 0-.008.001-.008.001l-.025-.016v.018c-1.264.021-2.289 1.268-2.289 2.805 0 1.54 1.025 2.786 2.289 2.807zm-39.849-5.647-.025.018c-.001 0-.004 0-.006 0-.818 0-4.25 2.097-4.258 2.808-.011.71 3.439 2.81 4.258 2.81.002 0 .005-.002.006-.002l.025.014v-.016c1.266-.023 2.291-1.27 2.291-2.806 0-1.54-1.025-2.784-2.291-2.806zm7.831-13.261-.027-.006c-.001-.003-.004-.005-.004-.005-.58-.579-4.489-1.521-4.998-1.025-.51.496.446 4.418 1.024 4.997.004.002.004.002.007.004l.007.026.01-.01c.912.88 2.518.723 3.605-.364 1.088-1.089 1.243-2.693.363-3.603zm24.187 32.169.027.007c0 .003.004.005.004.008.58.576 4.488 1.521 4.996 1.021.512-.496-.443-4.418-1.023-4.994 0-.005-.004-.005-.006-.005l-.008-.027-.01.01c-.912-.88-2.518-.722-3.605.366-1.088 1.087-1.242 2.69-.361 3.602zm3.991-28.178.006-.026c.004-.001.006-.004.008-.006.576-.578 1.52-4.488 1.021-4.997-.494-.508-4.416.446-4.994 1.025-.004.002-.004.004-.004.008l-.027.006.01.01c-.879.912-.723 2.517.365 3.604 1.088 1.089 2.691 1.243 3.602.363zm-32.169 24.187-.006.027c-.002 0-.004.005-.004.005-.58.579-1.524 4.488-1.027 4.994.498.515 4.42-.442 4.997-1.021.003 0 .004-.005.004-.005l.027-.01-.01-.008c.88-.912.722-2.52-.366-3.606-1.088-1.088-2.691-1.243-3.602-.364z"/></svg>