<svg id="Layer_1" enable-background="new 0 0 56.69 56.69" height="512" viewBox="0 0 56.69 56.69" width="512" xmlns="http://www.w3.org/2000/svg">
    <g><path fill="#ffffff"  d="m23.081 7.695.012-.019c0-.001-.001-.005-.001-.005 0-.639 1.636-3.328 2.188-3.318.555.006 2.189 2.68 2.189 3.318v.005l.014.019h-.016c-.017.986-.986 1.786-2.188 1.786-1.198 0-2.168-.8-2.187-1.786zm-13.353 17.72c.001 0 .004-.001.005-.001l.02.011v-.013c.986-.018 1.785-.988 1.785-2.187 0-1.2-.799-2.17-1.785-2.187v-.015l-.02.013c-.001 0-.004 0-.005 0-.638 0-3.313 1.635-3.318 2.188-.009.555 2.68 2.191 3.318 2.191zm3.012-11.637.005.021.008-.008c.711.686 1.962.563 2.811-.284.848-.849.969-2.099.283-2.808l.01-.011-.021-.005c-.001-.002-.003-.004-.003-.004-.452-.451-3.499-1.186-3.896-.799s.348 3.443.799 3.895c.001.002.001.002.004.003zm22.26-.273c.848.849 2.098.969 2.807.283l.012.01.004-.021c.002-.001.004-.003.006-.005.449-.45 1.186-3.498.797-3.895-.387-.396-3.443.348-3.893.799-.004.002-.004.003-.004.006l-.021.005.008.008c-.687.712-.564 1.963.284 2.81zm18.68 28.556c0 5.667-4.611 10.277-10.277 10.277h-30.114c-5.667 0-10.278-4.61-10.278-10.277 0-5.073 3.6-9.279 8.508-10.118.185-1.953.983-3.72 2.191-5.12-.37-1.178-.568-2.385-.568-3.598 0-6.693 5.446-12.14 12.141-12.14 4.938 0 9.352 2.998 11.213 7.528 7.523.139 13.603 6.29 13.603 13.845 0 .552-.039 1.119-.117 1.721 2.358 1.96 3.698 4.8 3.698 7.882zm-28.884-17.406c.715-.981 1.906-2.367 3.72-3.59 2.307-1.554 4.534-2.111 5.848-2.335-1.691-3.424-5.195-5.647-9.082-5.647-5.592.001-10.141 4.55-10.141 10.141 0 .696.074 1.391.222 2.078.636-.466 2.286-1.544 4.675-1.693 2.327-.146 4.062.67 4.758 1.046zm26.884 17.406c0-2.645-1.229-5.069-3.369-6.651l-.494-.365.102-.605c.121-.716.18-1.364.18-1.981 0-6.535-5.314-11.852-11.85-11.857l-.034.001c-1.148.052-3.06.29-5.139 1.326-2.857 1.424-4.426 3.556-5.086 4.586l-.534.919-.885-.59c-1.175-.783-2.543-1.197-3.956-1.197-.245 0-.788.048-.819.051-3.551.408-6.319 3.43-6.319 7.09v.917l-.912.12c-4.235.367-7.553 3.986-7.553 8.238 0 4.564 3.714 8.277 8.278 8.277h30.114c4.563-.002 8.276-3.715 8.276-8.279z"/></g></svg>