<svg id="Layer_1" enable-background="new 0 0 56.69 56.69" height="512" viewBox="0 0 56.69 56.69" width="512" xmlns="http://www.w3.org/2000/svg">
    <g><path fill="#ffffff"  d="m51.59 28.291c-1.139.288-2.307.433-3.469.433-6.367 0-11.979-4.296-13.646-10.447-1.301-4.793-.035-9.814 3.381-13.431l1.693-1.792-2.463.106c-1.307.057-2.596.255-3.83.591-4.504 1.221-8.263 4.122-10.584 8.17-2.076 3.621-2.769 7.772-2.021 11.829-.773-.152-1.561-.253-2.364-.253-6.839 0-12.402 5.563-12.402 12.399 0 .475.032.963.098 1.479-2.06 1.745-3.273 4.332-3.273 7.035 0 5.087 4.139 9.226 9.227 9.226h26.698c5.088 0 9.227-4.139 9.227-9.226 0-3.085-1.484-5.81-3.811-7.483 3.575-1.359 6.603-3.848 8.637-7.142l1.297-2.099zm-10.266 9.415c2.689 1.062 4.535 3.66 4.535 6.705 0 3.984-3.242 7.226-7.227 7.226h-26.697c-3.984 0-7.227-3.241-7.227-7.226 0-2.31 1.072-4.426 2.941-5.806l.494-.365-.102-.605c-.106-.631-.158-1.199-.158-1.738 0-5.734 4.666-10.399 10.402-10.399.968.008 3.551.16 6.074 1.954 2.039 1.45 3.033 3.258 3.45 4.151l.885-.59c1.024-.682 2.213-1.043 3.444-1.043 3.428 0 6.217 2.789 6.215 6.254v.916.001c.447-.007 1.01.023 1.644.156.521.108.967.26 1.327.409zm-9.185-9.735c-1.283 0-2.535.297-3.67.866-.485-.7-1.206-1.587-2.233-2.445-1.271-1.061-2.521-1.668-3.413-2.016-2.045-8.143 2.818-16.487 10.957-18.693.338-.092.682-.173 1.029-.241-2.674 3.879-3.523 8.713-2.264 13.359 1.902 7.021 8.307 11.924 15.576 11.924.488 0 .977-.021 1.463-.066-2.01 2.356-4.682 4.059-7.713 4.88-.137.037-.275.063-.412.091l-.012.003c-.369-.116-.745-.219-1.135-.289-.071-.727-.383-2.933-2.184-4.834-2.351-2.481-5.433-2.538-5.989-2.539z"/></g></svg>