<svg id="Layer_1" enable-background="new 0 0 56.69 56.69" height="512" viewBox="0 0 56.69 56.69" width="512" xmlns="http://www.w3.org/2000/svg">
    <path fill="#ffffff"  d="m43.402 45.215h-30.113c-5.667 0-10.278-4.611-10.278-10.277 0-5.074 3.6-9.28 8.508-10.119.441-4.664 4.353-8.297 9.096-8.297 1.466 0 2.894.348 4.183 1.013 2.568-3.76 6.866-6.058 11.442-6.058 7.643 0 13.859 6.216 13.859 13.857 0 .552-.039 1.119-.117 1.721 2.359 1.961 3.699 4.801 3.699 7.883-.001 5.666-4.613 10.277-10.279 10.277zm-22.788-26.694c-3.937 0-7.139 3.203-7.139 7.141v.917l-.912.12c-4.235.367-7.553 3.987-7.553 8.239 0 4.564 3.714 8.277 8.278 8.277h30.114c4.564 0 8.277-3.713 8.277-8.277 0-2.645-1.229-5.07-3.369-6.652l-.494-.365.102-.605c.121-.716.18-1.364.18-1.981 0-6.538-5.32-11.857-11.859-11.857-4.201 0-8.128 2.266-10.25 5.913l-.534.919-.885-.59c-1.175-.785-2.543-1.199-3.956-1.199z"/></svg>