<svg id="Layer_1" enable-background="new 0 0 56.69 56.69" height="512" viewBox="0 0 56.69 56.69" width="512" xmlns="http://www.w3.org/2000/svg">
    <g><path fill="#ffffff"  d="m51.688 33.816c1.207-1.721 1.867-3.785 1.867-5.899 0-3.035-1.373-5.938-3.699-7.882.078-.601.117-1.168.117-1.721 0-7.641-6.217-13.857-13.859-13.857-4.576 0-8.874 2.298-11.442 6.058-1.289-.666-2.717-1.013-4.183-1.013-4.743 0-8.654 3.633-9.096 8.297-4.908.839-8.508 5.046-8.508 10.119 0 4.858 3.431 8.983 8.049 10.012-.652 1.32-1.028 2.801-1.028 4.371 0 5.477 4.456 9.934 9.933 9.934h22.331c.359 0 .715-.021 1.051-.059 6.033-.578 10.584-5.592 10.584-11.66 0-2.493-.787-4.799-2.117-6.7zm-9.782-5.021c-2.227-3.181-5.816-5.063-9.711-5.063-5.315 0-9.993 3.585-11.419 8.635-1.076-.011-3.057.114-5.222 1.163-1.649.799-2.775 1.828-3.445 2.547-.01.013-.023.025-.032.036-4.073-.535-7.191-4.037-7.191-8.196 0-4.323 3.247-7.865 7.553-8.238l.912-.12v-.917c0-3.938 3.202-7.141 7.139-7.141 1.413 0 2.781.414 3.956 1.197l.885.59.534-.919c2.121-3.647 6.048-5.913 10.25-5.913 6.539 0 11.859 5.319 11.859 11.857 0 .618-.059 1.266-.18 1.981l-.102.606.494.365c2.141 1.582 3.369 4.007 3.369 6.652 0 1.52-.422 3.008-1.203 4.297-.706-.717-2.05-1.895-4.08-2.671-1.805-.688-3.397-.772-4.366-.748zm7.727 5.609c1.355 1.67 2.172 3.797 2.172 6.111 0 5.034-3.774 9.19-8.789 9.673-.277.029-.561.047-.846.047h-22.332c-4.374 0-7.933-3.559-7.933-7.934 0-1.631.496-3.148 1.343-4.41.384-.588 1.221-1.697 2.698-2.527 1.64-.922 3.184-1.002 3.892-.995h2.533l.166-.797c.948-4.541 5.01-7.838 9.658-7.838 3.393 0 6.508 1.719 8.332 4.598l.295.465c.967-.059 2.809-.042 4.887.825 2.002.836 3.281 2.068 3.924 2.782z"/></g></svg>