<svg id="Layer_1" enable-background="new 0 0 56.69 56.69" height="512" viewBox="0 0 56.69 56.69" width="512" xmlns="http://www.w3.org/2000/svg">
    <path fill="#ffffff"  d="m49.98 20.655c.078-.597.117-1.164.117-1.721 0-7.641-6.217-13.857-13.859-13.857-4.576 0-8.873 2.298-11.441 6.059-1.29-.665-2.718-1.014-4.184-1.014-4.743 0-8.654 3.634-9.096 8.298-4.907.84-8.507 5.045-8.507 10.117 0 5.667 4.611 10.277 10.279 10.277h30.113c5.668 0 10.277-4.61 10.277-10.277.001-3.082-1.339-5.922-3.699-7.882zm-6.578 16.159h-30.112c-4.565 0-8.279-3.713-8.279-8.277 0-4.251 3.317-7.869 7.554-8.237l.911-.12v-.917c0-3.938 3.202-7.141 7.139-7.141 1.413 0 2.781.414 3.957 1.198l.885.59.534-.92c2.121-3.647 6.047-5.913 10.249-5.913 6.539 0 11.859 5.319 11.859 11.857 0 .624-.059 1.271-.178 1.979l-.104.607.494.365c2.141 1.581 3.369 4.005 3.369 6.65 0 4.567-3.713 8.279-8.278 8.279zm-26.784 11.341-.008 2.461c-.002.552-.449.997-1 .997-.001 0-.002 0-.003 0-.553-.002-.999-.451-.997-1.003l.008-2.461c.002-.552.449-.997 1-.997h.003c.552.002.999.452.997 1.003zm.019-6-.01 3c-.002.552-.449.997-1 .997-.001 0-.002 0-.003 0-.553-.002-.999-.451-.997-1.003l.01-3c.002-.553.454-1.001 1.003-.997.553.002.999.452.997 1.003zm6.721-.001-.002 1c-.001.552-.448.998-1 .998-.001 0-.001 0-.002 0-.553-.001-.999-.449-.998-1.002l.002-1c.001-.552.448-.998 1-.998h.002c.553.001.999.45.998 1.002zm-.016 4.91-.002 1c-.001.552-.448.998-1 .998-.001 0-.001 0-.002 0-.553-.001-.999-.449-.998-1.002l.002-1c.001-.552.448-.998 1-.998h.002c.553.001.999.45.998 1.002zm6.726 1.091-.008 2.461c-.002.552-.449.997-1 .997h-.002c-.553-.002-1-.451-.998-1.003l.008-2.461c.002-.552.449-.997 1-.997h.004c.553.002.998.452.996 1.003zm.02-6-.01 3c-.002.552-.449.997-1 .997h-.002c-.553-.002-1-.451-.998-1.003l.01-3c.002-.552.449-.997 1-.997h.004c.553.002.998.452.996 1.003zm6.723.001-.004 1c-.002.551-.449.996-1 .996 0 0-.002 0-.004 0-.553-.002-.998-.451-.996-1.004l.004-1c.002-.551.449-.996 1-.996h.004c.552.002.998.452.996 1.004zm-.016 4.91-.004 1c-.002.551-.449.996-1 .996 0 0-.002 0-.004 0-.553-.002-.998-.451-.996-1.004l.004-1c.002-.551.449-.996 1-.996h.004c.553.002.998.452.996 1.004zm6.726 1.089-.008 2.461c-.002.552-.449.997-1 .997h-.002c-.553-.002-1-.451-.998-1.003l.008-2.461c.002-.552.449-.997 1-.997h.004c.553.002.998.452.996 1.003zm.018-6-.008 3c-.002.551-.449.997-1 .997-.002 0-.002 0-.004 0-.553-.002-.998-.45-.996-1.003l.008-3c.002-.552.449-.997 1-.997h.004c.553.002.998.451.996 1.003z"/></svg>