<svg id="Layer_1" enable-background="new 0 0 56.69 56.69" height="512" viewBox="0 0 56.69 56.69" width="512" xmlns="http://www.w3.org/2000/svg">
    <path fill="#ffffff"  d="m49.98 19.711c.078-.601.117-1.168.117-1.72 0-7.642-6.217-13.857-13.859-13.857-4.576 0-8.874 2.298-11.442 6.058-1.289-.665-2.717-1.013-4.183-1.013-4.743 0-8.654 3.633-9.096 8.297-4.907.839-8.507 5.045-8.507 10.118 0 5.666 4.611 10.276 10.278 10.276h30.114c5.666 0 10.277-4.61 10.277-10.276.001-3.082-1.339-5.922-3.699-7.883zm-6.578 16.159h-30.113c-4.564 0-8.278-3.713-8.278-8.276 0-4.322 3.247-7.863 7.554-8.237l.911-.12v-.917c0-3.938 3.202-7.141 7.139-7.141 1.413 0 2.781.414 3.956 1.197l.885.591.534-.92c2.121-3.647 6.048-5.913 10.25-5.913 6.539 0 11.859 5.319 11.859 11.857 0 .618-.059 1.266-.18 1.98l-.102.606.494.364c2.141 1.582 3.369 4.007 3.369 6.651 0 4.565-3.713 8.278-8.278 8.278zm-26.766 5.36-.032 10.33c-.002.552-.449.997-1 .997-.001 0-.002 0-.003 0-.553-.002-.999-.451-.997-1.003l.032-10.329c.002-.552.449-.997 1-.997h.003c.553.001.999.451.997 1.002zm6.722-.004-.022 7.215c-.002.552-.449.997-1 .997-.001 0-.002 0-.003 0-.553-.002-.999-.451-.997-1.003l.022-7.215c.002-.552.449-.997 1-.997h.003c.553.002.999.451.997 1.003zm6.73-.005-.033 10.329c-.002.552-.449.997-1 .997h-.002c-.553-.002-1-.451-.998-1.003l.033-10.329c.002-.552.449-.997 1-.997h.004c.553.002.998.451.996 1.003zm6.723-.004-.023 7.215c-.002.552-.449.997-1 .997h-.002c-.553-.002-1-.451-.998-1.003l.023-7.215c.002-.553.42-1.034 1.002-.997.552.002 1 .451.998 1.003zm6.728-.005-.031 10.329c-.002.552-.449.997-1 .997-.002 0-.002 0-.004 0-.553-.002-.998-.451-.996-1.003l.031-10.329c.002-.552.449-.997 1-.997h.004c.553.002.998.451.996 1.003z"/></svg>