<svg id="Layer_1" enable-background="new 0 0 56.69 56.69" height="512" viewBox="0 0 56.69 56.69" width="512" xmlns="http://www.w3.org/2000/svg">
    <path fill="#ffffff"  d="m49.98 19.644c.078-.601.117-1.168.117-1.721 0-7.641-6.217-13.857-13.859-13.857-4.576 0-8.874 2.298-11.442 6.059-1.289-.666-2.716-1.015-4.182-1.015-4.743 0-8.654 3.634-9.096 8.298-4.908.84-8.508 5.046-8.508 10.118 0 5.666 4.611 10.276 10.278 10.276h11.854l-3.01 5.955h6.35l-4.171 8.867 11.804-11.066-6.305.006 2.182-3.762h11.41c5.666 0 10.277-4.61 10.277-10.276.001-3.083-1.339-5.922-3.699-7.882zm-6.578 16.159h-30.113c-4.564 0-8.278-3.713-8.278-8.276 0-4.323 3.247-7.864 7.554-8.238l.911-.12v-.917c0-3.938 3.202-7.141 7.139-7.141 1.413 0 2.781.414 3.956 1.198l.885.59.534-.92c2.121-3.647 6.048-5.913 10.25-5.913 6.539 0 11.859 5.319 11.859 11.857 0 .618-.059 1.267-.18 1.981l-.102.605.494.365c2.141 1.582 3.369 4.006 3.369 6.651 0 4.565-3.713 8.278-8.278 8.278z"/></svg>