<svg id="Layer_1" enable-background="new 0 0 56.69 56.69" height="512" viewBox="0 0 56.69 56.69" width="512" xmlns="http://www.w3.org/2000/svg">
    <path fill="#ffffff"  d="m53.033 28.345c0 .553-.447 1-1 1h-5.287l4.057 4.057c.391.391.391 1.023 0 1.414-.195.195-.451.293-.707.293s-.512-.098-.707-.293l-5.471-5.471h-13.841l6.858 11.879 7.644 2.048c.533.143.85.691.707 1.225-.119.446-.523.741-.965.741-.086 0-.173-.011-.26-.034l-5.712-1.53 2.706 4.688c.276.479.112 1.09-.366 1.366-.157.091-.329.134-.499.134-.346 0-.682-.179-.867-.5l-2.643-4.577-1.484 5.539c-.119.446-.523.741-.965.741-.086 0-.173-.011-.26-.034-.533-.143-.85-.691-.707-1.225l2.002-7.471-6.922-11.988-6.857 11.877 2.049 7.644c.144.533-.174 1.082-.707 1.225-.087.023-.174.034-.26.034-.441 0-.845-.294-.965-.741l-1.531-5.712-2.706 4.688c-.186.32-.521.5-.867.5-.17 0-.342-.043-.499-.134-.479-.276-.643-.888-.366-1.366l2.643-4.578-5.539 1.484c-.087.023-.174.034-.26.034-.441 0-.846-.294-.965-.741-.143-.533.174-1.082.707-1.225l7.471-2.002 6.922-11.987h-13.716l-5.595 5.593c-.195.195-.451.293-.707.293s-.512-.098-.707-.293c-.391-.391-.391-1.023 0-1.414l4.182-4.182h-5.414c-.552 0-1-.447-1-1 0-.552.448-1 1-1h5.287l-4.055-4.054c-.391-.391-.391-1.023 0-1.414s1.023-.391 1.414 0l5.47 5.47h13.84l-6.856-11.877-7.644-2.048c-.533-.143-.85-.691-.707-1.225.144-.534.692-.85 1.225-.707l5.711 1.531-2.705-4.686c-.276-.479-.112-1.09.366-1.366.477-.276 1.089-.113 1.366.366l2.644 4.578 1.484-5.542c.143-.534.693-.852 1.225-.707.533.143.85.691.707 1.225l-2.002 7.474 6.919 11.985 6.858-11.878-2.048-7.643c-.143-.534.174-1.082.707-1.225.534-.142 1.082.174 1.225.707l1.53 5.711 2.705-4.686c.276-.479.889-.643 1.366-.366.479.276.643.888.366 1.366l-2.644 4.58 5.542-1.486c.535-.143 1.081.173 1.225.707.144.533-.174 1.082-.707 1.225l-7.475 2.003-6.919 11.985h13.717l5.595-5.595c.391-.391 1.023-.391 1.414 0s.391 1.023 0 1.414l-4.181 4.181h5.411c.553-.002 1 .446 1 .998z"/></svg>